<?xml version="1.0" standalone="no"?>
 <!DOCTYPE svg PUBLIC "-//W3C//DTD SVG 1.1//EN" 
 "http://www.w3.org/Graphics/SVG/1.1/DTD/svg11.dtd"> 
<svg xmlns="http://www.w3.org/2000/svg" version="1.1" 
    width="29.7002cm" height="21.0007cm" viewBox="0 0 116930 82680 ">
<title>SVG Picture created as DAC-AK4458-1.0-drl_map.svg date 2019/04/03 21:41:01 </title>
  <desc>Picture generated by PCBNEW </desc>
<g style="fill:#000000; fill-opacity:1;stroke:#000000; stroke-opacity:1;
stroke-linecap:round; stroke-linejoin:round; "
 transform="translate(0 0) scale(1 1)">
</g>
<g style="fill:#000000; fill-opacity:0.0; 
stroke:#000000; stroke-width:-0.000393701; stroke-opacity:1; 
stroke-linecap:round; stroke-linejoin:round;">
</g>
<g style="fill:#000000; fill-opacity:0.0; 
stroke:#000000; stroke-width:59.0551; stroke-opacity:1; 
stroke-linecap:round; stroke-linejoin:round;">
<path d="M80708 59055
L41338 59055
" />
<path d="M80708 19685
L80708 59055
" />
<path d="M41338 19685
L80708 19685
" />
<path d="M41338 59055
L41338 19685
" />
</g>
<g style="fill:#000000; fill-opacity:0.0; 
stroke:#000000; stroke-width:78.7402; stroke-opacity:1; 
stroke-linecap:round; stroke-linejoin:round;">
<path d="M60492 38208
L60610 38326
" />
<path d="M60610 38208
L60492 38326
" />
<path d="M60492 39783
L60610 39901
" />
<path d="M60610 39783
L60492 39901
" />
<path d="M62066 38208
L62185 38326
" />
<path d="M62185 38208
L62066 38326
" />
<path d="M62066 39783
L62185 39901
" />
<path d="M62185 39783
L62066 39901
" />
<circle cx="42007.9" cy="23700.8" r="98.4252" /> 
<circle cx="42007.9" cy="28464.6" r="98.4252" /> 
<circle cx="45275.6" cy="20354.3" r="98.4252" /> 
<circle cx="46063" cy="22716.5" r="98.4252" /> 
<circle cx="46378" cy="45236.2" r="98.4252" /> 
<circle cx="46417.3" cy="50787.4" r="98.4252" /> 
<circle cx="46588.6" cy="24305.1" r="98.4252" /> 
<circle cx="46838.6" cy="25805.1" r="98.4252" /> 
<circle cx="46838.6" cy="26805.1" r="98.4252" /> 
<circle cx="47244.1" cy="33385.8" r="98.4252" /> 
<circle cx="47271.7" cy="43791.3" r="98.4252" /> 
<circle cx="47283.5" cy="31811" r="98.4252" /> 
<circle cx="47283.5" cy="36220.5" r="98.4252" /> 
<circle cx="47283.5" cy="40826.8" r="98.4252" /> 
<circle cx="47283.5" cy="45236.2" r="98.4252" /> 
<circle cx="47283.5" cy="47913.4" r="98.4252" /> 
<circle cx="47283.5" cy="49370.1" r="98.4252" /> 
<circle cx="47283.5" cy="52322.8" r="98.4252" /> 
<circle cx="47637.8" cy="34881.9" r="98.4252" /> 
<circle cx="47834.6" cy="53031.5" r="98.4252" /> 
<circle cx="47838.6" cy="21305.1" r="98.4252" /> 
<circle cx="49088.6" cy="29055.1" r="98.4252" /> 
<circle cx="49133.9" cy="53622" r="98.4252" /> 
<circle cx="49338.6" cy="25555.1" r="98.4252" /> 
<circle cx="49409.4" cy="24133.9" r="98.4252" /> 
<circle cx="49606.3" cy="42559.1" r="98.4252" /> 
<circle cx="50157.5" cy="31063" r="98.4252" /> 
<circle cx="50236.2" cy="20354.3" r="98.4252" /> 
<circle cx="50275.6" cy="45551.2" r="98.4252" /> 
<circle cx="50338.6" cy="26555.1" r="98.4252" /> 
<circle cx="50338.6" cy="27055.1" r="98.4252" /> 
<circle cx="50393.7" cy="41535.4" r="98.4252" /> 
<circle cx="50472.4" cy="43267.7" r="98.4252" /> 
<circle cx="50480.3" cy="43929.1" r="98.4252" /> 
<circle cx="50905.5" cy="40826.8" r="98.4252" /> 
<circle cx="50984.3" cy="42598.4" r="98.4252" /> 
<circle cx="51181.1" cy="53582.7" r="98.4252" /> 
<circle cx="51181.1" cy="54488.2" r="98.4252" /> 
<circle cx="51738.6" cy="48255.1" r="98.4252" /> 
<circle cx="51838.6" cy="28055.1" r="98.4252" /> 
<circle cx="51838.6" cy="29555.1" r="98.4252" /> 
<circle cx="51838.6" cy="30555.1" r="98.4252" /> 
<circle cx="51838.6" cy="31555.1" r="98.4252" /> 
<circle cx="51838.6" cy="32805.1" r="98.4252" /> 
<circle cx="51838.6" cy="33555.1" r="98.4252" /> 
<circle cx="51850.4" cy="36063" r="98.4252" /> 
<circle cx="52338.6" cy="40055.1" r="98.4252" /> 
<circle cx="52338.6" cy="50305.1" r="98.4252" /> 
<circle cx="52440.9" cy="45551.2" r="98.4252" /> 
<circle cx="53838.6" cy="25555.1" r="98.4252" /> 
<circle cx="53838.6" cy="27555.1" r="98.4252" /> 
<circle cx="53838.6" cy="29555.1" r="98.4252" /> 
<circle cx="53838.6" cy="31555.1" r="98.4252" /> 
<circle cx="54377.7" cy="41692.1" r="98.4252" /> 
<circle cx="54488.2" cy="53582.7" r="98.4252" /> 
<circle cx="54527.6" cy="36811" r="98.4252" /> 
<circle cx="54645.7" cy="30748" r="98.4252" /> 
<circle cx="54763.8" cy="43346.5" r="98.4252" /> 
<circle cx="54763.8" cy="45236.2" r="98.4252" /> 
<circle cx="54763.8" cy="48228.3" r="98.4252" /> 
<circle cx="54763.8" cy="49881.9" r="98.4252" /> 
<circle cx="55007.9" cy="20885.8" r="98.4252" /> 
<circle cx="55157.5" cy="42244.1" r="98.4252" /> 
<circle cx="55354.3" cy="24685" r="98.4252" /> 
<circle cx="56102.4" cy="35748" r="98.4252" /> 
<circle cx="56220.5" cy="23818.9" r="98.4252" /> 
<circle cx="56456.7" cy="42283.5" r="98.4252" /> 
<circle cx="56574.8" cy="56023.6" r="98.4252" /> 
<circle cx="56692.9" cy="45196.9" r="98.4252" /> 
<circle cx="56838.6" cy="30055.1" r="98.4252" /> 
<circle cx="56968.5" cy="36456.7" r="98.4252" /> 
<circle cx="57204.7" cy="48189" r="98.4252" /> 
<circle cx="57338.6" cy="54055.1" r="98.4252" /> 
<circle cx="57401.6" cy="31614.2" r="98.4252" /> 
<circle cx="57588.6" cy="35755.1" r="98.4252" /> 
<circle cx="57755.9" cy="42244.1" r="98.4252" /> 
<circle cx="57795.3" cy="43031.5" r="98.4252" /> 
<circle cx="58228.3" cy="36299.2" r="98.4252" /> 
<circle cx="58307.1" cy="24114.2" r="98.4252" /> 
<circle cx="59094.5" cy="35708.7" r="98.4252" /> 
<circle cx="59252" cy="44252" r="98.4252" /> 
<circle cx="59606.3" cy="24173.2" r="98.4252" /> 
<circle cx="60236.2" cy="29370.1" r="98.4252" /> 
<circle cx="60236.2" cy="29803.1" r="98.4252" /> 
<circle cx="60236.2" cy="30236.2" r="98.4252" /> 
<circle cx="60338.6" cy="53055.1" r="98.4252" /> 
<circle cx="60511.8" cy="48189" r="98.4252" /> 
<circle cx="60629.9" cy="28976.4" r="98.4252" /> 
<circle cx="60826.8" cy="24173.2" r="98.4252" /> 
<circle cx="61122" cy="35531.5" r="98.4252" /> 
<circle cx="61338.6" cy="26574.8" r="98.4252" /> 
<circle cx="61338.6" cy="28149.6" r="98.4252" /> 
<circle cx="61338.6" cy="28976.4" r="98.4252" /> 
<circle cx="61811" cy="32322.8" r="98.4252" /> 
<circle cx="61838.6" cy="54055.1" r="98.4252" /> 
<circle cx="61889.8" cy="45315" r="98.4252" /> 
<circle cx="61968.5" cy="28976.4" r="98.4252" /> 
<circle cx="62362.2" cy="24173.2" r="98.4252" /> 
<circle cx="62440.9" cy="29370.1" r="98.4252" /> 
<circle cx="62440.9" cy="29803.1" r="98.4252" /> 
<circle cx="62440.9" cy="30236.2" r="98.4252" /> 
<circle cx="63110.2" cy="29055.1" r="98.4252" /> 
<circle cx="63338.6" cy="54055.1" r="98.4252" /> 
<circle cx="63543.3" cy="36023.6" r="98.4252" /> 
<circle cx="63779.5" cy="30236.2" r="98.4252" /> 
<circle cx="63818.9" cy="24173.2" r="98.4252" /> 
<circle cx="64212.6" cy="45315" r="98.4252" /> 
<circle cx="64330.7" cy="37401.6" r="98.4252" /> 
<circle cx="64588.6" cy="48055.1" r="98.4252" /> 
<circle cx="64838.6" cy="54055.1" r="98.4252" /> 
<circle cx="64938.6" cy="33230.1" r="98.4252" /> 
<circle cx="65088.6" cy="45180.1" r="98.4252" /> 
<circle cx="65354.3" cy="40000" r="98.4252" /> 
<circle cx="65590.6" cy="30236.2" r="98.4252" /> 
<circle cx="65590.6" cy="51732.3" r="98.4252" /> 
<circle cx="65748" cy="49409.4" r="98.4252" /> 
<circle cx="66688.6" cy="46755.1" r="98.4252" /> 
<circle cx="66692.9" cy="40000" r="98.4252" /> 
<circle cx="66968.5" cy="30236.2" r="98.4252" /> 
<circle cx="67007.9" cy="52755.9" r="98.4252" /> 
<circle cx="67086.6" cy="55413.4" r="98.4252" /> 
<circle cx="67165.4" cy="36850.4" r="98.4252" /> 
<circle cx="67165.4" cy="37992.1" r="98.4252" /> 
<circle cx="67204.7" cy="34566.9" r="98.4252" /> 
<circle cx="67204.7" cy="43503.9" r="98.4252" /> 
<circle cx="67988.6" cy="44930.1" r="98.4252" /> 
<circle cx="68189" cy="30236.2" r="98.4252" /> 
<circle cx="68385.8" cy="52047.2" r="98.4252" /> 
<circle cx="68503.9" cy="56299.2" r="98.4252" /> 
<circle cx="68613.6" cy="47930.1" r="98.4252" /> 
<circle cx="68641.7" cy="23543.3" r="98.4252" /> 
<circle cx="68661.4" cy="20826.8" r="98.4252" /> 
<circle cx="69163.6" cy="46305.1" r="98.4252" /> 
<circle cx="69213.6" cy="50005.1" r="98.4252" /> 
<circle cx="69363.6" cy="41380.1" r="98.4252" /> 
<circle cx="69388.6" cy="37730.1" r="98.4252" /> 
<circle cx="69438.6" cy="28055.1" r="98.4252" /> 
<circle cx="70196.9" cy="20354.3" r="98.4252" /> 
<circle cx="71488.6" cy="42580.1" r="98.4252" /> 
<circle cx="71488.6" cy="46580.1" r="98.4252" /> 
<circle cx="71488.6" cy="50555.1" r="98.4252" /> 
<circle cx="71488.6" cy="54580.1" r="98.4252" /> 
<circle cx="71513.6" cy="24055.1" r="98.4252" /> 
<circle cx="71513.6" cy="28055.1" r="98.4252" /> 
<circle cx="71513.6" cy="32080.1" r="98.4252" /> 
<circle cx="71513.6" cy="36080.1" r="98.4252" /> 
<circle cx="71913.6" cy="40780.1" r="98.4252" /> 
<circle cx="71938.6" cy="38605.1" r="98.4252" /> 
<circle cx="72363.6" cy="44555.1" r="98.4252" /> 
<circle cx="72363.6" cy="48555.1" r="98.4252" /> 
<circle cx="72363.6" cy="52555.1" r="98.4252" /> 
<circle cx="72888.6" cy="26105.1" r="98.4252" /> 
<circle cx="72888.6" cy="30105.1" r="98.4252" /> 
<circle cx="72888.6" cy="34130.1" r="98.4252" /> 
<circle cx="73464.6" cy="40787.4" r="98.4252" /> 
<circle cx="74133.9" cy="39960.6" r="98.4252" /> 
<circle cx="74163.6" cy="24055.1" r="98.4252" /> 
<circle cx="74163.6" cy="28055.1" r="98.4252" /> 
<circle cx="74163.6" cy="32055.1" r="98.4252" /> 
<circle cx="74163.6" cy="36030.1" r="98.4252" /> 
<circle cx="74163.6" cy="42505.1" r="98.4252" /> 
<circle cx="74163.6" cy="46555.1" r="98.4252" /> 
<circle cx="74163.6" cy="50555.1" r="98.4252" /> 
<circle cx="74163.6" cy="54555.1" r="98.4252" /> 
<circle cx="74212.6" cy="20315" r="98.4252" /> 
<circle cx="74338.6" cy="38705.1" r="98.4252" /> 
<circle cx="74488.2" cy="58425.2" r="98.4252" /> 
<circle cx="75688.6" cy="20730.1" r="98.4252" /> 
<circle cx="76588.6" cy="40305.1" r="98.4252" /> 
<circle cx="76613.6" cy="37530.1" r="98.4252" /> 
<circle cx="76738.6" cy="22405.1" r="98.4252" /> 
<circle cx="77086.6" cy="58425.2" r="98.4252" /> 
<circle cx="79713.6" cy="37355.1" r="98.4252" /> 
<circle cx="79713.6" cy="41080.1" r="98.4252" /> 
<circle cx="79863.6" cy="23105.1" r="98.4252" /> 
<circle cx="80013.6" cy="55955.1" r="98.4252" /> 
<path d="M57946 32389
L57946 32704
" />
<path d="M57788 32547
L58103 32547
" />
<path d="M58930 32389
L58930 32704
" />
<path d="M58773 32547
L59088 32547
" />
<path d="M62838 33313
L62838 33628
" />
<path d="M62681 33470
L62996 33470
" />
<path d="M62838 34297
L62838 34612
" />
<path d="M62681 34455
L62996 34455
" />
<path d="M49649 22397
L49649 22712
" />
<path d="M49492 22555
L49807 22555
" />
<path d="M51027 22397
L51027 22712
" />
<path d="M50870 22555
L51185 22555
" />
<path d="M65763 35822
L65763 36137
" />
<path d="M65606 35980
L65921 35980
" />
<path d="M66747 35822
L66747 36137
" />
<path d="M66590 35980
L66905 35980
" />
<path d="M65738 41947
L65738 42262
" />
<path d="M65581 42105
L65896 42105
" />
<path d="M66722 41947
L66722 42262
" />
<path d="M66565 42105
L66880 42105
" />
<path d="M62838 43597
L62838 43912
" />
<path d="M62681 43755
L62996 43755
" />
<path d="M62838 44581
L62838 44896
" />
<path d="M62681 44739
L62996 44739
" />
<path d="M50338 33905
L50338 34220
" />
<path d="M50181 34062
L50496 34062
" />
<path d="M50338 34889
L50338 35204
" />
<path d="M50181 35047
L50496 35047
" />
<path d="M64838 27208
L64838 27523
" />
<path d="M64681 27366
L64996 27366
" />
<path d="M64838 28586
L64838 28901
" />
<path d="M64681 28744
L64996 28744
" />
<path d="M57338 24655
L57338 24970
" />
<path d="M57181 24812
L57496 24812
" />
<path d="M57338 25639
L57338 25954
" />
<path d="M57181 25797
L57496 25797
" />
<path d="M54846 32397
L54846 32712
" />
<path d="M54688 32555
L55003 32555
" />
<path d="M55830 32397
L55830 32712
" />
<path d="M55673 32555
L55988 32555
" />
<path d="M68863 38447
L68863 38762
" />
<path d="M68706 38605
L69021 38605
" />
<path d="M68863 39431
L68863 39746
" />
<path d="M68706 39589
L69021 39589
" />
<path d="M66899 21897
L66899 22212
" />
<path d="M66742 22055
L67057 22055
" />
<path d="M68277 21897
L68277 22212
" />
<path d="M68120 22055
L68435 22055
" />
<path style="fill:#000000; fill-opacity:0.0; 
stroke:#000000; stroke-width:78.7402; stroke-opacity:1; 
stroke-linecap:round; stroke-linejoin:round;fill:none"
d="M 43477,40694
43477,40415
43199,40415
43199,40694
43477,40694
Z" /> 
<path style="fill:#000000; fill-opacity:0.0; 
stroke:#000000; stroke-width:78.7402; stroke-opacity:1; 
stroke-linecap:round; stroke-linejoin:round;fill:none"
d="M 43477,41694
43477,41415
43199,41415
43199,41694
43477,41694
Z" /> 
<path style="fill:#000000; fill-opacity:0.0; 
stroke:#000000; stroke-width:78.7402; stroke-opacity:1; 
stroke-linecap:round; stroke-linejoin:round;fill:none"
d="M 43477,42694
43477,42415
43199,42415
43199,42694
43477,42694
Z" /> 
<path style="fill:#000000; fill-opacity:0.0; 
stroke:#000000; stroke-width:78.7402; stroke-opacity:1; 
stroke-linecap:round; stroke-linejoin:round;fill:none"
d="M 43477,43694
43477,43415
43199,43415
43199,43694
43477,43694
Z" /> 
<path style="fill:#000000; fill-opacity:0.0; 
stroke:#000000; stroke-width:78.7402; stroke-opacity:1; 
stroke-linecap:round; stroke-linejoin:round;fill:none"
d="M 43477,44694
43477,44415
43199,44415
43199,44694
43477,44694
Z" /> 
<path style="fill:#000000; fill-opacity:0.0; 
stroke:#000000; stroke-width:78.7402; stroke-opacity:1; 
stroke-linecap:round; stroke-linejoin:round;fill:none"
d="M 44477,40694
44477,40415
44199,40415
44199,40694
44477,40694
Z" /> 
<path style="fill:#000000; fill-opacity:0.0; 
stroke:#000000; stroke-width:78.7402; stroke-opacity:1; 
stroke-linecap:round; stroke-linejoin:round;fill:none"
d="M 44477,41694
44477,41415
44199,41415
44199,41694
44477,41694
Z" /> 
<path style="fill:#000000; fill-opacity:0.0; 
stroke:#000000; stroke-width:78.7402; stroke-opacity:1; 
stroke-linecap:round; stroke-linejoin:round;fill:none"
d="M 44477,42694
44477,42415
44199,42415
44199,42694
44477,42694
Z" /> 
<path style="fill:#000000; fill-opacity:0.0; 
stroke:#000000; stroke-width:78.7402; stroke-opacity:1; 
stroke-linecap:round; stroke-linejoin:round;fill:none"
d="M 44477,43694
44477,43415
44199,43415
44199,43694
44477,43694
Z" /> 
<path style="fill:#000000; fill-opacity:0.0; 
stroke:#000000; stroke-width:78.7402; stroke-opacity:1; 
stroke-linecap:round; stroke-linejoin:round;fill:none"
d="M 44477,44694
44477,44415
44199,44415
44199,44694
44477,44694
Z" /> 
<path style="fill:#000000; fill-opacity:0.0; 
stroke:#000000; stroke-width:78.7402; stroke-opacity:1; 
stroke-linecap:round; stroke-linejoin:round;fill:none"
d="M 45477,56694
45477,56415
45199,56415
45199,56694
45477,56694
Z" /> 
<path style="fill:#000000; fill-opacity:0.0; 
stroke:#000000; stroke-width:78.7402; stroke-opacity:1; 
stroke-linecap:round; stroke-linejoin:round;fill:none"
d="M 45477,57694
45477,57415
45199,57415
45199,57694
45477,57694
Z" /> 
<path style="fill:#000000; fill-opacity:0.0; 
stroke:#000000; stroke-width:78.7402; stroke-opacity:1; 
stroke-linecap:round; stroke-linejoin:round;fill:none"
d="M 42977,25194
42977,24915
42699,24915
42699,25194
42977,25194
Z" /> 
<path style="fill:#000000; fill-opacity:0.0; 
stroke:#000000; stroke-width:78.7402; stroke-opacity:1; 
stroke-linecap:round; stroke-linejoin:round;fill:none"
d="M 42977,26194
42977,25915
42699,25915
42699,26194
42977,26194
Z" /> 
<path style="fill:#000000; fill-opacity:0.0; 
stroke:#000000; stroke-width:78.7402; stroke-opacity:1; 
stroke-linecap:round; stroke-linejoin:round;fill:none"
d="M 42977,27194
42977,26915
42699,26915
42699,27194
42977,27194
Z" /> 
<path style="fill:#000000; fill-opacity:0.0; 
stroke:#000000; stroke-width:78.7402; stroke-opacity:1; 
stroke-linecap:round; stroke-linejoin:round;fill:none"
d="M 43477,49194
43477,48915
43199,48915
43199,49194
43477,49194
Z" /> 
<path style="fill:#000000; fill-opacity:0.0; 
stroke:#000000; stroke-width:78.7402; stroke-opacity:1; 
stroke-linecap:round; stroke-linejoin:round;fill:none"
d="M 43477,50194
43477,49915
43199,49915
43199,50194
43477,50194
Z" /> 
<path style="fill:#000000; fill-opacity:0.0; 
stroke:#000000; stroke-width:78.7402; stroke-opacity:1; 
stroke-linecap:round; stroke-linejoin:round;fill:none"
d="M 43477,51194
43477,50915
43199,50915
43199,51194
43477,51194
Z" /> 
<path style="fill:#000000; fill-opacity:0.0; 
stroke:#000000; stroke-width:78.7402; stroke-opacity:1; 
stroke-linecap:round; stroke-linejoin:round;fill:none"
d="M 43477,52194
43477,51915
43199,51915
43199,52194
43477,52194
Z" /> 
<path style="fill:#000000; fill-opacity:0.0; 
stroke:#000000; stroke-width:78.7402; stroke-opacity:1; 
stroke-linecap:round; stroke-linejoin:round;fill:none"
d="M 43477,53194
43477,52915
43199,52915
43199,53194
43477,53194
Z" /> 
<path style="fill:#000000; fill-opacity:0.0; 
stroke:#000000; stroke-width:78.7402; stroke-opacity:1; 
stroke-linecap:round; stroke-linejoin:round;fill:none"
d="M 44477,49194
44477,48915
44199,48915
44199,49194
44477,49194
Z" /> 
<path style="fill:#000000; fill-opacity:0.0; 
stroke:#000000; stroke-width:78.7402; stroke-opacity:1; 
stroke-linecap:round; stroke-linejoin:round;fill:none"
d="M 44477,50194
44477,49915
44199,49915
44199,50194
44477,50194
Z" /> 
<path style="fill:#000000; fill-opacity:0.0; 
stroke:#000000; stroke-width:78.7402; stroke-opacity:1; 
stroke-linecap:round; stroke-linejoin:round;fill:none"
d="M 44477,51194
44477,50915
44199,50915
44199,51194
44477,51194
Z" /> 
<path style="fill:#000000; fill-opacity:0.0; 
stroke:#000000; stroke-width:78.7402; stroke-opacity:1; 
stroke-linecap:round; stroke-linejoin:round;fill:none"
d="M 44477,52194
44477,51915
44199,51915
44199,52194
44477,52194
Z" /> 
<path style="fill:#000000; fill-opacity:0.0; 
stroke:#000000; stroke-width:78.7402; stroke-opacity:1; 
stroke-linecap:round; stroke-linejoin:round;fill:none"
d="M 44477,53194
44477,52915
44199,52915
44199,53194
44477,53194
Z" /> 
<path style="fill:#000000; fill-opacity:0.0; 
stroke:#000000; stroke-width:78.7402; stroke-opacity:1; 
stroke-linecap:round; stroke-linejoin:round;fill:none"
d="M 61977,57194
61977,56915
61699,56915
61699,57194
61977,57194
Z" /> 
<path style="fill:#000000; fill-opacity:0.0; 
stroke:#000000; stroke-width:78.7402; stroke-opacity:1; 
stroke-linecap:round; stroke-linejoin:round;fill:none"
d="M 61977,58194
61977,57915
61699,57915
61699,58194
61977,58194
Z" /> 
<path style="fill:#000000; fill-opacity:0.0; 
stroke:#000000; stroke-width:78.7402; stroke-opacity:1; 
stroke-linecap:round; stroke-linejoin:round;fill:none"
d="M 66477,57194
66477,56915
66199,56915
66199,57194
66477,57194
Z" /> 
<path style="fill:#000000; fill-opacity:0.0; 
stroke:#000000; stroke-width:78.7402; stroke-opacity:1; 
stroke-linecap:round; stroke-linejoin:round;fill:none"
d="M 66477,58194
66477,57915
66199,57915
66199,58194
66477,58194
Z" /> 
<path style="fill:#000000; fill-opacity:0.0; 
stroke:#000000; stroke-width:78.7402; stroke-opacity:1; 
stroke-linecap:round; stroke-linejoin:round;fill:none"
d="M 43477,32194
43477,31915
43199,31915
43199,32194
43477,32194
Z" /> 
<path style="fill:#000000; fill-opacity:0.0; 
stroke:#000000; stroke-width:78.7402; stroke-opacity:1; 
stroke-linecap:round; stroke-linejoin:round;fill:none"
d="M 43477,33194
43477,32915
43199,32915
43199,33194
43477,33194
Z" /> 
<path style="fill:#000000; fill-opacity:0.0; 
stroke:#000000; stroke-width:78.7402; stroke-opacity:1; 
stroke-linecap:round; stroke-linejoin:round;fill:none"
d="M 43477,34194
43477,33915
43199,33915
43199,34194
43477,34194
Z" /> 
<path style="fill:#000000; fill-opacity:0.0; 
stroke:#000000; stroke-width:78.7402; stroke-opacity:1; 
stroke-linecap:round; stroke-linejoin:round;fill:none"
d="M 43477,35194
43477,34915
43199,34915
43199,35194
43477,35194
Z" /> 
<path style="fill:#000000; fill-opacity:0.0; 
stroke:#000000; stroke-width:78.7402; stroke-opacity:1; 
stroke-linecap:round; stroke-linejoin:round;fill:none"
d="M 43477,36194
43477,35915
43199,35915
43199,36194
43477,36194
Z" /> 
<path style="fill:#000000; fill-opacity:0.0; 
stroke:#000000; stroke-width:78.7402; stroke-opacity:1; 
stroke-linecap:round; stroke-linejoin:round;fill:none"
d="M 44477,32194
44477,31915
44199,31915
44199,32194
44477,32194
Z" /> 
<path style="fill:#000000; fill-opacity:0.0; 
stroke:#000000; stroke-width:78.7402; stroke-opacity:1; 
stroke-linecap:round; stroke-linejoin:round;fill:none"
d="M 44477,33194
44477,32915
44199,32915
44199,33194
44477,33194
Z" /> 
<path style="fill:#000000; fill-opacity:0.0; 
stroke:#000000; stroke-width:78.7402; stroke-opacity:1; 
stroke-linecap:round; stroke-linejoin:round;fill:none"
d="M 44477,34194
44477,33915
44199,33915
44199,34194
44477,34194
Z" /> 
<path style="fill:#000000; fill-opacity:0.0; 
stroke:#000000; stroke-width:78.7402; stroke-opacity:1; 
stroke-linecap:round; stroke-linejoin:round;fill:none"
d="M 44477,35194
44477,34915
44199,34915
44199,35194
44477,35194
Z" /> 
<path style="fill:#000000; fill-opacity:0.0; 
stroke:#000000; stroke-width:78.7402; stroke-opacity:1; 
stroke-linecap:round; stroke-linejoin:round;fill:none"
d="M 44477,36194
44477,35915
44199,35915
44199,36194
44477,36194
Z" /> 
<path style="fill:#000000; fill-opacity:0.0; 
stroke:#000000; stroke-width:78.7402; stroke-opacity:1; 
stroke-linecap:round; stroke-linejoin:round;fill:none"
d="M 49977,56694
49977,56415
49699,56415
49699,56694
49977,56694
Z" /> 
<path style="fill:#000000; fill-opacity:0.0; 
stroke:#000000; stroke-width:78.7402; stroke-opacity:1; 
stroke-linecap:round; stroke-linejoin:round;fill:none"
d="M 49977,57694
49977,57415
49699,57415
49699,57694
49977,57694
Z" /> 
<path style="fill:#000000; fill-opacity:0.0; 
stroke:#000000; stroke-width:78.7402; stroke-opacity:1; 
stroke-linecap:round; stroke-linejoin:round;fill:none"
d="M 50977,56694
50977,56415
50699,56415
50699,56694
50977,56694
Z" /> 
<path style="fill:#000000; fill-opacity:0.0; 
stroke:#000000; stroke-width:78.7402; stroke-opacity:1; 
stroke-linecap:round; stroke-linejoin:round;fill:none"
d="M 50977,57694
50977,57415
50699,57415
50699,57694
50977,57694
Z" /> 
<path style="fill:#000000; fill-opacity:0.0; 
stroke:#000000; stroke-width:78.7402; stroke-opacity:1; 
stroke-linecap:round; stroke-linejoin:round;fill:none"
d="M 51977,56694
51977,56415
51699,56415
51699,56694
51977,56694
Z" /> 
<path style="fill:#000000; fill-opacity:0.0; 
stroke:#000000; stroke-width:78.7402; stroke-opacity:1; 
stroke-linecap:round; stroke-linejoin:round;fill:none"
d="M 51977,57694
51977,57415
51699,57415
51699,57694
51977,57694
Z" /> 
<path style="fill:#000000; fill-opacity:0.0; 
stroke:#000000; stroke-width:78.7402; stroke-opacity:1; 
stroke-linecap:round; stroke-linejoin:round;fill:none"
d="M 52977,56694
52977,56415
52699,56415
52699,56694
52977,56694
Z" /> 
<path style="fill:#000000; fill-opacity:0.0; 
stroke:#000000; stroke-width:78.7402; stroke-opacity:1; 
stroke-linecap:round; stroke-linejoin:round;fill:none"
d="M 52977,57694
52977,57415
52699,57415
52699,57694
52977,57694
Z" /> 
<path style="fill:#000000; fill-opacity:0.0; 
stroke:#000000; stroke-width:78.7402; stroke-opacity:1; 
stroke-linecap:round; stroke-linejoin:round;fill:none"
d="M 53977,56694
53977,56415
53699,56415
53699,56694
53977,56694
Z" /> 
<path style="fill:#000000; fill-opacity:0.0; 
stroke:#000000; stroke-width:78.7402; stroke-opacity:1; 
stroke-linecap:round; stroke-linejoin:round;fill:none"
d="M 53977,57694
53977,57415
53699,57415
53699,57694
53977,57694
Z" /> 
<path style="fill:#000000; fill-opacity:0.0; 
stroke:#000000; stroke-width:78.7402; stroke-opacity:1; 
stroke-linecap:round; stroke-linejoin:round;fill:none"
d="M 77977,44194
77977,43915
77699,43915
77699,44194
77977,44194
Z" /> 
<path style="fill:#000000; fill-opacity:0.0; 
stroke:#000000; stroke-width:78.7402; stroke-opacity:1; 
stroke-linecap:round; stroke-linejoin:round;fill:none"
d="M 77977,45194
77977,44915
77699,44915
77699,45194
77977,45194
Z" /> 
<path style="fill:#000000; fill-opacity:0.0; 
stroke:#000000; stroke-width:78.7402; stroke-opacity:1; 
stroke-linecap:round; stroke-linejoin:round;fill:none"
d="M 77977,46194
77977,45915
77699,45915
77699,46194
77977,46194
Z" /> 
<path style="fill:#000000; fill-opacity:0.0; 
stroke:#000000; stroke-width:78.7402; stroke-opacity:1; 
stroke-linecap:round; stroke-linejoin:round;fill:none"
d="M 77977,47194
77977,46915
77699,46915
77699,47194
77977,47194
Z" /> 
<path style="fill:#000000; fill-opacity:0.0; 
stroke:#000000; stroke-width:78.7402; stroke-opacity:1; 
stroke-linecap:round; stroke-linejoin:round;fill:none"
d="M 77977,48194
77977,47915
77699,47915
77699,48194
77977,48194
Z" /> 
<path style="fill:#000000; fill-opacity:0.0; 
stroke:#000000; stroke-width:78.7402; stroke-opacity:1; 
stroke-linecap:round; stroke-linejoin:round;fill:none"
d="M 77977,49194
77977,48915
77699,48915
77699,49194
77977,49194
Z" /> 
<path style="fill:#000000; fill-opacity:0.0; 
stroke:#000000; stroke-width:78.7402; stroke-opacity:1; 
stroke-linecap:round; stroke-linejoin:round;fill:none"
d="M 77977,50194
77977,49915
77699,49915
77699,50194
77977,50194
Z" /> 
<path style="fill:#000000; fill-opacity:0.0; 
stroke:#000000; stroke-width:78.7402; stroke-opacity:1; 
stroke-linecap:round; stroke-linejoin:round;fill:none"
d="M 77977,51194
77977,50915
77699,50915
77699,51194
77977,51194
Z" /> 
<path style="fill:#000000; fill-opacity:0.0; 
stroke:#000000; stroke-width:78.7402; stroke-opacity:1; 
stroke-linecap:round; stroke-linejoin:round;fill:none"
d="M 77977,52194
77977,51915
77699,51915
77699,52194
77977,52194
Z" /> 
<path style="fill:#000000; fill-opacity:0.0; 
stroke:#000000; stroke-width:78.7402; stroke-opacity:1; 
stroke-linecap:round; stroke-linejoin:round;fill:none"
d="M 77977,53194
77977,52915
77699,52915
77699,53194
77977,53194
Z" /> 
<path style="fill:#000000; fill-opacity:0.0; 
stroke:#000000; stroke-width:78.7402; stroke-opacity:1; 
stroke-linecap:round; stroke-linejoin:round;fill:none"
d="M 78977,44194
78977,43915
78699,43915
78699,44194
78977,44194
Z" /> 
<path style="fill:#000000; fill-opacity:0.0; 
stroke:#000000; stroke-width:78.7402; stroke-opacity:1; 
stroke-linecap:round; stroke-linejoin:round;fill:none"
d="M 78977,45194
78977,44915
78699,44915
78699,45194
78977,45194
Z" /> 
<path style="fill:#000000; fill-opacity:0.0; 
stroke:#000000; stroke-width:78.7402; stroke-opacity:1; 
stroke-linecap:round; stroke-linejoin:round;fill:none"
d="M 78977,46194
78977,45915
78699,45915
78699,46194
78977,46194
Z" /> 
<path style="fill:#000000; fill-opacity:0.0; 
stroke:#000000; stroke-width:78.7402; stroke-opacity:1; 
stroke-linecap:round; stroke-linejoin:round;fill:none"
d="M 78977,47194
78977,46915
78699,46915
78699,47194
78977,47194
Z" /> 
<path style="fill:#000000; fill-opacity:0.0; 
stroke:#000000; stroke-width:78.7402; stroke-opacity:1; 
stroke-linecap:round; stroke-linejoin:round;fill:none"
d="M 78977,48194
78977,47915
78699,47915
78699,48194
78977,48194
Z" /> 
<path style="fill:#000000; fill-opacity:0.0; 
stroke:#000000; stroke-width:78.7402; stroke-opacity:1; 
stroke-linecap:round; stroke-linejoin:round;fill:none"
d="M 78977,49194
78977,48915
78699,48915
78699,49194
78977,49194
Z" /> 
<path style="fill:#000000; fill-opacity:0.0; 
stroke:#000000; stroke-width:78.7402; stroke-opacity:1; 
stroke-linecap:round; stroke-linejoin:round;fill:none"
d="M 78977,50194
78977,49915
78699,49915
78699,50194
78977,50194
Z" /> 
<path style="fill:#000000; fill-opacity:0.0; 
stroke:#000000; stroke-width:78.7402; stroke-opacity:1; 
stroke-linecap:round; stroke-linejoin:round;fill:none"
d="M 78977,51194
78977,50915
78699,50915
78699,51194
78977,51194
Z" /> 
<path style="fill:#000000; fill-opacity:0.0; 
stroke:#000000; stroke-width:78.7402; stroke-opacity:1; 
stroke-linecap:round; stroke-linejoin:round;fill:none"
d="M 78977,52194
78977,51915
78699,51915
78699,52194
78977,52194
Z" /> 
<path style="fill:#000000; fill-opacity:0.0; 
stroke:#000000; stroke-width:78.7402; stroke-opacity:1; 
stroke-linecap:round; stroke-linejoin:round;fill:none"
d="M 78977,53194
78977,52915
78699,52915
78699,53194
78977,53194
Z" /> 
<path style="fill:#000000; fill-opacity:0.0; 
stroke:#000000; stroke-width:78.7402; stroke-opacity:1; 
stroke-linecap:round; stroke-linejoin:round;fill:none"
d="M 63477,57194
63477,56915
63199,56915
63199,57194
63477,57194
Z" /> 
<path style="fill:#000000; fill-opacity:0.0; 
stroke:#000000; stroke-width:78.7402; stroke-opacity:1; 
stroke-linecap:round; stroke-linejoin:round;fill:none"
d="M 63477,58194
63477,57915
63199,57915
63199,58194
63477,58194
Z" /> 
<path style="fill:#000000; fill-opacity:0.0; 
stroke:#000000; stroke-width:78.7402; stroke-opacity:1; 
stroke-linecap:round; stroke-linejoin:round;fill:none"
d="M 77977,25694
77977,25415
77699,25415
77699,25694
77977,25694
Z" /> 
<path style="fill:#000000; fill-opacity:0.0; 
stroke:#000000; stroke-width:78.7402; stroke-opacity:1; 
stroke-linecap:round; stroke-linejoin:round;fill:none"
d="M 77977,26694
77977,26415
77699,26415
77699,26694
77977,26694
Z" /> 
<path style="fill:#000000; fill-opacity:0.0; 
stroke:#000000; stroke-width:78.7402; stroke-opacity:1; 
stroke-linecap:round; stroke-linejoin:round;fill:none"
d="M 77977,27694
77977,27415
77699,27415
77699,27694
77977,27694
Z" /> 
<path style="fill:#000000; fill-opacity:0.0; 
stroke:#000000; stroke-width:78.7402; stroke-opacity:1; 
stroke-linecap:round; stroke-linejoin:round;fill:none"
d="M 77977,28694
77977,28415
77699,28415
77699,28694
77977,28694
Z" /> 
<path style="fill:#000000; fill-opacity:0.0; 
stroke:#000000; stroke-width:78.7402; stroke-opacity:1; 
stroke-linecap:round; stroke-linejoin:round;fill:none"
d="M 77977,29694
77977,29415
77699,29415
77699,29694
77977,29694
Z" /> 
<path style="fill:#000000; fill-opacity:0.0; 
stroke:#000000; stroke-width:78.7402; stroke-opacity:1; 
stroke-linecap:round; stroke-linejoin:round;fill:none"
d="M 77977,30694
77977,30415
77699,30415
77699,30694
77977,30694
Z" /> 
<path style="fill:#000000; fill-opacity:0.0; 
stroke:#000000; stroke-width:78.7402; stroke-opacity:1; 
stroke-linecap:round; stroke-linejoin:round;fill:none"
d="M 77977,31694
77977,31415
77699,31415
77699,31694
77977,31694
Z" /> 
<path style="fill:#000000; fill-opacity:0.0; 
stroke:#000000; stroke-width:78.7402; stroke-opacity:1; 
stroke-linecap:round; stroke-linejoin:round;fill:none"
d="M 77977,32694
77977,32415
77699,32415
77699,32694
77977,32694
Z" /> 
<path style="fill:#000000; fill-opacity:0.0; 
stroke:#000000; stroke-width:78.7402; stroke-opacity:1; 
stroke-linecap:round; stroke-linejoin:round;fill:none"
d="M 77977,33694
77977,33415
77699,33415
77699,33694
77977,33694
Z" /> 
<path style="fill:#000000; fill-opacity:0.0; 
stroke:#000000; stroke-width:78.7402; stroke-opacity:1; 
stroke-linecap:round; stroke-linejoin:round;fill:none"
d="M 77977,34694
77977,34415
77699,34415
77699,34694
77977,34694
Z" /> 
<path style="fill:#000000; fill-opacity:0.0; 
stroke:#000000; stroke-width:78.7402; stroke-opacity:1; 
stroke-linecap:round; stroke-linejoin:round;fill:none"
d="M 78977,25694
78977,25415
78699,25415
78699,25694
78977,25694
Z" /> 
<path style="fill:#000000; fill-opacity:0.0; 
stroke:#000000; stroke-width:78.7402; stroke-opacity:1; 
stroke-linecap:round; stroke-linejoin:round;fill:none"
d="M 78977,26694
78977,26415
78699,26415
78699,26694
78977,26694
Z" /> 
<path style="fill:#000000; fill-opacity:0.0; 
stroke:#000000; stroke-width:78.7402; stroke-opacity:1; 
stroke-linecap:round; stroke-linejoin:round;fill:none"
d="M 78977,27694
78977,27415
78699,27415
78699,27694
78977,27694
Z" /> 
<path style="fill:#000000; fill-opacity:0.0; 
stroke:#000000; stroke-width:78.7402; stroke-opacity:1; 
stroke-linecap:round; stroke-linejoin:round;fill:none"
d="M 78977,28694
78977,28415
78699,28415
78699,28694
78977,28694
Z" /> 
<path style="fill:#000000; fill-opacity:0.0; 
stroke:#000000; stroke-width:78.7402; stroke-opacity:1; 
stroke-linecap:round; stroke-linejoin:round;fill:none"
d="M 78977,29694
78977,29415
78699,29415
78699,29694
78977,29694
Z" /> 
<path style="fill:#000000; fill-opacity:0.0; 
stroke:#000000; stroke-width:78.7402; stroke-opacity:1; 
stroke-linecap:round; stroke-linejoin:round;fill:none"
d="M 78977,30694
78977,30415
78699,30415
78699,30694
78977,30694
Z" /> 
<path style="fill:#000000; fill-opacity:0.0; 
stroke:#000000; stroke-width:78.7402; stroke-opacity:1; 
stroke-linecap:round; stroke-linejoin:round;fill:none"
d="M 78977,31694
78977,31415
78699,31415
78699,31694
78977,31694
Z" /> 
<path style="fill:#000000; fill-opacity:0.0; 
stroke:#000000; stroke-width:78.7402; stroke-opacity:1; 
stroke-linecap:round; stroke-linejoin:round;fill:none"
d="M 78977,32694
78977,32415
78699,32415
78699,32694
78977,32694
Z" /> 
<path style="fill:#000000; fill-opacity:0.0; 
stroke:#000000; stroke-width:78.7402; stroke-opacity:1; 
stroke-linecap:round; stroke-linejoin:round;fill:none"
d="M 78977,33694
78977,33415
78699,33415
78699,33694
78977,33694
Z" /> 
<path style="fill:#000000; fill-opacity:0.0; 
stroke:#000000; stroke-width:78.7402; stroke-opacity:1; 
stroke-linecap:round; stroke-linejoin:round;fill:none"
d="M 78977,34694
78977,34415
78699,34415
78699,34694
78977,34694
Z" /> 
<path style="fill:#000000; fill-opacity:0.0; 
stroke:#000000; stroke-width:78.7402; stroke-opacity:1; 
stroke-linecap:round; stroke-linejoin:round;fill:none"
d="M 67977,57194
67977,56915
67699,56915
67699,57194
67977,57194
Z" /> 
<path style="fill:#000000; fill-opacity:0.0; 
stroke:#000000; stroke-width:78.7402; stroke-opacity:1; 
stroke-linecap:round; stroke-linejoin:round;fill:none"
d="M 67977,58194
67977,57915
67699,57915
67699,58194
67977,58194
Z" /> 
<path style="fill:#000000; fill-opacity:0.0; 
stroke:#000000; stroke-width:78.7402; stroke-opacity:1; 
stroke-linecap:round; stroke-linejoin:round;fill:none"
d="M 57639,50639
57639,50360
57360,50360
57360,50639
57639,50639
Z" /> 
<path style="fill:#000000; fill-opacity:0.0; 
stroke:#000000; stroke-width:78.7402; stroke-opacity:1; 
stroke-linecap:round; stroke-linejoin:round;fill:none"
d="M 57639,51639
57639,51360
57360,51360
57360,51639
57639,51639
Z" /> 
<path style="fill:#000000; fill-opacity:0.0; 
stroke:#000000; stroke-width:78.7402; stroke-opacity:1; 
stroke-linecap:round; stroke-linejoin:round;fill:none"
d="M 58639,50639
58639,50360
58360,50360
58360,50639
58639,50639
Z" /> 
<path style="fill:#000000; fill-opacity:0.0; 
stroke:#000000; stroke-width:78.7402; stroke-opacity:1; 
stroke-linecap:round; stroke-linejoin:round;fill:none"
d="M 58639,51639
58639,51360
58360,51360
58360,51639
58639,51639
Z" /> 
<path style="fill:#000000; fill-opacity:0.0; 
stroke:#000000; stroke-width:78.7402; stroke-opacity:1; 
stroke-linecap:round; stroke-linejoin:round;fill:none"
d="M 59639,50639
59639,50360
59360,50360
59360,50639
59639,50639
Z" /> 
<path style="fill:#000000; fill-opacity:0.0; 
stroke:#000000; stroke-width:78.7402; stroke-opacity:1; 
stroke-linecap:round; stroke-linejoin:round;fill:none"
d="M 59639,51639
59639,51360
59360,51360
59360,51639
59639,51639
Z" /> 
<path style="fill:#000000; fill-opacity:0.0; 
stroke:#000000; stroke-width:78.7402; stroke-opacity:1; 
stroke-linecap:round; stroke-linejoin:round;fill:none"
d="M 60639,50639
60639,50360
60360,50360
60360,50639
60639,50639
Z" /> 
<path style="fill:#000000; fill-opacity:0.0; 
stroke:#000000; stroke-width:78.7402; stroke-opacity:1; 
stroke-linecap:round; stroke-linejoin:round;fill:none"
d="M 60639,51639
60639,51360
60360,51360
60360,51639
60639,51639
Z" /> 
<path style="fill:#000000; fill-opacity:0.0; 
stroke:#000000; stroke-width:78.7402; stroke-opacity:1; 
stroke-linecap:round; stroke-linejoin:round;fill:none"
d="M 61639,50639
61639,50360
61360,50360
61360,50639
61639,50639
Z" /> 
<path style="fill:#000000; fill-opacity:0.0; 
stroke:#000000; stroke-width:78.7402; stroke-opacity:1; 
stroke-linecap:round; stroke-linejoin:round;fill:none"
d="M 61639,51639
61639,51360
61360,51360
61360,51639
61639,51639
Z" /> 
<path style="fill:#000000; fill-opacity:0.0; 
stroke:#000000; stroke-width:78.7402; stroke-opacity:1; 
stroke-linecap:round; stroke-linejoin:round;fill:none"
d="M 62639,50639
62639,50360
62360,50360
62360,50639
62639,50639
Z" /> 
<path style="fill:#000000; fill-opacity:0.0; 
stroke:#000000; stroke-width:78.7402; stroke-opacity:1; 
stroke-linecap:round; stroke-linejoin:round;fill:none"
d="M 62639,51639
62639,51360
62360,51360
62360,51639
62639,51639
Z" /> 
<path style="fill:#000000; fill-opacity:0.0; 
stroke:#000000; stroke-width:78.7402; stroke-opacity:1; 
stroke-linecap:round; stroke-linejoin:round;fill:none"
d="M 62227,21694
62227,21415
61949,21415
61949,21694
62227,21694
Z" /> 
<path d="M62391 21397
L61785 21397
" />
<path d="M62391 21712
L61785 21712
" />
<path d="M61785.4 21397.6 A157.48 157.48 0.0 0 0 61785.4 21712.6 " />
<path d="M62391.7 21712.6 A157.48 157.48 0.0 0 0 62391.7 21397.6 " />
<path style="fill:#000000; fill-opacity:0.0; 
stroke:#000000; stroke-width:78.7402; stroke-opacity:1; 
stroke-linecap:round; stroke-linejoin:round;fill:none"
d="M 63477,21694
63477,21415
63199,21415
63199,21694
63477,21694
Z" /> 
<path style="fill:#000000; fill-opacity:0.0; 
stroke:#000000; stroke-width:78.7402; stroke-opacity:1; 
stroke-linecap:round; stroke-linejoin:round;fill:none"
d="M 58227,21694
58227,21415
57949,21415
57949,21694
58227,21694
Z" /> 
<path style="fill:#000000; fill-opacity:0.0; 
stroke:#000000; stroke-width:78.7402; stroke-opacity:1; 
stroke-linecap:round; stroke-linejoin:round;fill:none"
d="M 59477,21694
59477,21415
59199,21415
59199,21694
59477,21694
Z" /> 
<path d="M59035 21712
L59641 21712
" />
<path d="M59035 21397
L59641 21397
" />
<path d="M59641.7 21712.6 A157.48 157.48 0.0 0 0 59641.7 21397.6 " />
<path d="M59035.4 21397.6 A157.48 157.48 0.0 0 0 59035.4 21712.6 " />
<path style="fill:#000000; fill-opacity:0.0; 
stroke:#000000; stroke-width:78.7402; stroke-opacity:1; 
stroke-linecap:round; stroke-linejoin:round;fill:none"
d="M 60477,57194
60477,56915
60199,56915
60199,57194
60477,57194
Z" /> 
<path style="fill:#000000; fill-opacity:0.0; 
stroke:#000000; stroke-width:78.7402; stroke-opacity:1; 
stroke-linecap:round; stroke-linejoin:round;fill:none"
d="M 60477,58194
60477,57915
60199,57915
60199,58194
60477,58194
Z" /> 
<path style="fill:#000000; fill-opacity:0.0; 
stroke:#000000; stroke-width:78.7402; stroke-opacity:1; 
stroke-linecap:round; stroke-linejoin:round;fill:none"
d="M 58977,57194
58977,56915
58699,56915
58699,57194
58977,57194
Z" /> 
<path style="fill:#000000; fill-opacity:0.0; 
stroke:#000000; stroke-width:78.7402; stroke-opacity:1; 
stroke-linecap:round; stroke-linejoin:round;fill:none"
d="M 58977,58194
58977,57915
58699,57915
58699,58194
58977,58194
Z" /> 
<path style="fill:#000000; fill-opacity:0.0; 
stroke:#000000; stroke-width:78.7402; stroke-opacity:1; 
stroke-linecap:round; stroke-linejoin:round;fill:none"
d="M 64977,57194
64977,56915
64699,56915
64699,57194
64977,57194
Z" /> 
<path style="fill:#000000; fill-opacity:0.0; 
stroke:#000000; stroke-width:78.7402; stroke-opacity:1; 
stroke-linecap:round; stroke-linejoin:round;fill:none"
d="M 64977,58194
64977,57915
64699,57915
64699,58194
64977,58194
Z" /> 
<path style="fill:#000000; fill-opacity:0.0; 
stroke:#000000; stroke-width:78.7402; stroke-opacity:1; 
stroke-linecap:round; stroke-linejoin:round;fill:none"
d="M 61338,39842
62125,39055
61338,38267
60551,39055
61338,39842
Z" /> 
<path d="M42677 21023
L43937 22283
" />
<path d="M43937 21023
L42677 22283
" />
<circle cx="43307.1" cy="21653.5" r="629.921" /> 
<path d="M42677 56456
L43937 57716
" />
<path d="M43937 56456
L42677 57716
" />
<circle cx="43307.1" cy="57086.6" r="629.921" /> 
<path d="M78110 21023
L79370 22283
" />
<path d="M79370 21023
L78110 22283
" />
<circle cx="78740.2" cy="21653.5" r="629.921" /> 
<path d="M78110 56456
L79370 57716
" />
<path d="M79370 56456
L78110 57716
" />
<circle cx="78740.2" cy="57086.6" r="629.921" /> 
</g>
<g style="fill:#000000; fill-opacity:0.0; 
stroke:#000000; stroke-width:118.11; stroke-opacity:1; 
stroke-linecap:round; stroke-linejoin:round;">
<path d="M42436 60918
L42436 59737
L42717 59737
L42886 59793
L42999 59905
L43055 60018
L43111 60243
L43111 60411
L43055 60636
L42999 60749
L42886 60861
L42717 60918
L42436 60918
" />
<path d="M43617 60918
L43617 60130
" />
<path d="M43617 60355
L43674 60243
L43730 60187
L43842 60130
L43955 60130
" />
<path d="M44348 60918
L44348 60130
" />
<path d="M44348 59737
L44292 59793
L44348 59849
L44405 59793
L44348 59737
L44348 59849
" />
<path d="M45080 60918
L44967 60861
L44911 60749
L44911 59737
" />
<path d="M45698 60918
L45586 60861
L45530 60749
L45530 59737
" />
<path d="M47048 60918
L47048 59737
L47442 60580
L47836 59737
L47836 60918
" />
<path d="M48904 60918
L48904 60299
L48848 60187
L48735 60130
L48510 60130
L48398 60187
" />
<path d="M48904 60861
L48792 60918
L48510 60918
L48398 60861
L48342 60749
L48342 60636
L48398 60524
L48510 60468
L48792 60468
L48904 60411
" />
<path d="M49467 60130
L49467 61311
" />
<path d="M49467 60187
L49579 60130
L49804 60130
L49917 60187
L49973 60243
L50029 60355
L50029 60693
L49973 60805
L49917 60861
L49804 60918
L49579 60918
L49467 60861
" />
<path d="M50535 60805
L50591 60861
L50535 60918
L50479 60861
L50535 60805
L50535 60918
" />
<path d="M50535 60187
L50591 60243
L50535 60299
L50479 60243
L50535 60187
L50535 60299
" />
<path d="M41190 62805
L41309 62923
" />
<path d="M41309 62805
L41190 62923
" />
<path d="M42661 62217
L42774 62217
L42886 62273
L42942 62329
L42999 62442
L43055 62667
L43055 62948
L42999 63173
L42942 63285
L42886 63342
L42774 63398
L42661 63398
L42549 63342
L42492 63285
L42436 63173
L42380 62948
L42380 62667
L42436 62442
L42492 62329
L42549 62273
L42661 62217
" />
<path d="M43561 63285
L43617 63342
L43561 63398
L43505 63342
L43561 63285
L43561 63398
" />
<path d="M44011 62217
L44742 62217
L44348 62667
L44517 62667
L44630 62723
L44686 62779
L44742 62892
L44742 63173
L44686 63285
L44630 63342
L44517 63398
L44180 63398
L44067 63342
L44011 63285
" />
<path d="M45473 62217
L45586 62217
L45698 62273
L45755 62329
L45811 62442
L45867 62667
L45867 62948
L45811 63173
L45755 63285
L45698 63342
L45586 63398
L45473 63398
L45361 63342
L45305 63285
L45248 63173
L45192 62948
L45192 62667
L45248 62442
L45305 62329
L45361 62273
L45473 62217
" />
<path d="M46373 63398
L46373 62611
" />
<path d="M46373 62723
L46429 62667
L46542 62611
L46711 62611
L46823 62667
L46879 62779
L46879 63398
" />
<path d="M46879 62779
L46936 62667
L47048 62611
L47217 62611
L47329 62667
L47386 62779
L47386 63398
" />
<path d="M47948 63398
L47948 62611
" />
<path d="M47948 62723
L48004 62667
L48117 62611
L48285 62611
L48398 62667
L48454 62779
L48454 63398
" />
<path d="M48454 62779
L48510 62667
L48623 62611
L48792 62611
L48904 62667
L48960 62779
L48960 63398
" />
<path d="M51266 62161
L50254 63679
" />
<path d="M52785 62217
L52897 62217
L53010 62273
L53066 62329
L53122 62442
L53179 62667
L53179 62948
L53122 63173
L53066 63285
L53010 63342
L52897 63398
L52785 63398
L52672 63342
L52616 63285
L52560 63173
L52504 62948
L52504 62667
L52560 62442
L52616 62329
L52672 62273
L52785 62217
" />
<path d="M53685 63285
L53741 63342
L53685 63398
L53629 63342
L53685 63285
L53685 63398
" />
<path d="M54472 62217
L54585 62217
L54697 62273
L54753 62329
L54810 62442
L54866 62667
L54866 62948
L54810 63173
L54753 63285
L54697 63342
L54585 63398
L54472 63398
L54360 63342
L54303 63285
L54247 63173
L54191 62948
L54191 62667
L54247 62442
L54303 62329
L54360 62273
L54472 62217
" />
<path d="M55991 63398
L55316 63398
" />
<path d="M55653 63398
L55653 62217
L55541 62386
L55428 62498
L55316 62554
" />
<path d="M56441 62329
L56497 62273
L56609 62217
L56891 62217
L57003 62273
L57059 62329
L57116 62442
L57116 62554
L57059 62723
L56384 63398
L57116 63398
" />
<path d="M57566 62217
L57566 62442
" />
<path d="M58016 62217
L58016 62442
" />
<path d="M59759 63848
L59703 63792
L59590 63623
L59534 63510
L59478 63342
L59422 63061
L59422 62836
L59478 62554
L59534 62386
L59590 62273
L59703 62104
L59759 62048
" />
<path d="M60715 62611
L60715 63398
" />
<path d="M60434 62161
L60153 63004
L60884 63004
" />
<path d="M62234 63398
L62234 62217
" />
<path d="M62740 63398
L62740 62779
L62684 62667
L62571 62611
L62402 62611
L62290 62667
L62234 62723
" />
<path d="M63471 63398
L63359 63342
L63302 63285
L63246 63173
L63246 62836
L63302 62723
L63359 62667
L63471 62611
L63640 62611
L63752 62667
L63809 62723
L63865 62836
L63865 63173
L63809 63285
L63752 63342
L63640 63398
L63471 63398
" />
<path d="M64540 63398
L64427 63342
L64371 63229
L64371 62217
" />
<path d="M65440 63342
L65327 63398
L65102 63398
L64990 63342
L64933 63229
L64933 62779
L64990 62667
L65102 62611
L65327 62611
L65440 62667
L65496 62779
L65496 62892
L64933 63004
" />
<path d="M65946 63342
L66058 63398
L66283 63398
L66396 63342
L66452 63229
L66452 63173
L66396 63061
L66283 63004
L66115 63004
L66002 62948
L65946 62836
L65946 62779
L66002 62667
L66115 62611
L66283 62611
L66396 62667
" />
<path d="M66846 63848
L66902 63792
L67014 63623
L67071 63510
L67127 63342
L67183 63061
L67183 62836
L67127 62554
L67071 62386
L67014 62273
L66902 62104
L66846 62048
" />
<circle cx="41210.6" cy="64423.2" r="98.4252" /> 
<path d="M42661 63776
L42774 63776
L42886 63832
L42942 63888
L42999 64001
L43055 64226
L43055 64507
L42999 64732
L42942 64845
L42886 64901
L42774 64957
L42661 64957
L42549 64901
L42492 64845
L42436 64732
L42380 64507
L42380 64226
L42436 64001
L42492 63888
L42549 63832
L42661 63776
" />
<path d="M43561 64845
L43617 64901
L43561 64957
L43505 64901
L43561 64845
L43561 64957
" />
<path d="M44686 63776
L44124 63776
L44067 64338
L44124 64282
L44236 64226
L44517 64226
L44630 64282
L44686 64338
L44742 64451
L44742 64732
L44686 64845
L44630 64901
L44517 64957
L44236 64957
L44124 64901
L44067 64845
" />
<path d="M45473 63776
L45586 63776
L45698 63832
L45755 63888
L45811 64001
L45867 64226
L45867 64507
L45811 64732
L45755 64845
L45698 64901
L45586 64957
L45473 64957
L45361 64901
L45305 64845
L45248 64732
L45192 64507
L45192 64226
L45248 64001
L45305 63888
L45361 63832
L45473 63776
" />
<path d="M46373 64957
L46373 64170
" />
<path d="M46373 64282
L46429 64226
L46542 64170
L46711 64170
L46823 64226
L46879 64338
L46879 64957
" />
<path d="M46879 64338
L46936 64226
L47048 64170
L47217 64170
L47329 64226
L47386 64338
L47386 64957
" />
<path d="M47948 64957
L47948 64170
" />
<path d="M47948 64282
L48004 64226
L48117 64170
L48285 64170
L48398 64226
L48454 64338
L48454 64957
" />
<path d="M48454 64338
L48510 64226
L48623 64170
L48792 64170
L48904 64226
L48960 64338
L48960 64957
" />
<path d="M51266 63720
L50254 65238
" />
<path d="M52785 63776
L52897 63776
L53010 63832
L53066 63888
L53122 64001
L53179 64226
L53179 64507
L53122 64732
L53066 64845
L53010 64901
L52897 64957
L52785 64957
L52672 64901
L52616 64845
L52560 64732
L52504 64507
L52504 64226
L52560 64001
L52616 63888
L52672 63832
L52785 63776
" />
<path d="M53685 64845
L53741 64901
L53685 64957
L53629 64901
L53685 64845
L53685 64957
" />
<path d="M54472 63776
L54585 63776
L54697 63832
L54753 63888
L54810 64001
L54866 64226
L54866 64507
L54810 64732
L54753 64845
L54697 64901
L54585 64957
L54472 64957
L54360 64901
L54303 64845
L54247 64732
L54191 64507
L54191 64226
L54247 64001
L54303 63888
L54360 63832
L54472 63776
" />
<path d="M55316 63888
L55372 63832
L55485 63776
L55766 63776
L55878 63832
L55935 63888
L55991 64001
L55991 64113
L55935 64282
L55260 64957
L55991 64957
" />
<path d="M56722 63776
L56834 63776
L56947 63832
L57003 63888
L57059 64001
L57116 64226
L57116 64507
L57059 64732
L57003 64845
L56947 64901
L56834 64957
L56722 64957
L56609 64901
L56553 64845
L56497 64732
L56441 64507
L56441 64226
L56497 64001
L56553 63888
L56609 63832
L56722 63776
" />
<path d="M57566 63776
L57566 64001
" />
<path d="M58016 63776
L58016 64001
" />
<path d="M59759 65407
L59703 65351
L59590 65182
L59534 65070
L59478 64901
L59422 64620
L59422 64395
L59478 64113
L59534 63945
L59590 63832
L59703 63663
L59759 63607
" />
<path d="M60828 64957
L60153 64957
" />
<path d="M60490 64957
L60490 63776
L60378 63945
L60265 64057
L60153 64113
" />
<path d="M61221 63776
L62009 63776
L61503 64957
" />
<path d="M62965 63776
L62740 63776
L62627 63832
L62571 63888
L62459 64057
L62402 64282
L62402 64732
L62459 64845
L62515 64901
L62627 64957
L62852 64957
L62965 64901
L63021 64845
L63077 64732
L63077 64451
L63021 64338
L62965 64282
L62852 64226
L62627 64226
L62515 64282
L62459 64338
L62402 64451
" />
<path d="M64483 64957
L64483 63776
" />
<path d="M64990 64957
L64990 64338
L64933 64226
L64821 64170
L64652 64170
L64540 64226
L64483 64282
" />
<path d="M65721 64957
L65608 64901
L65552 64845
L65496 64732
L65496 64395
L65552 64282
L65608 64226
L65721 64170
L65890 64170
L66002 64226
L66058 64282
L66115 64395
L66115 64732
L66058 64845
L66002 64901
L65890 64957
L65721 64957
" />
<path d="M66789 64957
L66677 64901
L66621 64788
L66621 63776
" />
<path d="M67689 64901
L67577 64957
L67352 64957
L67239 64901
L67183 64788
L67183 64338
L67239 64226
L67352 64170
L67577 64170
L67689 64226
L67746 64338
L67746 64451
L67183 64563
" />
<path d="M68196 64901
L68308 64957
L68533 64957
L68645 64901
L68702 64788
L68702 64732
L68645 64620
L68533 64563
L68364 64563
L68252 64507
L68196 64395
L68196 64338
L68252 64226
L68364 64170
L68533 64170
L68645 64226
" />
<path d="M69095 65407
L69152 65351
L69264 65182
L69320 65070
L69377 64901
L69433 64620
L69433 64395
L69377 64113
L69320 63945
L69264 63832
L69152 63663
L69095 63607
" />
<path d="M41151 65824
L41151 66139
" />
<path d="M40994 65982
L41309 65982
" />
<path d="M42661 65335
L42774 65335
L42886 65391
L42942 65447
L42999 65560
L43055 65785
L43055 66066
L42999 66291
L42942 66404
L42886 66460
L42774 66516
L42661 66516
L42549 66460
L42492 66404
L42436 66291
L42380 66066
L42380 65785
L42436 65560
L42492 65447
L42549 65391
L42661 65335
" />
<path d="M43561 66404
L43617 66460
L43561 66516
L43505 66460
L43561 66404
L43561 66516
" />
<path d="M44292 65841
L44180 65785
L44124 65729
L44067 65616
L44067 65560
L44124 65447
L44180 65391
L44292 65335
L44517 65335
L44630 65391
L44686 65447
L44742 65560
L44742 65616
L44686 65729
L44630 65785
L44517 65841
L44292 65841
L44180 65897
L44124 65954
L44067 66066
L44067 66291
L44124 66404
L44180 66460
L44292 66516
L44517 66516
L44630 66460
L44686 66404
L44742 66291
L44742 66066
L44686 65954
L44630 65897
L44517 65841
" />
<path d="M45473 65335
L45586 65335
L45698 65391
L45755 65447
L45811 65560
L45867 65785
L45867 66066
L45811 66291
L45755 66404
L45698 66460
L45586 66516
L45473 66516
L45361 66460
L45305 66404
L45248 66291
L45192 66066
L45192 65785
L45248 65560
L45305 65447
L45361 65391
L45473 65335
" />
<path d="M46373 66516
L46373 65729
" />
<path d="M46373 65841
L46429 65785
L46542 65729
L46711 65729
L46823 65785
L46879 65897
L46879 66516
" />
<path d="M46879 65897
L46936 65785
L47048 65729
L47217 65729
L47329 65785
L47386 65897
L47386 66516
" />
<path d="M47948 66516
L47948 65729
" />
<path d="M47948 65841
L48004 65785
L48117 65729
L48285 65729
L48398 65785
L48454 65897
L48454 66516
" />
<path d="M48454 65897
L48510 65785
L48623 65729
L48792 65729
L48904 65785
L48960 65897
L48960 66516
" />
<path d="M51266 65279
L50254 66797
" />
<path d="M52785 65335
L52897 65335
L53010 65391
L53066 65447
L53122 65560
L53179 65785
L53179 66066
L53122 66291
L53066 66404
L53010 66460
L52897 66516
L52785 66516
L52672 66460
L52616 66404
L52560 66291
L52504 66066
L52504 65785
L52560 65560
L52616 65447
L52672 65391
L52785 65335
" />
<path d="M53685 66404
L53741 66460
L53685 66516
L53629 66460
L53685 66404
L53685 66516
" />
<path d="M54472 65335
L54585 65335
L54697 65391
L54753 65447
L54810 65560
L54866 65785
L54866 66066
L54810 66291
L54753 66404
L54697 66460
L54585 66516
L54472 66516
L54360 66460
L54303 66404
L54247 66291
L54191 66066
L54191 65785
L54247 65560
L54303 65447
L54360 65391
L54472 65335
" />
<path d="M55260 65335
L55991 65335
L55597 65785
L55766 65785
L55878 65841
L55935 65897
L55991 66010
L55991 66291
L55935 66404
L55878 66460
L55766 66516
L55428 66516
L55316 66460
L55260 66404
" />
<path d="M57116 66516
L56441 66516
" />
<path d="M56778 66516
L56778 65335
L56666 65504
L56553 65616
L56441 65672
" />
<path d="M57566 65335
L57566 65560
" />
<path d="M58016 65335
L58016 65560
" />
<path d="M59759 66966
L59703 66910
L59590 66741
L59534 66629
L59478 66460
L59422 66179
L59422 65954
L59478 65672
L59534 65504
L59590 65391
L59703 65223
L59759 65166
" />
<path d="M60153 65447
L60209 65391
L60321 65335
L60603 65335
L60715 65391
L60771 65447
L60828 65560
L60828 65672
L60771 65841
L60097 66516
L60828 66516
" />
<path d="M61840 65729
L61840 66516
" />
<path d="M61559 65279
L61278 66122
L62009 66122
" />
<path d="M63359 66516
L63359 65335
" />
<path d="M63865 66516
L63865 65897
L63809 65785
L63696 65729
L63527 65729
L63415 65785
L63359 65841
" />
<path d="M64596 66516
L64483 66460
L64427 66404
L64371 66291
L64371 65954
L64427 65841
L64483 65785
L64596 65729
L64765 65729
L64877 65785
L64933 65841
L64990 65954
L64990 66291
L64933 66404
L64877 66460
L64765 66516
L64596 66516
" />
<path d="M65665 66516
L65552 66460
L65496 66347
L65496 65335
" />
<path d="M66564 66460
L66452 66516
L66227 66516
L66115 66460
L66058 66347
L66058 65897
L66115 65785
L66227 65729
L66452 65729
L66564 65785
L66621 65897
L66621 66010
L66058 66122
" />
<path d="M67071 66460
L67183 66516
L67408 66516
L67521 66460
L67577 66347
L67577 66291
L67521 66179
L67408 66122
L67239 66122
L67127 66066
L67071 65954
L67071 65897
L67127 65785
L67239 65729
L67408 65729
L67521 65785
" />
<path d="M67971 66966
L68027 66910
L68139 66741
L68196 66629
L68252 66460
L68308 66179
L68308 65954
L68252 65672
L68196 65504
L68139 65391
L68027 65223
L67971 65166
" />
<path style="fill:#000000; fill-opacity:0.0; 
stroke:#000000; stroke-width:118.11; stroke-opacity:1; 
stroke-linecap:round; stroke-linejoin:round;fill:none"
d="M 41251,67680
41251,67402
40973,67402
40973,67680
41251,67680
Z" /> 
<path d="M43055 68075
L42380 68075
" />
<path d="M42717 68075
L42717 66894
L42605 67063
L42492 67175
L42380 67232
" />
<path d="M43561 67963
L43617 68019
L43561 68075
L43505 68019
L43561 67963
L43561 68075
" />
<path d="M44348 66894
L44461 66894
L44573 66950
L44630 67007
L44686 67119
L44742 67344
L44742 67625
L44686 67850
L44630 67963
L44573 68019
L44461 68075
L44348 68075
L44236 68019
L44180 67963
L44124 67850
L44067 67625
L44067 67344
L44124 67119
L44180 67007
L44236 66950
L44348 66894
" />
<path d="M45473 66894
L45586 66894
L45698 66950
L45755 67007
L45811 67119
L45867 67344
L45867 67625
L45811 67850
L45755 67963
L45698 68019
L45586 68075
L45473 68075
L45361 68019
L45305 67963
L45248 67850
L45192 67625
L45192 67344
L45248 67119
L45305 67007
L45361 66950
L45473 66894
" />
<path d="M46373 68075
L46373 67288
" />
<path d="M46373 67400
L46429 67344
L46542 67288
L46711 67288
L46823 67344
L46879 67456
L46879 68075
" />
<path d="M46879 67456
L46936 67344
L47048 67288
L47217 67288
L47329 67344
L47386 67456
L47386 68075
" />
<path d="M47948 68075
L47948 67288
" />
<path d="M47948 67400
L48004 67344
L48117 67288
L48285 67288
L48398 67344
L48454 67456
L48454 68075
" />
<path d="M48454 67456
L48510 67344
L48623 67288
L48792 67288
L48904 67344
L48960 67456
L48960 68075
" />
<path d="M51266 66838
L50254 68356
" />
<path d="M52785 66894
L52897 66894
L53010 66950
L53066 67007
L53122 67119
L53179 67344
L53179 67625
L53122 67850
L53066 67963
L53010 68019
L52897 68075
L52785 68075
L52672 68019
L52616 67963
L52560 67850
L52504 67625
L52504 67344
L52560 67119
L52616 67007
L52672 66950
L52785 66894
" />
<path d="M53685 67963
L53741 68019
L53685 68075
L53629 68019
L53685 67963
L53685 68075
" />
<path d="M54472 66894
L54585 66894
L54697 66950
L54753 67007
L54810 67119
L54866 67344
L54866 67625
L54810 67850
L54753 67963
L54697 68019
L54585 68075
L54472 68075
L54360 68019
L54303 67963
L54247 67850
L54191 67625
L54191 67344
L54247 67119
L54303 67007
L54360 66950
L54472 66894
" />
<path d="M55260 66894
L55991 66894
L55597 67344
L55766 67344
L55878 67400
L55935 67456
L55991 67569
L55991 67850
L55935 67963
L55878 68019
L55766 68075
L55428 68075
L55316 68019
L55260 67963
" />
<path d="M56553 68075
L56778 68075
L56891 68019
L56947 67963
L57059 67794
L57116 67569
L57116 67119
L57059 67007
L57003 66950
L56891 66894
L56666 66894
L56553 66950
L56497 67007
L56441 67119
L56441 67400
L56497 67513
L56553 67569
L56666 67625
L56891 67625
L57003 67569
L57059 67513
L57116 67400
" />
<path d="M57566 66894
L57566 67119
" />
<path d="M58016 66894
L58016 67119
" />
<path d="M59759 68525
L59703 68469
L59590 68300
L59534 68188
L59478 68019
L59422 67738
L59422 67513
L59478 67232
L59534 67063
L59590 66950
L59703 66782
L59759 66725
" />
<path d="M60828 68075
L60153 68075
" />
<path d="M60490 68075
L60490 66894
L60378 67063
L60265 67175
L60153 67232
" />
<path d="M61953 68075
L61278 68075
" />
<path d="M61615 68075
L61615 66894
L61503 67063
L61390 67175
L61278 67232
" />
<path d="M62346 66894
L63077 66894
L62684 67344
L62852 67344
L62965 67400
L63021 67456
L63077 67569
L63077 67850
L63021 67963
L62965 68019
L62852 68075
L62515 68075
L62402 68019
L62346 67963
" />
<path d="M64483 68075
L64483 66894
" />
<path d="M64990 68075
L64990 67456
L64933 67344
L64821 67288
L64652 67288
L64540 67344
L64483 67400
" />
<path d="M65721 68075
L65608 68019
L65552 67963
L65496 67850
L65496 67513
L65552 67400
L65608 67344
L65721 67288
L65890 67288
L66002 67344
L66058 67400
L66115 67513
L66115 67850
L66058 67963
L66002 68019
L65890 68075
L65721 68075
" />
<path d="M66789 68075
L66677 68019
L66621 67906
L66621 66894
" />
<path d="M67689 68019
L67577 68075
L67352 68075
L67239 68019
L67183 67906
L67183 67456
L67239 67344
L67352 67288
L67577 67288
L67689 67344
L67746 67456
L67746 67569
L67183 67681
" />
<path d="M68196 68019
L68308 68075
L68533 68075
L68645 68019
L68702 67906
L68702 67850
L68645 67738
L68533 67681
L68364 67681
L68252 67625
L68196 67513
L68196 67456
L68252 67344
L68364 67288
L68533 67288
L68645 67344
" />
<path d="M70108 67625
L71008 67625
" />
<path d="M70558 68075
L70558 67175
" />
<path d="M72414 67007
L72470 66950
L72582 66894
L72864 66894
L72976 66950
L73032 67007
L73089 67119
L73089 67232
L73032 67400
L72357 68075
L73089 68075
" />
<path d="M74438 68019
L74551 68075
L74776 68075
L74888 68019
L74945 67906
L74945 67850
L74888 67738
L74776 67681
L74607 67681
L74495 67625
L74438 67513
L74438 67456
L74495 67344
L74607 67288
L74776 67288
L74888 67344
" />
<path d="M75620 68075
L75507 68019
L75451 67906
L75451 66894
" />
<path d="M76238 68075
L76126 68019
L76070 67963
L76013 67850
L76013 67513
L76070 67400
L76126 67344
L76238 67288
L76407 67288
L76519 67344
L76576 67400
L76632 67513
L76632 67850
L76576 67963
L76519 68019
L76407 68075
L76238 68075
" />
<path d="M76969 67288
L77419 67288
" />
<path d="M77138 66894
L77138 67906
L77194 68019
L77307 68075
L77419 68075
" />
<path d="M77757 68019
L77869 68075
L78094 68075
L78207 68019
L78263 67906
L78263 67850
L78207 67738
L78094 67681
L77926 67681
L77813 67625
L77757 67513
L77757 67456
L77813 67344
L77926 67288
L78094 67288
L78207 67344
" />
<path d="M78657 68525
L78713 68469
L78825 68300
L78882 68188
L78938 68019
L78994 67738
L78994 67513
L78938 67232
L78882 67063
L78825 66950
L78713 66782
L78657 66725
" />
<path style="fill:#000000; fill-opacity:0.0; 
stroke:#000000; stroke-width:118.11; stroke-opacity:1; 
stroke-linecap:round; stroke-linejoin:round;fill:none"
d="M 40521,69887
41309,69100
40521,68312
39734,69100
40521,69887
Z" /> 
<path d="M42942 68847
L42942 69634
" />
<path d="M42661 68397
L42380 69241
L43111 69241
" />
<path d="M43561 69522
L43617 69578
L43561 69634
L43505 69578
L43561 69522
L43561 69634
" />
<path d="M44348 68453
L44461 68453
L44573 68509
L44630 68566
L44686 68678
L44742 68903
L44742 69184
L44686 69409
L44630 69522
L44573 69578
L44461 69634
L44348 69634
L44236 69578
L44180 69522
L44124 69409
L44067 69184
L44067 68903
L44124 68678
L44180 68566
L44236 68509
L44348 68453
" />
<path d="M45473 68453
L45586 68453
L45698 68509
L45755 68566
L45811 68678
L45867 68903
L45867 69184
L45811 69409
L45755 69522
L45698 69578
L45586 69634
L45473 69634
L45361 69578
L45305 69522
L45248 69409
L45192 69184
L45192 68903
L45248 68678
L45305 68566
L45361 68509
L45473 68453
" />
<path d="M46373 69634
L46373 68847
" />
<path d="M46373 68959
L46429 68903
L46542 68847
L46711 68847
L46823 68903
L46879 69016
L46879 69634
" />
<path d="M46879 69016
L46936 68903
L47048 68847
L47217 68847
L47329 68903
L47386 69016
L47386 69634
" />
<path d="M47948 69634
L47948 68847
" />
<path d="M47948 68959
L48004 68903
L48117 68847
L48285 68847
L48398 68903
L48454 69016
L48454 69634
" />
<path d="M48454 69016
L48510 68903
L48623 68847
L48792 68847
L48904 68903
L48960 69016
L48960 69634
" />
<path d="M51266 68397
L50254 69915
" />
<path d="M52785 68453
L52897 68453
L53010 68509
L53066 68566
L53122 68678
L53179 68903
L53179 69184
L53122 69409
L53066 69522
L53010 69578
L52897 69634
L52785 69634
L52672 69578
L52616 69522
L52560 69409
L52504 69184
L52504 68903
L52560 68678
L52616 68566
L52672 68509
L52785 68453
" />
<path d="M53685 69522
L53741 69578
L53685 69634
L53629 69578
L53685 69522
L53685 69634
" />
<path d="M54866 69634
L54191 69634
" />
<path d="M54528 69634
L54528 68453
L54416 68622
L54303 68734
L54191 68791
" />
<path d="M55935 68453
L55372 68453
L55316 69016
L55372 68959
L55485 68903
L55766 68903
L55878 68959
L55935 69016
L55991 69128
L55991 69409
L55935 69522
L55878 69578
L55766 69634
L55485 69634
L55372 69578
L55316 69522
" />
<path d="M56384 68453
L57172 68453
L56666 69634
" />
<path d="M57566 68453
L57566 68678
" />
<path d="M58016 68453
L58016 68678
" />
<path d="M59759 70084
L59703 70028
L59590 69859
L59534 69747
L59478 69578
L59422 69297
L59422 69072
L59478 68791
L59534 68622
L59590 68509
L59703 68341
L59759 68284
" />
<path d="M60828 69634
L60153 69634
" />
<path d="M60490 69634
L60490 68453
L60378 68622
L60265 68734
L60153 68791
" />
<path d="M62234 69634
L62234 68453
" />
<path d="M62740 69634
L62740 69016
L62684 68903
L62571 68847
L62402 68847
L62290 68903
L62234 68959
" />
<path d="M63471 69634
L63359 69578
L63302 69522
L63246 69409
L63246 69072
L63302 68959
L63359 68903
L63471 68847
L63640 68847
L63752 68903
L63809 68959
L63865 69072
L63865 69409
L63809 69522
L63752 69578
L63640 69634
L63471 69634
" />
<path d="M64540 69634
L64427 69578
L64371 69465
L64371 68453
" />
<path d="M65440 69578
L65327 69634
L65102 69634
L64990 69578
L64933 69465
L64933 69016
L64990 68903
L65102 68847
L65327 68847
L65440 68903
L65496 69016
L65496 69128
L64933 69241
" />
<path d="M65890 70084
L65946 70028
L66058 69859
L66115 69747
L66171 69578
L66227 69297
L66227 69072
L66171 68791
L66115 68622
L66058 68509
L65946 68341
L65890 68284
" />
<path d="M40049 70557
L41309 71816
" />
<path d="M41309 70557
L40049 71816
" />
<circle cx="40679.1" cy="71187" r="629.921" /> 
<path d="M42324 70540
L43055 70540
L42661 70990
L42830 70990
L42942 71046
L42999 71102
L43055 71215
L43055 71496
L42999 71608
L42942 71665
L42830 71721
L42492 71721
L42380 71665
L42324 71608
" />
<path d="M43561 71608
L43617 71665
L43561 71721
L43505 71665
L43561 71608
L43561 71721
" />
<path d="M44067 70652
L44124 70596
L44236 70540
L44517 70540
L44630 70596
L44686 70652
L44742 70765
L44742 70877
L44686 71046
L44011 71721
L44742 71721
" />
<path d="M45473 70540
L45586 70540
L45698 70596
L45755 70652
L45811 70765
L45867 70990
L45867 71271
L45811 71496
L45755 71608
L45698 71665
L45586 71721
L45473 71721
L45361 71665
L45305 71608
L45248 71496
L45192 71271
L45192 70990
L45248 70765
L45305 70652
L45361 70596
L45473 70540
" />
<path d="M46373 71721
L46373 70933
" />
<path d="M46373 71046
L46429 70990
L46542 70933
L46711 70933
L46823 70990
L46879 71102
L46879 71721
" />
<path d="M46879 71102
L46936 70990
L47048 70933
L47217 70933
L47329 70990
L47386 71102
L47386 71721
" />
<path d="M47948 71721
L47948 70933
" />
<path d="M47948 71046
L48004 70990
L48117 70933
L48285 70933
L48398 70990
L48454 71102
L48454 71721
" />
<path d="M48454 71102
L48510 70990
L48623 70933
L48792 70933
L48904 70990
L48960 71102
L48960 71721
" />
<path d="M51266 70483
L50254 72002
" />
<path d="M52785 70540
L52897 70540
L53010 70596
L53066 70652
L53122 70765
L53179 70990
L53179 71271
L53122 71496
L53066 71608
L53010 71665
L52897 71721
L52785 71721
L52672 71665
L52616 71608
L52560 71496
L52504 71271
L52504 70990
L52560 70765
L52616 70652
L52672 70596
L52785 70540
" />
<path d="M53685 71608
L53741 71665
L53685 71721
L53629 71665
L53685 71608
L53685 71721
" />
<path d="M54866 71721
L54191 71721
" />
<path d="M54528 71721
L54528 70540
L54416 70708
L54303 70821
L54191 70877
" />
<path d="M55316 70652
L55372 70596
L55485 70540
L55766 70540
L55878 70596
L55935 70652
L55991 70765
L55991 70877
L55935 71046
L55260 71721
L55991 71721
" />
<path d="M57003 70540
L56778 70540
L56666 70596
L56609 70652
L56497 70821
L56441 71046
L56441 71496
L56497 71608
L56553 71665
L56666 71721
L56891 71721
L57003 71665
L57059 71608
L57116 71496
L57116 71215
L57059 71102
L57003 71046
L56891 70990
L56666 70990
L56553 71046
L56497 71102
L56441 71215
" />
<path d="M57566 70540
L57566 70765
" />
<path d="M58016 70540
L58016 70765
" />
<path d="M59759 72171
L59703 72115
L59590 71946
L59534 71833
L59478 71665
L59422 71383
L59422 71158
L59478 70877
L59534 70708
L59590 70596
L59703 70427
L59759 70371
" />
<path d="M60715 70933
L60715 71721
" />
<path d="M60434 70483
L60153 71327
L60884 71327
" />
<path d="M62234 71721
L62234 70540
" />
<path d="M62740 71721
L62740 71102
L62684 70990
L62571 70933
L62402 70933
L62290 70990
L62234 71046
" />
<path d="M63471 71721
L63359 71665
L63302 71608
L63246 71496
L63246 71158
L63302 71046
L63359 70990
L63471 70933
L63640 70933
L63752 70990
L63809 71046
L63865 71158
L63865 71496
L63809 71608
L63752 71665
L63640 71721
L63471 71721
" />
<path d="M64540 71721
L64427 71665
L64371 71552
L64371 70540
" />
<path d="M65440 71665
L65327 71721
L65102 71721
L64990 71665
L64933 71552
L64933 71102
L64990 70990
L65102 70933
L65327 70933
L65440 70990
L65496 71102
L65496 71215
L64933 71327
" />
<path d="M65946 71665
L66058 71721
L66283 71721
L66396 71665
L66452 71552
L66452 71496
L66396 71383
L66283 71327
L66115 71327
L66002 71271
L65946 71158
L65946 71102
L66002 70990
L66115 70933
L66283 70933
L66396 70990
" />
<path d="M66846 72171
L66902 72115
L67014 71946
L67071 71833
L67127 71665
L67183 71383
L67183 71158
L67127 70877
L67071 70708
L67014 70596
L66902 70427
L66846 70371
" />
<path d="M68983 72171
L68927 72115
L68814 71946
L68758 71833
L68702 71665
L68645 71383
L68645 71158
L68702 70877
L68758 70708
L68814 70596
L68927 70427
L68983 70371
" />
<path d="M69433 70933
L69433 71721
" />
<path d="M69433 71046
L69489 70990
L69602 70933
L69770 70933
L69883 70990
L69939 71102
L69939 71721
" />
<path d="M70670 71721
L70558 71665
L70501 71608
L70445 71496
L70445 71158
L70501 71046
L70558 70990
L70670 70933
L70839 70933
L70951 70990
L71008 71046
L71064 71158
L71064 71496
L71008 71608
L70951 71665
L70839 71721
L70670 71721
" />
<path d="M71401 70933
L71851 70933
" />
<path d="M71570 70540
L71570 71552
L71626 71665
L71739 71721
L71851 71721
" />
<path d="M73145 70933
L73145 72115
" />
<path d="M73145 70990
L73257 70933
L73482 70933
L73595 70990
L73651 71046
L73707 71158
L73707 71496
L73651 71608
L73595 71665
L73482 71721
L73257 71721
L73145 71665
" />
<path d="M74382 71721
L74270 71665
L74214 71552
L74214 70540
" />
<path d="M75338 71721
L75338 71102
L75282 70990
L75170 70933
L74945 70933
L74832 70990
" />
<path d="M75338 71665
L75226 71721
L74945 71721
L74832 71665
L74776 71552
L74776 71440
L74832 71327
L74945 71271
L75226 71271
L75338 71215
" />
<path d="M75732 70933
L76182 70933
" />
<path d="M75901 70540
L75901 71552
L75957 71665
L76070 71721
L76182 71721
" />
<path d="M77026 71665
L76913 71721
L76688 71721
L76576 71665
L76519 71552
L76519 71102
L76576 70990
L76688 70933
L76913 70933
L77026 70990
L77082 71102
L77082 71215
L76519 71327
" />
<path d="M78094 71721
L78094 70540
" />
<path d="M78094 71665
L77982 71721
L77757 71721
L77644 71665
L77588 71608
L77532 71496
L77532 71158
L77588 71046
L77644 70990
L77757 70933
L77982 70933
L78094 70990
" />
<path d="M78544 72171
L78600 72115
L78713 71946
L78769 71833
L78825 71665
L78882 71383
L78882 71158
L78825 70877
L78769 70708
L78713 70596
L78600 70427
L78544 70371
" />
</g> 
</svg>
