M48
; DRILL file {KiCad (5.1.0)-1} date 03/04/2019 21:41:39
; FORMAT={-:-/ absolute / metric / decimal}
; #@! TF.CreationDate,2019-04-03T21:41:39+01:00
; #@! TF.GenerationSoftware,Kicad,Pcbnew,(5.1.0)-1
FMAT,2
METRIC
T1C0.300
T2C0.500
T3C0.800
T4C1.000
T5C4.000
T6C3.200
%
G90
G05
T1
X48.8Y52.8
X48.8Y48.8
X52.8Y52.8
X52.8Y48.8
T2
X1.7Y89.8
X1.7Y77.7
X10.0Y98.3
X12.0Y92.3
X12.8Y35.1
X12.9Y21.0
X13.335Y88.265
X13.97Y84.455
X13.97Y81.915
X15.0Y65.2
X15.07Y38.77
X15.1Y69.2
X15.1Y58.0
X15.1Y46.3
X15.1Y35.1
X15.1Y28.3
X15.1Y24.6
X15.1Y17.1
X16.0Y61.4
X16.5Y15.3
X16.51Y95.885
X19.685Y76.2
X19.8Y13.8
X20.32Y85.09
X20.5Y88.7
X21.0Y41.9
X22.4Y71.1
X22.6Y98.3
X22.7Y34.3
X22.86Y82.55
X22.86Y81.28
X23.0Y44.5
X23.2Y40.1
X23.22Y38.42
X24.3Y46.3
X24.5Y41.8
X25.0Y13.9
X25.0Y11.6
X26.416Y27.432
X26.67Y78.74
X26.67Y74.93
X26.67Y72.39
X26.67Y69.85
X26.67Y66.675
X26.67Y64.77
X26.7Y58.4
X27.94Y48.26
X27.94Y22.225
X28.2Y34.3
X31.75Y85.09
X31.75Y80.01
X31.75Y74.93
X31.75Y69.85
X33.119Y44.102
X33.4Y13.9
X33.5Y56.5
X33.8Y71.9
X34.1Y39.9
X34.1Y35.1
X34.1Y27.5
X34.1Y23.3
X34.72Y96.95
X35.1Y42.7
X35.6Y87.3
X37.5Y59.2
X37.8Y89.5
X38.4Y42.6
X38.7Y7.7
X39.0Y35.2
X39.37Y73.66
X39.7Y57.4
X40.3Y27.6
X40.64Y12.7
X40.8Y69.7
X41.275Y59.182
X41.7Y42.7
X41.8Y40.7
X42.9Y57.8
X43.1Y88.75
X45.1Y59.3
X45.5Y37.6
X46.4Y88.6
X48.0Y75.4
X48.0Y74.3
X48.0Y73.2
X48.26Y15.24
X48.7Y27.6
X49.0Y76.4
X49.5Y88.6
X50.25Y59.75
X50.8Y82.5
X50.8Y78.5
X50.8Y76.4
X52.0Y67.9
X52.07Y12.7
X52.2Y34.9
X52.4Y76.4
X53.4Y88.6
X53.6Y75.4
X53.6Y74.3
X53.6Y73.2
X55.3Y76.2
X55.88Y12.7
X56.4Y58.5
X57.0Y73.2
X57.1Y88.6
X58.1Y34.9
X58.4Y55.0
X59.055Y27.94
X59.69Y12.7
X59.944Y65.596
X60.325Y35.242
X61.0Y48.4
X61.6Y73.2
X61.6Y18.6
X62.0Y24.5
X64.389Y31.242
X64.4Y48.4
X65.1Y73.2
X65.2Y16.0
X65.4Y9.25
X65.6Y56.4
X65.6Y53.5
X65.7Y62.2
X65.7Y39.5
X67.691Y35.877
X68.2Y73.2
X68.7Y17.8
X69.0Y7.0
X69.278Y28.258
X69.35Y90.2
X69.4Y97.1
X70.675Y32.385
X70.802Y22.987
X71.183Y44.895
X71.247Y54.165
X71.374Y78.74
X73.3Y98.3
X76.581Y41.846
X76.581Y31.686
X76.581Y21.59
X76.581Y11.367
X76.644Y88.9
X76.644Y78.74
X76.644Y68.516
X76.644Y58.356
X77.66Y46.418
X77.724Y51.943
X78.803Y36.83
X78.803Y26.67
X78.803Y16.51
X80.137Y83.693
X80.137Y73.533
X80.137Y63.309
X81.6Y46.4
X83.3Y48.5
X83.376Y88.9
X83.376Y78.74
X83.376Y68.58
X83.376Y58.483
X83.376Y42.037
X83.376Y31.75
X83.376Y21.59
X83.376Y11.43
X83.5Y98.4
X83.82Y51.689
X84.2Y1.6
X87.249Y97.346
X89.535Y47.625
X89.599Y54.673
X89.916Y93.091
X90.8Y1.6
X97.472Y55.118
X97.472Y45.657
X97.853Y91.313
X98.234Y7.874
T3
X42.184Y67.33
X44.684Y67.33
X54.61Y64.984
X54.61Y62.484
X21.11Y92.71
X24.61Y92.71
X62.039Y58.61
X64.54Y58.61
X61.976Y43.053
X64.476Y43.053
X54.61Y38.862
X54.61Y36.362
X22.86Y63.48
X22.86Y60.98
X59.69Y80.49
X59.69Y76.99
X40.64Y86.975
X40.64Y84.475
X34.31Y67.31
X36.81Y67.31
X69.913Y51.943
X69.913Y49.443
X64.925Y93.98
X68.425Y93.98
T4
X5.08Y46.99
X5.08Y44.45
X5.08Y41.91
X5.08Y39.37
X5.08Y36.83
X7.62Y46.99
X7.62Y44.45
X7.62Y41.91
X7.62Y39.37
X7.62Y36.83
X10.16Y6.35
X10.16Y3.81
X3.81Y86.36
X3.81Y83.82
X3.81Y81.28
X5.08Y25.4
X5.08Y22.86
X5.08Y20.32
X5.08Y17.78
X5.08Y15.24
X7.62Y25.4
X7.62Y22.86
X7.62Y20.32
X7.62Y17.78
X7.62Y15.24
X52.07Y5.08
X52.07Y2.54
X63.5Y5.08
X63.5Y2.54
X5.08Y68.58
X5.08Y66.04
X5.08Y63.5
X5.08Y60.96
X5.08Y58.42
X7.62Y68.58
X7.62Y66.04
X7.62Y63.5
X7.62Y60.96
X7.62Y58.42
X21.59Y6.35
X21.59Y3.81
X24.13Y6.35
X24.13Y3.81
X26.67Y6.35
X26.67Y3.81
X29.21Y6.35
X29.21Y3.81
X31.75Y6.35
X31.75Y3.81
X92.71Y38.1
X92.71Y35.56
X92.71Y33.02
X92.71Y30.48
X92.71Y27.94
X92.71Y25.4
X92.71Y22.86
X92.71Y20.32
X92.71Y17.78
X92.71Y15.24
X95.25Y38.1
X95.25Y35.56
X95.25Y33.02
X95.25Y30.48
X95.25Y27.94
X95.25Y25.4
X95.25Y22.86
X95.25Y20.32
X95.25Y17.78
X95.25Y15.24
X55.88Y5.08
X55.88Y2.54
X92.71Y85.09
X92.71Y82.55
X92.71Y80.01
X92.71Y77.47
X92.71Y74.93
X92.71Y72.39
X92.71Y69.85
X92.71Y67.31
X92.71Y64.77
X92.71Y62.23
X95.25Y85.09
X95.25Y82.55
X95.25Y80.01
X95.25Y77.47
X95.25Y74.93
X95.25Y72.39
X95.25Y69.85
X95.25Y67.31
X95.25Y64.77
X95.25Y62.23
X67.31Y5.08
X67.31Y2.54
X41.05Y21.73
X41.05Y19.19
X43.59Y21.73
X43.59Y19.19
X46.13Y21.73
X46.13Y19.19
X48.67Y21.73
X48.67Y19.19
X51.21Y21.73
X51.21Y19.19
X53.75Y21.73
X53.75Y19.19
X55.88Y95.25
X42.545Y95.25
X48.26Y5.08
X48.26Y2.54
X44.45Y5.08
X44.45Y2.54
X59.69Y5.08
X59.69Y2.54
T5
X50.8Y50.8
T6
X5.0Y95.0
X5.0Y5.0
X95.0Y95.0
X95.0Y5.0
T4
G00X53.475Y95.25
M15
G01X51.935Y95.25
M16
G05
G00X44.95Y95.25
M15
G01X46.49Y95.25
M16
G05
T0
M30
