G04 #@! TF.GenerationSoftware,KiCad,Pcbnew,(5.1.0)-1*
G04 #@! TF.CreationDate,2019-04-03T22:14:52+01:00*
G04 #@! TF.ProjectId,DAC-AK4458-1.0,4441432d-414b-4343-9435-382d312e302e,1.0*
G04 #@! TF.SameCoordinates,PX6422c40PY8f0d180*
G04 #@! TF.FileFunction,Legend,Bot*
G04 #@! TF.FilePolarity,Positive*
%FSLAX46Y46*%
G04 Gerber Fmt 4.6, Leading zero omitted, Abs format (unit mm)*
G04 Created by KiCad (PCBNEW (5.1.0)-1) date 2019-04-03 22:14:52*
%MOMM*%
%LPD*%
G04 APERTURE LIST*
%ADD10C,0.300000*%
%ADD11C,0.150000*%
%ADD12C,0.250000*%
%ADD13C,0.200000*%
G04 APERTURE END LIST*
D10*
X56678571Y23235715D02*
X55178571Y23235715D01*
X56250000Y22735715D01*
X55178571Y22235715D01*
X56678571Y22235715D01*
X55178571Y21521429D02*
X56392857Y21521429D01*
X56535714Y21450000D01*
X56607142Y21378572D01*
X56678571Y21235715D01*
X56678571Y20950000D01*
X56607142Y20807143D01*
X56535714Y20735715D01*
X56392857Y20664286D01*
X55178571Y20664286D01*
X55178571Y20164286D02*
X55178571Y19307143D01*
X56678571Y19735715D02*
X55178571Y19735715D01*
X55892857Y18807143D02*
X55892857Y18307143D01*
X56678571Y18092858D02*
X56678571Y18807143D01*
X55178571Y18807143D01*
X55178571Y18092858D01*
X51986571Y26348429D02*
X51272285Y26848429D01*
X51986571Y27205572D02*
X50486571Y27205572D01*
X50486571Y26634143D01*
X50558000Y26491286D01*
X50629428Y26419858D01*
X50772285Y26348429D01*
X50986571Y26348429D01*
X51129428Y26419858D01*
X51200857Y26491286D01*
X51272285Y26634143D01*
X51272285Y27205572D01*
X51915142Y25777000D02*
X51986571Y25562715D01*
X51986571Y25205572D01*
X51915142Y25062715D01*
X51843714Y24991286D01*
X51700857Y24919858D01*
X51558000Y24919858D01*
X51415142Y24991286D01*
X51343714Y25062715D01*
X51272285Y25205572D01*
X51200857Y25491286D01*
X51129428Y25634143D01*
X51058000Y25705572D01*
X50915142Y25777000D01*
X50772285Y25777000D01*
X50629428Y25705572D01*
X50558000Y25634143D01*
X50486571Y25491286D01*
X50486571Y25134143D01*
X50558000Y24919858D01*
X50486571Y24491286D02*
X50486571Y23634143D01*
X51986571Y24062715D02*
X50486571Y24062715D01*
X44096714Y26419858D02*
X44168142Y26491286D01*
X44239571Y26705572D01*
X44239571Y26848429D01*
X44168142Y27062715D01*
X44025285Y27205572D01*
X43882428Y27277000D01*
X43596714Y27348429D01*
X43382428Y27348429D01*
X43096714Y27277000D01*
X42953857Y27205572D01*
X42811000Y27062715D01*
X42739571Y26848429D01*
X42739571Y26705572D01*
X42811000Y26491286D01*
X42882428Y26419858D01*
X44239571Y25062715D02*
X44239571Y25777000D01*
X42739571Y25777000D01*
X44239571Y24562715D02*
X42739571Y24562715D01*
X44239571Y23705572D02*
X43382428Y24348429D01*
X42739571Y23705572D02*
X43596714Y24562715D01*
X49303714Y25015000D02*
X49375142Y25086429D01*
X49446571Y25300715D01*
X49446571Y25443572D01*
X49375142Y25657858D01*
X49232285Y25800715D01*
X49089428Y25872143D01*
X48803714Y25943572D01*
X48589428Y25943572D01*
X48303714Y25872143D01*
X48160857Y25800715D01*
X48018000Y25657858D01*
X47946571Y25443572D01*
X47946571Y25300715D01*
X48018000Y25086429D01*
X48089428Y25015000D01*
X49375142Y24443572D02*
X49446571Y24229286D01*
X49446571Y23872143D01*
X49375142Y23729286D01*
X49303714Y23657858D01*
X49160857Y23586429D01*
X49018000Y23586429D01*
X48875142Y23657858D01*
X48803714Y23729286D01*
X48732285Y23872143D01*
X48660857Y24157858D01*
X48589428Y24300715D01*
X48518000Y24372143D01*
X48375142Y24443572D01*
X48232285Y24443572D01*
X48089428Y24372143D01*
X48018000Y24300715D01*
X47946571Y24157858D01*
X47946571Y23800715D01*
X48018000Y23586429D01*
X46779571Y28392143D02*
X45279571Y28392143D01*
X46351000Y27892143D01*
X45279571Y27392143D01*
X46779571Y27392143D01*
X45279571Y26392143D02*
X45279571Y26106429D01*
X45351000Y25963572D01*
X45493857Y25820715D01*
X45779571Y25749286D01*
X46279571Y25749286D01*
X46565285Y25820715D01*
X46708142Y25963572D01*
X46779571Y26106429D01*
X46779571Y26392143D01*
X46708142Y26535000D01*
X46565285Y26677858D01*
X46279571Y26749286D01*
X45779571Y26749286D01*
X45493857Y26677858D01*
X45351000Y26535000D01*
X45279571Y26392143D01*
X46708142Y25177858D02*
X46779571Y24963572D01*
X46779571Y24606429D01*
X46708142Y24463572D01*
X46636714Y24392143D01*
X46493857Y24320715D01*
X46351000Y24320715D01*
X46208142Y24392143D01*
X46136714Y24463572D01*
X46065285Y24606429D01*
X45993857Y24892143D01*
X45922428Y25035000D01*
X45851000Y25106429D01*
X45708142Y25177858D01*
X45565285Y25177858D01*
X45422428Y25106429D01*
X45351000Y25035000D01*
X45279571Y24892143D01*
X45279571Y24535000D01*
X45351000Y24320715D01*
X46779571Y23677858D02*
X45279571Y23677858D01*
D11*
X97282000Y67084144D02*
X97282000Y62258144D01*
D12*
X96734380Y68830335D02*
X96734380Y68735097D01*
X96782000Y68639859D01*
X96829619Y68592240D01*
X96924857Y68544621D01*
X97115333Y68497002D01*
X97353428Y68497002D01*
X97543904Y68544621D01*
X97639142Y68592240D01*
X97686761Y68639859D01*
X97734380Y68735097D01*
X97734380Y68830335D01*
X97686761Y68925573D01*
X97639142Y68973192D01*
X97543904Y69020811D01*
X97353428Y69068430D01*
X97115333Y69068430D01*
X96924857Y69020811D01*
X96829619Y68973192D01*
X96782000Y68925573D01*
X96734380Y68830335D01*
X96734380Y68211287D02*
X97734380Y67877954D01*
X96734380Y67544621D01*
D11*
X97282000Y69624144D02*
X97282000Y85118144D01*
D10*
X89884285Y39691429D02*
X89884285Y38691429D01*
X90241428Y40262858D02*
X90598571Y39191429D01*
X89670000Y39191429D01*
X90062857Y34988572D02*
X90062857Y36131429D01*
X89741428Y13291429D02*
X90598571Y13291429D01*
X90170000Y13291429D02*
X90170000Y14791429D01*
X90312857Y14577143D01*
X90455714Y14434286D01*
X90598571Y14362858D01*
X90062857Y19748572D02*
X90062857Y20891429D01*
X89598571Y22967143D02*
X90741428Y22967143D01*
X90170000Y23538572D02*
X90170000Y22395715D01*
X89598571Y17887143D02*
X90741428Y17887143D01*
X90170000Y18458572D02*
X90170000Y17315715D01*
X89598571Y28047143D02*
X90741428Y28047143D01*
X90170000Y28618572D02*
X90170000Y27475715D01*
X90062857Y24828572D02*
X90062857Y25971429D01*
X89598571Y33127143D02*
X90741428Y33127143D01*
X90170000Y33698572D02*
X90170000Y32555715D01*
X90062857Y29908572D02*
X90062857Y31051429D01*
X73063571Y90733572D02*
X73063571Y91447858D01*
X71563571Y91447858D01*
X73063571Y90233572D02*
X72063571Y90233572D01*
X71563571Y90233572D02*
X71635000Y90305000D01*
X71706428Y90233572D01*
X71635000Y90162143D01*
X71563571Y90233572D01*
X71706428Y90233572D01*
X72992142Y88876429D02*
X73063571Y89019286D01*
X73063571Y89305000D01*
X72992142Y89447858D01*
X72920714Y89519286D01*
X72777857Y89590715D01*
X72349285Y89590715D01*
X72206428Y89519286D01*
X72135000Y89447858D01*
X72063571Y89305000D01*
X72063571Y89019286D01*
X72135000Y88876429D01*
X72992142Y87662143D02*
X73063571Y87805000D01*
X73063571Y88090715D01*
X72992142Y88233572D01*
X72849285Y88305000D01*
X72277857Y88305000D01*
X72135000Y88233572D01*
X72063571Y88090715D01*
X72063571Y87805000D01*
X72135000Y87662143D01*
X72277857Y87590715D01*
X72420714Y87590715D01*
X72563571Y88305000D01*
X72063571Y86947858D02*
X73063571Y86947858D01*
X72206428Y86947858D02*
X72135000Y86876429D01*
X72063571Y86733572D01*
X72063571Y86519286D01*
X72135000Y86376429D01*
X72277857Y86305000D01*
X73063571Y86305000D01*
X72992142Y85662143D02*
X73063571Y85519286D01*
X73063571Y85233572D01*
X72992142Y85090715D01*
X72849285Y85019286D01*
X72777857Y85019286D01*
X72635000Y85090715D01*
X72563571Y85233572D01*
X72563571Y85447858D01*
X72492142Y85590715D01*
X72349285Y85662143D01*
X72277857Y85662143D01*
X72135000Y85590715D01*
X72063571Y85447858D01*
X72063571Y85233572D01*
X72135000Y85090715D01*
X72992142Y83805000D02*
X73063571Y83947858D01*
X73063571Y84233572D01*
X72992142Y84376429D01*
X72849285Y84447858D01*
X72277857Y84447858D01*
X72135000Y84376429D01*
X72063571Y84233572D01*
X72063571Y83947858D01*
X72135000Y83805000D01*
X72277857Y83733572D01*
X72420714Y83733572D01*
X72563571Y84447858D01*
X73063571Y82447858D02*
X71563571Y82447858D01*
X72992142Y82447858D02*
X73063571Y82590715D01*
X73063571Y82876429D01*
X72992142Y83019286D01*
X72920714Y83090715D01*
X72777857Y83162143D01*
X72349285Y83162143D01*
X72206428Y83090715D01*
X72135000Y83019286D01*
X72063571Y82876429D01*
X72063571Y82590715D01*
X72135000Y82447858D01*
X72063571Y79947858D02*
X73063571Y79947858D01*
X72063571Y80590715D02*
X72849285Y80590715D01*
X72992142Y80519286D01*
X73063571Y80376429D01*
X73063571Y80162143D01*
X72992142Y80019286D01*
X72920714Y79947858D01*
X72063571Y79233572D02*
X73063571Y79233572D01*
X72206428Y79233572D02*
X72135000Y79162143D01*
X72063571Y79019286D01*
X72063571Y78805000D01*
X72135000Y78662143D01*
X72277857Y78590715D01*
X73063571Y78590715D01*
X73063571Y77233572D02*
X71563571Y77233572D01*
X72992142Y77233572D02*
X73063571Y77376429D01*
X73063571Y77662143D01*
X72992142Y77805000D01*
X72920714Y77876429D01*
X72777857Y77947858D01*
X72349285Y77947858D01*
X72206428Y77876429D01*
X72135000Y77805000D01*
X72063571Y77662143D01*
X72063571Y77376429D01*
X72135000Y77233572D01*
X72992142Y75947858D02*
X73063571Y76090715D01*
X73063571Y76376429D01*
X72992142Y76519286D01*
X72849285Y76590715D01*
X72277857Y76590715D01*
X72135000Y76519286D01*
X72063571Y76376429D01*
X72063571Y76090715D01*
X72135000Y75947858D01*
X72277857Y75876429D01*
X72420714Y75876429D01*
X72563571Y76590715D01*
X73063571Y75233572D02*
X72063571Y75233572D01*
X72349285Y75233572D02*
X72206428Y75162143D01*
X72135000Y75090715D01*
X72063571Y74947858D01*
X72063571Y74805000D01*
X71563571Y73376429D02*
X71563571Y72519286D01*
X73063571Y72947858D02*
X71563571Y72947858D01*
X72635000Y72090715D02*
X72635000Y71376429D01*
X73063571Y72233572D02*
X71563571Y71733572D01*
X73063571Y71233572D01*
X73063571Y70733572D02*
X71563571Y70733572D01*
X71563571Y70162143D01*
X71635000Y70019286D01*
X71706428Y69947858D01*
X71849285Y69876429D01*
X72063571Y69876429D01*
X72206428Y69947858D01*
X72277857Y70019286D01*
X72349285Y70162143D01*
X72349285Y70733572D01*
X73063571Y68376429D02*
X72349285Y68876429D01*
X73063571Y69233572D02*
X71563571Y69233572D01*
X71563571Y68662143D01*
X71635000Y68519286D01*
X71706428Y68447858D01*
X71849285Y68376429D01*
X72063571Y68376429D01*
X72206428Y68447858D01*
X72277857Y68519286D01*
X72349285Y68662143D01*
X72349285Y69233572D01*
X71563571Y66305000D02*
X71563571Y66019286D01*
X71635000Y65876429D01*
X71777857Y65733572D01*
X72063571Y65662143D01*
X72563571Y65662143D01*
X72849285Y65733572D01*
X72992142Y65876429D01*
X73063571Y66019286D01*
X73063571Y66305000D01*
X72992142Y66447858D01*
X72849285Y66590715D01*
X72563571Y66662143D01*
X72063571Y66662143D01*
X71777857Y66590715D01*
X71635000Y66447858D01*
X71563571Y66305000D01*
X72063571Y65019286D02*
X73563571Y65019286D01*
X72135000Y65019286D02*
X72063571Y64876429D01*
X72063571Y64590715D01*
X72135000Y64447858D01*
X72206428Y64376429D01*
X72349285Y64305000D01*
X72777857Y64305000D01*
X72920714Y64376429D01*
X72992142Y64447858D01*
X73063571Y64590715D01*
X73063571Y64876429D01*
X72992142Y65019286D01*
X72992142Y63090715D02*
X73063571Y63233572D01*
X73063571Y63519286D01*
X72992142Y63662143D01*
X72849285Y63733572D01*
X72277857Y63733572D01*
X72135000Y63662143D01*
X72063571Y63519286D01*
X72063571Y63233572D01*
X72135000Y63090715D01*
X72277857Y63019286D01*
X72420714Y63019286D01*
X72563571Y63733572D01*
X72063571Y62376429D02*
X73063571Y62376429D01*
X72206428Y62376429D02*
X72135000Y62305000D01*
X72063571Y62162143D01*
X72063571Y61947858D01*
X72135000Y61805000D01*
X72277857Y61733572D01*
X73063571Y61733572D01*
X75613571Y91447858D02*
X74113571Y91447858D01*
X74827857Y91447858D02*
X74827857Y90590715D01*
X75613571Y90590715D02*
X74113571Y90590715D01*
X75613571Y89233572D02*
X74827857Y89233572D01*
X74685000Y89305000D01*
X74613571Y89447858D01*
X74613571Y89733572D01*
X74685000Y89876429D01*
X75542142Y89233572D02*
X75613571Y89376429D01*
X75613571Y89733572D01*
X75542142Y89876429D01*
X75399285Y89947858D01*
X75256428Y89947858D01*
X75113571Y89876429D01*
X75042142Y89733572D01*
X75042142Y89376429D01*
X74970714Y89233572D01*
X75613571Y88519286D02*
X74613571Y88519286D01*
X74899285Y88519286D02*
X74756428Y88447858D01*
X74685000Y88376429D01*
X74613571Y88233572D01*
X74613571Y88090715D01*
X75613571Y86947858D02*
X74113571Y86947858D01*
X75542142Y86947858D02*
X75613571Y87090715D01*
X75613571Y87376429D01*
X75542142Y87519286D01*
X75470714Y87590715D01*
X75327857Y87662143D01*
X74899285Y87662143D01*
X74756428Y87590715D01*
X74685000Y87519286D01*
X74613571Y87376429D01*
X74613571Y87090715D01*
X74685000Y86947858D01*
X74613571Y86376429D02*
X75613571Y86090715D01*
X74899285Y85805000D01*
X75613571Y85519286D01*
X74613571Y85233572D01*
X75613571Y84019286D02*
X74827857Y84019286D01*
X74685000Y84090715D01*
X74613571Y84233572D01*
X74613571Y84519286D01*
X74685000Y84662143D01*
X75542142Y84019286D02*
X75613571Y84162143D01*
X75613571Y84519286D01*
X75542142Y84662143D01*
X75399285Y84733572D01*
X75256428Y84733572D01*
X75113571Y84662143D01*
X75042142Y84519286D01*
X75042142Y84162143D01*
X74970714Y84019286D01*
X75613571Y83305000D02*
X74613571Y83305000D01*
X74899285Y83305000D02*
X74756428Y83233572D01*
X74685000Y83162143D01*
X74613571Y83019286D01*
X74613571Y82876429D01*
X75542142Y81805000D02*
X75613571Y81947858D01*
X75613571Y82233572D01*
X75542142Y82376429D01*
X75399285Y82447858D01*
X74827857Y82447858D01*
X74685000Y82376429D01*
X74613571Y82233572D01*
X74613571Y81947858D01*
X74685000Y81805000D01*
X74827857Y81733572D01*
X74970714Y81733572D01*
X75113571Y82447858D01*
X75613571Y79233572D02*
X75613571Y79947858D01*
X74113571Y79947858D01*
X75613571Y78733572D02*
X74613571Y78733572D01*
X74113571Y78733572D02*
X74185000Y78805000D01*
X74256428Y78733572D01*
X74185000Y78662143D01*
X74113571Y78733572D01*
X74256428Y78733572D01*
X75542142Y77376429D02*
X75613571Y77519286D01*
X75613571Y77805000D01*
X75542142Y77947858D01*
X75470714Y78019286D01*
X75327857Y78090715D01*
X74899285Y78090715D01*
X74756428Y78019286D01*
X74685000Y77947858D01*
X74613571Y77805000D01*
X74613571Y77519286D01*
X74685000Y77376429D01*
X75542142Y76162143D02*
X75613571Y76305000D01*
X75613571Y76590715D01*
X75542142Y76733572D01*
X75399285Y76805000D01*
X74827857Y76805000D01*
X74685000Y76733572D01*
X74613571Y76590715D01*
X74613571Y76305000D01*
X74685000Y76162143D01*
X74827857Y76090715D01*
X74970714Y76090715D01*
X75113571Y76805000D01*
X74613571Y75447858D02*
X75613571Y75447858D01*
X74756428Y75447858D02*
X74685000Y75376429D01*
X74613571Y75233572D01*
X74613571Y75019286D01*
X74685000Y74876429D01*
X74827857Y74805000D01*
X75613571Y74805000D01*
X75542142Y74162143D02*
X75613571Y74019286D01*
X75613571Y73733572D01*
X75542142Y73590715D01*
X75399285Y73519286D01*
X75327857Y73519286D01*
X75185000Y73590715D01*
X75113571Y73733572D01*
X75113571Y73947858D01*
X75042142Y74090715D01*
X74899285Y74162143D01*
X74827857Y74162143D01*
X74685000Y74090715D01*
X74613571Y73947858D01*
X74613571Y73733572D01*
X74685000Y73590715D01*
X75542142Y72305000D02*
X75613571Y72447858D01*
X75613571Y72733572D01*
X75542142Y72876429D01*
X75399285Y72947858D01*
X74827857Y72947858D01*
X74685000Y72876429D01*
X74613571Y72733572D01*
X74613571Y72447858D01*
X74685000Y72305000D01*
X74827857Y72233572D01*
X74970714Y72233572D01*
X75113571Y72947858D01*
X74613571Y70590715D02*
X75613571Y70305000D01*
X74899285Y70019286D01*
X75613571Y69733572D01*
X74613571Y69447858D01*
X74613571Y69019286D02*
X75613571Y68733572D01*
X74899285Y68447858D01*
X75613571Y68162143D01*
X74613571Y67876429D01*
X74613571Y67447858D02*
X75613571Y67162143D01*
X74899285Y66876429D01*
X75613571Y66590715D01*
X74613571Y66305000D01*
X75470714Y65733572D02*
X75542142Y65662143D01*
X75613571Y65733572D01*
X75542142Y65805000D01*
X75470714Y65733572D01*
X75613571Y65733572D01*
X74613571Y65233572D02*
X74613571Y64662143D01*
X74113571Y65019286D02*
X75399285Y65019286D01*
X75542142Y64947858D01*
X75613571Y64805000D01*
X75613571Y64662143D01*
X75613571Y63519286D02*
X74827857Y63519286D01*
X74685000Y63590715D01*
X74613571Y63733572D01*
X74613571Y64019286D01*
X74685000Y64162143D01*
X75542142Y63519286D02*
X75613571Y63662143D01*
X75613571Y64019286D01*
X75542142Y64162143D01*
X75399285Y64233572D01*
X75256428Y64233572D01*
X75113571Y64162143D01*
X75042142Y64019286D01*
X75042142Y63662143D01*
X74970714Y63519286D01*
X74613571Y62805000D02*
X76113571Y62805000D01*
X74685000Y62805000D02*
X74613571Y62662143D01*
X74613571Y62376429D01*
X74685000Y62233572D01*
X74756428Y62162143D01*
X74899285Y62090715D01*
X75327857Y62090715D01*
X75470714Y62162143D01*
X75542142Y62233572D01*
X75613571Y62376429D01*
X75613571Y62662143D01*
X75542142Y62805000D01*
X75613571Y61447858D02*
X74613571Y61447858D01*
X74899285Y61447858D02*
X74756428Y61376429D01*
X74685000Y61305000D01*
X74613571Y61162143D01*
X74613571Y61019286D01*
X75470714Y60519286D02*
X75542142Y60447858D01*
X75613571Y60519286D01*
X75542142Y60590715D01*
X75470714Y60519286D01*
X75613571Y60519286D01*
X75613571Y59590715D02*
X75542142Y59733572D01*
X75470714Y59805000D01*
X75327857Y59876429D01*
X74899285Y59876429D01*
X74756428Y59805000D01*
X74685000Y59733572D01*
X74613571Y59590715D01*
X74613571Y59376429D01*
X74685000Y59233572D01*
X74756428Y59162143D01*
X74899285Y59090715D01*
X75327857Y59090715D01*
X75470714Y59162143D01*
X75542142Y59233572D01*
X75613571Y59376429D01*
X75613571Y59590715D01*
X75613571Y58447858D02*
X74613571Y58447858D01*
X74899285Y58447858D02*
X74756428Y58376429D01*
X74685000Y58305000D01*
X74613571Y58162143D01*
X74613571Y58019286D01*
X74613571Y56876429D02*
X75827857Y56876429D01*
X75970714Y56947858D01*
X76042142Y57019286D01*
X76113571Y57162143D01*
X76113571Y57376429D01*
X76042142Y57519286D01*
X75542142Y56876429D02*
X75613571Y57019286D01*
X75613571Y57305000D01*
X75542142Y57447858D01*
X75470714Y57519286D01*
X75327857Y57590715D01*
X74899285Y57590715D01*
X74756428Y57519286D01*
X74685000Y57447858D01*
X74613571Y57305000D01*
X74613571Y57019286D01*
X74685000Y56876429D01*
X74042142Y55090715D02*
X75970714Y56376429D01*
X74113571Y54305000D02*
X74113571Y54019286D01*
X74185000Y53876429D01*
X74327857Y53733572D01*
X74613571Y53662143D01*
X75113571Y53662143D01*
X75399285Y53733572D01*
X75542142Y53876429D01*
X75613571Y54019286D01*
X75613571Y54305000D01*
X75542142Y54447858D01*
X75399285Y54590715D01*
X75113571Y54662143D01*
X74613571Y54662143D01*
X74327857Y54590715D01*
X74185000Y54447858D01*
X74113571Y54305000D01*
X75613571Y53019286D02*
X74113571Y53019286D01*
X74827857Y53019286D02*
X74827857Y52162143D01*
X75613571Y52162143D02*
X74113571Y52162143D01*
X75613571Y50733572D02*
X75613571Y51447858D01*
X74113571Y51447858D01*
D13*
X10381857Y64412860D02*
X10419952Y64298574D01*
X10458047Y64260479D01*
X10534238Y64222383D01*
X10648523Y64222383D01*
X10724714Y64260479D01*
X10762809Y64298574D01*
X10800904Y64374764D01*
X10800904Y64679526D01*
X10000904Y64679526D01*
X10000904Y64412860D01*
X10039000Y64336669D01*
X10077095Y64298574D01*
X10153285Y64260479D01*
X10229476Y64260479D01*
X10305666Y64298574D01*
X10343761Y64336669D01*
X10381857Y64412860D01*
X10381857Y64679526D01*
X10724714Y63422383D02*
X10762809Y63460479D01*
X10800904Y63574764D01*
X10800904Y63650955D01*
X10762809Y63765241D01*
X10686619Y63841431D01*
X10610428Y63879526D01*
X10458047Y63917622D01*
X10343761Y63917622D01*
X10191380Y63879526D01*
X10115190Y63841431D01*
X10039000Y63765241D01*
X10000904Y63650955D01*
X10000904Y63574764D01*
X10039000Y63460479D01*
X10077095Y63422383D01*
X10800904Y63079526D02*
X10000904Y63079526D01*
X10800904Y62622383D02*
X10343761Y62965241D01*
X10000904Y62622383D02*
X10458047Y63079526D01*
X10800904Y69736669D02*
X10000904Y69736669D01*
X10572333Y69470002D01*
X10000904Y69203336D01*
X10800904Y69203336D01*
X10724714Y68365241D02*
X10762809Y68403336D01*
X10800904Y68517622D01*
X10800904Y68593812D01*
X10762809Y68708098D01*
X10686619Y68784288D01*
X10610428Y68822383D01*
X10458047Y68860479D01*
X10343761Y68860479D01*
X10191380Y68822383D01*
X10115190Y68784288D01*
X10039000Y68708098D01*
X10000904Y68593812D01*
X10000904Y68517622D01*
X10039000Y68403336D01*
X10077095Y68365241D01*
X10800904Y68022383D02*
X10000904Y68022383D01*
X10800904Y67565241D02*
X10343761Y67908098D01*
X10000904Y67565241D02*
X10458047Y68022383D01*
X10800904Y66322383D02*
X10800904Y66703336D01*
X10000904Y66703336D01*
X10800904Y65598574D02*
X10419952Y65865241D01*
X10800904Y66055717D02*
X10000904Y66055717D01*
X10000904Y65750955D01*
X10039000Y65674764D01*
X10077095Y65636669D01*
X10153285Y65598574D01*
X10267571Y65598574D01*
X10343761Y65636669D01*
X10381857Y65674764D01*
X10419952Y65750955D01*
X10419952Y66055717D01*
X10800904Y61510479D02*
X10000904Y61510479D01*
X10000904Y61320002D01*
X10039000Y61205717D01*
X10115190Y61129526D01*
X10191380Y61091431D01*
X10343761Y61053336D01*
X10458047Y61053336D01*
X10610428Y61091431D01*
X10686619Y61129526D01*
X10762809Y61205717D01*
X10800904Y61320002D01*
X10800904Y61510479D01*
X10800904Y60291431D02*
X10800904Y60748574D01*
X10800904Y60520002D02*
X10000904Y60520002D01*
X10115190Y60596193D01*
X10191380Y60672383D01*
X10229476Y60748574D01*
X10521904Y39960477D02*
X9721904Y39960477D01*
X9721904Y39770000D01*
X9760000Y39655715D01*
X9836190Y39579524D01*
X9912380Y39541429D01*
X10064761Y39503334D01*
X10179047Y39503334D01*
X10331428Y39541429D01*
X10407619Y39579524D01*
X10483809Y39655715D01*
X10521904Y39770000D01*
X10521904Y39960477D01*
X9798095Y39198572D02*
X9760000Y39160477D01*
X9721904Y39084286D01*
X9721904Y38893810D01*
X9760000Y38817620D01*
X9798095Y38779524D01*
X9874285Y38741429D01*
X9950476Y38741429D01*
X10064761Y38779524D01*
X10521904Y39236667D01*
X10521904Y38741429D01*
X10521904Y18370477D02*
X9721904Y18370477D01*
X9721904Y18180000D01*
X9760000Y18065715D01*
X9836190Y17989524D01*
X9912380Y17951429D01*
X10064761Y17913334D01*
X10179047Y17913334D01*
X10331428Y17951429D01*
X10407619Y17989524D01*
X10483809Y18065715D01*
X10521904Y18180000D01*
X10521904Y18370477D01*
X9721904Y17646667D02*
X9721904Y17151429D01*
X10026666Y17418096D01*
X10026666Y17303810D01*
X10064761Y17227620D01*
X10102857Y17189524D01*
X10179047Y17151429D01*
X10369523Y17151429D01*
X10445714Y17189524D01*
X10483809Y17227620D01*
X10521904Y17303810D01*
X10521904Y17532381D01*
X10483809Y17608572D01*
X10445714Y17646667D01*
X29790476Y8038096D02*
X29790476Y8838096D01*
X29600000Y8838096D01*
X29485714Y8800000D01*
X29409523Y8723810D01*
X29371428Y8647620D01*
X29333333Y8495239D01*
X29333333Y8380953D01*
X29371428Y8228572D01*
X29409523Y8152381D01*
X29485714Y8076191D01*
X29600000Y8038096D01*
X29790476Y8038096D01*
X28647619Y8571429D02*
X28647619Y8038096D01*
X28838095Y8876191D02*
X29028571Y8304762D01*
X28533333Y8304762D01*
D11*
X97282000Y22634144D02*
X97282000Y38128144D01*
X97282000Y20094144D02*
X97282000Y15268144D01*
D12*
X96734380Y21840335D02*
X96734380Y21745097D01*
X96782000Y21649859D01*
X96829619Y21602240D01*
X96924857Y21554621D01*
X97115333Y21507002D01*
X97353428Y21507002D01*
X97543904Y21554621D01*
X97639142Y21602240D01*
X97686761Y21649859D01*
X97734380Y21745097D01*
X97734380Y21840335D01*
X97686761Y21935573D01*
X97639142Y21983192D01*
X97543904Y22030811D01*
X97353428Y22078430D01*
X97115333Y22078430D01*
X96924857Y22030811D01*
X96829619Y21983192D01*
X96782000Y21935573D01*
X96734380Y21840335D01*
X96734380Y21221287D02*
X97734380Y20887954D01*
X96734380Y20554621D01*
D10*
X90312857Y86538572D02*
X90455714Y86610000D01*
X90527142Y86681429D01*
X90598571Y86824286D01*
X90598571Y86895715D01*
X90527142Y87038572D01*
X90455714Y87110000D01*
X90312857Y87181429D01*
X90027142Y87181429D01*
X89884285Y87110000D01*
X89812857Y87038572D01*
X89741428Y86895715D01*
X89741428Y86824286D01*
X89812857Y86681429D01*
X89884285Y86610000D01*
X90027142Y86538572D01*
X90312857Y86538572D01*
X90455714Y86467143D01*
X90527142Y86395715D01*
X90598571Y86252858D01*
X90598571Y85967143D01*
X90527142Y85824286D01*
X90455714Y85752858D01*
X90312857Y85681429D01*
X90027142Y85681429D01*
X89884285Y85752858D01*
X89812857Y85824286D01*
X89741428Y85967143D01*
X89741428Y86252858D01*
X89812857Y86395715D01*
X89884285Y86467143D01*
X90027142Y86538572D01*
X89812857Y61781429D02*
X90527142Y61781429D01*
X90598571Y61067143D01*
X90527142Y61138572D01*
X90384285Y61210000D01*
X90027142Y61210000D01*
X89884285Y61138572D01*
X89812857Y61067143D01*
X89741428Y60924286D01*
X89741428Y60567143D01*
X89812857Y60424286D01*
X89884285Y60352858D01*
X90027142Y60281429D01*
X90384285Y60281429D01*
X90527142Y60352858D01*
X90598571Y60424286D01*
X89598571Y75037143D02*
X90741428Y75037143D01*
X90170000Y75608572D02*
X90170000Y74465715D01*
X90062857Y76898572D02*
X90062857Y78041429D01*
X89598571Y80117143D02*
X90741428Y80117143D01*
X90170000Y80688572D02*
X90170000Y79545715D01*
X90062857Y81978572D02*
X90062857Y83121429D01*
X89598571Y64877143D02*
X90741428Y64877143D01*
X90170000Y65448572D02*
X90170000Y64305715D01*
X90062857Y66738572D02*
X90062857Y67881429D01*
X89598571Y69957143D02*
X90741428Y69957143D01*
X90170000Y70528572D02*
X90170000Y69385715D01*
X90062857Y71818572D02*
X90062857Y72961429D01*
D11*
X100000000Y0D02*
X0Y0D01*
X100000000Y100000000D02*
X100000000Y0D01*
X0Y100000000D02*
X100000000Y100000000D01*
X0Y0D02*
X0Y100000000D01*
X52705000Y26670000D02*
X52705000Y26136600D01*
X52705000Y26670000D02*
X52705000Y27203400D01*
X53975000Y26670000D02*
X53975000Y26136600D01*
X53975000Y26670000D02*
X53975000Y27203400D01*
X13970000Y18415000D02*
X14503400Y18415000D01*
X13970000Y18415000D02*
X13436600Y18415000D01*
X13970000Y19685000D02*
X14503400Y19685000D01*
X13970000Y19685000D02*
X13436600Y19685000D01*
X25770000Y83450000D02*
X27570000Y83450000D01*
X26670000Y82750000D02*
X26670000Y83150000D01*
X26670000Y82250000D02*
X26670000Y81850000D01*
X26270000Y82750000D02*
X27070000Y82750000D01*
X27070000Y82250000D02*
X26670000Y82650000D01*
X26270000Y82250000D02*
X27070000Y82250000D01*
X26670000Y82650000D02*
X26270000Y82250000D01*
X27570000Y80950000D02*
X27470000Y80950000D01*
X27570000Y83950000D02*
X27570000Y80950000D01*
X27470000Y83950000D02*
X27570000Y83950000D01*
X25770000Y81150000D02*
X25870000Y81150000D01*
X25770000Y82550000D02*
X25770000Y81150000D01*
X25770000Y83950000D02*
X25870000Y83950000D01*
X25770000Y82550000D02*
X25770000Y83950000D01*
X85090000Y90627200D02*
X86106000Y90627200D01*
X85090000Y90627200D02*
X84074000Y90627200D01*
X85090000Y92252800D02*
X84074000Y92252800D01*
X85090000Y92252800D02*
X86106000Y92252800D01*
X85090000Y85547200D02*
X86106000Y85547200D01*
X85090000Y85547200D02*
X84074000Y85547200D01*
X85090000Y87172800D02*
X84074000Y87172800D01*
X85090000Y87172800D02*
X86106000Y87172800D01*
X85090000Y80467200D02*
X86106000Y80467200D01*
X85090000Y80467200D02*
X84074000Y80467200D01*
X85090000Y82092800D02*
X84074000Y82092800D01*
X85090000Y82092800D02*
X86106000Y82092800D01*
X85090000Y75387200D02*
X86106000Y75387200D01*
X85090000Y75387200D02*
X84074000Y75387200D01*
X85090000Y77012800D02*
X84074000Y77012800D01*
X85090000Y77012800D02*
X86106000Y77012800D01*
X85090000Y70307200D02*
X86106000Y70307200D01*
X85090000Y70307200D02*
X84074000Y70307200D01*
X85090000Y71932800D02*
X84074000Y71932800D01*
X85090000Y71932800D02*
X86106000Y71932800D01*
X85090000Y65227200D02*
X86106000Y65227200D01*
X85090000Y65227200D02*
X84074000Y65227200D01*
X85090000Y66852800D02*
X84074000Y66852800D01*
X85090000Y66852800D02*
X86106000Y66852800D01*
X85090000Y60147200D02*
X86106000Y60147200D01*
X85090000Y60147200D02*
X84074000Y60147200D01*
X85090000Y61772800D02*
X84074000Y61772800D01*
X85090000Y61772800D02*
X86106000Y61772800D01*
X85090000Y55067200D02*
X86106000Y55067200D01*
X85090000Y55067200D02*
X84074000Y55067200D01*
X85090000Y56692800D02*
X84074000Y56692800D01*
X85090000Y56692800D02*
X86106000Y56692800D01*
X85090000Y43637200D02*
X86106000Y43637200D01*
X85090000Y43637200D02*
X84074000Y43637200D01*
X85090000Y45262800D02*
X84074000Y45262800D01*
X85090000Y45262800D02*
X86106000Y45262800D01*
X85090000Y38557200D02*
X86106000Y38557200D01*
X85090000Y38557200D02*
X84074000Y38557200D01*
X85090000Y40182800D02*
X84074000Y40182800D01*
X85090000Y40182800D02*
X86106000Y40182800D01*
X85090000Y33477200D02*
X86106000Y33477200D01*
X85090000Y33477200D02*
X84074000Y33477200D01*
X85090000Y35102800D02*
X84074000Y35102800D01*
X85090000Y35102800D02*
X86106000Y35102800D01*
X85090000Y28397200D02*
X86106000Y28397200D01*
X85090000Y28397200D02*
X84074000Y28397200D01*
X85090000Y30022800D02*
X84074000Y30022800D01*
X85090000Y30022800D02*
X86106000Y30022800D01*
X85090000Y23317200D02*
X86106000Y23317200D01*
X85090000Y23317200D02*
X84074000Y23317200D01*
X85090000Y24942800D02*
X84074000Y24942800D01*
X85090000Y24942800D02*
X86106000Y24942800D01*
X85090000Y18237200D02*
X86106000Y18237200D01*
X85090000Y18237200D02*
X84074000Y18237200D01*
X85090000Y19862800D02*
X84074000Y19862800D01*
X85090000Y19862800D02*
X86106000Y19862800D01*
X59055000Y10160000D02*
X59055000Y9626600D01*
X59055000Y10160000D02*
X59055000Y10693400D01*
X60325000Y10160000D02*
X60325000Y9626600D01*
X60325000Y10160000D02*
X60325000Y10693400D01*
X51435000Y10160000D02*
X51435000Y9626600D01*
X51435000Y10160000D02*
X51435000Y10693400D01*
X52705000Y10160000D02*
X52705000Y9626600D01*
X52705000Y10160000D02*
X52705000Y10693400D01*
X47625000Y10160000D02*
X47625000Y9626600D01*
X47625000Y10160000D02*
X47625000Y10693400D01*
X48895000Y10160000D02*
X48895000Y9626600D01*
X48895000Y10160000D02*
X48895000Y10693400D01*
X43815000Y10160000D02*
X43815000Y9626600D01*
X43815000Y10160000D02*
X43815000Y10693400D01*
X45085000Y10160000D02*
X45085000Y9626600D01*
X45085000Y10160000D02*
X45085000Y10693400D01*
X85090000Y13157200D02*
X86106000Y13157200D01*
X85090000Y13157200D02*
X84074000Y13157200D01*
X85090000Y14782800D02*
X84074000Y14782800D01*
X85090000Y14782800D02*
X86106000Y14782800D01*
X85090000Y8077200D02*
X86106000Y8077200D01*
X85090000Y8077200D02*
X84074000Y8077200D01*
X85090000Y9702800D02*
X84074000Y9702800D01*
X85090000Y9702800D02*
X86106000Y9702800D01*
X36195000Y20400000D02*
X36195000Y19866600D01*
X36195000Y20400000D02*
X36195000Y20933400D01*
X37465000Y20400000D02*
X37465000Y19866600D01*
X37465000Y20400000D02*
X37465000Y20933400D01*
X32385000Y12700000D02*
X32385000Y13233400D01*
X32385000Y12700000D02*
X32385000Y12166600D01*
X31115000Y12700000D02*
X31115000Y13233400D01*
X31115000Y12700000D02*
X31115000Y12166600D01*
X13970000Y62865000D02*
X14503400Y62865000D01*
X13970000Y62865000D02*
X13436600Y62865000D01*
X13970000Y64135000D02*
X14503400Y64135000D01*
X13970000Y64135000D02*
X13436600Y64135000D01*
X13970000Y59055000D02*
X14503400Y59055000D01*
X13970000Y59055000D02*
X13436600Y59055000D01*
X13970000Y60325000D02*
X14503400Y60325000D01*
X13970000Y60325000D02*
X13436600Y60325000D01*
X13970000Y40005000D02*
X14503400Y40005000D01*
X13970000Y40005000D02*
X13436600Y40005000D01*
X13970000Y41275000D02*
X14503400Y41275000D01*
X13970000Y41275000D02*
X13436600Y41275000D01*
X13970000Y67945000D02*
X13436600Y67945000D01*
X13970000Y67945000D02*
X14503400Y67945000D01*
X13970000Y66675000D02*
X13436600Y66675000D01*
X13970000Y66675000D02*
X14503400Y66675000D01*
X43600000Y70465000D02*
X44133400Y70465000D01*
X43600000Y70465000D02*
X43066600Y70465000D01*
X43600000Y71735000D02*
X44133400Y71735000D01*
X43600000Y71735000D02*
X43066600Y71735000D01*
X66992500Y50843000D02*
X66992500Y51376400D01*
X66992500Y50843000D02*
X66992500Y50309600D01*
X65722500Y50843000D02*
X65722500Y51376400D01*
X65722500Y50843000D02*
X65722500Y50309600D01*
X22860000Y88065000D02*
X23393400Y88065000D01*
X22860000Y88065000D02*
X22326600Y88065000D01*
X22860000Y89335000D02*
X23393400Y89335000D01*
X22860000Y89335000D02*
X22326600Y89335000D01*
X66675000Y97735000D02*
X66141600Y97735000D01*
X66675000Y97735000D02*
X67208400Y97735000D01*
X66675000Y96465000D02*
X66141600Y96465000D01*
X66675000Y96465000D02*
X67208400Y96465000D01*
X13970000Y45085000D02*
X13436600Y45085000D01*
X13970000Y45085000D02*
X14503400Y45085000D01*
X13970000Y43815000D02*
X13436600Y43815000D01*
X13970000Y43815000D02*
X14503400Y43815000D01*
X13970000Y70485000D02*
X14503400Y70485000D01*
X13970000Y70485000D02*
X13436600Y70485000D01*
X13970000Y71755000D02*
X14503400Y71755000D01*
X13970000Y71755000D02*
X13436600Y71755000D01*
X26035000Y12700000D02*
X26035000Y12166600D01*
X26035000Y12700000D02*
X26035000Y13233400D01*
X27305000Y12700000D02*
X27305000Y12166600D01*
X27305000Y12700000D02*
X27305000Y13233400D01*
X13970000Y27305000D02*
X13436600Y27305000D01*
X13970000Y27305000D02*
X14503400Y27305000D01*
X13970000Y26035000D02*
X13436600Y26035000D01*
X13970000Y26035000D02*
X14503400Y26035000D01*
X13970000Y23495000D02*
X13436600Y23495000D01*
X13970000Y23495000D02*
X14503400Y23495000D01*
X13970000Y22225000D02*
X13436600Y22225000D01*
X13970000Y22225000D02*
X14503400Y22225000D01*
X66675000Y90805000D02*
X66141600Y90805000D01*
X66675000Y90805000D02*
X67208400Y90805000D01*
X66675000Y89535000D02*
X66141600Y89535000D01*
X66675000Y89535000D02*
X67208400Y89535000D01*
X55880000Y78740000D02*
X55880000Y79273400D01*
X55880000Y78740000D02*
X55880000Y78206600D01*
X54610000Y78740000D02*
X54610000Y79273400D01*
X54610000Y78740000D02*
X54610000Y78206600D01*
X49160000Y80910000D02*
X49160000Y79110000D01*
X48460000Y80010000D02*
X48860000Y80010000D01*
X47960000Y80010000D02*
X47560000Y80010000D01*
X48460000Y80410000D02*
X48460000Y79610000D01*
X47960000Y79610000D02*
X48360000Y80010000D01*
X47960000Y80410000D02*
X47960000Y79610000D01*
X48360000Y80010000D02*
X47960000Y80410000D01*
X46660000Y79110000D02*
X46660000Y79210000D01*
X49660000Y79110000D02*
X46660000Y79110000D01*
X49660000Y79210000D02*
X49660000Y79110000D01*
X46860000Y80910000D02*
X46860000Y80810000D01*
X48260000Y80910000D02*
X46860000Y80910000D01*
X49660000Y80910000D02*
X49660000Y80810000D01*
X48260000Y80910000D02*
X49660000Y80910000D01*
X23760000Y77100000D02*
X23760000Y75300000D01*
X23060000Y76200000D02*
X23460000Y76200000D01*
X22560000Y76200000D02*
X22160000Y76200000D01*
X23060000Y76600000D02*
X23060000Y75800000D01*
X22560000Y75800000D02*
X22960000Y76200000D01*
X22560000Y76600000D02*
X22560000Y75800000D01*
X22960000Y76200000D02*
X22560000Y76600000D01*
X21260000Y75300000D02*
X21260000Y75400000D01*
X24260000Y75300000D02*
X21260000Y75300000D01*
X24260000Y75400000D02*
X24260000Y75300000D01*
X21460000Y77100000D02*
X21460000Y77000000D01*
X22860000Y77100000D02*
X21460000Y77100000D01*
X24260000Y77100000D02*
X24260000Y77000000D01*
X22860000Y77100000D02*
X24260000Y77100000D01*
X45350000Y84825000D02*
X43550000Y84825000D01*
X44450000Y85525000D02*
X44450000Y85125000D01*
X44450000Y86025000D02*
X44450000Y86425000D01*
X44850000Y85525000D02*
X44050000Y85525000D01*
X44050000Y86025000D02*
X44450000Y85625000D01*
X44850000Y86025000D02*
X44050000Y86025000D01*
X44450000Y85625000D02*
X44850000Y86025000D01*
X43550000Y87325000D02*
X43650000Y87325000D01*
X43550000Y84325000D02*
X43550000Y87325000D01*
X43650000Y84325000D02*
X43550000Y84325000D01*
X45350000Y87125000D02*
X45250000Y87125000D01*
X45350000Y85725000D02*
X45350000Y87125000D01*
X45350000Y84325000D02*
X45250000Y84325000D01*
X45350000Y85725000D02*
X45350000Y84325000D01*
X31750000Y95885000D02*
X32283400Y95885000D01*
X31750000Y95885000D02*
X31216600Y95885000D01*
X31750000Y97155000D02*
X32283400Y97155000D01*
X31750000Y97155000D02*
X31216600Y97155000D01*
X27940000Y19050000D02*
X27406600Y19050000D01*
X27940000Y19050000D02*
X28473400Y19050000D01*
X27940000Y17780000D02*
X27406600Y17780000D01*
X27940000Y17780000D02*
X28473400Y17780000D01*
X55245000Y58356500D02*
X55245000Y58889900D01*
X55245000Y58356500D02*
X55245000Y57823100D01*
X53975000Y58356500D02*
X53975000Y58889900D01*
X53975000Y58356500D02*
X53975000Y57823100D01*
X57531000Y63584000D02*
X57531000Y63050600D01*
X57531000Y63584000D02*
X57531000Y64117400D01*
X58801000Y63584000D02*
X58801000Y63050600D01*
X58801000Y63584000D02*
X58801000Y64117400D01*
X63076000Y62801500D02*
X62542600Y62801500D01*
X63076000Y62801500D02*
X63609400Y62801500D01*
X63076000Y61531500D02*
X62542600Y61531500D01*
X63076000Y61531500D02*
X63609400Y61531500D01*
X63076000Y55689500D02*
X62542600Y55689500D01*
X63076000Y55689500D02*
X63609400Y55689500D01*
X63076000Y54419500D02*
X62542600Y54419500D01*
X63076000Y54419500D02*
X63609400Y54419500D01*
X41275000Y10160000D02*
X41275000Y10693400D01*
X41275000Y10160000D02*
X41275000Y9626600D01*
X40005000Y10160000D02*
X40005000Y10693400D01*
X40005000Y10160000D02*
X40005000Y9626600D01*
X37465000Y10160000D02*
X37465000Y10693400D01*
X37465000Y10160000D02*
X37465000Y9626600D01*
X36195000Y10160000D02*
X36195000Y10693400D01*
X36195000Y10160000D02*
X36195000Y9626600D01*
X23495000Y17145000D02*
X23495000Y17678400D01*
X23495000Y17145000D02*
X23495000Y16611600D01*
X22225000Y17145000D02*
X22225000Y17678400D01*
X22225000Y17145000D02*
X22225000Y16611600D01*
X46990000Y85725000D02*
X46990000Y85191600D01*
X46990000Y85725000D02*
X46990000Y86258400D01*
X48260000Y85725000D02*
X48260000Y85191600D01*
X48260000Y85725000D02*
X48260000Y86258400D01*
X13970000Y14605000D02*
X14503400Y14605000D01*
X13970000Y14605000D02*
X13436600Y14605000D01*
X13970000Y15875000D02*
X14503400Y15875000D01*
X13970000Y15875000D02*
X13436600Y15875000D01*
X13970000Y36195000D02*
X14503400Y36195000D01*
X13970000Y36195000D02*
X13436600Y36195000D01*
X13970000Y37465000D02*
X14503400Y37465000D01*
X13970000Y37465000D02*
X13436600Y37465000D01*
X13970000Y55245000D02*
X14503400Y55245000D01*
X13970000Y55245000D02*
X13436600Y55245000D01*
X13970000Y56515000D02*
X14503400Y56515000D01*
X13970000Y56515000D02*
X13436600Y56515000D01*
X63076000Y47244000D02*
X62542600Y47244000D01*
X63076000Y47244000D02*
X63609400Y47244000D01*
X63076000Y45974000D02*
X62542600Y45974000D01*
X63076000Y45974000D02*
X63609400Y45974000D01*
X63076000Y40132000D02*
X62542600Y40132000D01*
X63076000Y40132000D02*
X63609400Y40132000D01*
X63076000Y38862000D02*
X62542600Y38862000D01*
X63076000Y38862000D02*
X63609400Y38862000D01*
X58801000Y37762000D02*
X58801000Y38295400D01*
X58801000Y37762000D02*
X58801000Y37228600D01*
X57531000Y37762000D02*
X57531000Y38295400D01*
X57531000Y37762000D02*
X57531000Y37228600D01*
X51689000Y37762000D02*
X51689000Y38295400D01*
X51689000Y37762000D02*
X51689000Y37228600D01*
X50419000Y37762000D02*
X50419000Y38295400D01*
X50419000Y37762000D02*
X50419000Y37228600D01*
X25615000Y23165000D02*
X25615000Y21365000D01*
X24915000Y22265000D02*
X25315000Y22265000D01*
X24415000Y22265000D02*
X24015000Y22265000D01*
X24915000Y22665000D02*
X24915000Y21865000D01*
X24415000Y21865000D02*
X24815000Y22265000D01*
X24415000Y22665000D02*
X24415000Y21865000D01*
X24815000Y22265000D02*
X24415000Y22665000D01*
X23115000Y21365000D02*
X23115000Y21465000D01*
X26115000Y21365000D02*
X23115000Y21365000D01*
X26115000Y21465000D02*
X26115000Y21365000D01*
X23315000Y23165000D02*
X23315000Y23065000D01*
X24715000Y23165000D02*
X23315000Y23165000D01*
X26115000Y23165000D02*
X26115000Y23065000D01*
X24715000Y23165000D02*
X26115000Y23165000D01*
X55245000Y10160000D02*
X55245000Y9626600D01*
X55245000Y10160000D02*
X55245000Y10693400D01*
X56515000Y10160000D02*
X56515000Y9626600D01*
X56515000Y10160000D02*
X56515000Y10693400D01*
X62865000Y10160000D02*
X62865000Y9626600D01*
X62865000Y10160000D02*
X62865000Y10693400D01*
X64135000Y10160000D02*
X64135000Y9626600D01*
X64135000Y10160000D02*
X64135000Y10693400D01*
X66675000Y10160000D02*
X66675000Y9626600D01*
X66675000Y10160000D02*
X66675000Y10693400D01*
X67945000Y10160000D02*
X67945000Y9626600D01*
X67945000Y10160000D02*
X67945000Y10693400D01*
X23815000Y24865000D02*
X23815000Y26665000D01*
X24515000Y25765000D02*
X24115000Y25765000D01*
X25015000Y25765000D02*
X25415000Y25765000D01*
X24515000Y25365000D02*
X24515000Y26165000D01*
X25015000Y26165000D02*
X24615000Y25765000D01*
X25015000Y25365000D02*
X25015000Y26165000D01*
X24615000Y25765000D02*
X25015000Y25365000D01*
X26315000Y26665000D02*
X26315000Y26565000D01*
X23315000Y26665000D02*
X26315000Y26665000D01*
X23315000Y26565000D02*
X23315000Y26665000D01*
X26115000Y24865000D02*
X26115000Y24965000D01*
X24715000Y24865000D02*
X26115000Y24865000D01*
X23315000Y24865000D02*
X23315000Y24965000D01*
X24715000Y24865000D02*
X23315000Y24865000D01*
X55552380Y27619048D02*
X55076190Y27952381D01*
X55552380Y28190477D02*
X54552380Y28190477D01*
X54552380Y27809524D01*
X54600000Y27714286D01*
X54647619Y27666667D01*
X54742857Y27619048D01*
X54885714Y27619048D01*
X54980952Y27666667D01*
X55028571Y27714286D01*
X55076190Y27809524D01*
X55076190Y28190477D01*
X54647619Y27238096D02*
X54600000Y27190477D01*
X54552380Y27095239D01*
X54552380Y26857143D01*
X54600000Y26761905D01*
X54647619Y26714286D01*
X54742857Y26666667D01*
X54838095Y26666667D01*
X54980952Y26714286D01*
X55552380Y27285715D01*
X55552380Y26666667D01*
X55552380Y25714286D02*
X55552380Y26285715D01*
X55552380Y26000000D02*
X54552380Y26000000D01*
X54695238Y26095239D01*
X54790476Y26190477D01*
X54838095Y26285715D01*
X54647619Y25333334D02*
X54600000Y25285715D01*
X54552380Y25190477D01*
X54552380Y24952381D01*
X54600000Y24857143D01*
X54647619Y24809524D01*
X54742857Y24761905D01*
X54838095Y24761905D01*
X54980952Y24809524D01*
X55552380Y25380953D01*
X55552380Y24761905D01*
X18919047Y18647620D02*
X19252380Y19123810D01*
X19490476Y18647620D02*
X19490476Y19647620D01*
X19109523Y19647620D01*
X19014285Y19600000D01*
X18966666Y19552381D01*
X18919047Y19457143D01*
X18919047Y19314286D01*
X18966666Y19219048D01*
X19014285Y19171429D01*
X19109523Y19123810D01*
X19490476Y19123810D01*
X18538095Y19552381D02*
X18490476Y19600000D01*
X18395238Y19647620D01*
X18157142Y19647620D01*
X18061904Y19600000D01*
X18014285Y19552381D01*
X17966666Y19457143D01*
X17966666Y19361905D01*
X18014285Y19219048D01*
X18585714Y18647620D01*
X17966666Y18647620D01*
X17014285Y18647620D02*
X17585714Y18647620D01*
X17300000Y18647620D02*
X17300000Y19647620D01*
X17395238Y19504762D01*
X17490476Y19409524D01*
X17585714Y19361905D01*
X16538095Y18647620D02*
X16347619Y18647620D01*
X16252380Y18695239D01*
X16204761Y18742858D01*
X16109523Y18885715D01*
X16061904Y19076191D01*
X16061904Y19457143D01*
X16109523Y19552381D01*
X16157142Y19600000D01*
X16252380Y19647620D01*
X16442857Y19647620D01*
X16538095Y19600000D01*
X16585714Y19552381D01*
X16633333Y19457143D01*
X16633333Y19219048D01*
X16585714Y19123810D01*
X16538095Y19076191D01*
X16442857Y19028572D01*
X16252380Y19028572D01*
X16157142Y19076191D01*
X16109523Y19123810D01*
X16061904Y19219048D01*
X28773380Y84240477D02*
X27773380Y84240477D01*
X27773380Y84002381D01*
X27821000Y83859524D01*
X27916238Y83764286D01*
X28011476Y83716667D01*
X28201952Y83669048D01*
X28344809Y83669048D01*
X28535285Y83716667D01*
X28630523Y83764286D01*
X28725761Y83859524D01*
X28773380Y84002381D01*
X28773380Y84240477D01*
X27773380Y83335715D02*
X27773380Y82716667D01*
X28154333Y83050000D01*
X28154333Y82907143D01*
X28201952Y82811905D01*
X28249571Y82764286D01*
X28344809Y82716667D01*
X28582904Y82716667D01*
X28678142Y82764286D01*
X28725761Y82811905D01*
X28773380Y82907143D01*
X28773380Y83192858D01*
X28725761Y83288096D01*
X28678142Y83335715D01*
X27773380Y82097620D02*
X27773380Y82002381D01*
X27821000Y81907143D01*
X27868619Y81859524D01*
X27963857Y81811905D01*
X28154333Y81764286D01*
X28392428Y81764286D01*
X28582904Y81811905D01*
X28678142Y81859524D01*
X28725761Y81907143D01*
X28773380Y82002381D01*
X28773380Y82097620D01*
X28725761Y82192858D01*
X28678142Y82240477D01*
X28582904Y82288096D01*
X28392428Y82335715D01*
X28154333Y82335715D01*
X27963857Y82288096D01*
X27868619Y82240477D01*
X27821000Y82192858D01*
X27773380Y82097620D01*
X28106714Y80907143D02*
X28773380Y80907143D01*
X27725761Y81145239D02*
X28440047Y81383334D01*
X28440047Y80764286D01*
X25598380Y85097905D02*
X24598380Y85097905D01*
X25598380Y84526477D02*
X25026952Y84955048D01*
X24598380Y84526477D02*
X25169809Y85097905D01*
X26836666Y79788096D02*
X26836666Y79311905D01*
X27122380Y79883334D02*
X26122380Y79550000D01*
X27122380Y79216667D01*
X81561047Y91241620D02*
X81894380Y91717810D01*
X82132476Y91241620D02*
X82132476Y92241620D01*
X81751523Y92241620D01*
X81656285Y92194000D01*
X81608666Y92146381D01*
X81561047Y92051143D01*
X81561047Y91908286D01*
X81608666Y91813048D01*
X81656285Y91765429D01*
X81751523Y91717810D01*
X82132476Y91717810D01*
X80656285Y92241620D02*
X81132476Y92241620D01*
X81180095Y91765429D01*
X81132476Y91813048D01*
X81037238Y91860667D01*
X80799142Y91860667D01*
X80703904Y91813048D01*
X80656285Y91765429D01*
X80608666Y91670191D01*
X80608666Y91432096D01*
X80656285Y91336858D01*
X80703904Y91289239D01*
X80799142Y91241620D01*
X81037238Y91241620D01*
X81132476Y91289239D01*
X81180095Y91336858D01*
X79751523Y91908286D02*
X79751523Y91241620D01*
X79989619Y92289239D02*
X80227714Y91574953D01*
X79608666Y91574953D01*
X78799142Y91908286D02*
X78799142Y91241620D01*
X79037238Y92289239D02*
X79275333Y91574953D01*
X78656285Y91574953D01*
X81561047Y85526620D02*
X81894380Y86002810D01*
X82132476Y85526620D02*
X82132476Y86526620D01*
X81751523Y86526620D01*
X81656285Y86479000D01*
X81608666Y86431381D01*
X81561047Y86336143D01*
X81561047Y86193286D01*
X81608666Y86098048D01*
X81656285Y86050429D01*
X81751523Y86002810D01*
X82132476Y86002810D01*
X80656285Y86526620D02*
X81132476Y86526620D01*
X81180095Y86050429D01*
X81132476Y86098048D01*
X81037238Y86145667D01*
X80799142Y86145667D01*
X80703904Y86098048D01*
X80656285Y86050429D01*
X80608666Y85955191D01*
X80608666Y85717096D01*
X80656285Y85621858D01*
X80703904Y85574239D01*
X80799142Y85526620D01*
X81037238Y85526620D01*
X81132476Y85574239D01*
X81180095Y85621858D01*
X79751523Y86193286D02*
X79751523Y85526620D01*
X79989619Y86574239D02*
X80227714Y85859953D01*
X79608666Y85859953D01*
X79275333Y86431381D02*
X79227714Y86479000D01*
X79132476Y86526620D01*
X78894380Y86526620D01*
X78799142Y86479000D01*
X78751523Y86431381D01*
X78703904Y86336143D01*
X78703904Y86240905D01*
X78751523Y86098048D01*
X79322952Y85526620D01*
X78703904Y85526620D01*
X81561047Y80827620D02*
X81894380Y81303810D01*
X82132476Y80827620D02*
X82132476Y81827620D01*
X81751523Y81827620D01*
X81656285Y81780000D01*
X81608666Y81732381D01*
X81561047Y81637143D01*
X81561047Y81494286D01*
X81608666Y81399048D01*
X81656285Y81351429D01*
X81751523Y81303810D01*
X82132476Y81303810D01*
X80656285Y81827620D02*
X81132476Y81827620D01*
X81180095Y81351429D01*
X81132476Y81399048D01*
X81037238Y81446667D01*
X80799142Y81446667D01*
X80703904Y81399048D01*
X80656285Y81351429D01*
X80608666Y81256191D01*
X80608666Y81018096D01*
X80656285Y80922858D01*
X80703904Y80875239D01*
X80799142Y80827620D01*
X81037238Y80827620D01*
X81132476Y80875239D01*
X81180095Y80922858D01*
X80275333Y81827620D02*
X79656285Y81827620D01*
X79989619Y81446667D01*
X79846761Y81446667D01*
X79751523Y81399048D01*
X79703904Y81351429D01*
X79656285Y81256191D01*
X79656285Y81018096D01*
X79703904Y80922858D01*
X79751523Y80875239D01*
X79846761Y80827620D01*
X80132476Y80827620D01*
X80227714Y80875239D01*
X80275333Y80922858D01*
X79275333Y81732381D02*
X79227714Y81780000D01*
X79132476Y81827620D01*
X78894380Y81827620D01*
X78799142Y81780000D01*
X78751523Y81732381D01*
X78703904Y81637143D01*
X78703904Y81541905D01*
X78751523Y81399048D01*
X79322952Y80827620D01*
X78703904Y80827620D01*
X81561047Y76001620D02*
X81894380Y76477810D01*
X82132476Y76001620D02*
X82132476Y77001620D01*
X81751523Y77001620D01*
X81656285Y76954000D01*
X81608666Y76906381D01*
X81561047Y76811143D01*
X81561047Y76668286D01*
X81608666Y76573048D01*
X81656285Y76525429D01*
X81751523Y76477810D01*
X82132476Y76477810D01*
X80656285Y77001620D02*
X81132476Y77001620D01*
X81180095Y76525429D01*
X81132476Y76573048D01*
X81037238Y76620667D01*
X80799142Y76620667D01*
X80703904Y76573048D01*
X80656285Y76525429D01*
X80608666Y76430191D01*
X80608666Y76192096D01*
X80656285Y76096858D01*
X80703904Y76049239D01*
X80799142Y76001620D01*
X81037238Y76001620D01*
X81132476Y76049239D01*
X81180095Y76096858D01*
X80275333Y77001620D02*
X79656285Y77001620D01*
X79989619Y76620667D01*
X79846761Y76620667D01*
X79751523Y76573048D01*
X79703904Y76525429D01*
X79656285Y76430191D01*
X79656285Y76192096D01*
X79703904Y76096858D01*
X79751523Y76049239D01*
X79846761Y76001620D01*
X80132476Y76001620D01*
X80227714Y76049239D01*
X80275333Y76096858D01*
X79037238Y77001620D02*
X78942000Y77001620D01*
X78846761Y76954000D01*
X78799142Y76906381D01*
X78751523Y76811143D01*
X78703904Y76620667D01*
X78703904Y76382572D01*
X78751523Y76192096D01*
X78799142Y76096858D01*
X78846761Y76049239D01*
X78942000Y76001620D01*
X79037238Y76001620D01*
X79132476Y76049239D01*
X79180095Y76096858D01*
X79227714Y76192096D01*
X79275333Y76382572D01*
X79275333Y76620667D01*
X79227714Y76811143D01*
X79180095Y76906381D01*
X79132476Y76954000D01*
X79037238Y77001620D01*
X81561047Y70540620D02*
X81894380Y71016810D01*
X82132476Y70540620D02*
X82132476Y71540620D01*
X81751523Y71540620D01*
X81656285Y71493000D01*
X81608666Y71445381D01*
X81561047Y71350143D01*
X81561047Y71207286D01*
X81608666Y71112048D01*
X81656285Y71064429D01*
X81751523Y71016810D01*
X82132476Y71016810D01*
X80656285Y71540620D02*
X81132476Y71540620D01*
X81180095Y71064429D01*
X81132476Y71112048D01*
X81037238Y71159667D01*
X80799142Y71159667D01*
X80703904Y71112048D01*
X80656285Y71064429D01*
X80608666Y70969191D01*
X80608666Y70731096D01*
X80656285Y70635858D01*
X80703904Y70588239D01*
X80799142Y70540620D01*
X81037238Y70540620D01*
X81132476Y70588239D01*
X81180095Y70635858D01*
X80227714Y71445381D02*
X80180095Y71493000D01*
X80084857Y71540620D01*
X79846761Y71540620D01*
X79751523Y71493000D01*
X79703904Y71445381D01*
X79656285Y71350143D01*
X79656285Y71254905D01*
X79703904Y71112048D01*
X80275333Y70540620D01*
X79656285Y70540620D01*
X79037238Y71540620D02*
X78942000Y71540620D01*
X78846761Y71493000D01*
X78799142Y71445381D01*
X78751523Y71350143D01*
X78703904Y71159667D01*
X78703904Y70921572D01*
X78751523Y70731096D01*
X78799142Y70635858D01*
X78846761Y70588239D01*
X78942000Y70540620D01*
X79037238Y70540620D01*
X79132476Y70588239D01*
X79180095Y70635858D01*
X79227714Y70731096D01*
X79275333Y70921572D01*
X79275333Y71159667D01*
X79227714Y71350143D01*
X79180095Y71445381D01*
X79132476Y71493000D01*
X79037238Y71540620D01*
X81561047Y65587620D02*
X81894380Y66063810D01*
X82132476Y65587620D02*
X82132476Y66587620D01*
X81751523Y66587620D01*
X81656285Y66540000D01*
X81608666Y66492381D01*
X81561047Y66397143D01*
X81561047Y66254286D01*
X81608666Y66159048D01*
X81656285Y66111429D01*
X81751523Y66063810D01*
X82132476Y66063810D01*
X80656285Y66587620D02*
X81132476Y66587620D01*
X81180095Y66111429D01*
X81132476Y66159048D01*
X81037238Y66206667D01*
X80799142Y66206667D01*
X80703904Y66159048D01*
X80656285Y66111429D01*
X80608666Y66016191D01*
X80608666Y65778096D01*
X80656285Y65682858D01*
X80703904Y65635239D01*
X80799142Y65587620D01*
X81037238Y65587620D01*
X81132476Y65635239D01*
X81180095Y65682858D01*
X79656285Y65587620D02*
X80227714Y65587620D01*
X79942000Y65587620D02*
X79942000Y66587620D01*
X80037238Y66444762D01*
X80132476Y66349524D01*
X80227714Y66301905D01*
X79084857Y66159048D02*
X79180095Y66206667D01*
X79227714Y66254286D01*
X79275333Y66349524D01*
X79275333Y66397143D01*
X79227714Y66492381D01*
X79180095Y66540000D01*
X79084857Y66587620D01*
X78894380Y66587620D01*
X78799142Y66540000D01*
X78751523Y66492381D01*
X78703904Y66397143D01*
X78703904Y66349524D01*
X78751523Y66254286D01*
X78799142Y66206667D01*
X78894380Y66159048D01*
X79084857Y66159048D01*
X79180095Y66111429D01*
X79227714Y66063810D01*
X79275333Y65968572D01*
X79275333Y65778096D01*
X79227714Y65682858D01*
X79180095Y65635239D01*
X79084857Y65587620D01*
X78894380Y65587620D01*
X78799142Y65635239D01*
X78751523Y65682858D01*
X78703904Y65778096D01*
X78703904Y65968572D01*
X78751523Y66063810D01*
X78799142Y66111429D01*
X78894380Y66159048D01*
X81561047Y60634620D02*
X81894380Y61110810D01*
X82132476Y60634620D02*
X82132476Y61634620D01*
X81751523Y61634620D01*
X81656285Y61587000D01*
X81608666Y61539381D01*
X81561047Y61444143D01*
X81561047Y61301286D01*
X81608666Y61206048D01*
X81656285Y61158429D01*
X81751523Y61110810D01*
X82132476Y61110810D01*
X80656285Y61634620D02*
X81132476Y61634620D01*
X81180095Y61158429D01*
X81132476Y61206048D01*
X81037238Y61253667D01*
X80799142Y61253667D01*
X80703904Y61206048D01*
X80656285Y61158429D01*
X80608666Y61063191D01*
X80608666Y60825096D01*
X80656285Y60729858D01*
X80703904Y60682239D01*
X80799142Y60634620D01*
X81037238Y60634620D01*
X81132476Y60682239D01*
X81180095Y60729858D01*
X79989619Y61634620D02*
X79894380Y61634620D01*
X79799142Y61587000D01*
X79751523Y61539381D01*
X79703904Y61444143D01*
X79656285Y61253667D01*
X79656285Y61015572D01*
X79703904Y60825096D01*
X79751523Y60729858D01*
X79799142Y60682239D01*
X79894380Y60634620D01*
X79989619Y60634620D01*
X80084857Y60682239D01*
X80132476Y60729858D01*
X80180095Y60825096D01*
X80227714Y61015572D01*
X80227714Y61253667D01*
X80180095Y61444143D01*
X80132476Y61539381D01*
X80084857Y61587000D01*
X79989619Y61634620D01*
X79084857Y61206048D02*
X79180095Y61253667D01*
X79227714Y61301286D01*
X79275333Y61396524D01*
X79275333Y61444143D01*
X79227714Y61539381D01*
X79180095Y61587000D01*
X79084857Y61634620D01*
X78894380Y61634620D01*
X78799142Y61587000D01*
X78751523Y61539381D01*
X78703904Y61444143D01*
X78703904Y61396524D01*
X78751523Y61301286D01*
X78799142Y61253667D01*
X78894380Y61206048D01*
X79084857Y61206048D01*
X79180095Y61158429D01*
X79227714Y61110810D01*
X79275333Y61015572D01*
X79275333Y60825096D01*
X79227714Y60729858D01*
X79180095Y60682239D01*
X79084857Y60634620D01*
X78894380Y60634620D01*
X78799142Y60682239D01*
X78751523Y60729858D01*
X78703904Y60825096D01*
X78703904Y61015572D01*
X78751523Y61110810D01*
X78799142Y61158429D01*
X78894380Y61206048D01*
X81561047Y55173620D02*
X81894380Y55649810D01*
X82132476Y55173620D02*
X82132476Y56173620D01*
X81751523Y56173620D01*
X81656285Y56126000D01*
X81608666Y56078381D01*
X81561047Y55983143D01*
X81561047Y55840286D01*
X81608666Y55745048D01*
X81656285Y55697429D01*
X81751523Y55649810D01*
X82132476Y55649810D01*
X80656285Y56173620D02*
X81132476Y56173620D01*
X81180095Y55697429D01*
X81132476Y55745048D01*
X81037238Y55792667D01*
X80799142Y55792667D01*
X80703904Y55745048D01*
X80656285Y55697429D01*
X80608666Y55602191D01*
X80608666Y55364096D01*
X80656285Y55268858D01*
X80703904Y55221239D01*
X80799142Y55173620D01*
X81037238Y55173620D01*
X81132476Y55221239D01*
X81180095Y55268858D01*
X79989619Y56173620D02*
X79894380Y56173620D01*
X79799142Y56126000D01*
X79751523Y56078381D01*
X79703904Y55983143D01*
X79656285Y55792667D01*
X79656285Y55554572D01*
X79703904Y55364096D01*
X79751523Y55268858D01*
X79799142Y55221239D01*
X79894380Y55173620D01*
X79989619Y55173620D01*
X80084857Y55221239D01*
X80132476Y55268858D01*
X80180095Y55364096D01*
X80227714Y55554572D01*
X80227714Y55792667D01*
X80180095Y55983143D01*
X80132476Y56078381D01*
X80084857Y56126000D01*
X79989619Y56173620D01*
X78799142Y56173620D02*
X78989619Y56173620D01*
X79084857Y56126000D01*
X79132476Y56078381D01*
X79227714Y55935524D01*
X79275333Y55745048D01*
X79275333Y55364096D01*
X79227714Y55268858D01*
X79180095Y55221239D01*
X79084857Y55173620D01*
X78894380Y55173620D01*
X78799142Y55221239D01*
X78751523Y55268858D01*
X78703904Y55364096D01*
X78703904Y55602191D01*
X78751523Y55697429D01*
X78799142Y55745048D01*
X78894380Y55792667D01*
X79084857Y55792667D01*
X79180095Y55745048D01*
X79227714Y55697429D01*
X79275333Y55602191D01*
X81561047Y43743620D02*
X81894380Y44219810D01*
X82132476Y43743620D02*
X82132476Y44743620D01*
X81751523Y44743620D01*
X81656285Y44696000D01*
X81608666Y44648381D01*
X81561047Y44553143D01*
X81561047Y44410286D01*
X81608666Y44315048D01*
X81656285Y44267429D01*
X81751523Y44219810D01*
X82132476Y44219810D01*
X80656285Y44743620D02*
X81132476Y44743620D01*
X81180095Y44267429D01*
X81132476Y44315048D01*
X81037238Y44362667D01*
X80799142Y44362667D01*
X80703904Y44315048D01*
X80656285Y44267429D01*
X80608666Y44172191D01*
X80608666Y43934096D01*
X80656285Y43838858D01*
X80703904Y43791239D01*
X80799142Y43743620D01*
X81037238Y43743620D01*
X81132476Y43791239D01*
X81180095Y43838858D01*
X79751523Y44410286D02*
X79751523Y43743620D01*
X79989619Y44791239D02*
X80227714Y44076953D01*
X79608666Y44076953D01*
X79322952Y44743620D02*
X78703904Y44743620D01*
X79037238Y44362667D01*
X78894380Y44362667D01*
X78799142Y44315048D01*
X78751523Y44267429D01*
X78703904Y44172191D01*
X78703904Y43934096D01*
X78751523Y43838858D01*
X78799142Y43791239D01*
X78894380Y43743620D01*
X79180095Y43743620D01*
X79275333Y43791239D01*
X79322952Y43838858D01*
X81561047Y38917620D02*
X81894380Y39393810D01*
X82132476Y38917620D02*
X82132476Y39917620D01*
X81751523Y39917620D01*
X81656285Y39870000D01*
X81608666Y39822381D01*
X81561047Y39727143D01*
X81561047Y39584286D01*
X81608666Y39489048D01*
X81656285Y39441429D01*
X81751523Y39393810D01*
X82132476Y39393810D01*
X80656285Y39917620D02*
X81132476Y39917620D01*
X81180095Y39441429D01*
X81132476Y39489048D01*
X81037238Y39536667D01*
X80799142Y39536667D01*
X80703904Y39489048D01*
X80656285Y39441429D01*
X80608666Y39346191D01*
X80608666Y39108096D01*
X80656285Y39012858D01*
X80703904Y38965239D01*
X80799142Y38917620D01*
X81037238Y38917620D01*
X81132476Y38965239D01*
X81180095Y39012858D01*
X79751523Y39584286D02*
X79751523Y38917620D01*
X79989619Y39965239D02*
X80227714Y39250953D01*
X79608666Y39250953D01*
X78703904Y38917620D02*
X79275333Y38917620D01*
X78989619Y38917620D02*
X78989619Y39917620D01*
X79084857Y39774762D01*
X79180095Y39679524D01*
X79275333Y39631905D01*
X81561047Y33837620D02*
X81894380Y34313810D01*
X82132476Y33837620D02*
X82132476Y34837620D01*
X81751523Y34837620D01*
X81656285Y34790000D01*
X81608666Y34742381D01*
X81561047Y34647143D01*
X81561047Y34504286D01*
X81608666Y34409048D01*
X81656285Y34361429D01*
X81751523Y34313810D01*
X82132476Y34313810D01*
X80656285Y34837620D02*
X81132476Y34837620D01*
X81180095Y34361429D01*
X81132476Y34409048D01*
X81037238Y34456667D01*
X80799142Y34456667D01*
X80703904Y34409048D01*
X80656285Y34361429D01*
X80608666Y34266191D01*
X80608666Y34028096D01*
X80656285Y33932858D01*
X80703904Y33885239D01*
X80799142Y33837620D01*
X81037238Y33837620D01*
X81132476Y33885239D01*
X81180095Y33932858D01*
X80275333Y34837620D02*
X79656285Y34837620D01*
X79989619Y34456667D01*
X79846761Y34456667D01*
X79751523Y34409048D01*
X79703904Y34361429D01*
X79656285Y34266191D01*
X79656285Y34028096D01*
X79703904Y33932858D01*
X79751523Y33885239D01*
X79846761Y33837620D01*
X80132476Y33837620D01*
X80227714Y33885239D01*
X80275333Y33932858D01*
X78703904Y33837620D02*
X79275333Y33837620D01*
X78989619Y33837620D02*
X78989619Y34837620D01*
X79084857Y34694762D01*
X79180095Y34599524D01*
X79275333Y34551905D01*
X81561047Y28630620D02*
X81894380Y29106810D01*
X82132476Y28630620D02*
X82132476Y29630620D01*
X81751523Y29630620D01*
X81656285Y29583000D01*
X81608666Y29535381D01*
X81561047Y29440143D01*
X81561047Y29297286D01*
X81608666Y29202048D01*
X81656285Y29154429D01*
X81751523Y29106810D01*
X82132476Y29106810D01*
X80656285Y29630620D02*
X81132476Y29630620D01*
X81180095Y29154429D01*
X81132476Y29202048D01*
X81037238Y29249667D01*
X80799142Y29249667D01*
X80703904Y29202048D01*
X80656285Y29154429D01*
X80608666Y29059191D01*
X80608666Y28821096D01*
X80656285Y28725858D01*
X80703904Y28678239D01*
X80799142Y28630620D01*
X81037238Y28630620D01*
X81132476Y28678239D01*
X81180095Y28725858D01*
X80227714Y29535381D02*
X80180095Y29583000D01*
X80084857Y29630620D01*
X79846761Y29630620D01*
X79751523Y29583000D01*
X79703904Y29535381D01*
X79656285Y29440143D01*
X79656285Y29344905D01*
X79703904Y29202048D01*
X80275333Y28630620D01*
X79656285Y28630620D01*
X79180095Y28630620D02*
X78989619Y28630620D01*
X78894380Y28678239D01*
X78846761Y28725858D01*
X78751523Y28868715D01*
X78703904Y29059191D01*
X78703904Y29440143D01*
X78751523Y29535381D01*
X78799142Y29583000D01*
X78894380Y29630620D01*
X79084857Y29630620D01*
X79180095Y29583000D01*
X79227714Y29535381D01*
X79275333Y29440143D01*
X79275333Y29202048D01*
X79227714Y29106810D01*
X79180095Y29059191D01*
X79084857Y29011572D01*
X78894380Y29011572D01*
X78799142Y29059191D01*
X78751523Y29106810D01*
X78703904Y29202048D01*
X81561047Y23677620D02*
X81894380Y24153810D01*
X82132476Y23677620D02*
X82132476Y24677620D01*
X81751523Y24677620D01*
X81656285Y24630000D01*
X81608666Y24582381D01*
X81561047Y24487143D01*
X81561047Y24344286D01*
X81608666Y24249048D01*
X81656285Y24201429D01*
X81751523Y24153810D01*
X82132476Y24153810D01*
X80656285Y24677620D02*
X81132476Y24677620D01*
X81180095Y24201429D01*
X81132476Y24249048D01*
X81037238Y24296667D01*
X80799142Y24296667D01*
X80703904Y24249048D01*
X80656285Y24201429D01*
X80608666Y24106191D01*
X80608666Y23868096D01*
X80656285Y23772858D01*
X80703904Y23725239D01*
X80799142Y23677620D01*
X81037238Y23677620D01*
X81132476Y23725239D01*
X81180095Y23772858D01*
X79656285Y23677620D02*
X80227714Y23677620D01*
X79942000Y23677620D02*
X79942000Y24677620D01*
X80037238Y24534762D01*
X80132476Y24439524D01*
X80227714Y24391905D01*
X79180095Y23677620D02*
X78989619Y23677620D01*
X78894380Y23725239D01*
X78846761Y23772858D01*
X78751523Y23915715D01*
X78703904Y24106191D01*
X78703904Y24487143D01*
X78751523Y24582381D01*
X78799142Y24630000D01*
X78894380Y24677620D01*
X79084857Y24677620D01*
X79180095Y24630000D01*
X79227714Y24582381D01*
X79275333Y24487143D01*
X79275333Y24249048D01*
X79227714Y24153810D01*
X79180095Y24106191D01*
X79084857Y24058572D01*
X78894380Y24058572D01*
X78799142Y24106191D01*
X78751523Y24153810D01*
X78703904Y24249048D01*
X81561047Y18724620D02*
X81894380Y19200810D01*
X82132476Y18724620D02*
X82132476Y19724620D01*
X81751523Y19724620D01*
X81656285Y19677000D01*
X81608666Y19629381D01*
X81561047Y19534143D01*
X81561047Y19391286D01*
X81608666Y19296048D01*
X81656285Y19248429D01*
X81751523Y19200810D01*
X82132476Y19200810D01*
X80656285Y19724620D02*
X81132476Y19724620D01*
X81180095Y19248429D01*
X81132476Y19296048D01*
X81037238Y19343667D01*
X80799142Y19343667D01*
X80703904Y19296048D01*
X80656285Y19248429D01*
X80608666Y19153191D01*
X80608666Y18915096D01*
X80656285Y18819858D01*
X80703904Y18772239D01*
X80799142Y18724620D01*
X81037238Y18724620D01*
X81132476Y18772239D01*
X81180095Y18819858D01*
X79656285Y18724620D02*
X80227714Y18724620D01*
X79942000Y18724620D02*
X79942000Y19724620D01*
X80037238Y19581762D01*
X80132476Y19486524D01*
X80227714Y19438905D01*
X79322952Y19724620D02*
X78656285Y19724620D01*
X79084857Y18724620D01*
X58652380Y11319048D02*
X58176190Y11652381D01*
X58652380Y11890477D02*
X57652380Y11890477D01*
X57652380Y11509524D01*
X57700000Y11414286D01*
X57747619Y11366667D01*
X57842857Y11319048D01*
X57985714Y11319048D01*
X58080952Y11366667D01*
X58128571Y11414286D01*
X58176190Y11509524D01*
X58176190Y11890477D01*
X57985714Y10461905D02*
X58652380Y10461905D01*
X57604761Y10700000D02*
X58319047Y10938096D01*
X58319047Y10319048D01*
X58652380Y9414286D02*
X58652380Y9985715D01*
X58652380Y9700000D02*
X57652380Y9700000D01*
X57795238Y9795239D01*
X57890476Y9890477D01*
X57938095Y9985715D01*
X57747619Y9033334D02*
X57700000Y8985715D01*
X57652380Y8890477D01*
X57652380Y8652381D01*
X57700000Y8557143D01*
X57747619Y8509524D01*
X57842857Y8461905D01*
X57938095Y8461905D01*
X58080952Y8509524D01*
X58652380Y9080953D01*
X58652380Y8461905D01*
X50922380Y11189048D02*
X50446190Y11522381D01*
X50922380Y11760477D02*
X49922380Y11760477D01*
X49922380Y11379524D01*
X49970000Y11284286D01*
X50017619Y11236667D01*
X50112857Y11189048D01*
X50255714Y11189048D01*
X50350952Y11236667D01*
X50398571Y11284286D01*
X50446190Y11379524D01*
X50446190Y11760477D01*
X50255714Y10331905D02*
X50922380Y10331905D01*
X49874761Y10570000D02*
X50589047Y10808096D01*
X50589047Y10189048D01*
X50922380Y9284286D02*
X50922380Y9855715D01*
X50922380Y9570000D02*
X49922380Y9570000D01*
X50065238Y9665239D01*
X50160476Y9760477D01*
X50208095Y9855715D01*
X49922380Y8665239D02*
X49922380Y8570000D01*
X49970000Y8474762D01*
X50017619Y8427143D01*
X50112857Y8379524D01*
X50303333Y8331905D01*
X50541428Y8331905D01*
X50731904Y8379524D01*
X50827142Y8427143D01*
X50874761Y8474762D01*
X50922380Y8570000D01*
X50922380Y8665239D01*
X50874761Y8760477D01*
X50827142Y8808096D01*
X50731904Y8855715D01*
X50541428Y8903334D01*
X50303333Y8903334D01*
X50112857Y8855715D01*
X50017619Y8808096D01*
X49970000Y8760477D01*
X49922380Y8665239D01*
X47086980Y11202848D02*
X46610790Y11536181D01*
X47086980Y11774277D02*
X46086980Y11774277D01*
X46086980Y11393324D01*
X46134600Y11298086D01*
X46182219Y11250467D01*
X46277457Y11202848D01*
X46420314Y11202848D01*
X46515552Y11250467D01*
X46563171Y11298086D01*
X46610790Y11393324D01*
X46610790Y11774277D01*
X46420314Y10345705D02*
X47086980Y10345705D01*
X46039361Y10583800D02*
X46753647Y10821896D01*
X46753647Y10202848D01*
X46086980Y9631420D02*
X46086980Y9536181D01*
X46134600Y9440943D01*
X46182219Y9393324D01*
X46277457Y9345705D01*
X46467933Y9298086D01*
X46706028Y9298086D01*
X46896504Y9345705D01*
X46991742Y9393324D01*
X47039361Y9440943D01*
X47086980Y9536181D01*
X47086980Y9631420D01*
X47039361Y9726658D01*
X46991742Y9774277D01*
X46896504Y9821896D01*
X46706028Y9869515D01*
X46467933Y9869515D01*
X46277457Y9821896D01*
X46182219Y9774277D01*
X46134600Y9726658D01*
X46086980Y9631420D01*
X47086980Y8821896D02*
X47086980Y8631420D01*
X47039361Y8536181D01*
X46991742Y8488562D01*
X46848885Y8393324D01*
X46658409Y8345705D01*
X46277457Y8345705D01*
X46182219Y8393324D01*
X46134600Y8440943D01*
X46086980Y8536181D01*
X46086980Y8726658D01*
X46134600Y8821896D01*
X46182219Y8869515D01*
X46277457Y8917134D01*
X46515552Y8917134D01*
X46610790Y8869515D01*
X46658409Y8821896D01*
X46706028Y8726658D01*
X46706028Y8536181D01*
X46658409Y8440943D01*
X46610790Y8393324D01*
X46515552Y8345705D01*
X43378380Y11279048D02*
X42902190Y11612381D01*
X43378380Y11850477D02*
X42378380Y11850477D01*
X42378380Y11469524D01*
X42426000Y11374286D01*
X42473619Y11326667D01*
X42568857Y11279048D01*
X42711714Y11279048D01*
X42806952Y11326667D01*
X42854571Y11374286D01*
X42902190Y11469524D01*
X42902190Y11850477D01*
X42711714Y10421905D02*
X43378380Y10421905D01*
X42330761Y10660000D02*
X43045047Y10898096D01*
X43045047Y10279048D01*
X42378380Y9707620D02*
X42378380Y9612381D01*
X42426000Y9517143D01*
X42473619Y9469524D01*
X42568857Y9421905D01*
X42759333Y9374286D01*
X42997428Y9374286D01*
X43187904Y9421905D01*
X43283142Y9469524D01*
X43330761Y9517143D01*
X43378380Y9612381D01*
X43378380Y9707620D01*
X43330761Y9802858D01*
X43283142Y9850477D01*
X43187904Y9898096D01*
X42997428Y9945715D01*
X42759333Y9945715D01*
X42568857Y9898096D01*
X42473619Y9850477D01*
X42426000Y9802858D01*
X42378380Y9707620D01*
X42806952Y8802858D02*
X42759333Y8898096D01*
X42711714Y8945715D01*
X42616476Y8993334D01*
X42568857Y8993334D01*
X42473619Y8945715D01*
X42426000Y8898096D01*
X42378380Y8802858D01*
X42378380Y8612381D01*
X42426000Y8517143D01*
X42473619Y8469524D01*
X42568857Y8421905D01*
X42616476Y8421905D01*
X42711714Y8469524D01*
X42759333Y8517143D01*
X42806952Y8612381D01*
X42806952Y8802858D01*
X42854571Y8898096D01*
X42902190Y8945715D01*
X42997428Y8993334D01*
X43187904Y8993334D01*
X43283142Y8945715D01*
X43330761Y8898096D01*
X43378380Y8802858D01*
X43378380Y8612381D01*
X43330761Y8517143D01*
X43283142Y8469524D01*
X43187904Y8421905D01*
X42997428Y8421905D01*
X42902190Y8469524D01*
X42854571Y8517143D01*
X42806952Y8612381D01*
X81561047Y13517620D02*
X81894380Y13993810D01*
X82132476Y13517620D02*
X82132476Y14517620D01*
X81751523Y14517620D01*
X81656285Y14470000D01*
X81608666Y14422381D01*
X81561047Y14327143D01*
X81561047Y14184286D01*
X81608666Y14089048D01*
X81656285Y14041429D01*
X81751523Y13993810D01*
X82132476Y13993810D01*
X80656285Y14517620D02*
X81132476Y14517620D01*
X81180095Y14041429D01*
X81132476Y14089048D01*
X81037238Y14136667D01*
X80799142Y14136667D01*
X80703904Y14089048D01*
X80656285Y14041429D01*
X80608666Y13946191D01*
X80608666Y13708096D01*
X80656285Y13612858D01*
X80703904Y13565239D01*
X80799142Y13517620D01*
X81037238Y13517620D01*
X81132476Y13565239D01*
X81180095Y13612858D01*
X79989619Y14517620D02*
X79894380Y14517620D01*
X79799142Y14470000D01*
X79751523Y14422381D01*
X79703904Y14327143D01*
X79656285Y14136667D01*
X79656285Y13898572D01*
X79703904Y13708096D01*
X79751523Y13612858D01*
X79799142Y13565239D01*
X79894380Y13517620D01*
X79989619Y13517620D01*
X80084857Y13565239D01*
X80132476Y13612858D01*
X80180095Y13708096D01*
X80227714Y13898572D01*
X80227714Y14136667D01*
X80180095Y14327143D01*
X80132476Y14422381D01*
X80084857Y14470000D01*
X79989619Y14517620D01*
X79322952Y14517620D02*
X78656285Y14517620D01*
X79084857Y13517620D01*
X81561047Y8437620D02*
X81894380Y8913810D01*
X82132476Y8437620D02*
X82132476Y9437620D01*
X81751523Y9437620D01*
X81656285Y9390000D01*
X81608666Y9342381D01*
X81561047Y9247143D01*
X81561047Y9104286D01*
X81608666Y9009048D01*
X81656285Y8961429D01*
X81751523Y8913810D01*
X82132476Y8913810D01*
X80656285Y9437620D02*
X81132476Y9437620D01*
X81180095Y8961429D01*
X81132476Y9009048D01*
X81037238Y9056667D01*
X80799142Y9056667D01*
X80703904Y9009048D01*
X80656285Y8961429D01*
X80608666Y8866191D01*
X80608666Y8628096D01*
X80656285Y8532858D01*
X80703904Y8485239D01*
X80799142Y8437620D01*
X81037238Y8437620D01*
X81132476Y8485239D01*
X81180095Y8532858D01*
X79989619Y9437620D02*
X79894380Y9437620D01*
X79799142Y9390000D01*
X79751523Y9342381D01*
X79703904Y9247143D01*
X79656285Y9056667D01*
X79656285Y8818572D01*
X79703904Y8628096D01*
X79751523Y8532858D01*
X79799142Y8485239D01*
X79894380Y8437620D01*
X79989619Y8437620D01*
X80084857Y8485239D01*
X80132476Y8532858D01*
X80180095Y8628096D01*
X80227714Y8818572D01*
X80227714Y9056667D01*
X80180095Y9247143D01*
X80132476Y9342381D01*
X80084857Y9390000D01*
X79989619Y9437620D01*
X78751523Y9437620D02*
X79227714Y9437620D01*
X79275333Y8961429D01*
X79227714Y9009048D01*
X79132476Y9056667D01*
X78894380Y9056667D01*
X78799142Y9009048D01*
X78751523Y8961429D01*
X78703904Y8866191D01*
X78703904Y8628096D01*
X78751523Y8532858D01*
X78799142Y8485239D01*
X78894380Y8437620D01*
X79132476Y8437620D01*
X79227714Y8485239D01*
X79275333Y8532858D01*
X38934432Y21515892D02*
X38458242Y21849225D01*
X38934432Y22087321D02*
X37934432Y22087321D01*
X37934432Y21706368D01*
X37982052Y21611130D01*
X38029671Y21563511D01*
X38124909Y21515892D01*
X38267766Y21515892D01*
X38363004Y21563511D01*
X38410623Y21611130D01*
X38458242Y21706368D01*
X38458242Y22087321D01*
X38029671Y21134940D02*
X37982052Y21087321D01*
X37934432Y20992083D01*
X37934432Y20753987D01*
X37982052Y20658749D01*
X38029671Y20611130D01*
X38124909Y20563511D01*
X38220147Y20563511D01*
X38363004Y20611130D01*
X38934432Y21182559D01*
X38934432Y20563511D01*
X38029671Y20182559D02*
X37982052Y20134940D01*
X37934432Y20039702D01*
X37934432Y19801606D01*
X37982052Y19706368D01*
X38029671Y19658749D01*
X38124909Y19611130D01*
X38220147Y19611130D01*
X38363004Y19658749D01*
X38934432Y20230178D01*
X38934432Y19611130D01*
X37934432Y18992083D02*
X37934432Y18896844D01*
X37982052Y18801606D01*
X38029671Y18753987D01*
X38124909Y18706368D01*
X38315385Y18658749D01*
X38553480Y18658749D01*
X38743956Y18706368D01*
X38839194Y18753987D01*
X38886813Y18801606D01*
X38934432Y18896844D01*
X38934432Y18992083D01*
X38886813Y19087321D01*
X38839194Y19134940D01*
X38743956Y19182559D01*
X38553480Y19230178D01*
X38315385Y19230178D01*
X38124909Y19182559D01*
X38029671Y19134940D01*
X37982052Y19087321D01*
X37934432Y18992083D01*
X30688380Y13819048D02*
X30212190Y14152381D01*
X30688380Y14390477D02*
X29688380Y14390477D01*
X29688380Y14009524D01*
X29736000Y13914286D01*
X29783619Y13866667D01*
X29878857Y13819048D01*
X30021714Y13819048D01*
X30116952Y13866667D01*
X30164571Y13914286D01*
X30212190Y14009524D01*
X30212190Y14390477D01*
X29783619Y13438096D02*
X29736000Y13390477D01*
X29688380Y13295239D01*
X29688380Y13057143D01*
X29736000Y12961905D01*
X29783619Y12914286D01*
X29878857Y12866667D01*
X29974095Y12866667D01*
X30116952Y12914286D01*
X30688380Y13485715D01*
X30688380Y12866667D01*
X29688380Y12533334D02*
X29688380Y11914286D01*
X30069333Y12247620D01*
X30069333Y12104762D01*
X30116952Y12009524D01*
X30164571Y11961905D01*
X30259809Y11914286D01*
X30497904Y11914286D01*
X30593142Y11961905D01*
X30640761Y12009524D01*
X30688380Y12104762D01*
X30688380Y12390477D01*
X30640761Y12485715D01*
X30593142Y12533334D01*
X29783619Y11533334D02*
X29736000Y11485715D01*
X29688380Y11390477D01*
X29688380Y11152381D01*
X29736000Y11057143D01*
X29783619Y11009524D01*
X29878857Y10961905D01*
X29974095Y10961905D01*
X30116952Y11009524D01*
X30688380Y11580953D01*
X30688380Y10961905D01*
X14619047Y61447620D02*
X14952380Y61923810D01*
X15190476Y61447620D02*
X15190476Y62447620D01*
X14809523Y62447620D01*
X14714285Y62400000D01*
X14666666Y62352381D01*
X14619047Y62257143D01*
X14619047Y62114286D01*
X14666666Y62019048D01*
X14714285Y61971429D01*
X14809523Y61923810D01*
X15190476Y61923810D01*
X14238095Y62352381D02*
X14190476Y62400000D01*
X14095238Y62447620D01*
X13857142Y62447620D01*
X13761904Y62400000D01*
X13714285Y62352381D01*
X13666666Y62257143D01*
X13666666Y62161905D01*
X13714285Y62019048D01*
X14285714Y61447620D01*
X13666666Y61447620D01*
X12714285Y61447620D02*
X13285714Y61447620D01*
X13000000Y61447620D02*
X13000000Y62447620D01*
X13095238Y62304762D01*
X13190476Y62209524D01*
X13285714Y62161905D01*
X11809523Y62447620D02*
X12285714Y62447620D01*
X12333333Y61971429D01*
X12285714Y62019048D01*
X12190476Y62066667D01*
X11952380Y62066667D01*
X11857142Y62019048D01*
X11809523Y61971429D01*
X11761904Y61876191D01*
X11761904Y61638096D01*
X11809523Y61542858D01*
X11857142Y61495239D01*
X11952380Y61447620D01*
X12190476Y61447620D01*
X12285714Y61495239D01*
X12333333Y61542858D01*
X13819047Y57647620D02*
X14152380Y58123810D01*
X14390476Y57647620D02*
X14390476Y58647620D01*
X14009523Y58647620D01*
X13914285Y58600000D01*
X13866666Y58552381D01*
X13819047Y58457143D01*
X13819047Y58314286D01*
X13866666Y58219048D01*
X13914285Y58171429D01*
X14009523Y58123810D01*
X14390476Y58123810D01*
X13438095Y58552381D02*
X13390476Y58600000D01*
X13295238Y58647620D01*
X13057142Y58647620D01*
X12961904Y58600000D01*
X12914285Y58552381D01*
X12866666Y58457143D01*
X12866666Y58361905D01*
X12914285Y58219048D01*
X13485714Y57647620D01*
X12866666Y57647620D01*
X11914285Y57647620D02*
X12485714Y57647620D01*
X12200000Y57647620D02*
X12200000Y58647620D01*
X12295238Y58504762D01*
X12390476Y58409524D01*
X12485714Y58361905D01*
X11057142Y58314286D02*
X11057142Y57647620D01*
X11295238Y58695239D02*
X11533333Y57980953D01*
X10914285Y57980953D01*
X19119047Y40147620D02*
X19452380Y40623810D01*
X19690476Y40147620D02*
X19690476Y41147620D01*
X19309523Y41147620D01*
X19214285Y41100000D01*
X19166666Y41052381D01*
X19119047Y40957143D01*
X19119047Y40814286D01*
X19166666Y40719048D01*
X19214285Y40671429D01*
X19309523Y40623810D01*
X19690476Y40623810D01*
X18738095Y41052381D02*
X18690476Y41100000D01*
X18595238Y41147620D01*
X18357142Y41147620D01*
X18261904Y41100000D01*
X18214285Y41052381D01*
X18166666Y40957143D01*
X18166666Y40861905D01*
X18214285Y40719048D01*
X18785714Y40147620D01*
X18166666Y40147620D01*
X17833333Y41147620D02*
X17214285Y41147620D01*
X17547619Y40766667D01*
X17404761Y40766667D01*
X17309523Y40719048D01*
X17261904Y40671429D01*
X17214285Y40576191D01*
X17214285Y40338096D01*
X17261904Y40242858D01*
X17309523Y40195239D01*
X17404761Y40147620D01*
X17690476Y40147620D01*
X17785714Y40195239D01*
X17833333Y40242858D01*
X16595238Y41147620D02*
X16500000Y41147620D01*
X16404761Y41100000D01*
X16357142Y41052381D01*
X16309523Y40957143D01*
X16261904Y40766667D01*
X16261904Y40528572D01*
X16309523Y40338096D01*
X16357142Y40242858D01*
X16404761Y40195239D01*
X16500000Y40147620D01*
X16595238Y40147620D01*
X16690476Y40195239D01*
X16738095Y40242858D01*
X16785714Y40338096D01*
X16833333Y40528572D01*
X16833333Y40766667D01*
X16785714Y40957143D01*
X16738095Y41052381D01*
X16690476Y41100000D01*
X16595238Y41147620D01*
X18899047Y66687620D02*
X19232380Y67163810D01*
X19470476Y66687620D02*
X19470476Y67687620D01*
X19089523Y67687620D01*
X18994285Y67640000D01*
X18946666Y67592381D01*
X18899047Y67497143D01*
X18899047Y67354286D01*
X18946666Y67259048D01*
X18994285Y67211429D01*
X19089523Y67163810D01*
X19470476Y67163810D01*
X18518095Y67592381D02*
X18470476Y67640000D01*
X18375238Y67687620D01*
X18137142Y67687620D01*
X18041904Y67640000D01*
X17994285Y67592381D01*
X17946666Y67497143D01*
X17946666Y67401905D01*
X17994285Y67259048D01*
X18565714Y66687620D01*
X17946666Y66687620D01*
X17327619Y67687620D02*
X17232380Y67687620D01*
X17137142Y67640000D01*
X17089523Y67592381D01*
X17041904Y67497143D01*
X16994285Y67306667D01*
X16994285Y67068572D01*
X17041904Y66878096D01*
X17089523Y66782858D01*
X17137142Y66735239D01*
X17232380Y66687620D01*
X17327619Y66687620D01*
X17422857Y66735239D01*
X17470476Y66782858D01*
X17518095Y66878096D01*
X17565714Y67068572D01*
X17565714Y67306667D01*
X17518095Y67497143D01*
X17470476Y67592381D01*
X17422857Y67640000D01*
X17327619Y67687620D01*
X16137142Y67354286D02*
X16137142Y66687620D01*
X16375238Y67735239D02*
X16613333Y67020953D01*
X15994285Y67020953D01*
X44679734Y72374655D02*
X44727353Y72327036D01*
X44870210Y72279417D01*
X44965448Y72279417D01*
X45108306Y72327036D01*
X45203544Y72422274D01*
X45251163Y72517512D01*
X45298782Y72707988D01*
X45298782Y72850845D01*
X45251163Y73041321D01*
X45203544Y73136559D01*
X45108306Y73231797D01*
X44965448Y73279417D01*
X44870210Y73279417D01*
X44727353Y73231797D01*
X44679734Y73184178D01*
X43822591Y72946083D02*
X43822591Y72279417D01*
X44060687Y73327036D02*
X44298782Y72612750D01*
X43679734Y72612750D01*
X43108306Y73279417D02*
X43013067Y73279417D01*
X42917829Y73231797D01*
X42870210Y73184178D01*
X42822591Y73088940D01*
X42774972Y72898464D01*
X42774972Y72660369D01*
X42822591Y72469893D01*
X42870210Y72374655D01*
X42917829Y72327036D01*
X43013067Y72279417D01*
X43108306Y72279417D01*
X43203544Y72327036D01*
X43251163Y72374655D01*
X43298782Y72469893D01*
X43346401Y72660369D01*
X43346401Y72898464D01*
X43298782Y73088940D01*
X43251163Y73184178D01*
X43203544Y73231797D01*
X43108306Y73279417D01*
X42394020Y73184178D02*
X42346401Y73231797D01*
X42251163Y73279417D01*
X42013067Y73279417D01*
X41917829Y73231797D01*
X41870210Y73184178D01*
X41822591Y73088940D01*
X41822591Y72993702D01*
X41870210Y72850845D01*
X42441639Y72279417D01*
X41822591Y72279417D01*
X68365642Y51919048D02*
X68413261Y51966667D01*
X68460880Y52109524D01*
X68460880Y52204762D01*
X68413261Y52347620D01*
X68318023Y52442858D01*
X68222785Y52490477D01*
X68032309Y52538096D01*
X67889452Y52538096D01*
X67698976Y52490477D01*
X67603738Y52442858D01*
X67508500Y52347620D01*
X67460880Y52204762D01*
X67460880Y52109524D01*
X67508500Y51966667D01*
X67556119Y51919048D01*
X67794214Y51061905D02*
X68460880Y51061905D01*
X67413261Y51300000D02*
X68127547Y51538096D01*
X68127547Y50919048D01*
X67556119Y50585715D02*
X67508500Y50538096D01*
X67460880Y50442858D01*
X67460880Y50204762D01*
X67508500Y50109524D01*
X67556119Y50061905D01*
X67651357Y50014286D01*
X67746595Y50014286D01*
X67889452Y50061905D01*
X68460880Y50633334D01*
X68460880Y50014286D01*
X68460880Y49061905D02*
X68460880Y49633334D01*
X68460880Y49347620D02*
X67460880Y49347620D01*
X67603738Y49442858D01*
X67698976Y49538096D01*
X67746595Y49633334D01*
X28170047Y88519858D02*
X28217666Y88472239D01*
X28360523Y88424620D01*
X28455761Y88424620D01*
X28598619Y88472239D01*
X28693857Y88567477D01*
X28741476Y88662715D01*
X28789095Y88853191D01*
X28789095Y88996048D01*
X28741476Y89186524D01*
X28693857Y89281762D01*
X28598619Y89377000D01*
X28455761Y89424620D01*
X28360523Y89424620D01*
X28217666Y89377000D01*
X28170047Y89329381D01*
X27836714Y89424620D02*
X27217666Y89424620D01*
X27551000Y89043667D01*
X27408142Y89043667D01*
X27312904Y88996048D01*
X27265285Y88948429D01*
X27217666Y88853191D01*
X27217666Y88615096D01*
X27265285Y88519858D01*
X27312904Y88472239D01*
X27408142Y88424620D01*
X27693857Y88424620D01*
X27789095Y88472239D01*
X27836714Y88519858D01*
X26265285Y88424620D02*
X26836714Y88424620D01*
X26551000Y88424620D02*
X26551000Y89424620D01*
X26646238Y89281762D01*
X26741476Y89186524D01*
X26836714Y89138905D01*
X25408142Y89424620D02*
X25598619Y89424620D01*
X25693857Y89377000D01*
X25741476Y89329381D01*
X25836714Y89186524D01*
X25884333Y88996048D01*
X25884333Y88615096D01*
X25836714Y88519858D01*
X25789095Y88472239D01*
X25693857Y88424620D01*
X25503380Y88424620D01*
X25408142Y88472239D01*
X25360523Y88519858D01*
X25312904Y88615096D01*
X25312904Y88853191D01*
X25360523Y88948429D01*
X25408142Y88996048D01*
X25503380Y89043667D01*
X25693857Y89043667D01*
X25789095Y88996048D01*
X25836714Y88948429D01*
X25884333Y88853191D01*
X67794047Y98142858D02*
X67841666Y98095239D01*
X67984523Y98047620D01*
X68079761Y98047620D01*
X68222619Y98095239D01*
X68317857Y98190477D01*
X68365476Y98285715D01*
X68413095Y98476191D01*
X68413095Y98619048D01*
X68365476Y98809524D01*
X68317857Y98904762D01*
X68222619Y99000000D01*
X68079761Y99047620D01*
X67984523Y99047620D01*
X67841666Y99000000D01*
X67794047Y98952381D01*
X67460714Y99047620D02*
X66841666Y99047620D01*
X67175000Y98666667D01*
X67032142Y98666667D01*
X66936904Y98619048D01*
X66889285Y98571429D01*
X66841666Y98476191D01*
X66841666Y98238096D01*
X66889285Y98142858D01*
X66936904Y98095239D01*
X67032142Y98047620D01*
X67317857Y98047620D01*
X67413095Y98095239D01*
X67460714Y98142858D01*
X66222619Y99047620D02*
X66127380Y99047620D01*
X66032142Y99000000D01*
X65984523Y98952381D01*
X65936904Y98857143D01*
X65889285Y98666667D01*
X65889285Y98428572D01*
X65936904Y98238096D01*
X65984523Y98142858D01*
X66032142Y98095239D01*
X66127380Y98047620D01*
X66222619Y98047620D01*
X66317857Y98095239D01*
X66365476Y98142858D01*
X66413095Y98238096D01*
X66460714Y98428572D01*
X66460714Y98666667D01*
X66413095Y98857143D01*
X66365476Y98952381D01*
X66317857Y99000000D01*
X66222619Y99047620D01*
X65317857Y98619048D02*
X65413095Y98666667D01*
X65460714Y98714286D01*
X65508333Y98809524D01*
X65508333Y98857143D01*
X65460714Y98952381D01*
X65413095Y99000000D01*
X65317857Y99047620D01*
X65127380Y99047620D01*
X65032142Y99000000D01*
X64984523Y98952381D01*
X64936904Y98857143D01*
X64936904Y98809524D01*
X64984523Y98714286D01*
X65032142Y98666667D01*
X65127380Y98619048D01*
X65317857Y98619048D01*
X65413095Y98571429D01*
X65460714Y98523810D01*
X65508333Y98428572D01*
X65508333Y98238096D01*
X65460714Y98142858D01*
X65413095Y98095239D01*
X65317857Y98047620D01*
X65127380Y98047620D01*
X65032142Y98095239D01*
X64984523Y98142858D01*
X64936904Y98238096D01*
X64936904Y98428572D01*
X64984523Y98523810D01*
X65032142Y98571429D01*
X65127380Y98619048D01*
X15060047Y42460620D02*
X15393380Y42936810D01*
X15631476Y42460620D02*
X15631476Y43460620D01*
X15250523Y43460620D01*
X15155285Y43413000D01*
X15107666Y43365381D01*
X15060047Y43270143D01*
X15060047Y43127286D01*
X15107666Y43032048D01*
X15155285Y42984429D01*
X15250523Y42936810D01*
X15631476Y42936810D01*
X14679095Y43365381D02*
X14631476Y43413000D01*
X14536238Y43460620D01*
X14298142Y43460620D01*
X14202904Y43413000D01*
X14155285Y43365381D01*
X14107666Y43270143D01*
X14107666Y43174905D01*
X14155285Y43032048D01*
X14726714Y42460620D01*
X14107666Y42460620D01*
X13726714Y43365381D02*
X13679095Y43413000D01*
X13583857Y43460620D01*
X13345761Y43460620D01*
X13250523Y43413000D01*
X13202904Y43365381D01*
X13155285Y43270143D01*
X13155285Y43174905D01*
X13202904Y43032048D01*
X13774333Y42460620D01*
X13155285Y42460620D01*
X12250523Y43460620D02*
X12726714Y43460620D01*
X12774333Y42984429D01*
X12726714Y43032048D01*
X12631476Y43079667D01*
X12393380Y43079667D01*
X12298142Y43032048D01*
X12250523Y42984429D01*
X12202904Y42889191D01*
X12202904Y42651096D01*
X12250523Y42555858D01*
X12298142Y42508239D01*
X12393380Y42460620D01*
X12631476Y42460620D01*
X12726714Y42508239D01*
X12774333Y42555858D01*
X15060047Y72178620D02*
X15393380Y72654810D01*
X15631476Y72178620D02*
X15631476Y73178620D01*
X15250523Y73178620D01*
X15155285Y73131000D01*
X15107666Y73083381D01*
X15060047Y72988143D01*
X15060047Y72845286D01*
X15107666Y72750048D01*
X15155285Y72702429D01*
X15250523Y72654810D01*
X15631476Y72654810D01*
X14679095Y73083381D02*
X14631476Y73131000D01*
X14536238Y73178620D01*
X14298142Y73178620D01*
X14202904Y73131000D01*
X14155285Y73083381D01*
X14107666Y72988143D01*
X14107666Y72892905D01*
X14155285Y72750048D01*
X14726714Y72178620D01*
X14107666Y72178620D01*
X13155285Y72178620D02*
X13726714Y72178620D01*
X13441000Y72178620D02*
X13441000Y73178620D01*
X13536238Y73035762D01*
X13631476Y72940524D01*
X13726714Y72892905D01*
X12821952Y73178620D02*
X12155285Y73178620D01*
X12583857Y72178620D01*
X28752380Y13819048D02*
X28276190Y14152381D01*
X28752380Y14390477D02*
X27752380Y14390477D01*
X27752380Y14009524D01*
X27800000Y13914286D01*
X27847619Y13866667D01*
X27942857Y13819048D01*
X28085714Y13819048D01*
X28180952Y13866667D01*
X28228571Y13914286D01*
X28276190Y14009524D01*
X28276190Y14390477D01*
X27847619Y13438096D02*
X27800000Y13390477D01*
X27752380Y13295239D01*
X27752380Y13057143D01*
X27800000Y12961905D01*
X27847619Y12914286D01*
X27942857Y12866667D01*
X28038095Y12866667D01*
X28180952Y12914286D01*
X28752380Y13485715D01*
X28752380Y12866667D01*
X27847619Y12485715D02*
X27800000Y12438096D01*
X27752380Y12342858D01*
X27752380Y12104762D01*
X27800000Y12009524D01*
X27847619Y11961905D01*
X27942857Y11914286D01*
X28038095Y11914286D01*
X28180952Y11961905D01*
X28752380Y12533334D01*
X28752380Y11914286D01*
X27752380Y11057143D02*
X27752380Y11247620D01*
X27800000Y11342858D01*
X27847619Y11390477D01*
X27990476Y11485715D01*
X28180952Y11533334D01*
X28561904Y11533334D01*
X28657142Y11485715D01*
X28704761Y11438096D01*
X28752380Y11342858D01*
X28752380Y11152381D01*
X28704761Y11057143D01*
X28657142Y11009524D01*
X28561904Y10961905D01*
X28323809Y10961905D01*
X28228571Y11009524D01*
X28180952Y11057143D01*
X28133333Y11152381D01*
X28133333Y11342858D01*
X28180952Y11438096D01*
X28228571Y11485715D01*
X28323809Y11533334D01*
X18819047Y26147620D02*
X19152380Y26623810D01*
X19390476Y26147620D02*
X19390476Y27147620D01*
X19009523Y27147620D01*
X18914285Y27100000D01*
X18866666Y27052381D01*
X18819047Y26957143D01*
X18819047Y26814286D01*
X18866666Y26719048D01*
X18914285Y26671429D01*
X19009523Y26623810D01*
X19390476Y26623810D01*
X18438095Y27052381D02*
X18390476Y27100000D01*
X18295238Y27147620D01*
X18057142Y27147620D01*
X17961904Y27100000D01*
X17914285Y27052381D01*
X17866666Y26957143D01*
X17866666Y26861905D01*
X17914285Y26719048D01*
X18485714Y26147620D01*
X17866666Y26147620D01*
X17247619Y27147620D02*
X17152380Y27147620D01*
X17057142Y27100000D01*
X17009523Y27052381D01*
X16961904Y26957143D01*
X16914285Y26766667D01*
X16914285Y26528572D01*
X16961904Y26338096D01*
X17009523Y26242858D01*
X17057142Y26195239D01*
X17152380Y26147620D01*
X17247619Y26147620D01*
X17342857Y26195239D01*
X17390476Y26242858D01*
X17438095Y26338096D01*
X17485714Y26528572D01*
X17485714Y26766667D01*
X17438095Y26957143D01*
X17390476Y27052381D01*
X17342857Y27100000D01*
X17247619Y27147620D01*
X16057142Y27147620D02*
X16247619Y27147620D01*
X16342857Y27100000D01*
X16390476Y27052381D01*
X16485714Y26909524D01*
X16533333Y26719048D01*
X16533333Y26338096D01*
X16485714Y26242858D01*
X16438095Y26195239D01*
X16342857Y26147620D01*
X16152380Y26147620D01*
X16057142Y26195239D01*
X16009523Y26242858D01*
X15961904Y26338096D01*
X15961904Y26576191D01*
X16009523Y26671429D01*
X16057142Y26719048D01*
X16152380Y26766667D01*
X16342857Y26766667D01*
X16438095Y26719048D01*
X16485714Y26671429D01*
X16533333Y26576191D01*
X16519047Y20747620D02*
X16852380Y21223810D01*
X17090476Y20747620D02*
X17090476Y21747620D01*
X16709523Y21747620D01*
X16614285Y21700000D01*
X16566666Y21652381D01*
X16519047Y21557143D01*
X16519047Y21414286D01*
X16566666Y21319048D01*
X16614285Y21271429D01*
X16709523Y21223810D01*
X17090476Y21223810D01*
X16138095Y21652381D02*
X16090476Y21700000D01*
X15995238Y21747620D01*
X15757142Y21747620D01*
X15661904Y21700000D01*
X15614285Y21652381D01*
X15566666Y21557143D01*
X15566666Y21461905D01*
X15614285Y21319048D01*
X16185714Y20747620D01*
X15566666Y20747620D01*
X14947619Y21747620D02*
X14852380Y21747620D01*
X14757142Y21700000D01*
X14709523Y21652381D01*
X14661904Y21557143D01*
X14614285Y21366667D01*
X14614285Y21128572D01*
X14661904Y20938096D01*
X14709523Y20842858D01*
X14757142Y20795239D01*
X14852380Y20747620D01*
X14947619Y20747620D01*
X15042857Y20795239D01*
X15090476Y20842858D01*
X15138095Y20938096D01*
X15185714Y21128572D01*
X15185714Y21366667D01*
X15138095Y21557143D01*
X15090476Y21652381D01*
X15042857Y21700000D01*
X14947619Y21747620D01*
X14042857Y21319048D02*
X14138095Y21366667D01*
X14185714Y21414286D01*
X14233333Y21509524D01*
X14233333Y21557143D01*
X14185714Y21652381D01*
X14138095Y21700000D01*
X14042857Y21747620D01*
X13852380Y21747620D01*
X13757142Y21700000D01*
X13709523Y21652381D01*
X13661904Y21557143D01*
X13661904Y21509524D01*
X13709523Y21414286D01*
X13757142Y21366667D01*
X13852380Y21319048D01*
X14042857Y21319048D01*
X14138095Y21271429D01*
X14185714Y21223810D01*
X14233333Y21128572D01*
X14233333Y20938096D01*
X14185714Y20842858D01*
X14138095Y20795239D01*
X14042857Y20747620D01*
X13852380Y20747620D01*
X13757142Y20795239D01*
X13709523Y20842858D01*
X13661904Y20938096D01*
X13661904Y21128572D01*
X13709523Y21223810D01*
X13757142Y21271429D01*
X13852380Y21319048D01*
X67819047Y88142858D02*
X67866666Y88095239D01*
X68009523Y88047620D01*
X68104761Y88047620D01*
X68247619Y88095239D01*
X68342857Y88190477D01*
X68390476Y88285715D01*
X68438095Y88476191D01*
X68438095Y88619048D01*
X68390476Y88809524D01*
X68342857Y88904762D01*
X68247619Y89000000D01*
X68104761Y89047620D01*
X68009523Y89047620D01*
X67866666Y89000000D01*
X67819047Y88952381D01*
X67485714Y89047620D02*
X66866666Y89047620D01*
X67200000Y88666667D01*
X67057142Y88666667D01*
X66961904Y88619048D01*
X66914285Y88571429D01*
X66866666Y88476191D01*
X66866666Y88238096D01*
X66914285Y88142858D01*
X66961904Y88095239D01*
X67057142Y88047620D01*
X67342857Y88047620D01*
X67438095Y88095239D01*
X67485714Y88142858D01*
X66247619Y89047620D02*
X66152380Y89047620D01*
X66057142Y89000000D01*
X66009523Y88952381D01*
X65961904Y88857143D01*
X65914285Y88666667D01*
X65914285Y88428572D01*
X65961904Y88238096D01*
X66009523Y88142858D01*
X66057142Y88095239D01*
X66152380Y88047620D01*
X66247619Y88047620D01*
X66342857Y88095239D01*
X66390476Y88142858D01*
X66438095Y88238096D01*
X66485714Y88428572D01*
X66485714Y88666667D01*
X66438095Y88857143D01*
X66390476Y88952381D01*
X66342857Y89000000D01*
X66247619Y89047620D01*
X65580952Y89047620D02*
X64914285Y89047620D01*
X65342857Y88047620D01*
X53936142Y79918548D02*
X53983761Y79966167D01*
X54031380Y80109024D01*
X54031380Y80204262D01*
X53983761Y80347120D01*
X53888523Y80442358D01*
X53793285Y80489977D01*
X53602809Y80537596D01*
X53459952Y80537596D01*
X53269476Y80489977D01*
X53174238Y80442358D01*
X53079000Y80347120D01*
X53031380Y80204262D01*
X53031380Y80109024D01*
X53079000Y79966167D01*
X53126619Y79918548D01*
X53031380Y79585215D02*
X53031380Y78966167D01*
X53412333Y79299500D01*
X53412333Y79156643D01*
X53459952Y79061405D01*
X53507571Y79013786D01*
X53602809Y78966167D01*
X53840904Y78966167D01*
X53936142Y79013786D01*
X53983761Y79061405D01*
X54031380Y79156643D01*
X54031380Y79442358D01*
X53983761Y79537596D01*
X53936142Y79585215D01*
X54031380Y78013786D02*
X54031380Y78585215D01*
X54031380Y78299500D02*
X53031380Y78299500D01*
X53174238Y78394739D01*
X53269476Y78489977D01*
X53317095Y78585215D01*
X54031380Y77061405D02*
X54031380Y77632834D01*
X54031380Y77347120D02*
X53031380Y77347120D01*
X53174238Y77442358D01*
X53269476Y77537596D01*
X53317095Y77632834D01*
X49505976Y81272120D02*
X49505976Y82272120D01*
X49267880Y82272120D01*
X49125023Y82224500D01*
X49029785Y82129262D01*
X48982166Y82034024D01*
X48934547Y81843548D01*
X48934547Y81700691D01*
X48982166Y81510215D01*
X49029785Y81414977D01*
X49125023Y81319739D01*
X49267880Y81272120D01*
X49505976Y81272120D01*
X48601214Y82272120D02*
X47982166Y82272120D01*
X48315500Y81891167D01*
X48172642Y81891167D01*
X48077404Y81843548D01*
X48029785Y81795929D01*
X47982166Y81700691D01*
X47982166Y81462596D01*
X48029785Y81367358D01*
X48077404Y81319739D01*
X48172642Y81272120D01*
X48458357Y81272120D01*
X48553595Y81319739D01*
X48601214Y81367358D01*
X47363119Y82272120D02*
X47267880Y82272120D01*
X47172642Y82224500D01*
X47125023Y82176881D01*
X47077404Y82081643D01*
X47029785Y81891167D01*
X47029785Y81653072D01*
X47077404Y81462596D01*
X47125023Y81367358D01*
X47172642Y81319739D01*
X47267880Y81272120D01*
X47363119Y81272120D01*
X47458357Y81319739D01*
X47505976Y81367358D01*
X47553595Y81462596D01*
X47601214Y81653072D01*
X47601214Y81891167D01*
X47553595Y82081643D01*
X47505976Y82176881D01*
X47458357Y82224500D01*
X47363119Y82272120D01*
X46077404Y81272120D02*
X46648833Y81272120D01*
X46363119Y81272120D02*
X46363119Y82272120D01*
X46458357Y82129262D01*
X46553595Y82034024D01*
X46648833Y81986405D01*
X51521904Y79557620D02*
X51521904Y80557620D01*
X50950476Y79557620D02*
X51379047Y80129048D01*
X50950476Y80557620D02*
X51521904Y79986191D01*
X45450095Y79843334D02*
X44973904Y79843334D01*
X45545333Y79557620D02*
X45212000Y80557620D01*
X44878666Y79557620D01*
X25312476Y73969620D02*
X25312476Y74969620D01*
X25074380Y74969620D01*
X24931523Y74922000D01*
X24836285Y74826762D01*
X24788666Y74731524D01*
X24741047Y74541048D01*
X24741047Y74398191D01*
X24788666Y74207715D01*
X24836285Y74112477D01*
X24931523Y74017239D01*
X25074380Y73969620D01*
X25312476Y73969620D01*
X24407714Y74969620D02*
X23788666Y74969620D01*
X24122000Y74588667D01*
X23979142Y74588667D01*
X23883904Y74541048D01*
X23836285Y74493429D01*
X23788666Y74398191D01*
X23788666Y74160096D01*
X23836285Y74064858D01*
X23883904Y74017239D01*
X23979142Y73969620D01*
X24264857Y73969620D01*
X24360095Y74017239D01*
X24407714Y74064858D01*
X23169619Y74969620D02*
X23074380Y74969620D01*
X22979142Y74922000D01*
X22931523Y74874381D01*
X22883904Y74779143D01*
X22836285Y74588667D01*
X22836285Y74350572D01*
X22883904Y74160096D01*
X22931523Y74064858D01*
X22979142Y74017239D01*
X23074380Y73969620D01*
X23169619Y73969620D01*
X23264857Y74017239D01*
X23312476Y74064858D01*
X23360095Y74160096D01*
X23407714Y74350572D01*
X23407714Y74588667D01*
X23360095Y74779143D01*
X23312476Y74874381D01*
X23264857Y74922000D01*
X23169619Y74969620D01*
X21931523Y74969620D02*
X22407714Y74969620D01*
X22455333Y74493429D01*
X22407714Y74541048D01*
X22312476Y74588667D01*
X22074380Y74588667D01*
X21979142Y74541048D01*
X21931523Y74493429D01*
X21883904Y74398191D01*
X21883904Y74160096D01*
X21931523Y74064858D01*
X21979142Y74017239D01*
X22074380Y73969620D01*
X22312476Y73969620D01*
X22407714Y74017239D01*
X22455333Y74064858D01*
X26121904Y76447620D02*
X26121904Y77447620D01*
X25550476Y76447620D02*
X25979047Y77019048D01*
X25550476Y77447620D02*
X26121904Y76876191D01*
X21098095Y74333334D02*
X20621904Y74333334D01*
X21193333Y74047620D02*
X20860000Y75047620D01*
X20526666Y74047620D01*
X43375380Y83991477D02*
X42375380Y83991477D01*
X42375380Y83753381D01*
X42423000Y83610524D01*
X42518238Y83515286D01*
X42613476Y83467667D01*
X42803952Y83420048D01*
X42946809Y83420048D01*
X43137285Y83467667D01*
X43232523Y83515286D01*
X43327761Y83610524D01*
X43375380Y83753381D01*
X43375380Y83991477D01*
X42375380Y83086715D02*
X42375380Y82467667D01*
X42756333Y82801000D01*
X42756333Y82658143D01*
X42803952Y82562905D01*
X42851571Y82515286D01*
X42946809Y82467667D01*
X43184904Y82467667D01*
X43280142Y82515286D01*
X43327761Y82562905D01*
X43375380Y82658143D01*
X43375380Y82943858D01*
X43327761Y83039096D01*
X43280142Y83086715D01*
X42375380Y81848620D02*
X42375380Y81753381D01*
X42423000Y81658143D01*
X42470619Y81610524D01*
X42565857Y81562905D01*
X42756333Y81515286D01*
X42994428Y81515286D01*
X43184904Y81562905D01*
X43280142Y81610524D01*
X43327761Y81658143D01*
X43375380Y81753381D01*
X43375380Y81848620D01*
X43327761Y81943858D01*
X43280142Y81991477D01*
X43184904Y82039096D01*
X42994428Y82086715D01*
X42756333Y82086715D01*
X42565857Y82039096D01*
X42470619Y81991477D01*
X42423000Y81943858D01*
X42375380Y81848620D01*
X42375380Y81181953D02*
X42375380Y80562905D01*
X42756333Y80896239D01*
X42756333Y80753381D01*
X42803952Y80658143D01*
X42851571Y80610524D01*
X42946809Y80562905D01*
X43184904Y80562905D01*
X43280142Y80610524D01*
X43327761Y80658143D01*
X43375380Y80753381D01*
X43375380Y81039096D01*
X43327761Y81134334D01*
X43280142Y81181953D01*
X44902380Y82986905D02*
X43902380Y82986905D01*
X44902380Y82415477D02*
X44330952Y82844048D01*
X43902380Y82415477D02*
X44473809Y82986905D01*
X44616666Y88963096D02*
X44616666Y88486905D01*
X44902380Y89058334D02*
X43902380Y88725000D01*
X44902380Y88391667D01*
X33250047Y94543620D02*
X33583380Y95019810D01*
X33821476Y94543620D02*
X33821476Y95543620D01*
X33440523Y95543620D01*
X33345285Y95496000D01*
X33297666Y95448381D01*
X33250047Y95353143D01*
X33250047Y95210286D01*
X33297666Y95115048D01*
X33345285Y95067429D01*
X33440523Y95019810D01*
X33821476Y95019810D01*
X32916714Y95543620D02*
X32297666Y95543620D01*
X32631000Y95162667D01*
X32488142Y95162667D01*
X32392904Y95115048D01*
X32345285Y95067429D01*
X32297666Y94972191D01*
X32297666Y94734096D01*
X32345285Y94638858D01*
X32392904Y94591239D01*
X32488142Y94543620D01*
X32773857Y94543620D01*
X32869095Y94591239D01*
X32916714Y94638858D01*
X31678619Y95543620D02*
X31583380Y95543620D01*
X31488142Y95496000D01*
X31440523Y95448381D01*
X31392904Y95353143D01*
X31345285Y95162667D01*
X31345285Y94924572D01*
X31392904Y94734096D01*
X31440523Y94638858D01*
X31488142Y94591239D01*
X31583380Y94543620D01*
X31678619Y94543620D01*
X31773857Y94591239D01*
X31821476Y94638858D01*
X31869095Y94734096D01*
X31916714Y94924572D01*
X31916714Y95162667D01*
X31869095Y95353143D01*
X31821476Y95448381D01*
X31773857Y95496000D01*
X31678619Y95543620D01*
X30488142Y95210286D02*
X30488142Y94543620D01*
X30726238Y95591239D02*
X30964333Y94876953D01*
X30345285Y94876953D01*
X29017099Y16311620D02*
X29350432Y16787810D01*
X29588528Y16311620D02*
X29588528Y17311620D01*
X29207575Y17311620D01*
X29112337Y17264000D01*
X29064718Y17216381D01*
X29017099Y17121143D01*
X29017099Y16978286D01*
X29064718Y16883048D01*
X29112337Y16835429D01*
X29207575Y16787810D01*
X29588528Y16787810D01*
X28636147Y17216381D02*
X28588528Y17264000D01*
X28493290Y17311620D01*
X28255194Y17311620D01*
X28159956Y17264000D01*
X28112337Y17216381D01*
X28064718Y17121143D01*
X28064718Y17025905D01*
X28112337Y16883048D01*
X28683766Y16311620D01*
X28064718Y16311620D01*
X27112337Y16311620D02*
X27683766Y16311620D01*
X27398052Y16311620D02*
X27398052Y17311620D01*
X27493290Y17168762D01*
X27588528Y17073524D01*
X27683766Y17025905D01*
X26159956Y16311620D02*
X26731385Y16311620D01*
X26445671Y16311620D02*
X26445671Y17311620D01*
X26540909Y17168762D01*
X26636147Y17073524D01*
X26731385Y17025905D01*
X54990142Y55362548D02*
X55037761Y55410167D01*
X55085380Y55553024D01*
X55085380Y55648262D01*
X55037761Y55791120D01*
X54942523Y55886358D01*
X54847285Y55933977D01*
X54656809Y55981596D01*
X54513952Y55981596D01*
X54323476Y55933977D01*
X54228238Y55886358D01*
X54133000Y55791120D01*
X54085380Y55648262D01*
X54085380Y55553024D01*
X54133000Y55410167D01*
X54180619Y55362548D01*
X54418714Y54505405D02*
X55085380Y54505405D01*
X54037761Y54743500D02*
X54752047Y54981596D01*
X54752047Y54362548D01*
X54085380Y53791120D02*
X54085380Y53695881D01*
X54133000Y53600643D01*
X54180619Y53553024D01*
X54275857Y53505405D01*
X54466333Y53457786D01*
X54704428Y53457786D01*
X54894904Y53505405D01*
X54990142Y53553024D01*
X55037761Y53600643D01*
X55085380Y53695881D01*
X55085380Y53791120D01*
X55037761Y53886358D01*
X54990142Y53933977D01*
X54894904Y53981596D01*
X54704428Y54029215D01*
X54466333Y54029215D01*
X54275857Y53981596D01*
X54180619Y53933977D01*
X54133000Y53886358D01*
X54085380Y53791120D01*
X54085380Y52553024D02*
X54085380Y53029215D01*
X54561571Y53076834D01*
X54513952Y53029215D01*
X54466333Y52933977D01*
X54466333Y52695881D01*
X54513952Y52600643D01*
X54561571Y52553024D01*
X54656809Y52505405D01*
X54894904Y52505405D01*
X54990142Y52553024D01*
X55037761Y52600643D01*
X55085380Y52695881D01*
X55085380Y52933977D01*
X55037761Y53029215D01*
X54990142Y53076834D01*
X58450142Y68616048D02*
X58497761Y68663667D01*
X58545380Y68806524D01*
X58545380Y68901762D01*
X58497761Y69044620D01*
X58402523Y69139858D01*
X58307285Y69187477D01*
X58116809Y69235096D01*
X57973952Y69235096D01*
X57783476Y69187477D01*
X57688238Y69139858D01*
X57593000Y69044620D01*
X57545380Y68901762D01*
X57545380Y68806524D01*
X57593000Y68663667D01*
X57640619Y68616048D01*
X57878714Y67758905D02*
X58545380Y67758905D01*
X57497761Y67997000D02*
X58212047Y68235096D01*
X58212047Y67616048D01*
X57545380Y67044620D02*
X57545380Y66949381D01*
X57593000Y66854143D01*
X57640619Y66806524D01*
X57735857Y66758905D01*
X57926333Y66711286D01*
X58164428Y66711286D01*
X58354904Y66758905D01*
X58450142Y66806524D01*
X58497761Y66854143D01*
X58545380Y66949381D01*
X58545380Y67044620D01*
X58497761Y67139858D01*
X58450142Y67187477D01*
X58354904Y67235096D01*
X58164428Y67282715D01*
X57926333Y67282715D01*
X57735857Y67235096D01*
X57640619Y67187477D01*
X57593000Y67139858D01*
X57545380Y67044620D01*
X57545380Y65854143D02*
X57545380Y66044620D01*
X57593000Y66139858D01*
X57640619Y66187477D01*
X57783476Y66282715D01*
X57973952Y66330334D01*
X58354904Y66330334D01*
X58450142Y66282715D01*
X58497761Y66235096D01*
X58545380Y66139858D01*
X58545380Y65949381D01*
X58497761Y65854143D01*
X58450142Y65806524D01*
X58354904Y65758905D01*
X58116809Y65758905D01*
X58021571Y65806524D01*
X57973952Y65854143D01*
X57926333Y65949381D01*
X57926333Y66139858D01*
X57973952Y66235096D01*
X58021571Y66282715D01*
X58116809Y66330334D01*
X64238047Y63396858D02*
X64285666Y63349239D01*
X64428523Y63301620D01*
X64523761Y63301620D01*
X64666619Y63349239D01*
X64761857Y63444477D01*
X64809476Y63539715D01*
X64857095Y63730191D01*
X64857095Y63873048D01*
X64809476Y64063524D01*
X64761857Y64158762D01*
X64666619Y64254000D01*
X64523761Y64301620D01*
X64428523Y64301620D01*
X64285666Y64254000D01*
X64238047Y64206381D01*
X63380904Y63968286D02*
X63380904Y63301620D01*
X63619000Y64349239D02*
X63857095Y63634953D01*
X63238047Y63634953D01*
X62666619Y64301620D02*
X62571380Y64301620D01*
X62476142Y64254000D01*
X62428523Y64206381D01*
X62380904Y64111143D01*
X62333285Y63920667D01*
X62333285Y63682572D01*
X62380904Y63492096D01*
X62428523Y63396858D01*
X62476142Y63349239D01*
X62571380Y63301620D01*
X62666619Y63301620D01*
X62761857Y63349239D01*
X62809476Y63396858D01*
X62857095Y63492096D01*
X62904714Y63682572D01*
X62904714Y63920667D01*
X62857095Y64111143D01*
X62809476Y64206381D01*
X62761857Y64254000D01*
X62666619Y64301620D01*
X61761857Y63873048D02*
X61857095Y63920667D01*
X61904714Y63968286D01*
X61952333Y64063524D01*
X61952333Y64111143D01*
X61904714Y64206381D01*
X61857095Y64254000D01*
X61761857Y64301620D01*
X61571380Y64301620D01*
X61476142Y64254000D01*
X61428523Y64206381D01*
X61380904Y64111143D01*
X61380904Y64063524D01*
X61428523Y63968286D01*
X61476142Y63920667D01*
X61571380Y63873048D01*
X61761857Y63873048D01*
X61857095Y63825429D01*
X61904714Y63777810D01*
X61952333Y63682572D01*
X61952333Y63492096D01*
X61904714Y63396858D01*
X61857095Y63349239D01*
X61761857Y63301620D01*
X61571380Y63301620D01*
X61476142Y63349239D01*
X61428523Y63396858D01*
X61380904Y63492096D01*
X61380904Y63682572D01*
X61428523Y63777810D01*
X61476142Y63825429D01*
X61571380Y63873048D01*
X60428047Y54633858D02*
X60475666Y54586239D01*
X60618523Y54538620D01*
X60713761Y54538620D01*
X60856619Y54586239D01*
X60951857Y54681477D01*
X60999476Y54776715D01*
X61047095Y54967191D01*
X61047095Y55110048D01*
X60999476Y55300524D01*
X60951857Y55395762D01*
X60856619Y55491000D01*
X60713761Y55538620D01*
X60618523Y55538620D01*
X60475666Y55491000D01*
X60428047Y55443381D01*
X59570904Y55205286D02*
X59570904Y54538620D01*
X59809000Y55586239D02*
X60047095Y54871953D01*
X59428047Y54871953D01*
X58856619Y55538620D02*
X58761380Y55538620D01*
X58666142Y55491000D01*
X58618523Y55443381D01*
X58570904Y55348143D01*
X58523285Y55157667D01*
X58523285Y54919572D01*
X58570904Y54729096D01*
X58618523Y54633858D01*
X58666142Y54586239D01*
X58761380Y54538620D01*
X58856619Y54538620D01*
X58951857Y54586239D01*
X58999476Y54633858D01*
X59047095Y54729096D01*
X59094714Y54919572D01*
X59094714Y55157667D01*
X59047095Y55348143D01*
X58999476Y55443381D01*
X58951857Y55491000D01*
X58856619Y55538620D01*
X58047095Y54538620D02*
X57856619Y54538620D01*
X57761380Y54586239D01*
X57713761Y54633858D01*
X57618523Y54776715D01*
X57570904Y54967191D01*
X57570904Y55348143D01*
X57618523Y55443381D01*
X57666142Y55491000D01*
X57761380Y55538620D01*
X57951857Y55538620D01*
X58047095Y55491000D01*
X58094714Y55443381D01*
X58142333Y55348143D01*
X58142333Y55110048D01*
X58094714Y55014810D01*
X58047095Y54967191D01*
X57951857Y54919572D01*
X57761380Y54919572D01*
X57666142Y54967191D01*
X57618523Y55014810D01*
X57570904Y55110048D01*
X39457142Y11319048D02*
X39504761Y11366667D01*
X39552380Y11509524D01*
X39552380Y11604762D01*
X39504761Y11747620D01*
X39409523Y11842858D01*
X39314285Y11890477D01*
X39123809Y11938096D01*
X38980952Y11938096D01*
X38790476Y11890477D01*
X38695238Y11842858D01*
X38600000Y11747620D01*
X38552380Y11604762D01*
X38552380Y11509524D01*
X38600000Y11366667D01*
X38647619Y11319048D01*
X38885714Y10461905D02*
X39552380Y10461905D01*
X38504761Y10700000D02*
X39219047Y10938096D01*
X39219047Y10319048D01*
X38552380Y10033334D02*
X38552380Y9414286D01*
X38933333Y9747620D01*
X38933333Y9604762D01*
X38980952Y9509524D01*
X39028571Y9461905D01*
X39123809Y9414286D01*
X39361904Y9414286D01*
X39457142Y9461905D01*
X39504761Y9509524D01*
X39552380Y9604762D01*
X39552380Y9890477D01*
X39504761Y9985715D01*
X39457142Y10033334D01*
X38552380Y8795239D02*
X38552380Y8700000D01*
X38600000Y8604762D01*
X38647619Y8557143D01*
X38742857Y8509524D01*
X38933333Y8461905D01*
X39171428Y8461905D01*
X39361904Y8509524D01*
X39457142Y8557143D01*
X39504761Y8604762D01*
X39552380Y8700000D01*
X39552380Y8795239D01*
X39504761Y8890477D01*
X39457142Y8938096D01*
X39361904Y8985715D01*
X39171428Y9033334D01*
X38933333Y9033334D01*
X38742857Y8985715D01*
X38647619Y8938096D01*
X38600000Y8890477D01*
X38552380Y8795239D01*
X35657142Y11229048D02*
X35704761Y11276667D01*
X35752380Y11419524D01*
X35752380Y11514762D01*
X35704761Y11657620D01*
X35609523Y11752858D01*
X35514285Y11800477D01*
X35323809Y11848096D01*
X35180952Y11848096D01*
X34990476Y11800477D01*
X34895238Y11752858D01*
X34800000Y11657620D01*
X34752380Y11514762D01*
X34752380Y11419524D01*
X34800000Y11276667D01*
X34847619Y11229048D01*
X35085714Y10371905D02*
X35752380Y10371905D01*
X34704761Y10610000D02*
X35419047Y10848096D01*
X35419047Y10229048D01*
X34752380Y9943334D02*
X34752380Y9324286D01*
X35133333Y9657620D01*
X35133333Y9514762D01*
X35180952Y9419524D01*
X35228571Y9371905D01*
X35323809Y9324286D01*
X35561904Y9324286D01*
X35657142Y9371905D01*
X35704761Y9419524D01*
X35752380Y9514762D01*
X35752380Y9800477D01*
X35704761Y9895715D01*
X35657142Y9943334D01*
X35752380Y8371905D02*
X35752380Y8943334D01*
X35752380Y8657620D02*
X34752380Y8657620D01*
X34895238Y8752858D01*
X34990476Y8848096D01*
X35038095Y8943334D01*
X21752380Y18419048D02*
X21276190Y18752381D01*
X21752380Y18990477D02*
X20752380Y18990477D01*
X20752380Y18609524D01*
X20800000Y18514286D01*
X20847619Y18466667D01*
X20942857Y18419048D01*
X21085714Y18419048D01*
X21180952Y18466667D01*
X21228571Y18514286D01*
X21276190Y18609524D01*
X21276190Y18990477D01*
X20752380Y17561905D02*
X20752380Y17752381D01*
X20800000Y17847620D01*
X20847619Y17895239D01*
X20990476Y17990477D01*
X21180952Y18038096D01*
X21561904Y18038096D01*
X21657142Y17990477D01*
X21704761Y17942858D01*
X21752380Y17847620D01*
X21752380Y17657143D01*
X21704761Y17561905D01*
X21657142Y17514286D01*
X21561904Y17466667D01*
X21323809Y17466667D01*
X21228571Y17514286D01*
X21180952Y17561905D01*
X21133333Y17657143D01*
X21133333Y17847620D01*
X21180952Y17942858D01*
X21228571Y17990477D01*
X21323809Y18038096D01*
X20752380Y16847620D02*
X20752380Y16752381D01*
X20800000Y16657143D01*
X20847619Y16609524D01*
X20942857Y16561905D01*
X21133333Y16514286D01*
X21371428Y16514286D01*
X21561904Y16561905D01*
X21657142Y16609524D01*
X21704761Y16657143D01*
X21752380Y16752381D01*
X21752380Y16847620D01*
X21704761Y16942858D01*
X21657142Y16990477D01*
X21561904Y17038096D01*
X21371428Y17085715D01*
X21133333Y17085715D01*
X20942857Y17038096D01*
X20847619Y16990477D01*
X20800000Y16942858D01*
X20752380Y16847620D01*
X20752380Y16180953D02*
X20752380Y15561905D01*
X21133333Y15895239D01*
X21133333Y15752381D01*
X21180952Y15657143D01*
X21228571Y15609524D01*
X21323809Y15561905D01*
X21561904Y15561905D01*
X21657142Y15609524D01*
X21704761Y15657143D01*
X21752380Y15752381D01*
X21752380Y16038096D01*
X21704761Y16133334D01*
X21657142Y16180953D01*
X49651142Y86844048D02*
X49698761Y86891667D01*
X49746380Y87034524D01*
X49746380Y87129762D01*
X49698761Y87272620D01*
X49603523Y87367858D01*
X49508285Y87415477D01*
X49317809Y87463096D01*
X49174952Y87463096D01*
X48984476Y87415477D01*
X48889238Y87367858D01*
X48794000Y87272620D01*
X48746380Y87129762D01*
X48746380Y87034524D01*
X48794000Y86891667D01*
X48841619Y86844048D01*
X48746380Y86510715D02*
X48746380Y85891667D01*
X49127333Y86225000D01*
X49127333Y86082143D01*
X49174952Y85986905D01*
X49222571Y85939286D01*
X49317809Y85891667D01*
X49555904Y85891667D01*
X49651142Y85939286D01*
X49698761Y85986905D01*
X49746380Y86082143D01*
X49746380Y86367858D01*
X49698761Y86463096D01*
X49651142Y86510715D01*
X48746380Y85272620D02*
X48746380Y85177381D01*
X48794000Y85082143D01*
X48841619Y85034524D01*
X48936857Y84986905D01*
X49127333Y84939286D01*
X49365428Y84939286D01*
X49555904Y84986905D01*
X49651142Y85034524D01*
X49698761Y85082143D01*
X49746380Y85177381D01*
X49746380Y85272620D01*
X49698761Y85367858D01*
X49651142Y85415477D01*
X49555904Y85463096D01*
X49365428Y85510715D01*
X49127333Y85510715D01*
X48936857Y85463096D01*
X48841619Y85415477D01*
X48794000Y85367858D01*
X48746380Y85272620D01*
X48746380Y84605953D02*
X48746380Y83986905D01*
X49127333Y84320239D01*
X49127333Y84177381D01*
X49174952Y84082143D01*
X49222571Y84034524D01*
X49317809Y83986905D01*
X49555904Y83986905D01*
X49651142Y84034524D01*
X49698761Y84082143D01*
X49746380Y84177381D01*
X49746380Y84463096D01*
X49698761Y84558334D01*
X49651142Y84605953D01*
X15060047Y13250620D02*
X15393380Y13726810D01*
X15631476Y13250620D02*
X15631476Y14250620D01*
X15250523Y14250620D01*
X15155285Y14203000D01*
X15107666Y14155381D01*
X15060047Y14060143D01*
X15060047Y13917286D01*
X15107666Y13822048D01*
X15155285Y13774429D01*
X15250523Y13726810D01*
X15631476Y13726810D01*
X14679095Y14155381D02*
X14631476Y14203000D01*
X14536238Y14250620D01*
X14298142Y14250620D01*
X14202904Y14203000D01*
X14155285Y14155381D01*
X14107666Y14060143D01*
X14107666Y13964905D01*
X14155285Y13822048D01*
X14726714Y13250620D01*
X14107666Y13250620D01*
X13155285Y13250620D02*
X13726714Y13250620D01*
X13441000Y13250620D02*
X13441000Y14250620D01*
X13536238Y14107762D01*
X13631476Y14012524D01*
X13726714Y13964905D01*
X12583857Y13822048D02*
X12679095Y13869667D01*
X12726714Y13917286D01*
X12774333Y14012524D01*
X12774333Y14060143D01*
X12726714Y14155381D01*
X12679095Y14203000D01*
X12583857Y14250620D01*
X12393380Y14250620D01*
X12298142Y14203000D01*
X12250523Y14155381D01*
X12202904Y14060143D01*
X12202904Y14012524D01*
X12250523Y13917286D01*
X12298142Y13869667D01*
X12393380Y13822048D01*
X12583857Y13822048D01*
X12679095Y13774429D01*
X12726714Y13726810D01*
X12774333Y13631572D01*
X12774333Y13441096D01*
X12726714Y13345858D01*
X12679095Y13298239D01*
X12583857Y13250620D01*
X12393380Y13250620D01*
X12298142Y13298239D01*
X12250523Y13345858D01*
X12202904Y13441096D01*
X12202904Y13631572D01*
X12250523Y13726810D01*
X12298142Y13774429D01*
X12393380Y13822048D01*
X19019047Y36347620D02*
X19352380Y36823810D01*
X19590476Y36347620D02*
X19590476Y37347620D01*
X19209523Y37347620D01*
X19114285Y37300000D01*
X19066666Y37252381D01*
X19019047Y37157143D01*
X19019047Y37014286D01*
X19066666Y36919048D01*
X19114285Y36871429D01*
X19209523Y36823810D01*
X19590476Y36823810D01*
X18638095Y37252381D02*
X18590476Y37300000D01*
X18495238Y37347620D01*
X18257142Y37347620D01*
X18161904Y37300000D01*
X18114285Y37252381D01*
X18066666Y37157143D01*
X18066666Y37061905D01*
X18114285Y36919048D01*
X18685714Y36347620D01*
X18066666Y36347620D01*
X17685714Y37252381D02*
X17638095Y37300000D01*
X17542857Y37347620D01*
X17304761Y37347620D01*
X17209523Y37300000D01*
X17161904Y37252381D01*
X17114285Y37157143D01*
X17114285Y37061905D01*
X17161904Y36919048D01*
X17733333Y36347620D01*
X17114285Y36347620D01*
X16638095Y36347620D02*
X16447619Y36347620D01*
X16352380Y36395239D01*
X16304761Y36442858D01*
X16209523Y36585715D01*
X16161904Y36776191D01*
X16161904Y37157143D01*
X16209523Y37252381D01*
X16257142Y37300000D01*
X16352380Y37347620D01*
X16542857Y37347620D01*
X16638095Y37300000D01*
X16685714Y37252381D01*
X16733333Y37157143D01*
X16733333Y36919048D01*
X16685714Y36823810D01*
X16638095Y36776191D01*
X16542857Y36728572D01*
X16352380Y36728572D01*
X16257142Y36776191D01*
X16209523Y36823810D01*
X16161904Y36919048D01*
X15089047Y53890620D02*
X15422380Y54366810D01*
X15660476Y53890620D02*
X15660476Y54890620D01*
X15279523Y54890620D01*
X15184285Y54843000D01*
X15136666Y54795381D01*
X15089047Y54700143D01*
X15089047Y54557286D01*
X15136666Y54462048D01*
X15184285Y54414429D01*
X15279523Y54366810D01*
X15660476Y54366810D01*
X14708095Y54795381D02*
X14660476Y54843000D01*
X14565238Y54890620D01*
X14327142Y54890620D01*
X14231904Y54843000D01*
X14184285Y54795381D01*
X14136666Y54700143D01*
X14136666Y54604905D01*
X14184285Y54462048D01*
X14755714Y53890620D01*
X14136666Y53890620D01*
X13184285Y53890620D02*
X13755714Y53890620D01*
X13470000Y53890620D02*
X13470000Y54890620D01*
X13565238Y54747762D01*
X13660476Y54652524D01*
X13755714Y54604905D01*
X12850952Y54890620D02*
X12231904Y54890620D01*
X12565238Y54509667D01*
X12422380Y54509667D01*
X12327142Y54462048D01*
X12279523Y54414429D01*
X12231904Y54319191D01*
X12231904Y54081096D01*
X12279523Y53985858D01*
X12327142Y53938239D01*
X12422380Y53890620D01*
X12708095Y53890620D01*
X12803333Y53938239D01*
X12850952Y53985858D01*
X64449047Y44727858D02*
X64496666Y44680239D01*
X64639523Y44632620D01*
X64734761Y44632620D01*
X64877619Y44680239D01*
X64972857Y44775477D01*
X65020476Y44870715D01*
X65068095Y45061191D01*
X65068095Y45204048D01*
X65020476Y45394524D01*
X64972857Y45489762D01*
X64877619Y45585000D01*
X64734761Y45632620D01*
X64639523Y45632620D01*
X64496666Y45585000D01*
X64449047Y45537381D01*
X63591904Y45299286D02*
X63591904Y44632620D01*
X63830000Y45680239D02*
X64068095Y44965953D01*
X63449047Y44965953D01*
X62544285Y44632620D02*
X63115714Y44632620D01*
X62830000Y44632620D02*
X62830000Y45632620D01*
X62925238Y45489762D01*
X63020476Y45394524D01*
X63115714Y45346905D01*
X61591904Y44632620D02*
X62163333Y44632620D01*
X61877619Y44632620D02*
X61877619Y45632620D01*
X61972857Y45489762D01*
X62068095Y45394524D01*
X62163333Y45346905D01*
X64449047Y37615858D02*
X64496666Y37568239D01*
X64639523Y37520620D01*
X64734761Y37520620D01*
X64877619Y37568239D01*
X64972857Y37663477D01*
X65020476Y37758715D01*
X65068095Y37949191D01*
X65068095Y38092048D01*
X65020476Y38282524D01*
X64972857Y38377762D01*
X64877619Y38473000D01*
X64734761Y38520620D01*
X64639523Y38520620D01*
X64496666Y38473000D01*
X64449047Y38425381D01*
X63591904Y38187286D02*
X63591904Y37520620D01*
X63830000Y38568239D02*
X64068095Y37853953D01*
X63449047Y37853953D01*
X62544285Y37520620D02*
X63115714Y37520620D01*
X62830000Y37520620D02*
X62830000Y38520620D01*
X62925238Y38377762D01*
X63020476Y38282524D01*
X63115714Y38234905D01*
X62163333Y38425381D02*
X62115714Y38473000D01*
X62020476Y38520620D01*
X61782380Y38520620D01*
X61687142Y38473000D01*
X61639523Y38425381D01*
X61591904Y38330143D01*
X61591904Y38234905D01*
X61639523Y38092048D01*
X62210952Y37520620D01*
X61591904Y37520620D01*
X56999142Y38627048D02*
X57046761Y38674667D01*
X57094380Y38817524D01*
X57094380Y38912762D01*
X57046761Y39055620D01*
X56951523Y39150858D01*
X56856285Y39198477D01*
X56665809Y39246096D01*
X56522952Y39246096D01*
X56332476Y39198477D01*
X56237238Y39150858D01*
X56142000Y39055620D01*
X56094380Y38912762D01*
X56094380Y38817524D01*
X56142000Y38674667D01*
X56189619Y38627048D01*
X56427714Y37769905D02*
X57094380Y37769905D01*
X56046761Y38008000D02*
X56761047Y38246096D01*
X56761047Y37627048D01*
X57094380Y36722286D02*
X57094380Y37293715D01*
X57094380Y37008000D02*
X56094380Y37008000D01*
X56237238Y37103239D01*
X56332476Y37198477D01*
X56380095Y37293715D01*
X56427714Y35865143D02*
X57094380Y35865143D01*
X56046761Y36103239D02*
X56761047Y36341334D01*
X56761047Y35722286D01*
X49887142Y38627048D02*
X49934761Y38674667D01*
X49982380Y38817524D01*
X49982380Y38912762D01*
X49934761Y39055620D01*
X49839523Y39150858D01*
X49744285Y39198477D01*
X49553809Y39246096D01*
X49410952Y39246096D01*
X49220476Y39198477D01*
X49125238Y39150858D01*
X49030000Y39055620D01*
X48982380Y38912762D01*
X48982380Y38817524D01*
X49030000Y38674667D01*
X49077619Y38627048D01*
X49315714Y37769905D02*
X49982380Y37769905D01*
X48934761Y38008000D02*
X49649047Y38246096D01*
X49649047Y37627048D01*
X49982380Y36722286D02*
X49982380Y37293715D01*
X49982380Y37008000D02*
X48982380Y37008000D01*
X49125238Y37103239D01*
X49220476Y37198477D01*
X49268095Y37293715D01*
X48982380Y35817524D02*
X48982380Y36293715D01*
X49458571Y36341334D01*
X49410952Y36293715D01*
X49363333Y36198477D01*
X49363333Y35960381D01*
X49410952Y35865143D01*
X49458571Y35817524D01*
X49553809Y35769905D01*
X49791904Y35769905D01*
X49887142Y35817524D01*
X49934761Y35865143D01*
X49982380Y35960381D01*
X49982380Y36198477D01*
X49934761Y36293715D01*
X49887142Y36341334D01*
X26405476Y20062620D02*
X26405476Y21062620D01*
X26167380Y21062620D01*
X26024523Y21015000D01*
X25929285Y20919762D01*
X25881666Y20824524D01*
X25834047Y20634048D01*
X25834047Y20491191D01*
X25881666Y20300715D01*
X25929285Y20205477D01*
X26024523Y20110239D01*
X26167380Y20062620D01*
X26405476Y20062620D01*
X24976904Y21062620D02*
X25167380Y21062620D01*
X25262619Y21015000D01*
X25310238Y20967381D01*
X25405476Y20824524D01*
X25453095Y20634048D01*
X25453095Y20253096D01*
X25405476Y20157858D01*
X25357857Y20110239D01*
X25262619Y20062620D01*
X25072142Y20062620D01*
X24976904Y20110239D01*
X24929285Y20157858D01*
X24881666Y20253096D01*
X24881666Y20491191D01*
X24929285Y20586429D01*
X24976904Y20634048D01*
X25072142Y20681667D01*
X25262619Y20681667D01*
X25357857Y20634048D01*
X25405476Y20586429D01*
X25453095Y20491191D01*
X24262619Y21062620D02*
X24167380Y21062620D01*
X24072142Y21015000D01*
X24024523Y20967381D01*
X23976904Y20872143D01*
X23929285Y20681667D01*
X23929285Y20443572D01*
X23976904Y20253096D01*
X24024523Y20157858D01*
X24072142Y20110239D01*
X24167380Y20062620D01*
X24262619Y20062620D01*
X24357857Y20110239D01*
X24405476Y20157858D01*
X24453095Y20253096D01*
X24500714Y20443572D01*
X24500714Y20681667D01*
X24453095Y20872143D01*
X24405476Y20967381D01*
X24357857Y21015000D01*
X24262619Y21062620D01*
X22976904Y20062620D02*
X23548333Y20062620D01*
X23262619Y20062620D02*
X23262619Y21062620D01*
X23357857Y20919762D01*
X23453095Y20824524D01*
X23548333Y20776905D01*
X27976904Y20502620D02*
X27976904Y21502620D01*
X27405476Y20502620D02*
X27834047Y21074048D01*
X27405476Y21502620D02*
X27976904Y20931191D01*
X21953095Y22098334D02*
X21476904Y22098334D01*
X22048333Y21812620D02*
X21715000Y22812620D01*
X21381666Y21812620D01*
X54852380Y11219048D02*
X54376190Y11552381D01*
X54852380Y11790477D02*
X53852380Y11790477D01*
X53852380Y11409524D01*
X53900000Y11314286D01*
X53947619Y11266667D01*
X54042857Y11219048D01*
X54185714Y11219048D01*
X54280952Y11266667D01*
X54328571Y11314286D01*
X54376190Y11409524D01*
X54376190Y11790477D01*
X54185714Y10361905D02*
X54852380Y10361905D01*
X53804761Y10600000D02*
X54519047Y10838096D01*
X54519047Y10219048D01*
X54852380Y9314286D02*
X54852380Y9885715D01*
X54852380Y9600000D02*
X53852380Y9600000D01*
X53995238Y9695239D01*
X54090476Y9790477D01*
X54138095Y9885715D01*
X54852380Y8361905D02*
X54852380Y8933334D01*
X54852380Y8647620D02*
X53852380Y8647620D01*
X53995238Y8742858D01*
X54090476Y8838096D01*
X54138095Y8933334D01*
X62452380Y11319048D02*
X61976190Y11652381D01*
X62452380Y11890477D02*
X61452380Y11890477D01*
X61452380Y11509524D01*
X61500000Y11414286D01*
X61547619Y11366667D01*
X61642857Y11319048D01*
X61785714Y11319048D01*
X61880952Y11366667D01*
X61928571Y11414286D01*
X61976190Y11509524D01*
X61976190Y11890477D01*
X61785714Y10461905D02*
X62452380Y10461905D01*
X61404761Y10700000D02*
X62119047Y10938096D01*
X62119047Y10319048D01*
X62452380Y9414286D02*
X62452380Y9985715D01*
X62452380Y9700000D02*
X61452380Y9700000D01*
X61595238Y9795239D01*
X61690476Y9890477D01*
X61738095Y9985715D01*
X61452380Y9080953D02*
X61452380Y8461905D01*
X61833333Y8795239D01*
X61833333Y8652381D01*
X61880952Y8557143D01*
X61928571Y8509524D01*
X62023809Y8461905D01*
X62261904Y8461905D01*
X62357142Y8509524D01*
X62404761Y8557143D01*
X62452380Y8652381D01*
X62452380Y8938096D01*
X62404761Y9033334D01*
X62357142Y9080953D01*
X69413380Y11219048D02*
X68937190Y11552381D01*
X69413380Y11790477D02*
X68413380Y11790477D01*
X68413380Y11409524D01*
X68461000Y11314286D01*
X68508619Y11266667D01*
X68603857Y11219048D01*
X68746714Y11219048D01*
X68841952Y11266667D01*
X68889571Y11314286D01*
X68937190Y11409524D01*
X68937190Y11790477D01*
X68746714Y10361905D02*
X69413380Y10361905D01*
X68365761Y10600000D02*
X69080047Y10838096D01*
X69080047Y10219048D01*
X69413380Y9314286D02*
X69413380Y9885715D01*
X69413380Y9600000D02*
X68413380Y9600000D01*
X68556238Y9695239D01*
X68651476Y9790477D01*
X68699095Y9885715D01*
X68746714Y8457143D02*
X69413380Y8457143D01*
X68365761Y8695239D02*
X69080047Y8933334D01*
X69080047Y8314286D01*
X45014285Y36623620D02*
X44442857Y36623620D01*
X44728571Y35623620D02*
X44728571Y36623620D01*
X44109523Y35623620D02*
X44109523Y36623620D01*
X43728571Y36623620D01*
X43633333Y36576000D01*
X43585714Y36528381D01*
X43538095Y36433143D01*
X43538095Y36290286D01*
X43585714Y36195048D01*
X43633333Y36147429D01*
X43728571Y36099810D01*
X44109523Y36099810D01*
X42585714Y35623620D02*
X43157142Y35623620D01*
X42871428Y35623620D02*
X42871428Y36623620D01*
X42966666Y36480762D01*
X43061904Y36385524D01*
X43157142Y36337905D01*
X41966666Y36623620D02*
X41871428Y36623620D01*
X41776190Y36576000D01*
X41728571Y36528381D01*
X41680952Y36433143D01*
X41633333Y36242667D01*
X41633333Y36004572D01*
X41680952Y35814096D01*
X41728571Y35718858D01*
X41776190Y35671239D01*
X41871428Y35623620D01*
X41966666Y35623620D01*
X42061904Y35671239D01*
X42109523Y35718858D01*
X42157142Y35814096D01*
X42204761Y36004572D01*
X42204761Y36242667D01*
X42157142Y36433143D01*
X42109523Y36528381D01*
X42061904Y36576000D01*
X41966666Y36623620D01*
X40680952Y35623620D02*
X41252380Y35623620D01*
X40966666Y35623620D02*
X40966666Y36623620D01*
X41061904Y36480762D01*
X41157142Y36385524D01*
X41252380Y36337905D01*
X26405476Y23612620D02*
X26405476Y24612620D01*
X26167380Y24612620D01*
X26024523Y24565000D01*
X25929285Y24469762D01*
X25881666Y24374524D01*
X25834047Y24184048D01*
X25834047Y24041191D01*
X25881666Y23850715D01*
X25929285Y23755477D01*
X26024523Y23660239D01*
X26167380Y23612620D01*
X26405476Y23612620D01*
X24976904Y24612620D02*
X25167380Y24612620D01*
X25262619Y24565000D01*
X25310238Y24517381D01*
X25405476Y24374524D01*
X25453095Y24184048D01*
X25453095Y23803096D01*
X25405476Y23707858D01*
X25357857Y23660239D01*
X25262619Y23612620D01*
X25072142Y23612620D01*
X24976904Y23660239D01*
X24929285Y23707858D01*
X24881666Y23803096D01*
X24881666Y24041191D01*
X24929285Y24136429D01*
X24976904Y24184048D01*
X25072142Y24231667D01*
X25262619Y24231667D01*
X25357857Y24184048D01*
X25405476Y24136429D01*
X25453095Y24041191D01*
X24262619Y24612620D02*
X24167380Y24612620D01*
X24072142Y24565000D01*
X24024523Y24517381D01*
X23976904Y24422143D01*
X23929285Y24231667D01*
X23929285Y23993572D01*
X23976904Y23803096D01*
X24024523Y23707858D01*
X24072142Y23660239D01*
X24167380Y23612620D01*
X24262619Y23612620D01*
X24357857Y23660239D01*
X24405476Y23707858D01*
X24453095Y23803096D01*
X24500714Y23993572D01*
X24500714Y24231667D01*
X24453095Y24422143D01*
X24405476Y24517381D01*
X24357857Y24565000D01*
X24262619Y24612620D01*
X23548333Y24517381D02*
X23500714Y24565000D01*
X23405476Y24612620D01*
X23167380Y24612620D01*
X23072142Y24565000D01*
X23024523Y24517381D01*
X22976904Y24422143D01*
X22976904Y24326905D01*
X23024523Y24184048D01*
X23595952Y23612620D01*
X22976904Y23612620D01*
X21976904Y25312620D02*
X21976904Y26312620D01*
X21405476Y25312620D02*
X21834047Y25884048D01*
X21405476Y26312620D02*
X21976904Y25741191D01*
X27953095Y25598334D02*
X27476904Y25598334D01*
X28048333Y25312620D02*
X27715000Y26312620D01*
X27381666Y25312620D01*
M02*
