G04 #@! TF.GenerationSoftware,KiCad,Pcbnew,(5.1.0)-1*
G04 #@! TF.CreationDate,2019-04-03T21:41:51+01:00*
G04 #@! TF.ProjectId,DAC-AK4458-1.0,4441432d-414b-4343-9435-382d312e302e,1.0*
G04 #@! TF.SameCoordinates,PX6422c40PY8f0d180*
G04 #@! TF.FileFunction,Soldermask,Top*
G04 #@! TF.FilePolarity,Negative*
%FSLAX46Y46*%
G04 Gerber Fmt 4.6, Leading zero omitted, Abs format (unit mm)*
G04 Created by KiCad (PCBNEW (5.1.0)-1) date 2019-04-03 21:41:51*
%MOMM*%
%LPD*%
G04 APERTURE LIST*
%ADD10C,0.150000*%
%ADD11C,0.100000*%
G04 APERTURE END LIST*
D10*
X100000000Y0D02*
X0Y0D01*
X100000000Y100000000D02*
X100000000Y0D01*
X0Y100000000D02*
X100000000Y100000000D01*
X0Y0D02*
X0Y100000000D01*
D11*
G36*
X14437534Y4442357D02*
G01*
X14710515Y4329284D01*
X14710517Y4329283D01*
X14778769Y4283678D01*
X14956193Y4165127D01*
X15165127Y3956193D01*
X15329284Y3710515D01*
X15442357Y3437534D01*
X15500000Y3147738D01*
X15500000Y2852262D01*
X15442357Y2562466D01*
X15329284Y2289485D01*
X15329283Y2289483D01*
X15165126Y2043806D01*
X14956194Y1834874D01*
X14710517Y1670717D01*
X14710516Y1670716D01*
X14710515Y1670716D01*
X14437534Y1557643D01*
X14147738Y1500000D01*
X13852262Y1500000D01*
X13562466Y1557643D01*
X13289485Y1670716D01*
X13289484Y1670716D01*
X13289483Y1670717D01*
X13043806Y1834874D01*
X12834874Y2043806D01*
X12670717Y2289483D01*
X12670716Y2289485D01*
X12557643Y2562466D01*
X12500000Y2852262D01*
X12500000Y3147738D01*
X12557643Y3437534D01*
X12670716Y3710515D01*
X12834873Y3956193D01*
X13043807Y4165127D01*
X13221231Y4283678D01*
X13289483Y4329283D01*
X13289485Y4329284D01*
X13562466Y4442357D01*
X13852262Y4500000D01*
X14147738Y4500000D01*
X14437534Y4442357D01*
X14437534Y4442357D01*
G37*
G36*
X67537290Y3514381D02*
G01*
X67601689Y3501571D01*
X67783678Y3426189D01*
X67947463Y3316751D01*
X68086751Y3177463D01*
X68196189Y3013678D01*
X68271571Y2831689D01*
X68310000Y2638491D01*
X68310000Y2441509D01*
X68271571Y2248311D01*
X68196189Y2066322D01*
X68086751Y1902537D01*
X67947463Y1763249D01*
X67783678Y1653811D01*
X67601689Y1578429D01*
X67537290Y1565619D01*
X67408493Y1540000D01*
X67211507Y1540000D01*
X67082710Y1565619D01*
X67018311Y1578429D01*
X66836322Y1653811D01*
X66672537Y1763249D01*
X66533249Y1902537D01*
X66423811Y2066322D01*
X66348429Y2248311D01*
X66310000Y2441509D01*
X66310000Y2638491D01*
X66348429Y2831689D01*
X66423811Y3013678D01*
X66533249Y3177463D01*
X66672537Y3316751D01*
X66836322Y3426189D01*
X67018311Y3501571D01*
X67082710Y3514381D01*
X67211507Y3540000D01*
X67408493Y3540000D01*
X67537290Y3514381D01*
X67537290Y3514381D01*
G37*
G36*
X44677290Y3514381D02*
G01*
X44741689Y3501571D01*
X44923678Y3426189D01*
X45087463Y3316751D01*
X45226751Y3177463D01*
X45336189Y3013678D01*
X45411571Y2831689D01*
X45450000Y2638491D01*
X45450000Y2441509D01*
X45411571Y2248311D01*
X45336189Y2066322D01*
X45226751Y1902537D01*
X45087463Y1763249D01*
X44923678Y1653811D01*
X44741689Y1578429D01*
X44677290Y1565619D01*
X44548493Y1540000D01*
X44351507Y1540000D01*
X44222710Y1565619D01*
X44158311Y1578429D01*
X43976322Y1653811D01*
X43812537Y1763249D01*
X43673249Y1902537D01*
X43563811Y2066322D01*
X43488429Y2248311D01*
X43450000Y2441509D01*
X43450000Y2638491D01*
X43488429Y2831689D01*
X43563811Y3013678D01*
X43673249Y3177463D01*
X43812537Y3316751D01*
X43976322Y3426189D01*
X44158311Y3501571D01*
X44222710Y3514381D01*
X44351507Y3540000D01*
X44548493Y3540000D01*
X44677290Y3514381D01*
X44677290Y3514381D01*
G37*
G36*
X48487290Y3514381D02*
G01*
X48551689Y3501571D01*
X48733678Y3426189D01*
X48897463Y3316751D01*
X49036751Y3177463D01*
X49146189Y3013678D01*
X49221571Y2831689D01*
X49260000Y2638491D01*
X49260000Y2441509D01*
X49221571Y2248311D01*
X49146189Y2066322D01*
X49036751Y1902537D01*
X48897463Y1763249D01*
X48733678Y1653811D01*
X48551689Y1578429D01*
X48487290Y1565619D01*
X48358493Y1540000D01*
X48161507Y1540000D01*
X48032710Y1565619D01*
X47968311Y1578429D01*
X47786322Y1653811D01*
X47622537Y1763249D01*
X47483249Y1902537D01*
X47373811Y2066322D01*
X47298429Y2248311D01*
X47260000Y2441509D01*
X47260000Y2638491D01*
X47298429Y2831689D01*
X47373811Y3013678D01*
X47483249Y3177463D01*
X47622537Y3316751D01*
X47786322Y3426189D01*
X47968311Y3501571D01*
X48032710Y3514381D01*
X48161507Y3540000D01*
X48358493Y3540000D01*
X48487290Y3514381D01*
X48487290Y3514381D01*
G37*
G36*
X52297290Y3514381D02*
G01*
X52361689Y3501571D01*
X52543678Y3426189D01*
X52707463Y3316751D01*
X52846751Y3177463D01*
X52956189Y3013678D01*
X53031571Y2831689D01*
X53070000Y2638491D01*
X53070000Y2441509D01*
X53031571Y2248311D01*
X52956189Y2066322D01*
X52846751Y1902537D01*
X52707463Y1763249D01*
X52543678Y1653811D01*
X52361689Y1578429D01*
X52297290Y1565619D01*
X52168493Y1540000D01*
X51971507Y1540000D01*
X51842710Y1565619D01*
X51778311Y1578429D01*
X51596322Y1653811D01*
X51432537Y1763249D01*
X51293249Y1902537D01*
X51183811Y2066322D01*
X51108429Y2248311D01*
X51070000Y2441509D01*
X51070000Y2638491D01*
X51108429Y2831689D01*
X51183811Y3013678D01*
X51293249Y3177463D01*
X51432537Y3316751D01*
X51596322Y3426189D01*
X51778311Y3501571D01*
X51842710Y3514381D01*
X51971507Y3540000D01*
X52168493Y3540000D01*
X52297290Y3514381D01*
X52297290Y3514381D01*
G37*
G36*
X56107290Y3514381D02*
G01*
X56171689Y3501571D01*
X56353678Y3426189D01*
X56517463Y3316751D01*
X56656751Y3177463D01*
X56766189Y3013678D01*
X56841571Y2831689D01*
X56880000Y2638491D01*
X56880000Y2441509D01*
X56841571Y2248311D01*
X56766189Y2066322D01*
X56656751Y1902537D01*
X56517463Y1763249D01*
X56353678Y1653811D01*
X56171689Y1578429D01*
X56107290Y1565619D01*
X55978493Y1540000D01*
X55781507Y1540000D01*
X55652710Y1565619D01*
X55588311Y1578429D01*
X55406322Y1653811D01*
X55242537Y1763249D01*
X55103249Y1902537D01*
X54993811Y2066322D01*
X54918429Y2248311D01*
X54880000Y2441509D01*
X54880000Y2638491D01*
X54918429Y2831689D01*
X54993811Y3013678D01*
X55103249Y3177463D01*
X55242537Y3316751D01*
X55406322Y3426189D01*
X55588311Y3501571D01*
X55652710Y3514381D01*
X55781507Y3540000D01*
X55978493Y3540000D01*
X56107290Y3514381D01*
X56107290Y3514381D01*
G37*
G36*
X59917290Y3514381D02*
G01*
X59981689Y3501571D01*
X60163678Y3426189D01*
X60327463Y3316751D01*
X60466751Y3177463D01*
X60576189Y3013678D01*
X60651571Y2831689D01*
X60690000Y2638491D01*
X60690000Y2441509D01*
X60651571Y2248311D01*
X60576189Y2066322D01*
X60466751Y1902537D01*
X60327463Y1763249D01*
X60163678Y1653811D01*
X59981689Y1578429D01*
X59917290Y1565619D01*
X59788493Y1540000D01*
X59591507Y1540000D01*
X59462710Y1565619D01*
X59398311Y1578429D01*
X59216322Y1653811D01*
X59052537Y1763249D01*
X58913249Y1902537D01*
X58803811Y2066322D01*
X58728429Y2248311D01*
X58690000Y2441509D01*
X58690000Y2638491D01*
X58728429Y2831689D01*
X58803811Y3013678D01*
X58913249Y3177463D01*
X59052537Y3316751D01*
X59216322Y3426189D01*
X59398311Y3501571D01*
X59462710Y3514381D01*
X59591507Y3540000D01*
X59788493Y3540000D01*
X59917290Y3514381D01*
X59917290Y3514381D01*
G37*
G36*
X63727290Y3514381D02*
G01*
X63791689Y3501571D01*
X63973678Y3426189D01*
X64137463Y3316751D01*
X64276751Y3177463D01*
X64386189Y3013678D01*
X64461571Y2831689D01*
X64500000Y2638491D01*
X64500000Y2441509D01*
X64461571Y2248311D01*
X64386189Y2066322D01*
X64276751Y1902537D01*
X64137463Y1763249D01*
X63973678Y1653811D01*
X63791689Y1578429D01*
X63727290Y1565619D01*
X63598493Y1540000D01*
X63401507Y1540000D01*
X63272710Y1565619D01*
X63208311Y1578429D01*
X63026322Y1653811D01*
X62862537Y1763249D01*
X62723249Y1902537D01*
X62613811Y2066322D01*
X62538429Y2248311D01*
X62500000Y2441509D01*
X62500000Y2638491D01*
X62538429Y2831689D01*
X62613811Y3013678D01*
X62723249Y3177463D01*
X62862537Y3316751D01*
X63026322Y3426189D01*
X63208311Y3501571D01*
X63272710Y3514381D01*
X63401507Y3540000D01*
X63598493Y3540000D01*
X63727290Y3514381D01*
X63727290Y3514381D01*
G37*
G36*
X95604780Y8040435D02*
G01*
X95904237Y7980869D01*
X96468401Y7747185D01*
X96976135Y7407928D01*
X97407928Y6976135D01*
X97747185Y6468401D01*
X97980869Y5904237D01*
X98019000Y5712539D01*
X98100000Y5305325D01*
X98100000Y4694675D01*
X98050826Y4447463D01*
X97980869Y4095763D01*
X97747185Y3531599D01*
X97407928Y3023865D01*
X96976135Y2592072D01*
X96468401Y2252815D01*
X95904237Y2019131D01*
X95604780Y1959566D01*
X95305325Y1900000D01*
X94694675Y1900000D01*
X94395220Y1959566D01*
X94095763Y2019131D01*
X93531599Y2252815D01*
X93023865Y2592072D01*
X92592072Y3023865D01*
X92252815Y3531599D01*
X92019131Y4095763D01*
X91949174Y4447463D01*
X91900000Y4694675D01*
X91900000Y5305325D01*
X91981000Y5712539D01*
X92019131Y5904237D01*
X92252815Y6468401D01*
X92592072Y6976135D01*
X93023865Y7407928D01*
X93531599Y7747185D01*
X94095763Y7980869D01*
X94395220Y8040435D01*
X94694675Y8100000D01*
X95305325Y8100000D01*
X95604780Y8040435D01*
X95604780Y8040435D01*
G37*
G36*
X5604780Y8040435D02*
G01*
X5904237Y7980869D01*
X6468401Y7747185D01*
X6976135Y7407928D01*
X7407928Y6976135D01*
X7747185Y6468401D01*
X7980869Y5904237D01*
X8019000Y5712539D01*
X8100000Y5305325D01*
X8100000Y4694675D01*
X8050826Y4447463D01*
X7980869Y4095763D01*
X7747185Y3531599D01*
X7407928Y3023865D01*
X6976135Y2592072D01*
X6468401Y2252815D01*
X5904237Y2019131D01*
X5604780Y1959566D01*
X5305325Y1900000D01*
X4694675Y1900000D01*
X4395220Y1959566D01*
X4095763Y2019131D01*
X3531599Y2252815D01*
X3023865Y2592072D01*
X2592072Y3023865D01*
X2252815Y3531599D01*
X2019131Y4095763D01*
X1949174Y4447463D01*
X1900000Y4694675D01*
X1900000Y5305325D01*
X1981000Y5712539D01*
X2019131Y5904237D01*
X2252815Y6468401D01*
X2592072Y6976135D01*
X3023865Y7407928D01*
X3531599Y7747185D01*
X4095763Y7980869D01*
X4395220Y8040435D01*
X4694675Y8100000D01*
X5305325Y8100000D01*
X5604780Y8040435D01*
X5604780Y8040435D01*
G37*
G36*
X26897290Y4784381D02*
G01*
X26961689Y4771571D01*
X27143678Y4696189D01*
X27307463Y4586751D01*
X27446751Y4447463D01*
X27556189Y4283678D01*
X27631571Y4101689D01*
X27631571Y4101688D01*
X27670000Y3908493D01*
X27670000Y3711507D01*
X27644381Y3582710D01*
X27631571Y3518311D01*
X27556189Y3336322D01*
X27446751Y3172537D01*
X27307463Y3033249D01*
X27143678Y2923811D01*
X26961689Y2848429D01*
X26897290Y2835619D01*
X26768493Y2810000D01*
X26571507Y2810000D01*
X26442710Y2835619D01*
X26378311Y2848429D01*
X26196322Y2923811D01*
X26032537Y3033249D01*
X25893249Y3172537D01*
X25783811Y3336322D01*
X25708429Y3518311D01*
X25695619Y3582710D01*
X25670000Y3711507D01*
X25670000Y3908493D01*
X25708429Y4101688D01*
X25708429Y4101689D01*
X25783811Y4283678D01*
X25893249Y4447463D01*
X26032537Y4586751D01*
X26196322Y4696189D01*
X26378311Y4771571D01*
X26442710Y4784381D01*
X26571507Y4810000D01*
X26768493Y4810000D01*
X26897290Y4784381D01*
X26897290Y4784381D01*
G37*
G36*
X31977290Y4784381D02*
G01*
X32041689Y4771571D01*
X32223678Y4696189D01*
X32387463Y4586751D01*
X32526751Y4447463D01*
X32636189Y4283678D01*
X32711571Y4101689D01*
X32711571Y4101688D01*
X32750000Y3908493D01*
X32750000Y3711507D01*
X32724381Y3582710D01*
X32711571Y3518311D01*
X32636189Y3336322D01*
X32526751Y3172537D01*
X32387463Y3033249D01*
X32223678Y2923811D01*
X32041689Y2848429D01*
X31977290Y2835619D01*
X31848493Y2810000D01*
X31651507Y2810000D01*
X31522710Y2835619D01*
X31458311Y2848429D01*
X31276322Y2923811D01*
X31112537Y3033249D01*
X30973249Y3172537D01*
X30863811Y3336322D01*
X30788429Y3518311D01*
X30775619Y3582710D01*
X30750000Y3711507D01*
X30750000Y3908493D01*
X30788429Y4101688D01*
X30788429Y4101689D01*
X30863811Y4283678D01*
X30973249Y4447463D01*
X31112537Y4586751D01*
X31276322Y4696189D01*
X31458311Y4771571D01*
X31522710Y4784381D01*
X31651507Y4810000D01*
X31848493Y4810000D01*
X31977290Y4784381D01*
X31977290Y4784381D01*
G37*
G36*
X29437290Y4784381D02*
G01*
X29501689Y4771571D01*
X29683678Y4696189D01*
X29847463Y4586751D01*
X29986751Y4447463D01*
X30096189Y4283678D01*
X30171571Y4101689D01*
X30171571Y4101688D01*
X30210000Y3908493D01*
X30210000Y3711507D01*
X30184381Y3582710D01*
X30171571Y3518311D01*
X30096189Y3336322D01*
X29986751Y3172537D01*
X29847463Y3033249D01*
X29683678Y2923811D01*
X29501689Y2848429D01*
X29437290Y2835619D01*
X29308493Y2810000D01*
X29111507Y2810000D01*
X28982710Y2835619D01*
X28918311Y2848429D01*
X28736322Y2923811D01*
X28572537Y3033249D01*
X28433249Y3172537D01*
X28323811Y3336322D01*
X28248429Y3518311D01*
X28235619Y3582710D01*
X28210000Y3711507D01*
X28210000Y3908493D01*
X28248429Y4101688D01*
X28248429Y4101689D01*
X28323811Y4283678D01*
X28433249Y4447463D01*
X28572537Y4586751D01*
X28736322Y4696189D01*
X28918311Y4771571D01*
X28982710Y4784381D01*
X29111507Y4810000D01*
X29308493Y4810000D01*
X29437290Y4784381D01*
X29437290Y4784381D01*
G37*
G36*
X24357290Y4784381D02*
G01*
X24421689Y4771571D01*
X24603678Y4696189D01*
X24767463Y4586751D01*
X24906751Y4447463D01*
X25016189Y4283678D01*
X25091571Y4101689D01*
X25091571Y4101688D01*
X25130000Y3908493D01*
X25130000Y3711507D01*
X25104381Y3582710D01*
X25091571Y3518311D01*
X25016189Y3336322D01*
X24906751Y3172537D01*
X24767463Y3033249D01*
X24603678Y2923811D01*
X24421689Y2848429D01*
X24357290Y2835619D01*
X24228493Y2810000D01*
X24031507Y2810000D01*
X23902710Y2835619D01*
X23838311Y2848429D01*
X23656322Y2923811D01*
X23492537Y3033249D01*
X23353249Y3172537D01*
X23243811Y3336322D01*
X23168429Y3518311D01*
X23155619Y3582710D01*
X23130000Y3711507D01*
X23130000Y3908493D01*
X23168429Y4101688D01*
X23168429Y4101689D01*
X23243811Y4283678D01*
X23353249Y4447463D01*
X23492537Y4586751D01*
X23656322Y4696189D01*
X23838311Y4771571D01*
X23902710Y4784381D01*
X24031507Y4810000D01*
X24228493Y4810000D01*
X24357290Y4784381D01*
X24357290Y4784381D01*
G37*
G36*
X10387290Y4784381D02*
G01*
X10451689Y4771571D01*
X10633678Y4696189D01*
X10797463Y4586751D01*
X10936751Y4447463D01*
X11046189Y4283678D01*
X11121571Y4101689D01*
X11121571Y4101688D01*
X11160000Y3908493D01*
X11160000Y3711507D01*
X11134381Y3582710D01*
X11121571Y3518311D01*
X11046189Y3336322D01*
X10936751Y3172537D01*
X10797463Y3033249D01*
X10633678Y2923811D01*
X10451689Y2848429D01*
X10387290Y2835619D01*
X10258493Y2810000D01*
X10061507Y2810000D01*
X9932710Y2835619D01*
X9868311Y2848429D01*
X9686322Y2923811D01*
X9522537Y3033249D01*
X9383249Y3172537D01*
X9273811Y3336322D01*
X9198429Y3518311D01*
X9185619Y3582710D01*
X9160000Y3711507D01*
X9160000Y3908493D01*
X9198429Y4101688D01*
X9198429Y4101689D01*
X9273811Y4283678D01*
X9383249Y4447463D01*
X9522537Y4586751D01*
X9686322Y4696189D01*
X9868311Y4771571D01*
X9932710Y4784381D01*
X10061507Y4810000D01*
X10258493Y4810000D01*
X10387290Y4784381D01*
X10387290Y4784381D01*
G37*
G36*
X22590000Y2810000D02*
G01*
X20590000Y2810000D01*
X20590000Y4810000D01*
X22590000Y4810000D01*
X22590000Y2810000D01*
X22590000Y2810000D01*
G37*
G36*
X68310000Y4080000D02*
G01*
X66310000Y4080000D01*
X66310000Y6080000D01*
X68310000Y6080000D01*
X68310000Y4080000D01*
X68310000Y4080000D01*
G37*
G36*
X45450000Y4080000D02*
G01*
X43450000Y4080000D01*
X43450000Y6080000D01*
X45450000Y6080000D01*
X45450000Y4080000D01*
X45450000Y4080000D01*
G37*
G36*
X56880000Y4080000D02*
G01*
X54880000Y4080000D01*
X54880000Y6080000D01*
X56880000Y6080000D01*
X56880000Y4080000D01*
X56880000Y4080000D01*
G37*
G36*
X49260000Y4080000D02*
G01*
X47260000Y4080000D01*
X47260000Y6080000D01*
X49260000Y6080000D01*
X49260000Y4080000D01*
X49260000Y4080000D01*
G37*
G36*
X53070000Y4080000D02*
G01*
X51070000Y4080000D01*
X51070000Y6080000D01*
X53070000Y6080000D01*
X53070000Y4080000D01*
X53070000Y4080000D01*
G37*
G36*
X60690000Y4080000D02*
G01*
X58690000Y4080000D01*
X58690000Y6080000D01*
X60690000Y6080000D01*
X60690000Y4080000D01*
X60690000Y4080000D01*
G37*
G36*
X64500000Y4080000D02*
G01*
X62500000Y4080000D01*
X62500000Y6080000D01*
X64500000Y6080000D01*
X64500000Y4080000D01*
X64500000Y4080000D01*
G37*
G36*
X29437290Y7324381D02*
G01*
X29501689Y7311571D01*
X29683678Y7236189D01*
X29847463Y7126751D01*
X29986751Y6987463D01*
X30096189Y6823678D01*
X30171571Y6641689D01*
X30210000Y6448491D01*
X30210000Y6251509D01*
X30171571Y6058311D01*
X30096189Y5876322D01*
X29986751Y5712537D01*
X29847463Y5573249D01*
X29683678Y5463811D01*
X29501689Y5388429D01*
X29437290Y5375619D01*
X29308493Y5350000D01*
X29111507Y5350000D01*
X28982710Y5375619D01*
X28918311Y5388429D01*
X28736322Y5463811D01*
X28572537Y5573249D01*
X28433249Y5712537D01*
X28323811Y5876322D01*
X28248429Y6058311D01*
X28210000Y6251509D01*
X28210000Y6448491D01*
X28248429Y6641689D01*
X28323811Y6823678D01*
X28433249Y6987463D01*
X28572537Y7126751D01*
X28736322Y7236189D01*
X28918311Y7311571D01*
X28982710Y7324381D01*
X29111507Y7350000D01*
X29308493Y7350000D01*
X29437290Y7324381D01*
X29437290Y7324381D01*
G37*
G36*
X11160000Y5350000D02*
G01*
X9160000Y5350000D01*
X9160000Y7350000D01*
X11160000Y7350000D01*
X11160000Y5350000D01*
X11160000Y5350000D01*
G37*
G36*
X21817290Y7324381D02*
G01*
X21881689Y7311571D01*
X22063678Y7236189D01*
X22227463Y7126751D01*
X22366751Y6987463D01*
X22476189Y6823678D01*
X22551571Y6641689D01*
X22590000Y6448491D01*
X22590000Y6251509D01*
X22551571Y6058311D01*
X22476189Y5876322D01*
X22366751Y5712537D01*
X22227463Y5573249D01*
X22063678Y5463811D01*
X21881689Y5388429D01*
X21817290Y5375619D01*
X21688493Y5350000D01*
X21491507Y5350000D01*
X21362710Y5375619D01*
X21298311Y5388429D01*
X21116322Y5463811D01*
X20952537Y5573249D01*
X20813249Y5712537D01*
X20703811Y5876322D01*
X20628429Y6058311D01*
X20590000Y6251509D01*
X20590000Y6448491D01*
X20628429Y6641689D01*
X20703811Y6823678D01*
X20813249Y6987463D01*
X20952537Y7126751D01*
X21116322Y7236189D01*
X21298311Y7311571D01*
X21362710Y7324381D01*
X21491507Y7350000D01*
X21688493Y7350000D01*
X21817290Y7324381D01*
X21817290Y7324381D01*
G37*
G36*
X31977290Y7324381D02*
G01*
X32041689Y7311571D01*
X32223678Y7236189D01*
X32387463Y7126751D01*
X32526751Y6987463D01*
X32636189Y6823678D01*
X32711571Y6641689D01*
X32750000Y6448491D01*
X32750000Y6251509D01*
X32711571Y6058311D01*
X32636189Y5876322D01*
X32526751Y5712537D01*
X32387463Y5573249D01*
X32223678Y5463811D01*
X32041689Y5388429D01*
X31977290Y5375619D01*
X31848493Y5350000D01*
X31651507Y5350000D01*
X31522710Y5375619D01*
X31458311Y5388429D01*
X31276322Y5463811D01*
X31112537Y5573249D01*
X30973249Y5712537D01*
X30863811Y5876322D01*
X30788429Y6058311D01*
X30750000Y6251509D01*
X30750000Y6448491D01*
X30788429Y6641689D01*
X30863811Y6823678D01*
X30973249Y6987463D01*
X31112537Y7126751D01*
X31276322Y7236189D01*
X31458311Y7311571D01*
X31522710Y7324381D01*
X31651507Y7350000D01*
X31848493Y7350000D01*
X31977290Y7324381D01*
X31977290Y7324381D01*
G37*
G36*
X24357290Y7324381D02*
G01*
X24421689Y7311571D01*
X24603678Y7236189D01*
X24767463Y7126751D01*
X24906751Y6987463D01*
X25016189Y6823678D01*
X25091571Y6641689D01*
X25130000Y6448491D01*
X25130000Y6251509D01*
X25091571Y6058311D01*
X25016189Y5876322D01*
X24906751Y5712537D01*
X24767463Y5573249D01*
X24603678Y5463811D01*
X24421689Y5388429D01*
X24357290Y5375619D01*
X24228493Y5350000D01*
X24031507Y5350000D01*
X23902710Y5375619D01*
X23838311Y5388429D01*
X23656322Y5463811D01*
X23492537Y5573249D01*
X23353249Y5712537D01*
X23243811Y5876322D01*
X23168429Y6058311D01*
X23130000Y6251509D01*
X23130000Y6448491D01*
X23168429Y6641689D01*
X23243811Y6823678D01*
X23353249Y6987463D01*
X23492537Y7126751D01*
X23656322Y7236189D01*
X23838311Y7311571D01*
X23902710Y7324381D01*
X24031507Y7350000D01*
X24228493Y7350000D01*
X24357290Y7324381D01*
X24357290Y7324381D01*
G37*
G36*
X26897290Y7324381D02*
G01*
X26961689Y7311571D01*
X27143678Y7236189D01*
X27307463Y7126751D01*
X27446751Y6987463D01*
X27556189Y6823678D01*
X27631571Y6641689D01*
X27670000Y6448491D01*
X27670000Y6251509D01*
X27631571Y6058311D01*
X27556189Y5876322D01*
X27446751Y5712537D01*
X27307463Y5573249D01*
X27143678Y5463811D01*
X26961689Y5388429D01*
X26897290Y5375619D01*
X26768493Y5350000D01*
X26571507Y5350000D01*
X26442710Y5375619D01*
X26378311Y5388429D01*
X26196322Y5463811D01*
X26032537Y5573249D01*
X25893249Y5712537D01*
X25783811Y5876322D01*
X25708429Y6058311D01*
X25670000Y6251509D01*
X25670000Y6448491D01*
X25708429Y6641689D01*
X25783811Y6823678D01*
X25893249Y6987463D01*
X26032537Y7126751D01*
X26196322Y7236189D01*
X26378311Y7311571D01*
X26442710Y7324381D01*
X26571507Y7350000D01*
X26768493Y7350000D01*
X26897290Y7324381D01*
X26897290Y7324381D01*
G37*
G36*
X84140000Y7840000D02*
G01*
X82640000Y7840000D01*
X82640000Y9940000D01*
X84140000Y9940000D01*
X84140000Y7840000D01*
X84140000Y7840000D01*
G37*
G36*
X87540000Y7840000D02*
G01*
X86040000Y7840000D01*
X86040000Y9940000D01*
X87540000Y9940000D01*
X87540000Y7840000D01*
X87540000Y7840000D01*
G37*
G36*
X77380000Y7840000D02*
G01*
X75880000Y7840000D01*
X75880000Y9940000D01*
X77380000Y9940000D01*
X77380000Y7840000D01*
X77380000Y7840000D01*
G37*
G36*
X73980000Y7840000D02*
G01*
X72480000Y7840000D01*
X72480000Y9940000D01*
X73980000Y9940000D01*
X73980000Y7840000D01*
X73980000Y7840000D01*
G37*
G36*
X80860000Y9680000D02*
G01*
X79160000Y9680000D01*
X79160000Y10980000D01*
X80860000Y10980000D01*
X80860000Y9680000D01*
X80860000Y9680000D01*
G37*
G36*
X27520000Y10950000D02*
G01*
X25820000Y10950000D01*
X25820000Y12250000D01*
X27520000Y12250000D01*
X27520000Y10950000D01*
X27520000Y10950000D01*
G37*
G36*
X37680000Y10950000D02*
G01*
X35980000Y10950000D01*
X35980000Y12250000D01*
X37680000Y12250000D01*
X37680000Y10950000D01*
X37680000Y10950000D01*
G37*
G36*
X32600000Y10950000D02*
G01*
X30900000Y10950000D01*
X30900000Y12250000D01*
X32600000Y12250000D01*
X32600000Y10950000D01*
X32600000Y10950000D01*
G37*
G36*
X22440000Y10950000D02*
G01*
X20740000Y10950000D01*
X20740000Y12250000D01*
X22440000Y12250000D01*
X22440000Y10950000D01*
X22440000Y10950000D01*
G37*
G36*
X17360000Y10950000D02*
G01*
X15660000Y10950000D01*
X15660000Y12250000D01*
X17360000Y12250000D01*
X17360000Y10950000D01*
X17360000Y10950000D01*
G37*
G36*
X80860000Y11880000D02*
G01*
X79160000Y11880000D01*
X79160000Y13180000D01*
X80860000Y13180000D01*
X80860000Y11880000D01*
X80860000Y11880000D01*
G37*
G36*
X87540000Y12920000D02*
G01*
X86040000Y12920000D01*
X86040000Y15020000D01*
X87540000Y15020000D01*
X87540000Y12920000D01*
X87540000Y12920000D01*
G37*
G36*
X84140000Y12920000D02*
G01*
X82640000Y12920000D01*
X82640000Y15020000D01*
X84140000Y15020000D01*
X84140000Y12920000D01*
X84140000Y12920000D01*
G37*
G36*
X77380000Y12920000D02*
G01*
X75880000Y12920000D01*
X75880000Y15020000D01*
X77380000Y15020000D01*
X77380000Y12920000D01*
X77380000Y12920000D01*
G37*
G36*
X73980000Y12920000D02*
G01*
X72480000Y12920000D01*
X72480000Y15020000D01*
X73980000Y15020000D01*
X73980000Y12920000D01*
X73980000Y12920000D01*
G37*
G36*
X22440000Y13150000D02*
G01*
X20740000Y13150000D01*
X20740000Y14450000D01*
X22440000Y14450000D01*
X22440000Y13150000D01*
X22440000Y13150000D01*
G37*
G36*
X32600000Y13150000D02*
G01*
X30900000Y13150000D01*
X30900000Y14450000D01*
X32600000Y14450000D01*
X32600000Y13150000D01*
X32600000Y13150000D01*
G37*
G36*
X27520000Y13150000D02*
G01*
X25820000Y13150000D01*
X25820000Y14450000D01*
X27520000Y14450000D01*
X27520000Y13150000D01*
X27520000Y13150000D01*
G37*
G36*
X37680000Y13150000D02*
G01*
X35980000Y13150000D01*
X35980000Y14450000D01*
X37680000Y14450000D01*
X37680000Y13150000D01*
X37680000Y13150000D01*
G37*
G36*
X17360000Y13150000D02*
G01*
X15660000Y13150000D01*
X15660000Y14450000D01*
X17360000Y14450000D01*
X17360000Y13150000D01*
X17360000Y13150000D01*
G37*
G36*
X5307290Y16214381D02*
G01*
X5371689Y16201571D01*
X5553678Y16126189D01*
X5717463Y16016751D01*
X5856751Y15877463D01*
X5966189Y15713678D01*
X6041571Y15531689D01*
X6080000Y15338491D01*
X6080000Y15141509D01*
X6041571Y14948311D01*
X5966189Y14766322D01*
X5856751Y14602537D01*
X5717463Y14463249D01*
X5553678Y14353811D01*
X5371689Y14278429D01*
X5307290Y14265619D01*
X5178493Y14240000D01*
X4981507Y14240000D01*
X4852710Y14265619D01*
X4788311Y14278429D01*
X4606322Y14353811D01*
X4442537Y14463249D01*
X4303249Y14602537D01*
X4193811Y14766322D01*
X4118429Y14948311D01*
X4080000Y15141509D01*
X4080000Y15338491D01*
X4118429Y15531689D01*
X4193811Y15713678D01*
X4303249Y15877463D01*
X4442537Y16016751D01*
X4606322Y16126189D01*
X4788311Y16201571D01*
X4852710Y16214381D01*
X4981507Y16240000D01*
X5178493Y16240000D01*
X5307290Y16214381D01*
X5307290Y16214381D01*
G37*
G36*
X92937290Y16214381D02*
G01*
X93001689Y16201571D01*
X93183678Y16126189D01*
X93347463Y16016751D01*
X93486751Y15877463D01*
X93596189Y15713678D01*
X93671571Y15531689D01*
X93710000Y15338491D01*
X93710000Y15141509D01*
X93671571Y14948311D01*
X93596189Y14766322D01*
X93486751Y14602537D01*
X93347463Y14463249D01*
X93183678Y14353811D01*
X93001689Y14278429D01*
X92937290Y14265619D01*
X92808493Y14240000D01*
X92611507Y14240000D01*
X92482710Y14265619D01*
X92418311Y14278429D01*
X92236322Y14353811D01*
X92072537Y14463249D01*
X91933249Y14602537D01*
X91823811Y14766322D01*
X91748429Y14948311D01*
X91710000Y15141509D01*
X91710000Y15338491D01*
X91748429Y15531689D01*
X91823811Y15713678D01*
X91933249Y15877463D01*
X92072537Y16016751D01*
X92236322Y16126189D01*
X92418311Y16201571D01*
X92482710Y16214381D01*
X92611507Y16240000D01*
X92808493Y16240000D01*
X92937290Y16214381D01*
X92937290Y16214381D01*
G37*
G36*
X96250000Y14240000D02*
G01*
X94250000Y14240000D01*
X94250000Y16240000D01*
X96250000Y16240000D01*
X96250000Y14240000D01*
X96250000Y14240000D01*
G37*
G36*
X7847290Y16214381D02*
G01*
X7911689Y16201571D01*
X8093678Y16126189D01*
X8257463Y16016751D01*
X8396751Y15877463D01*
X8506189Y15713678D01*
X8581571Y15531689D01*
X8620000Y15338491D01*
X8620000Y15141509D01*
X8581571Y14948311D01*
X8506189Y14766322D01*
X8396751Y14602537D01*
X8257463Y14463249D01*
X8093678Y14353811D01*
X7911689Y14278429D01*
X7847290Y14265619D01*
X7718493Y14240000D01*
X7521507Y14240000D01*
X7392710Y14265619D01*
X7328311Y14278429D01*
X7146322Y14353811D01*
X6982537Y14463249D01*
X6843249Y14602537D01*
X6733811Y14766322D01*
X6658429Y14948311D01*
X6620000Y15141509D01*
X6620000Y15338491D01*
X6658429Y15531689D01*
X6733811Y15713678D01*
X6843249Y15877463D01*
X6982537Y16016751D01*
X7146322Y16126189D01*
X7328311Y16201571D01*
X7392710Y16214381D01*
X7521507Y16240000D01*
X7718493Y16240000D01*
X7847290Y16214381D01*
X7847290Y16214381D01*
G37*
G36*
X95477290Y18754381D02*
G01*
X95541689Y18741571D01*
X95723678Y18666189D01*
X95887463Y18556751D01*
X96026751Y18417463D01*
X96136189Y18253678D01*
X96211571Y18071689D01*
X96250000Y17878491D01*
X96250000Y17681509D01*
X96211571Y17488311D01*
X96136189Y17306322D01*
X96026751Y17142537D01*
X95887463Y17003249D01*
X95723678Y16893811D01*
X95541689Y16818429D01*
X95477290Y16805619D01*
X95348493Y16780000D01*
X95151507Y16780000D01*
X95022710Y16805619D01*
X94958311Y16818429D01*
X94776322Y16893811D01*
X94612537Y17003249D01*
X94473249Y17142537D01*
X94363811Y17306322D01*
X94288429Y17488311D01*
X94250000Y17681509D01*
X94250000Y17878491D01*
X94288429Y18071689D01*
X94363811Y18253678D01*
X94473249Y18417463D01*
X94612537Y18556751D01*
X94776322Y18666189D01*
X94958311Y18741571D01*
X95022710Y18754381D01*
X95151507Y18780000D01*
X95348493Y18780000D01*
X95477290Y18754381D01*
X95477290Y18754381D01*
G37*
G36*
X92937290Y18754381D02*
G01*
X93001689Y18741571D01*
X93183678Y18666189D01*
X93347463Y18556751D01*
X93486751Y18417463D01*
X93596189Y18253678D01*
X93671571Y18071689D01*
X93710000Y17878491D01*
X93710000Y17681509D01*
X93671571Y17488311D01*
X93596189Y17306322D01*
X93486751Y17142537D01*
X93347463Y17003249D01*
X93183678Y16893811D01*
X93001689Y16818429D01*
X92937290Y16805619D01*
X92808493Y16780000D01*
X92611507Y16780000D01*
X92482710Y16805619D01*
X92418311Y16818429D01*
X92236322Y16893811D01*
X92072537Y17003249D01*
X91933249Y17142537D01*
X91823811Y17306322D01*
X91748429Y17488311D01*
X91710000Y17681509D01*
X91710000Y17878491D01*
X91748429Y18071689D01*
X91823811Y18253678D01*
X91933249Y18417463D01*
X92072537Y18556751D01*
X92236322Y18666189D01*
X92418311Y18741571D01*
X92482710Y18754381D01*
X92611507Y18780000D01*
X92808493Y18780000D01*
X92937290Y18754381D01*
X92937290Y18754381D01*
G37*
G36*
X5307290Y18754381D02*
G01*
X5371689Y18741571D01*
X5553678Y18666189D01*
X5717463Y18556751D01*
X5856751Y18417463D01*
X5966189Y18253678D01*
X6041571Y18071689D01*
X6080000Y17878491D01*
X6080000Y17681509D01*
X6041571Y17488311D01*
X5966189Y17306322D01*
X5856751Y17142537D01*
X5717463Y17003249D01*
X5553678Y16893811D01*
X5371689Y16818429D01*
X5307290Y16805619D01*
X5178493Y16780000D01*
X4981507Y16780000D01*
X4852710Y16805619D01*
X4788311Y16818429D01*
X4606322Y16893811D01*
X4442537Y17003249D01*
X4303249Y17142537D01*
X4193811Y17306322D01*
X4118429Y17488311D01*
X4080000Y17681509D01*
X4080000Y17878491D01*
X4118429Y18071689D01*
X4193811Y18253678D01*
X4303249Y18417463D01*
X4442537Y18556751D01*
X4606322Y18666189D01*
X4788311Y18741571D01*
X4852710Y18754381D01*
X4981507Y18780000D01*
X5178493Y18780000D01*
X5307290Y18754381D01*
X5307290Y18754381D01*
G37*
G36*
X7847290Y18754381D02*
G01*
X7911689Y18741571D01*
X8093678Y18666189D01*
X8257463Y18556751D01*
X8396751Y18417463D01*
X8506189Y18253678D01*
X8581571Y18071689D01*
X8620000Y17878491D01*
X8620000Y17681509D01*
X8581571Y17488311D01*
X8506189Y17306322D01*
X8396751Y17142537D01*
X8257463Y17003249D01*
X8093678Y16893811D01*
X7911689Y16818429D01*
X7847290Y16805619D01*
X7718493Y16780000D01*
X7521507Y16780000D01*
X7392710Y16805619D01*
X7328311Y16818429D01*
X7146322Y16893811D01*
X6982537Y17003249D01*
X6843249Y17142537D01*
X6733811Y17306322D01*
X6658429Y17488311D01*
X6620000Y17681509D01*
X6620000Y17878491D01*
X6658429Y18071689D01*
X6733811Y18253678D01*
X6843249Y18417463D01*
X6982537Y18556751D01*
X7146322Y18666189D01*
X7328311Y18741571D01*
X7392710Y18754381D01*
X7521507Y18780000D01*
X7718493Y18780000D01*
X7847290Y18754381D01*
X7847290Y18754381D01*
G37*
G36*
X77380000Y18000000D02*
G01*
X75880000Y18000000D01*
X75880000Y20100000D01*
X77380000Y20100000D01*
X77380000Y18000000D01*
X77380000Y18000000D01*
G37*
G36*
X87540000Y18000000D02*
G01*
X86040000Y18000000D01*
X86040000Y20100000D01*
X87540000Y20100000D01*
X87540000Y18000000D01*
X87540000Y18000000D01*
G37*
G36*
X73980000Y18000000D02*
G01*
X72480000Y18000000D01*
X72480000Y20100000D01*
X73980000Y20100000D01*
X73980000Y18000000D01*
X73980000Y18000000D01*
G37*
G36*
X84140000Y18000000D02*
G01*
X82640000Y18000000D01*
X82640000Y20100000D01*
X84140000Y20100000D01*
X84140000Y18000000D01*
X84140000Y18000000D01*
G37*
G36*
X43817290Y20164381D02*
G01*
X43881689Y20151571D01*
X44063678Y20076189D01*
X44227463Y19966751D01*
X44366751Y19827463D01*
X44476189Y19663678D01*
X44551571Y19481689D01*
X44590000Y19288491D01*
X44590000Y19091509D01*
X44551571Y18898311D01*
X44476189Y18716322D01*
X44366751Y18552537D01*
X44227463Y18413249D01*
X44063678Y18303811D01*
X43881689Y18228429D01*
X43817290Y18215619D01*
X43688493Y18190000D01*
X43491507Y18190000D01*
X43362710Y18215619D01*
X43298311Y18228429D01*
X43116322Y18303811D01*
X42952537Y18413249D01*
X42813249Y18552537D01*
X42703811Y18716322D01*
X42628429Y18898311D01*
X42590000Y19091509D01*
X42590000Y19288491D01*
X42628429Y19481689D01*
X42703811Y19663678D01*
X42813249Y19827463D01*
X42952537Y19966751D01*
X43116322Y20076189D01*
X43298311Y20151571D01*
X43362710Y20164381D01*
X43491507Y20190000D01*
X43688493Y20190000D01*
X43817290Y20164381D01*
X43817290Y20164381D01*
G37*
G36*
X42050000Y18190000D02*
G01*
X40050000Y18190000D01*
X40050000Y20190000D01*
X42050000Y20190000D01*
X42050000Y18190000D01*
X42050000Y18190000D01*
G37*
G36*
X48897290Y20164381D02*
G01*
X48961689Y20151571D01*
X49143678Y20076189D01*
X49307463Y19966751D01*
X49446751Y19827463D01*
X49556189Y19663678D01*
X49631571Y19481689D01*
X49670000Y19288491D01*
X49670000Y19091509D01*
X49631571Y18898311D01*
X49556189Y18716322D01*
X49446751Y18552537D01*
X49307463Y18413249D01*
X49143678Y18303811D01*
X48961689Y18228429D01*
X48897290Y18215619D01*
X48768493Y18190000D01*
X48571507Y18190000D01*
X48442710Y18215619D01*
X48378311Y18228429D01*
X48196322Y18303811D01*
X48032537Y18413249D01*
X47893249Y18552537D01*
X47783811Y18716322D01*
X47708429Y18898311D01*
X47670000Y19091509D01*
X47670000Y19288491D01*
X47708429Y19481689D01*
X47783811Y19663678D01*
X47893249Y19827463D01*
X48032537Y19966751D01*
X48196322Y20076189D01*
X48378311Y20151571D01*
X48442710Y20164381D01*
X48571507Y20190000D01*
X48768493Y20190000D01*
X48897290Y20164381D01*
X48897290Y20164381D01*
G37*
G36*
X46357290Y20164381D02*
G01*
X46421689Y20151571D01*
X46603678Y20076189D01*
X46767463Y19966751D01*
X46906751Y19827463D01*
X47016189Y19663678D01*
X47091571Y19481689D01*
X47130000Y19288491D01*
X47130000Y19091509D01*
X47091571Y18898311D01*
X47016189Y18716322D01*
X46906751Y18552537D01*
X46767463Y18413249D01*
X46603678Y18303811D01*
X46421689Y18228429D01*
X46357290Y18215619D01*
X46228493Y18190000D01*
X46031507Y18190000D01*
X45902710Y18215619D01*
X45838311Y18228429D01*
X45656322Y18303811D01*
X45492537Y18413249D01*
X45353249Y18552537D01*
X45243811Y18716322D01*
X45168429Y18898311D01*
X45130000Y19091509D01*
X45130000Y19288491D01*
X45168429Y19481689D01*
X45243811Y19663678D01*
X45353249Y19827463D01*
X45492537Y19966751D01*
X45656322Y20076189D01*
X45838311Y20151571D01*
X45902710Y20164381D01*
X46031507Y20190000D01*
X46228493Y20190000D01*
X46357290Y20164381D01*
X46357290Y20164381D01*
G37*
G36*
X51437290Y20164381D02*
G01*
X51501689Y20151571D01*
X51683678Y20076189D01*
X51847463Y19966751D01*
X51986751Y19827463D01*
X52096189Y19663678D01*
X52171571Y19481689D01*
X52210000Y19288491D01*
X52210000Y19091509D01*
X52171571Y18898311D01*
X52096189Y18716322D01*
X51986751Y18552537D01*
X51847463Y18413249D01*
X51683678Y18303811D01*
X51501689Y18228429D01*
X51437290Y18215619D01*
X51308493Y18190000D01*
X51111507Y18190000D01*
X50982710Y18215619D01*
X50918311Y18228429D01*
X50736322Y18303811D01*
X50572537Y18413249D01*
X50433249Y18552537D01*
X50323811Y18716322D01*
X50248429Y18898311D01*
X50210000Y19091509D01*
X50210000Y19288491D01*
X50248429Y19481689D01*
X50323811Y19663678D01*
X50433249Y19827463D01*
X50572537Y19966751D01*
X50736322Y20076189D01*
X50918311Y20151571D01*
X50982710Y20164381D01*
X51111507Y20190000D01*
X51308493Y20190000D01*
X51437290Y20164381D01*
X51437290Y20164381D01*
G37*
G36*
X53977290Y20164381D02*
G01*
X54041689Y20151571D01*
X54223678Y20076189D01*
X54387463Y19966751D01*
X54526751Y19827463D01*
X54636189Y19663678D01*
X54711571Y19481689D01*
X54750000Y19288491D01*
X54750000Y19091509D01*
X54711571Y18898311D01*
X54636189Y18716322D01*
X54526751Y18552537D01*
X54387463Y18413249D01*
X54223678Y18303811D01*
X54041689Y18228429D01*
X53977290Y18215619D01*
X53848493Y18190000D01*
X53651507Y18190000D01*
X53522710Y18215619D01*
X53458311Y18228429D01*
X53276322Y18303811D01*
X53112537Y18413249D01*
X52973249Y18552537D01*
X52863811Y18716322D01*
X52788429Y18898311D01*
X52750000Y19091509D01*
X52750000Y19288491D01*
X52788429Y19481689D01*
X52863811Y19663678D01*
X52973249Y19827463D01*
X53112537Y19966751D01*
X53276322Y20076189D01*
X53458311Y20151571D01*
X53522710Y20164381D01*
X53651507Y20190000D01*
X53848493Y20190000D01*
X53977290Y20164381D01*
X53977290Y20164381D01*
G37*
G36*
X13520000Y18200000D02*
G01*
X12220000Y18200000D01*
X12220000Y19900000D01*
X13520000Y19900000D01*
X13520000Y18200000D01*
X13520000Y18200000D01*
G37*
G36*
X15720000Y18200000D02*
G01*
X14420000Y18200000D01*
X14420000Y19900000D01*
X15720000Y19900000D01*
X15720000Y18200000D01*
X15720000Y18200000D01*
G37*
G36*
X92937290Y21294381D02*
G01*
X93001689Y21281571D01*
X93183678Y21206189D01*
X93347463Y21096751D01*
X93486751Y20957463D01*
X93596189Y20793678D01*
X93671571Y20611689D01*
X93710000Y20418491D01*
X93710000Y20221509D01*
X93671571Y20028311D01*
X93596189Y19846322D01*
X93486751Y19682537D01*
X93347463Y19543249D01*
X93183678Y19433811D01*
X93001689Y19358429D01*
X92937290Y19345619D01*
X92808493Y19320000D01*
X92611507Y19320000D01*
X92482710Y19345619D01*
X92418311Y19358429D01*
X92236322Y19433811D01*
X92072537Y19543249D01*
X91933249Y19682537D01*
X91823811Y19846322D01*
X91748429Y20028311D01*
X91710000Y20221509D01*
X91710000Y20418491D01*
X91748429Y20611689D01*
X91823811Y20793678D01*
X91933249Y20957463D01*
X92072537Y21096751D01*
X92236322Y21206189D01*
X92418311Y21281571D01*
X92482710Y21294381D01*
X92611507Y21320000D01*
X92808493Y21320000D01*
X92937290Y21294381D01*
X92937290Y21294381D01*
G37*
G36*
X95477290Y21294381D02*
G01*
X95541689Y21281571D01*
X95723678Y21206189D01*
X95887463Y21096751D01*
X96026751Y20957463D01*
X96136189Y20793678D01*
X96211571Y20611689D01*
X96250000Y20418491D01*
X96250000Y20221509D01*
X96211571Y20028311D01*
X96136189Y19846322D01*
X96026751Y19682537D01*
X95887463Y19543249D01*
X95723678Y19433811D01*
X95541689Y19358429D01*
X95477290Y19345619D01*
X95348493Y19320000D01*
X95151507Y19320000D01*
X95022710Y19345619D01*
X94958311Y19358429D01*
X94776322Y19433811D01*
X94612537Y19543249D01*
X94473249Y19682537D01*
X94363811Y19846322D01*
X94288429Y20028311D01*
X94250000Y20221509D01*
X94250000Y20418491D01*
X94288429Y20611689D01*
X94363811Y20793678D01*
X94473249Y20957463D01*
X94612537Y21096751D01*
X94776322Y21206189D01*
X94958311Y21281571D01*
X95022710Y21294381D01*
X95151507Y21320000D01*
X95348493Y21320000D01*
X95477290Y21294381D01*
X95477290Y21294381D01*
G37*
G36*
X7847290Y21294381D02*
G01*
X7911689Y21281571D01*
X8093678Y21206189D01*
X8257463Y21096751D01*
X8396751Y20957463D01*
X8506189Y20793678D01*
X8581571Y20611689D01*
X8620000Y20418491D01*
X8620000Y20221509D01*
X8581571Y20028311D01*
X8506189Y19846322D01*
X8396751Y19682537D01*
X8257463Y19543249D01*
X8093678Y19433811D01*
X7911689Y19358429D01*
X7847290Y19345619D01*
X7718493Y19320000D01*
X7521507Y19320000D01*
X7392710Y19345619D01*
X7328311Y19358429D01*
X7146322Y19433811D01*
X6982537Y19543249D01*
X6843249Y19682537D01*
X6733811Y19846322D01*
X6658429Y20028311D01*
X6620000Y20221509D01*
X6620000Y20418491D01*
X6658429Y20611689D01*
X6733811Y20793678D01*
X6843249Y20957463D01*
X6982537Y21096751D01*
X7146322Y21206189D01*
X7328311Y21281571D01*
X7392710Y21294381D01*
X7521507Y21320000D01*
X7718493Y21320000D01*
X7847290Y21294381D01*
X7847290Y21294381D01*
G37*
G36*
X5307290Y21294381D02*
G01*
X5371689Y21281571D01*
X5553678Y21206189D01*
X5717463Y21096751D01*
X5856751Y20957463D01*
X5966189Y20793678D01*
X6041571Y20611689D01*
X6080000Y20418491D01*
X6080000Y20221509D01*
X6041571Y20028311D01*
X5966189Y19846322D01*
X5856751Y19682537D01*
X5717463Y19543249D01*
X5553678Y19433811D01*
X5371689Y19358429D01*
X5307290Y19345619D01*
X5178493Y19320000D01*
X4981507Y19320000D01*
X4852710Y19345619D01*
X4788311Y19358429D01*
X4606322Y19433811D01*
X4442537Y19543249D01*
X4303249Y19682537D01*
X4193811Y19846322D01*
X4118429Y20028311D01*
X4080000Y20221509D01*
X4080000Y20418491D01*
X4118429Y20611689D01*
X4193811Y20793678D01*
X4303249Y20957463D01*
X4442537Y21096751D01*
X4606322Y21206189D01*
X4788311Y21281571D01*
X4852710Y21294381D01*
X4981507Y21320000D01*
X5178493Y21320000D01*
X5307290Y21294381D01*
X5307290Y21294381D01*
G37*
G36*
X80860000Y19840000D02*
G01*
X79160000Y19840000D01*
X79160000Y21140000D01*
X80860000Y21140000D01*
X80860000Y19840000D01*
X80860000Y19840000D01*
G37*
G36*
X46357290Y22704381D02*
G01*
X46421689Y22691571D01*
X46603678Y22616189D01*
X46767463Y22506751D01*
X46906751Y22367463D01*
X47016189Y22203678D01*
X47091571Y22021689D01*
X47130000Y21828491D01*
X47130000Y21631509D01*
X47091571Y21438311D01*
X47016189Y21256322D01*
X46906751Y21092537D01*
X46767463Y20953249D01*
X46603678Y20843811D01*
X46421689Y20768429D01*
X46357290Y20755619D01*
X46228493Y20730000D01*
X46031507Y20730000D01*
X45902710Y20755619D01*
X45838311Y20768429D01*
X45656322Y20843811D01*
X45492537Y20953249D01*
X45353249Y21092537D01*
X45243811Y21256322D01*
X45168429Y21438311D01*
X45130000Y21631509D01*
X45130000Y21828491D01*
X45168429Y22021689D01*
X45243811Y22203678D01*
X45353249Y22367463D01*
X45492537Y22506751D01*
X45656322Y22616189D01*
X45838311Y22691571D01*
X45902710Y22704381D01*
X46031507Y22730000D01*
X46228493Y22730000D01*
X46357290Y22704381D01*
X46357290Y22704381D01*
G37*
G36*
X41277290Y22704381D02*
G01*
X41341689Y22691571D01*
X41523678Y22616189D01*
X41687463Y22506751D01*
X41826751Y22367463D01*
X41936189Y22203678D01*
X42011571Y22021689D01*
X42050000Y21828491D01*
X42050000Y21631509D01*
X42011571Y21438311D01*
X41936189Y21256322D01*
X41826751Y21092537D01*
X41687463Y20953249D01*
X41523678Y20843811D01*
X41341689Y20768429D01*
X41277290Y20755619D01*
X41148493Y20730000D01*
X40951507Y20730000D01*
X40822710Y20755619D01*
X40758311Y20768429D01*
X40576322Y20843811D01*
X40412537Y20953249D01*
X40273249Y21092537D01*
X40163811Y21256322D01*
X40088429Y21438311D01*
X40050000Y21631509D01*
X40050000Y21828491D01*
X40088429Y22021689D01*
X40163811Y22203678D01*
X40273249Y22367463D01*
X40412537Y22506751D01*
X40576322Y22616189D01*
X40758311Y22691571D01*
X40822710Y22704381D01*
X40951507Y22730000D01*
X41148493Y22730000D01*
X41277290Y22704381D01*
X41277290Y22704381D01*
G37*
G36*
X51437290Y22704381D02*
G01*
X51501689Y22691571D01*
X51683678Y22616189D01*
X51847463Y22506751D01*
X51986751Y22367463D01*
X52096189Y22203678D01*
X52171571Y22021689D01*
X52210000Y21828491D01*
X52210000Y21631509D01*
X52171571Y21438311D01*
X52096189Y21256322D01*
X51986751Y21092537D01*
X51847463Y20953249D01*
X51683678Y20843811D01*
X51501689Y20768429D01*
X51437290Y20755619D01*
X51308493Y20730000D01*
X51111507Y20730000D01*
X50982710Y20755619D01*
X50918311Y20768429D01*
X50736322Y20843811D01*
X50572537Y20953249D01*
X50433249Y21092537D01*
X50323811Y21256322D01*
X50248429Y21438311D01*
X50210000Y21631509D01*
X50210000Y21828491D01*
X50248429Y22021689D01*
X50323811Y22203678D01*
X50433249Y22367463D01*
X50572537Y22506751D01*
X50736322Y22616189D01*
X50918311Y22691571D01*
X50982710Y22704381D01*
X51111507Y22730000D01*
X51308493Y22730000D01*
X51437290Y22704381D01*
X51437290Y22704381D01*
G37*
G36*
X43817290Y22704381D02*
G01*
X43881689Y22691571D01*
X44063678Y22616189D01*
X44227463Y22506751D01*
X44366751Y22367463D01*
X44476189Y22203678D01*
X44551571Y22021689D01*
X44590000Y21828491D01*
X44590000Y21631509D01*
X44551571Y21438311D01*
X44476189Y21256322D01*
X44366751Y21092537D01*
X44227463Y20953249D01*
X44063678Y20843811D01*
X43881689Y20768429D01*
X43817290Y20755619D01*
X43688493Y20730000D01*
X43491507Y20730000D01*
X43362710Y20755619D01*
X43298311Y20768429D01*
X43116322Y20843811D01*
X42952537Y20953249D01*
X42813249Y21092537D01*
X42703811Y21256322D01*
X42628429Y21438311D01*
X42590000Y21631509D01*
X42590000Y21828491D01*
X42628429Y22021689D01*
X42703811Y22203678D01*
X42813249Y22367463D01*
X42952537Y22506751D01*
X43116322Y22616189D01*
X43298311Y22691571D01*
X43362710Y22704381D01*
X43491507Y22730000D01*
X43688493Y22730000D01*
X43817290Y22704381D01*
X43817290Y22704381D01*
G37*
G36*
X53977290Y22704381D02*
G01*
X54041689Y22691571D01*
X54223678Y22616189D01*
X54387463Y22506751D01*
X54526751Y22367463D01*
X54636189Y22203678D01*
X54711571Y22021689D01*
X54750000Y21828491D01*
X54750000Y21631509D01*
X54711571Y21438311D01*
X54636189Y21256322D01*
X54526751Y21092537D01*
X54387463Y20953249D01*
X54223678Y20843811D01*
X54041689Y20768429D01*
X53977290Y20755619D01*
X53848493Y20730000D01*
X53651507Y20730000D01*
X53522710Y20755619D01*
X53458311Y20768429D01*
X53276322Y20843811D01*
X53112537Y20953249D01*
X52973249Y21092537D01*
X52863811Y21256322D01*
X52788429Y21438311D01*
X52750000Y21631509D01*
X52750000Y21828491D01*
X52788429Y22021689D01*
X52863811Y22203678D01*
X52973249Y22367463D01*
X53112537Y22506751D01*
X53276322Y22616189D01*
X53458311Y22691571D01*
X53522710Y22704381D01*
X53651507Y22730000D01*
X53848493Y22730000D01*
X53977290Y22704381D01*
X53977290Y22704381D01*
G37*
G36*
X48897290Y22704381D02*
G01*
X48961689Y22691571D01*
X49143678Y22616189D01*
X49307463Y22506751D01*
X49446751Y22367463D01*
X49556189Y22203678D01*
X49631571Y22021689D01*
X49670000Y21828491D01*
X49670000Y21631509D01*
X49631571Y21438311D01*
X49556189Y21256322D01*
X49446751Y21092537D01*
X49307463Y20953249D01*
X49143678Y20843811D01*
X48961689Y20768429D01*
X48897290Y20755619D01*
X48768493Y20730000D01*
X48571507Y20730000D01*
X48442710Y20755619D01*
X48378311Y20768429D01*
X48196322Y20843811D01*
X48032537Y20953249D01*
X47893249Y21092537D01*
X47783811Y21256322D01*
X47708429Y21438311D01*
X47670000Y21631509D01*
X47670000Y21828491D01*
X47708429Y22021689D01*
X47783811Y22203678D01*
X47893249Y22367463D01*
X48032537Y22506751D01*
X48196322Y22616189D01*
X48378311Y22691571D01*
X48442710Y22704381D01*
X48571507Y22730000D01*
X48768493Y22730000D01*
X48897290Y22704381D01*
X48897290Y22704381D01*
G37*
G36*
X7847290Y23834381D02*
G01*
X7911689Y23821571D01*
X8093678Y23746189D01*
X8257463Y23636751D01*
X8396751Y23497463D01*
X8506189Y23333678D01*
X8581571Y23151689D01*
X8620000Y22958491D01*
X8620000Y22761509D01*
X8581571Y22568311D01*
X8506189Y22386322D01*
X8396751Y22222537D01*
X8257463Y22083249D01*
X8093678Y21973811D01*
X7911689Y21898429D01*
X7847290Y21885619D01*
X7718493Y21860000D01*
X7521507Y21860000D01*
X7392710Y21885619D01*
X7328311Y21898429D01*
X7146322Y21973811D01*
X6982537Y22083249D01*
X6843249Y22222537D01*
X6733811Y22386322D01*
X6658429Y22568311D01*
X6620000Y22761509D01*
X6620000Y22958491D01*
X6658429Y23151689D01*
X6733811Y23333678D01*
X6843249Y23497463D01*
X6982537Y23636751D01*
X7146322Y23746189D01*
X7328311Y23821571D01*
X7392710Y23834381D01*
X7521507Y23860000D01*
X7718493Y23860000D01*
X7847290Y23834381D01*
X7847290Y23834381D01*
G37*
G36*
X92937290Y23834381D02*
G01*
X93001689Y23821571D01*
X93183678Y23746189D01*
X93347463Y23636751D01*
X93486751Y23497463D01*
X93596189Y23333678D01*
X93671571Y23151689D01*
X93710000Y22958491D01*
X93710000Y22761509D01*
X93671571Y22568311D01*
X93596189Y22386322D01*
X93486751Y22222537D01*
X93347463Y22083249D01*
X93183678Y21973811D01*
X93001689Y21898429D01*
X92937290Y21885619D01*
X92808493Y21860000D01*
X92611507Y21860000D01*
X92482710Y21885619D01*
X92418311Y21898429D01*
X92236322Y21973811D01*
X92072537Y22083249D01*
X91933249Y22222537D01*
X91823811Y22386322D01*
X91748429Y22568311D01*
X91710000Y22761509D01*
X91710000Y22958491D01*
X91748429Y23151689D01*
X91823811Y23333678D01*
X91933249Y23497463D01*
X92072537Y23636751D01*
X92236322Y23746189D01*
X92418311Y23821571D01*
X92482710Y23834381D01*
X92611507Y23860000D01*
X92808493Y23860000D01*
X92937290Y23834381D01*
X92937290Y23834381D01*
G37*
G36*
X95477290Y23834381D02*
G01*
X95541689Y23821571D01*
X95723678Y23746189D01*
X95887463Y23636751D01*
X96026751Y23497463D01*
X96136189Y23333678D01*
X96211571Y23151689D01*
X96250000Y22958491D01*
X96250000Y22761509D01*
X96211571Y22568311D01*
X96136189Y22386322D01*
X96026751Y22222537D01*
X95887463Y22083249D01*
X95723678Y21973811D01*
X95541689Y21898429D01*
X95477290Y21885619D01*
X95348493Y21860000D01*
X95151507Y21860000D01*
X95022710Y21885619D01*
X94958311Y21898429D01*
X94776322Y21973811D01*
X94612537Y22083249D01*
X94473249Y22222537D01*
X94363811Y22386322D01*
X94288429Y22568311D01*
X94250000Y22761509D01*
X94250000Y22958491D01*
X94288429Y23151689D01*
X94363811Y23333678D01*
X94473249Y23497463D01*
X94612537Y23636751D01*
X94776322Y23746189D01*
X94958311Y23821571D01*
X95022710Y23834381D01*
X95151507Y23860000D01*
X95348493Y23860000D01*
X95477290Y23834381D01*
X95477290Y23834381D01*
G37*
G36*
X5307290Y23834381D02*
G01*
X5371689Y23821571D01*
X5553678Y23746189D01*
X5717463Y23636751D01*
X5856751Y23497463D01*
X5966189Y23333678D01*
X6041571Y23151689D01*
X6080000Y22958491D01*
X6080000Y22761509D01*
X6041571Y22568311D01*
X5966189Y22386322D01*
X5856751Y22222537D01*
X5717463Y22083249D01*
X5553678Y21973811D01*
X5371689Y21898429D01*
X5307290Y21885619D01*
X5178493Y21860000D01*
X4981507Y21860000D01*
X4852710Y21885619D01*
X4788311Y21898429D01*
X4606322Y21973811D01*
X4442537Y22083249D01*
X4303249Y22222537D01*
X4193811Y22386322D01*
X4118429Y22568311D01*
X4080000Y22761509D01*
X4080000Y22958491D01*
X4118429Y23151689D01*
X4193811Y23333678D01*
X4303249Y23497463D01*
X4442537Y23636751D01*
X4606322Y23746189D01*
X4788311Y23821571D01*
X4852710Y23834381D01*
X4981507Y23860000D01*
X5178493Y23860000D01*
X5307290Y23834381D01*
X5307290Y23834381D01*
G37*
G36*
X13520000Y22010000D02*
G01*
X12220000Y22010000D01*
X12220000Y23710000D01*
X13520000Y23710000D01*
X13520000Y22010000D01*
X13520000Y22010000D01*
G37*
G36*
X15720000Y22010000D02*
G01*
X14420000Y22010000D01*
X14420000Y23710000D01*
X15720000Y23710000D01*
X15720000Y22010000D01*
X15720000Y22010000D01*
G37*
G36*
X80860000Y22040000D02*
G01*
X79160000Y22040000D01*
X79160000Y23340000D01*
X80860000Y23340000D01*
X80860000Y22040000D01*
X80860000Y22040000D01*
G37*
G36*
X77380000Y23080000D02*
G01*
X75880000Y23080000D01*
X75880000Y25180000D01*
X77380000Y25180000D01*
X77380000Y23080000D01*
X77380000Y23080000D01*
G37*
G36*
X73980000Y23080000D02*
G01*
X72480000Y23080000D01*
X72480000Y25180000D01*
X73980000Y25180000D01*
X73980000Y23080000D01*
X73980000Y23080000D01*
G37*
G36*
X84140000Y23080000D02*
G01*
X82640000Y23080000D01*
X82640000Y25180000D01*
X84140000Y25180000D01*
X84140000Y23080000D01*
X84140000Y23080000D01*
G37*
G36*
X87540000Y23080000D02*
G01*
X86040000Y23080000D01*
X86040000Y25180000D01*
X87540000Y25180000D01*
X87540000Y23080000D01*
X87540000Y23080000D01*
G37*
G36*
X6080000Y24400000D02*
G01*
X4080000Y24400000D01*
X4080000Y26400000D01*
X6080000Y26400000D01*
X6080000Y24400000D01*
X6080000Y24400000D01*
G37*
G36*
X7847290Y26374381D02*
G01*
X7911689Y26361571D01*
X8093678Y26286189D01*
X8257463Y26176751D01*
X8396751Y26037463D01*
X8506189Y25873678D01*
X8581571Y25691689D01*
X8620000Y25498491D01*
X8620000Y25301509D01*
X8581571Y25108311D01*
X8506189Y24926322D01*
X8396751Y24762537D01*
X8257463Y24623249D01*
X8093678Y24513811D01*
X7911689Y24438429D01*
X7847290Y24425619D01*
X7718493Y24400000D01*
X7521507Y24400000D01*
X7392710Y24425619D01*
X7328311Y24438429D01*
X7146322Y24513811D01*
X6982537Y24623249D01*
X6843249Y24762537D01*
X6733811Y24926322D01*
X6658429Y25108311D01*
X6620000Y25301509D01*
X6620000Y25498491D01*
X6658429Y25691689D01*
X6733811Y25873678D01*
X6843249Y26037463D01*
X6982537Y26176751D01*
X7146322Y26286189D01*
X7328311Y26361571D01*
X7392710Y26374381D01*
X7521507Y26400000D01*
X7718493Y26400000D01*
X7847290Y26374381D01*
X7847290Y26374381D01*
G37*
G36*
X92937290Y26374381D02*
G01*
X93001689Y26361571D01*
X93183678Y26286189D01*
X93347463Y26176751D01*
X93486751Y26037463D01*
X93596189Y25873678D01*
X93671571Y25691689D01*
X93710000Y25498491D01*
X93710000Y25301509D01*
X93671571Y25108311D01*
X93596189Y24926322D01*
X93486751Y24762537D01*
X93347463Y24623249D01*
X93183678Y24513811D01*
X93001689Y24438429D01*
X92937290Y24425619D01*
X92808493Y24400000D01*
X92611507Y24400000D01*
X92482710Y24425619D01*
X92418311Y24438429D01*
X92236322Y24513811D01*
X92072537Y24623249D01*
X91933249Y24762537D01*
X91823811Y24926322D01*
X91748429Y25108311D01*
X91710000Y25301509D01*
X91710000Y25498491D01*
X91748429Y25691689D01*
X91823811Y25873678D01*
X91933249Y26037463D01*
X92072537Y26176751D01*
X92236322Y26286189D01*
X92418311Y26361571D01*
X92482710Y26374381D01*
X92611507Y26400000D01*
X92808493Y26400000D01*
X92937290Y26374381D01*
X92937290Y26374381D01*
G37*
G36*
X95477290Y26374381D02*
G01*
X95541689Y26361571D01*
X95723678Y26286189D01*
X95887463Y26176751D01*
X96026751Y26037463D01*
X96136189Y25873678D01*
X96211571Y25691689D01*
X96250000Y25498491D01*
X96250000Y25301509D01*
X96211571Y25108311D01*
X96136189Y24926322D01*
X96026751Y24762537D01*
X95887463Y24623249D01*
X95723678Y24513811D01*
X95541689Y24438429D01*
X95477290Y24425619D01*
X95348493Y24400000D01*
X95151507Y24400000D01*
X95022710Y24425619D01*
X94958311Y24438429D01*
X94776322Y24513811D01*
X94612537Y24623249D01*
X94473249Y24762537D01*
X94363811Y24926322D01*
X94288429Y25108311D01*
X94250000Y25301509D01*
X94250000Y25498491D01*
X94288429Y25691689D01*
X94363811Y25873678D01*
X94473249Y26037463D01*
X94612537Y26176751D01*
X94776322Y26286189D01*
X94958311Y26361571D01*
X95022710Y26374381D01*
X95151507Y26400000D01*
X95348493Y26400000D01*
X95477290Y26374381D01*
X95477290Y26374381D01*
G37*
G36*
X15720000Y25820000D02*
G01*
X14420000Y25820000D01*
X14420000Y27520000D01*
X15720000Y27520000D01*
X15720000Y25820000D01*
X15720000Y25820000D01*
G37*
G36*
X13520000Y25820000D02*
G01*
X12220000Y25820000D01*
X12220000Y27520000D01*
X13520000Y27520000D01*
X13520000Y25820000D01*
X13520000Y25820000D01*
G37*
G36*
X95477290Y28914381D02*
G01*
X95541689Y28901571D01*
X95723678Y28826189D01*
X95887463Y28716751D01*
X96026751Y28577463D01*
X96136189Y28413678D01*
X96211571Y28231689D01*
X96250000Y28038491D01*
X96250000Y27841509D01*
X96211571Y27648311D01*
X96136189Y27466322D01*
X96026751Y27302537D01*
X95887463Y27163249D01*
X95723678Y27053811D01*
X95541689Y26978429D01*
X95477290Y26965619D01*
X95348493Y26940000D01*
X95151507Y26940000D01*
X95022710Y26965619D01*
X94958311Y26978429D01*
X94776322Y27053811D01*
X94612537Y27163249D01*
X94473249Y27302537D01*
X94363811Y27466322D01*
X94288429Y27648311D01*
X94250000Y27841509D01*
X94250000Y28038491D01*
X94288429Y28231689D01*
X94363811Y28413678D01*
X94473249Y28577463D01*
X94612537Y28716751D01*
X94776322Y28826189D01*
X94958311Y28901571D01*
X95022710Y28914381D01*
X95151507Y28940000D01*
X95348493Y28940000D01*
X95477290Y28914381D01*
X95477290Y28914381D01*
G37*
G36*
X92937290Y28914381D02*
G01*
X93001689Y28901571D01*
X93183678Y28826189D01*
X93347463Y28716751D01*
X93486751Y28577463D01*
X93596189Y28413678D01*
X93671571Y28231689D01*
X93710000Y28038491D01*
X93710000Y27841509D01*
X93671571Y27648311D01*
X93596189Y27466322D01*
X93486751Y27302537D01*
X93347463Y27163249D01*
X93183678Y27053811D01*
X93001689Y26978429D01*
X92937290Y26965619D01*
X92808493Y26940000D01*
X92611507Y26940000D01*
X92482710Y26965619D01*
X92418311Y26978429D01*
X92236322Y27053811D01*
X92072537Y27163249D01*
X91933249Y27302537D01*
X91823811Y27466322D01*
X91748429Y27648311D01*
X91710000Y27841509D01*
X91710000Y28038491D01*
X91748429Y28231689D01*
X91823811Y28413678D01*
X91933249Y28577463D01*
X92072537Y28716751D01*
X92236322Y28826189D01*
X92418311Y28901571D01*
X92482710Y28914381D01*
X92611507Y28940000D01*
X92808493Y28940000D01*
X92937290Y28914381D01*
X92937290Y28914381D01*
G37*
G36*
X87540000Y28160000D02*
G01*
X86040000Y28160000D01*
X86040000Y30260000D01*
X87540000Y30260000D01*
X87540000Y28160000D01*
X87540000Y28160000D01*
G37*
G36*
X84140000Y28160000D02*
G01*
X82640000Y28160000D01*
X82640000Y30260000D01*
X84140000Y30260000D01*
X84140000Y28160000D01*
X84140000Y28160000D01*
G37*
G36*
X77380000Y28160000D02*
G01*
X75880000Y28160000D01*
X75880000Y30260000D01*
X77380000Y30260000D01*
X77380000Y28160000D01*
X77380000Y28160000D01*
G37*
G36*
X73980000Y28160000D02*
G01*
X72480000Y28160000D01*
X72480000Y30260000D01*
X73980000Y30260000D01*
X73980000Y28160000D01*
X73980000Y28160000D01*
G37*
G36*
X92937290Y31454381D02*
G01*
X93001689Y31441571D01*
X93183678Y31366189D01*
X93347463Y31256751D01*
X93486751Y31117463D01*
X93596189Y30953678D01*
X93671571Y30771689D01*
X93710000Y30578491D01*
X93710000Y30381509D01*
X93671571Y30188311D01*
X93596189Y30006322D01*
X93486751Y29842537D01*
X93347463Y29703249D01*
X93183678Y29593811D01*
X93001689Y29518429D01*
X92937290Y29505619D01*
X92808493Y29480000D01*
X92611507Y29480000D01*
X92482710Y29505619D01*
X92418311Y29518429D01*
X92236322Y29593811D01*
X92072537Y29703249D01*
X91933249Y29842537D01*
X91823811Y30006322D01*
X91748429Y30188311D01*
X91710000Y30381509D01*
X91710000Y30578491D01*
X91748429Y30771689D01*
X91823811Y30953678D01*
X91933249Y31117463D01*
X92072537Y31256751D01*
X92236322Y31366189D01*
X92418311Y31441571D01*
X92482710Y31454381D01*
X92611507Y31480000D01*
X92808493Y31480000D01*
X92937290Y31454381D01*
X92937290Y31454381D01*
G37*
G36*
X95477290Y31454381D02*
G01*
X95541689Y31441571D01*
X95723678Y31366189D01*
X95887463Y31256751D01*
X96026751Y31117463D01*
X96136189Y30953678D01*
X96211571Y30771689D01*
X96250000Y30578491D01*
X96250000Y30381509D01*
X96211571Y30188311D01*
X96136189Y30006322D01*
X96026751Y29842537D01*
X95887463Y29703249D01*
X95723678Y29593811D01*
X95541689Y29518429D01*
X95477290Y29505619D01*
X95348493Y29480000D01*
X95151507Y29480000D01*
X95022710Y29505619D01*
X94958311Y29518429D01*
X94776322Y29593811D01*
X94612537Y29703249D01*
X94473249Y29842537D01*
X94363811Y30006322D01*
X94288429Y30188311D01*
X94250000Y30381509D01*
X94250000Y30578491D01*
X94288429Y30771689D01*
X94363811Y30953678D01*
X94473249Y31117463D01*
X94612537Y31256751D01*
X94776322Y31366189D01*
X94958311Y31441571D01*
X95022710Y31454381D01*
X95151507Y31480000D01*
X95348493Y31480000D01*
X95477290Y31454381D01*
X95477290Y31454381D01*
G37*
G36*
X80860000Y30000000D02*
G01*
X79160000Y30000000D01*
X79160000Y31300000D01*
X80860000Y31300000D01*
X80860000Y30000000D01*
X80860000Y30000000D01*
G37*
G36*
X95477290Y33994381D02*
G01*
X95541689Y33981571D01*
X95723678Y33906189D01*
X95887463Y33796751D01*
X96026751Y33657463D01*
X96136189Y33493678D01*
X96211571Y33311689D01*
X96250000Y33118491D01*
X96250000Y32921509D01*
X96211571Y32728311D01*
X96136189Y32546322D01*
X96026751Y32382537D01*
X95887463Y32243249D01*
X95723678Y32133811D01*
X95541689Y32058429D01*
X95477290Y32045619D01*
X95348493Y32020000D01*
X95151507Y32020000D01*
X95022710Y32045619D01*
X94958311Y32058429D01*
X94776322Y32133811D01*
X94612537Y32243249D01*
X94473249Y32382537D01*
X94363811Y32546322D01*
X94288429Y32728311D01*
X94250000Y32921509D01*
X94250000Y33118491D01*
X94288429Y33311689D01*
X94363811Y33493678D01*
X94473249Y33657463D01*
X94612537Y33796751D01*
X94776322Y33906189D01*
X94958311Y33981571D01*
X95022710Y33994381D01*
X95151507Y34020000D01*
X95348493Y34020000D01*
X95477290Y33994381D01*
X95477290Y33994381D01*
G37*
G36*
X92937290Y33994381D02*
G01*
X93001689Y33981571D01*
X93183678Y33906189D01*
X93347463Y33796751D01*
X93486751Y33657463D01*
X93596189Y33493678D01*
X93671571Y33311689D01*
X93710000Y33118491D01*
X93710000Y32921509D01*
X93671571Y32728311D01*
X93596189Y32546322D01*
X93486751Y32382537D01*
X93347463Y32243249D01*
X93183678Y32133811D01*
X93001689Y32058429D01*
X92937290Y32045619D01*
X92808493Y32020000D01*
X92611507Y32020000D01*
X92482710Y32045619D01*
X92418311Y32058429D01*
X92236322Y32133811D01*
X92072537Y32243249D01*
X91933249Y32382537D01*
X91823811Y32546322D01*
X91748429Y32728311D01*
X91710000Y32921509D01*
X91710000Y33118491D01*
X91748429Y33311689D01*
X91823811Y33493678D01*
X91933249Y33657463D01*
X92072537Y33796751D01*
X92236322Y33906189D01*
X92418311Y33981571D01*
X92482710Y33994381D01*
X92611507Y34020000D01*
X92808493Y34020000D01*
X92937290Y33994381D01*
X92937290Y33994381D01*
G37*
G36*
X80860000Y32200000D02*
G01*
X79160000Y32200000D01*
X79160000Y33500000D01*
X80860000Y33500000D01*
X80860000Y32200000D01*
X80860000Y32200000D01*
G37*
G36*
X77380000Y33240000D02*
G01*
X75880000Y33240000D01*
X75880000Y35340000D01*
X77380000Y35340000D01*
X77380000Y33240000D01*
X77380000Y33240000D01*
G37*
G36*
X87540000Y33240000D02*
G01*
X86040000Y33240000D01*
X86040000Y35340000D01*
X87540000Y35340000D01*
X87540000Y33240000D01*
X87540000Y33240000D01*
G37*
G36*
X84140000Y33240000D02*
G01*
X82640000Y33240000D01*
X82640000Y35340000D01*
X84140000Y35340000D01*
X84140000Y33240000D01*
X84140000Y33240000D01*
G37*
G36*
X73980000Y33240000D02*
G01*
X72480000Y33240000D01*
X72480000Y35340000D01*
X73980000Y35340000D01*
X73980000Y33240000D01*
X73980000Y33240000D01*
G37*
G36*
X24950000Y33440000D02*
G01*
X23650000Y33440000D01*
X23650000Y35140000D01*
X24950000Y35140000D01*
X24950000Y33440000D01*
X24950000Y33440000D01*
G37*
G36*
X27150000Y33440000D02*
G01*
X25850000Y33440000D01*
X25850000Y35140000D01*
X27150000Y35140000D01*
X27150000Y33440000D01*
X27150000Y33440000D01*
G37*
G36*
X92937290Y36534381D02*
G01*
X93001689Y36521571D01*
X93183678Y36446189D01*
X93347463Y36336751D01*
X93486751Y36197463D01*
X93596189Y36033678D01*
X93666207Y35864638D01*
X93671571Y35851688D01*
X93710000Y35658493D01*
X93710000Y35461507D01*
X93688287Y35352351D01*
X93671571Y35268311D01*
X93596189Y35086322D01*
X93486751Y34922537D01*
X93347463Y34783249D01*
X93183678Y34673811D01*
X93001689Y34598429D01*
X92937290Y34585619D01*
X92808493Y34560000D01*
X92611507Y34560000D01*
X92482710Y34585619D01*
X92418311Y34598429D01*
X92236322Y34673811D01*
X92072537Y34783249D01*
X91933249Y34922537D01*
X91823811Y35086322D01*
X91748429Y35268311D01*
X91731713Y35352351D01*
X91710000Y35461507D01*
X91710000Y35658493D01*
X91748429Y35851688D01*
X91753793Y35864638D01*
X91823811Y36033678D01*
X91933249Y36197463D01*
X92072537Y36336751D01*
X92236322Y36446189D01*
X92418311Y36521571D01*
X92482710Y36534381D01*
X92611507Y36560000D01*
X92808493Y36560000D01*
X92937290Y36534381D01*
X92937290Y36534381D01*
G37*
G36*
X95477290Y36534381D02*
G01*
X95541689Y36521571D01*
X95723678Y36446189D01*
X95887463Y36336751D01*
X96026751Y36197463D01*
X96136189Y36033678D01*
X96206207Y35864638D01*
X96211571Y35851688D01*
X96250000Y35658493D01*
X96250000Y35461507D01*
X96228287Y35352351D01*
X96211571Y35268311D01*
X96136189Y35086322D01*
X96026751Y34922537D01*
X95887463Y34783249D01*
X95723678Y34673811D01*
X95541689Y34598429D01*
X95477290Y34585619D01*
X95348493Y34560000D01*
X95151507Y34560000D01*
X95022710Y34585619D01*
X94958311Y34598429D01*
X94776322Y34673811D01*
X94612537Y34783249D01*
X94473249Y34922537D01*
X94363811Y35086322D01*
X94288429Y35268311D01*
X94271713Y35352351D01*
X94250000Y35461507D01*
X94250000Y35658493D01*
X94288429Y35851688D01*
X94293793Y35864638D01*
X94363811Y36033678D01*
X94473249Y36197463D01*
X94612537Y36336751D01*
X94776322Y36446189D01*
X94958311Y36521571D01*
X95022710Y36534381D01*
X95151507Y36560000D01*
X95348493Y36560000D01*
X95477290Y36534381D01*
X95477290Y36534381D01*
G37*
G36*
X54738687Y37406973D02*
G01*
X54916274Y37371650D01*
X55107362Y37292498D01*
X55279336Y37177589D01*
X55425589Y37031336D01*
X55540498Y36859362D01*
X55619650Y36668274D01*
X55660000Y36465416D01*
X55660000Y36258584D01*
X55619650Y36055726D01*
X55540498Y35864638D01*
X55425589Y35692664D01*
X55279336Y35546411D01*
X55107362Y35431502D01*
X54916274Y35352350D01*
X54738687Y35317027D01*
X54713417Y35312000D01*
X54506583Y35312000D01*
X54481313Y35317027D01*
X54303726Y35352350D01*
X54112638Y35431502D01*
X53940664Y35546411D01*
X53794411Y35692664D01*
X53679502Y35864638D01*
X53600350Y36055726D01*
X53560000Y36258584D01*
X53560000Y36465416D01*
X53600350Y36668274D01*
X53679502Y36859362D01*
X53794411Y37031336D01*
X53940664Y37177589D01*
X54112638Y37292498D01*
X54303726Y37371650D01*
X54481313Y37406973D01*
X54506583Y37412000D01*
X54713417Y37412000D01*
X54738687Y37406973D01*
X54738687Y37406973D01*
G37*
G36*
X7847290Y37804381D02*
G01*
X7911689Y37791571D01*
X8093678Y37716189D01*
X8257463Y37606751D01*
X8396751Y37467463D01*
X8506189Y37303678D01*
X8581571Y37121689D01*
X8620000Y36928491D01*
X8620000Y36731509D01*
X8581571Y36538311D01*
X8506189Y36356322D01*
X8396751Y36192537D01*
X8257463Y36053249D01*
X8093678Y35943811D01*
X7911689Y35868429D01*
X7847290Y35855619D01*
X7718493Y35830000D01*
X7521507Y35830000D01*
X7392710Y35855619D01*
X7328311Y35868429D01*
X7146322Y35943811D01*
X6982537Y36053249D01*
X6843249Y36192537D01*
X6733811Y36356322D01*
X6658429Y36538311D01*
X6620000Y36731509D01*
X6620000Y36928491D01*
X6658429Y37121689D01*
X6733811Y37303678D01*
X6843249Y37467463D01*
X6982537Y37606751D01*
X7146322Y37716189D01*
X7328311Y37791571D01*
X7392710Y37804381D01*
X7521507Y37830000D01*
X7718493Y37830000D01*
X7847290Y37804381D01*
X7847290Y37804381D01*
G37*
G36*
X5307290Y37804381D02*
G01*
X5371689Y37791571D01*
X5553678Y37716189D01*
X5717463Y37606751D01*
X5856751Y37467463D01*
X5966189Y37303678D01*
X6041571Y37121689D01*
X6080000Y36928491D01*
X6080000Y36731509D01*
X6041571Y36538311D01*
X5966189Y36356322D01*
X5856751Y36192537D01*
X5717463Y36053249D01*
X5553678Y35943811D01*
X5371689Y35868429D01*
X5307290Y35855619D01*
X5178493Y35830000D01*
X4981507Y35830000D01*
X4852710Y35855619D01*
X4788311Y35868429D01*
X4606322Y35943811D01*
X4442537Y36053249D01*
X4303249Y36192537D01*
X4193811Y36356322D01*
X4118429Y36538311D01*
X4080000Y36731509D01*
X4080000Y36928491D01*
X4118429Y37121689D01*
X4193811Y37303678D01*
X4303249Y37467463D01*
X4442537Y37606751D01*
X4606322Y37716189D01*
X4788311Y37791571D01*
X4852710Y37804381D01*
X4981507Y37830000D01*
X5178493Y37830000D01*
X5307290Y37804381D01*
X5307290Y37804381D01*
G37*
G36*
X15720000Y35980000D02*
G01*
X14420000Y35980000D01*
X14420000Y37680000D01*
X15720000Y37680000D01*
X15720000Y35980000D01*
X15720000Y35980000D01*
G37*
G36*
X13520000Y35980000D02*
G01*
X12220000Y35980000D01*
X12220000Y37680000D01*
X13520000Y37680000D01*
X13520000Y35980000D01*
X13520000Y35980000D01*
G37*
G36*
X95477290Y39074381D02*
G01*
X95541689Y39061571D01*
X95723678Y38986189D01*
X95887463Y38876751D01*
X96026751Y38737463D01*
X96136189Y38573678D01*
X96211571Y38391689D01*
X96250000Y38198491D01*
X96250000Y38001509D01*
X96211571Y37808311D01*
X96136189Y37626322D01*
X96026751Y37462537D01*
X95887463Y37323249D01*
X95723678Y37213811D01*
X95541689Y37138429D01*
X95477290Y37125619D01*
X95348493Y37100000D01*
X95151507Y37100000D01*
X95022710Y37125619D01*
X94958311Y37138429D01*
X94776322Y37213811D01*
X94612537Y37323249D01*
X94473249Y37462537D01*
X94363811Y37626322D01*
X94288429Y37808311D01*
X94250000Y38001509D01*
X94250000Y38198491D01*
X94288429Y38391689D01*
X94363811Y38573678D01*
X94473249Y38737463D01*
X94612537Y38876751D01*
X94776322Y38986189D01*
X94958311Y39061571D01*
X95022710Y39074381D01*
X95151507Y39100000D01*
X95348493Y39100000D01*
X95477290Y39074381D01*
X95477290Y39074381D01*
G37*
G36*
X92937290Y39074381D02*
G01*
X93001689Y39061571D01*
X93183678Y38986189D01*
X93347463Y38876751D01*
X93486751Y38737463D01*
X93596189Y38573678D01*
X93671571Y38391689D01*
X93710000Y38198491D01*
X93710000Y38001509D01*
X93671571Y37808311D01*
X93596189Y37626322D01*
X93486751Y37462537D01*
X93347463Y37323249D01*
X93183678Y37213811D01*
X93001689Y37138429D01*
X92937290Y37125619D01*
X92808493Y37100000D01*
X92611507Y37100000D01*
X92482710Y37125619D01*
X92418311Y37138429D01*
X92236322Y37213811D01*
X92072537Y37323249D01*
X91933249Y37462537D01*
X91823811Y37626322D01*
X91748429Y37808311D01*
X91710000Y38001509D01*
X91710000Y38198491D01*
X91748429Y38391689D01*
X91823811Y38573678D01*
X91933249Y38737463D01*
X92072537Y38876751D01*
X92236322Y38986189D01*
X92418311Y39061571D01*
X92482710Y39074381D01*
X92611507Y39100000D01*
X92808493Y39100000D01*
X92937290Y39074381D01*
X92937290Y39074381D01*
G37*
G36*
X21805000Y37620000D02*
G01*
X20105000Y37620000D01*
X20105000Y38920000D01*
X21805000Y38920000D01*
X21805000Y37620000D01*
X21805000Y37620000D01*
G37*
G36*
X54738687Y39906973D02*
G01*
X54916274Y39871650D01*
X55107362Y39792498D01*
X55279336Y39677589D01*
X55425589Y39531336D01*
X55540498Y39359362D01*
X55619650Y39168274D01*
X55649143Y39020000D01*
X55660000Y38965417D01*
X55660000Y38758583D01*
X55654973Y38733313D01*
X55619650Y38555726D01*
X55540498Y38364638D01*
X55425589Y38192664D01*
X55279336Y38046411D01*
X55107362Y37931502D01*
X54916274Y37852350D01*
X54738687Y37817027D01*
X54713417Y37812000D01*
X54506583Y37812000D01*
X54481313Y37817027D01*
X54303726Y37852350D01*
X54112638Y37931502D01*
X53940664Y38046411D01*
X53794411Y38192664D01*
X53679502Y38364638D01*
X53600350Y38555726D01*
X53565027Y38733313D01*
X53560000Y38758583D01*
X53560000Y38965417D01*
X53570857Y39020000D01*
X53600350Y39168274D01*
X53679502Y39359362D01*
X53794411Y39531336D01*
X53940664Y39677589D01*
X54112638Y39792498D01*
X54303726Y39871650D01*
X54481313Y39906973D01*
X54506583Y39912000D01*
X54713417Y39912000D01*
X54738687Y39906973D01*
X54738687Y39906973D01*
G37*
G36*
X25150000Y37820000D02*
G01*
X23850000Y37820000D01*
X23850000Y39020000D01*
X25150000Y39020000D01*
X25150000Y37820000D01*
X25150000Y37820000D01*
G37*
G36*
X26950000Y37820000D02*
G01*
X25650000Y37820000D01*
X25650000Y39020000D01*
X26950000Y39020000D01*
X26950000Y37820000D01*
X26950000Y37820000D01*
G37*
G36*
X73980000Y38320000D02*
G01*
X72480000Y38320000D01*
X72480000Y40420000D01*
X73980000Y40420000D01*
X73980000Y38320000D01*
X73980000Y38320000D01*
G37*
G36*
X87540000Y38320000D02*
G01*
X86040000Y38320000D01*
X86040000Y40420000D01*
X87540000Y40420000D01*
X87540000Y38320000D01*
X87540000Y38320000D01*
G37*
G36*
X77380000Y38320000D02*
G01*
X75880000Y38320000D01*
X75880000Y40420000D01*
X77380000Y40420000D01*
X77380000Y38320000D01*
X77380000Y38320000D01*
G37*
G36*
X84140000Y38320000D02*
G01*
X82640000Y38320000D01*
X82640000Y40420000D01*
X84140000Y40420000D01*
X84140000Y38320000D01*
X84140000Y38320000D01*
G37*
G36*
X5307290Y40344381D02*
G01*
X5371689Y40331571D01*
X5553678Y40256189D01*
X5717463Y40146751D01*
X5856751Y40007463D01*
X5966189Y39843678D01*
X6041571Y39661689D01*
X6080000Y39468491D01*
X6080000Y39271509D01*
X6041571Y39078311D01*
X5966189Y38896322D01*
X5856751Y38732537D01*
X5717463Y38593249D01*
X5553678Y38483811D01*
X5371689Y38408429D01*
X5307290Y38395619D01*
X5178493Y38370000D01*
X4981507Y38370000D01*
X4852710Y38395619D01*
X4788311Y38408429D01*
X4606322Y38483811D01*
X4442537Y38593249D01*
X4303249Y38732537D01*
X4193811Y38896322D01*
X4118429Y39078311D01*
X4080000Y39271509D01*
X4080000Y39468491D01*
X4118429Y39661689D01*
X4193811Y39843678D01*
X4303249Y40007463D01*
X4442537Y40146751D01*
X4606322Y40256189D01*
X4788311Y40331571D01*
X4852710Y40344381D01*
X4981507Y40370000D01*
X5178493Y40370000D01*
X5307290Y40344381D01*
X5307290Y40344381D01*
G37*
G36*
X7847290Y40344381D02*
G01*
X7911689Y40331571D01*
X8093678Y40256189D01*
X8257463Y40146751D01*
X8396751Y40007463D01*
X8506189Y39843678D01*
X8581571Y39661689D01*
X8620000Y39468491D01*
X8620000Y39271509D01*
X8581571Y39078311D01*
X8506189Y38896322D01*
X8396751Y38732537D01*
X8257463Y38593249D01*
X8093678Y38483811D01*
X7911689Y38408429D01*
X7847290Y38395619D01*
X7718493Y38370000D01*
X7521507Y38370000D01*
X7392710Y38395619D01*
X7328311Y38408429D01*
X7146322Y38483811D01*
X6982537Y38593249D01*
X6843249Y38732537D01*
X6733811Y38896322D01*
X6658429Y39078311D01*
X6620000Y39271509D01*
X6620000Y39468491D01*
X6658429Y39661689D01*
X6733811Y39843678D01*
X6843249Y40007463D01*
X6982537Y40146751D01*
X7146322Y40256189D01*
X7328311Y40331571D01*
X7392710Y40344381D01*
X7521507Y40370000D01*
X7718493Y40370000D01*
X7847290Y40344381D01*
X7847290Y40344381D01*
G37*
G36*
X25150000Y39320000D02*
G01*
X23850000Y39320000D01*
X23850000Y40920000D01*
X25150000Y40920000D01*
X25150000Y39320000D01*
X25150000Y39320000D01*
G37*
G36*
X26950000Y39720000D02*
G01*
X25650000Y39720000D01*
X25650000Y40920000D01*
X26950000Y40920000D01*
X26950000Y39720000D01*
X26950000Y39720000D01*
G37*
G36*
X15720000Y39790000D02*
G01*
X14420000Y39790000D01*
X14420000Y41490000D01*
X15720000Y41490000D01*
X15720000Y39790000D01*
X15720000Y39790000D01*
G37*
G36*
X46200000Y39790000D02*
G01*
X44900000Y39790000D01*
X44900000Y41490000D01*
X46200000Y41490000D01*
X46200000Y39790000D01*
X46200000Y39790000D01*
G37*
G36*
X44000000Y39790000D02*
G01*
X42700000Y39790000D01*
X42700000Y41490000D01*
X44000000Y41490000D01*
X44000000Y39790000D01*
X44000000Y39790000D01*
G37*
G36*
X13520000Y39790000D02*
G01*
X12220000Y39790000D01*
X12220000Y41490000D01*
X13520000Y41490000D01*
X13520000Y39790000D01*
X13520000Y39790000D01*
G37*
G36*
X21805000Y39820000D02*
G01*
X20105000Y39820000D01*
X20105000Y41120000D01*
X21805000Y41120000D01*
X21805000Y39820000D01*
X21805000Y39820000D01*
G37*
G36*
X80860000Y40160000D02*
G01*
X79160000Y40160000D01*
X79160000Y41460000D01*
X80860000Y41460000D01*
X80860000Y40160000D01*
X80860000Y40160000D01*
G37*
G36*
X5307290Y42884381D02*
G01*
X5371689Y42871571D01*
X5553678Y42796189D01*
X5717463Y42686751D01*
X5856751Y42547463D01*
X5966189Y42383678D01*
X6041571Y42201689D01*
X6080000Y42008491D01*
X6080000Y41811509D01*
X6041571Y41618311D01*
X5966189Y41436322D01*
X5856751Y41272537D01*
X5717463Y41133249D01*
X5553678Y41023811D01*
X5371689Y40948429D01*
X5307290Y40935619D01*
X5178493Y40910000D01*
X4981507Y40910000D01*
X4852710Y40935619D01*
X4788311Y40948429D01*
X4606322Y41023811D01*
X4442537Y41133249D01*
X4303249Y41272537D01*
X4193811Y41436322D01*
X4118429Y41618311D01*
X4080000Y41811509D01*
X4080000Y42008491D01*
X4118429Y42201689D01*
X4193811Y42383678D01*
X4303249Y42547463D01*
X4442537Y42686751D01*
X4606322Y42796189D01*
X4788311Y42871571D01*
X4852710Y42884381D01*
X4981507Y42910000D01*
X5178493Y42910000D01*
X5307290Y42884381D01*
X5307290Y42884381D01*
G37*
G36*
X7847290Y42884381D02*
G01*
X7911689Y42871571D01*
X8093678Y42796189D01*
X8257463Y42686751D01*
X8396751Y42547463D01*
X8506189Y42383678D01*
X8581571Y42201689D01*
X8620000Y42008491D01*
X8620000Y41811509D01*
X8581571Y41618311D01*
X8506189Y41436322D01*
X8396751Y41272537D01*
X8257463Y41133249D01*
X8093678Y41023811D01*
X7911689Y40948429D01*
X7847290Y40935619D01*
X7718493Y40910000D01*
X7521507Y40910000D01*
X7392710Y40935619D01*
X7328311Y40948429D01*
X7146322Y41023811D01*
X6982537Y41133249D01*
X6843249Y41272537D01*
X6733811Y41436322D01*
X6658429Y41618311D01*
X6620000Y41811509D01*
X6620000Y42008491D01*
X6658429Y42201689D01*
X6733811Y42383678D01*
X6843249Y42547463D01*
X6982537Y42686751D01*
X7146322Y42796189D01*
X7328311Y42871571D01*
X7392710Y42884381D01*
X7521507Y42910000D01*
X7718493Y42910000D01*
X7847290Y42884381D01*
X7847290Y42884381D01*
G37*
G36*
X64604687Y44097973D02*
G01*
X64782274Y44062650D01*
X64973362Y43983498D01*
X65145336Y43868589D01*
X65291589Y43722336D01*
X65406498Y43550362D01*
X65485650Y43359274D01*
X65526000Y43156416D01*
X65526000Y42949584D01*
X65485650Y42746726D01*
X65406498Y42555638D01*
X65291589Y42383664D01*
X65145336Y42237411D01*
X64973362Y42122502D01*
X64782274Y42043350D01*
X64607032Y42008493D01*
X64579417Y42003000D01*
X64372583Y42003000D01*
X64344968Y42008493D01*
X64169726Y42043350D01*
X63978638Y42122502D01*
X63806664Y42237411D01*
X63660411Y42383664D01*
X63545502Y42555638D01*
X63466350Y42746726D01*
X63426000Y42949584D01*
X63426000Y43156416D01*
X63466350Y43359274D01*
X63545502Y43550362D01*
X63660411Y43722336D01*
X63806664Y43868589D01*
X63978638Y43983498D01*
X64169726Y44062650D01*
X64347313Y44097973D01*
X64372583Y44103000D01*
X64579417Y44103000D01*
X64604687Y44097973D01*
X64604687Y44097973D01*
G37*
G36*
X62104687Y44097973D02*
G01*
X62282274Y44062650D01*
X62473362Y43983498D01*
X62645336Y43868589D01*
X62791589Y43722336D01*
X62906498Y43550362D01*
X62985650Y43359274D01*
X63026000Y43156416D01*
X63026000Y42949584D01*
X62985650Y42746726D01*
X62906498Y42555638D01*
X62791589Y42383664D01*
X62645336Y42237411D01*
X62473362Y42122502D01*
X62282274Y42043350D01*
X62107032Y42008493D01*
X62079417Y42003000D01*
X61872583Y42003000D01*
X61844968Y42008493D01*
X61669726Y42043350D01*
X61478638Y42122502D01*
X61306664Y42237411D01*
X61160411Y42383664D01*
X61045502Y42555638D01*
X60966350Y42746726D01*
X60926000Y42949584D01*
X60926000Y43156416D01*
X60966350Y43359274D01*
X61045502Y43550362D01*
X61160411Y43722336D01*
X61306664Y43868589D01*
X61478638Y43983498D01*
X61669726Y44062650D01*
X61847313Y44097973D01*
X61872583Y44103000D01*
X62079417Y44103000D01*
X62104687Y44097973D01*
X62104687Y44097973D01*
G37*
G36*
X80860000Y42360000D02*
G01*
X79160000Y42360000D01*
X79160000Y43660000D01*
X80860000Y43660000D01*
X80860000Y42360000D01*
X80860000Y42360000D01*
G37*
G36*
X77380000Y43400000D02*
G01*
X75880000Y43400000D01*
X75880000Y45500000D01*
X77380000Y45500000D01*
X77380000Y43400000D01*
X77380000Y43400000D01*
G37*
G36*
X84140000Y43400000D02*
G01*
X82640000Y43400000D01*
X82640000Y45500000D01*
X84140000Y45500000D01*
X84140000Y43400000D01*
X84140000Y43400000D01*
G37*
G36*
X87540000Y43400000D02*
G01*
X86040000Y43400000D01*
X86040000Y45500000D01*
X87540000Y45500000D01*
X87540000Y43400000D01*
X87540000Y43400000D01*
G37*
G36*
X73980000Y43400000D02*
G01*
X72480000Y43400000D01*
X72480000Y45500000D01*
X73980000Y45500000D01*
X73980000Y43400000D01*
X73980000Y43400000D01*
G37*
G36*
X5307290Y45424381D02*
G01*
X5371689Y45411571D01*
X5553678Y45336189D01*
X5717463Y45226751D01*
X5856751Y45087463D01*
X5966189Y44923678D01*
X6041571Y44741689D01*
X6080000Y44548491D01*
X6080000Y44351509D01*
X6041571Y44158311D01*
X5966189Y43976322D01*
X5856751Y43812537D01*
X5717463Y43673249D01*
X5553678Y43563811D01*
X5371689Y43488429D01*
X5307290Y43475619D01*
X5178493Y43450000D01*
X4981507Y43450000D01*
X4852710Y43475619D01*
X4788311Y43488429D01*
X4606322Y43563811D01*
X4442537Y43673249D01*
X4303249Y43812537D01*
X4193811Y43976322D01*
X4118429Y44158311D01*
X4080000Y44351509D01*
X4080000Y44548491D01*
X4118429Y44741689D01*
X4193811Y44923678D01*
X4303249Y45087463D01*
X4442537Y45226751D01*
X4606322Y45336189D01*
X4788311Y45411571D01*
X4852710Y45424381D01*
X4981507Y45450000D01*
X5178493Y45450000D01*
X5307290Y45424381D01*
X5307290Y45424381D01*
G37*
G36*
X35950000Y43450000D02*
G01*
X34250000Y43450000D01*
X34250000Y44750000D01*
X35950000Y44750000D01*
X35950000Y43450000D01*
X35950000Y43450000D01*
G37*
G36*
X42550000Y43450000D02*
G01*
X40850000Y43450000D01*
X40850000Y44750000D01*
X42550000Y44750000D01*
X42550000Y43450000D01*
X42550000Y43450000D01*
G37*
G36*
X7847290Y45424381D02*
G01*
X7911689Y45411571D01*
X8093678Y45336189D01*
X8257463Y45226751D01*
X8396751Y45087463D01*
X8506189Y44923678D01*
X8581571Y44741689D01*
X8620000Y44548491D01*
X8620000Y44351509D01*
X8581571Y44158311D01*
X8506189Y43976322D01*
X8396751Y43812537D01*
X8257463Y43673249D01*
X8093678Y43563811D01*
X7911689Y43488429D01*
X7847290Y43475619D01*
X7718493Y43450000D01*
X7521507Y43450000D01*
X7392710Y43475619D01*
X7328311Y43488429D01*
X7146322Y43563811D01*
X6982537Y43673249D01*
X6843249Y43812537D01*
X6733811Y43976322D01*
X6658429Y44158311D01*
X6620000Y44351509D01*
X6620000Y44548491D01*
X6658429Y44741689D01*
X6733811Y44923678D01*
X6843249Y45087463D01*
X6982537Y45226751D01*
X7146322Y45336189D01*
X7328311Y45411571D01*
X7392710Y45424381D01*
X7521507Y45450000D01*
X7718493Y45450000D01*
X7847290Y45424381D01*
X7847290Y45424381D01*
G37*
G36*
X39250000Y43450000D02*
G01*
X37550000Y43450000D01*
X37550000Y44750000D01*
X39250000Y44750000D01*
X39250000Y43450000D01*
X39250000Y43450000D01*
G37*
G36*
X13520000Y43600000D02*
G01*
X12220000Y43600000D01*
X12220000Y45300000D01*
X13520000Y45300000D01*
X13520000Y43600000D01*
X13520000Y43600000D01*
G37*
G36*
X15720000Y43600000D02*
G01*
X14420000Y43600000D01*
X14420000Y45300000D01*
X15720000Y45300000D01*
X15720000Y43600000D01*
X15720000Y43600000D01*
G37*
G36*
X24950000Y43600000D02*
G01*
X23650000Y43600000D01*
X23650000Y45300000D01*
X24950000Y45300000D01*
X24950000Y43600000D01*
X24950000Y43600000D01*
G37*
G36*
X27150000Y43600000D02*
G01*
X25850000Y43600000D01*
X25850000Y45300000D01*
X27150000Y45300000D01*
X27150000Y43600000D01*
X27150000Y43600000D01*
G37*
G36*
X53612730Y56145370D02*
G01*
X53673050Y56127072D01*
X53700846Y56112214D01*
X53728642Y56097357D01*
X53748713Y56080885D01*
X53777369Y56057369D01*
X53817357Y56008642D01*
X53847072Y55953051D01*
X53865370Y55892731D01*
X53870000Y55845720D01*
X53870000Y53994999D01*
X53872402Y53970613D01*
X53879515Y53947164D01*
X53891066Y53925553D01*
X53906611Y53906611D01*
X53925553Y53891066D01*
X53947164Y53879515D01*
X53970613Y53872402D01*
X53994999Y53870000D01*
X55845720Y53870000D01*
X55892731Y53865370D01*
X55953051Y53847072D01*
X56008642Y53817357D01*
X56057369Y53777369D01*
X56097357Y53728642D01*
X56127072Y53673051D01*
X56145370Y53612731D01*
X56151548Y53550000D01*
X56145370Y53487269D01*
X56127072Y53426949D01*
X56113731Y53401991D01*
X56092507Y53362283D01*
X56090252Y53358908D01*
X56080878Y53336268D01*
X56076101Y53312234D01*
X56076105Y53287730D01*
X56080889Y53263697D01*
X56090269Y53241060D01*
X56092521Y53237689D01*
X56097356Y53228643D01*
X56097357Y53228642D01*
X56127072Y53173051D01*
X56145370Y53112731D01*
X56151548Y53050000D01*
X56145370Y52987269D01*
X56127072Y52926949D01*
X56113731Y52901991D01*
X56092507Y52862283D01*
X56090252Y52858908D01*
X56080878Y52836268D01*
X56076101Y52812234D01*
X56076105Y52787730D01*
X56080889Y52763697D01*
X56090269Y52741060D01*
X56092521Y52737689D01*
X56097356Y52728643D01*
X56097357Y52728642D01*
X56127072Y52673051D01*
X56145370Y52612731D01*
X56151548Y52550000D01*
X56145370Y52487269D01*
X56127072Y52426949D01*
X56118881Y52411625D01*
X56092507Y52362283D01*
X56090252Y52358908D01*
X56080878Y52336268D01*
X56076101Y52312234D01*
X56076105Y52287730D01*
X56080889Y52263697D01*
X56090269Y52241060D01*
X56092521Y52237689D01*
X56097356Y52228643D01*
X56097357Y52228642D01*
X56127072Y52173051D01*
X56145370Y52112731D01*
X56151548Y52050000D01*
X56145370Y51987269D01*
X56127072Y51926949D01*
X56113731Y51901991D01*
X56092507Y51862283D01*
X56090252Y51858908D01*
X56080878Y51836268D01*
X56076101Y51812234D01*
X56076105Y51787730D01*
X56080889Y51763697D01*
X56090269Y51741060D01*
X56092521Y51737689D01*
X56097356Y51728643D01*
X56097357Y51728642D01*
X56127072Y51673051D01*
X56145370Y51612731D01*
X56151548Y51550000D01*
X56145370Y51487269D01*
X56127072Y51426949D01*
X56113731Y51401991D01*
X56092507Y51362283D01*
X56090252Y51358908D01*
X56080878Y51336268D01*
X56076101Y51312234D01*
X56076105Y51287730D01*
X56080889Y51263697D01*
X56090269Y51241060D01*
X56092521Y51237689D01*
X56097356Y51228643D01*
X56097357Y51228642D01*
X56127072Y51173051D01*
X56145370Y51112731D01*
X56151548Y51050000D01*
X56145370Y50987269D01*
X56127072Y50926949D01*
X56113731Y50901991D01*
X56092507Y50862283D01*
X56090252Y50858908D01*
X56080878Y50836268D01*
X56076101Y50812234D01*
X56076105Y50787730D01*
X56080889Y50763697D01*
X56090269Y50741060D01*
X56092521Y50737689D01*
X56097356Y50728643D01*
X56097357Y50728642D01*
X56127072Y50673051D01*
X56145370Y50612731D01*
X56151548Y50550000D01*
X56145370Y50487269D01*
X56127072Y50426949D01*
X56113731Y50401991D01*
X56092507Y50362283D01*
X56090252Y50358908D01*
X56080878Y50336268D01*
X56076101Y50312234D01*
X56076105Y50287730D01*
X56080889Y50263697D01*
X56090269Y50241060D01*
X56092521Y50237689D01*
X56097356Y50228643D01*
X56097357Y50228642D01*
X56127072Y50173051D01*
X56145370Y50112731D01*
X56151548Y50050000D01*
X56145370Y49987269D01*
X56127072Y49926949D01*
X56113731Y49901991D01*
X56092507Y49862283D01*
X56090252Y49858908D01*
X56080878Y49836268D01*
X56076101Y49812234D01*
X56076105Y49787730D01*
X56080889Y49763697D01*
X56090269Y49741060D01*
X56092521Y49737689D01*
X56097356Y49728643D01*
X56097357Y49728642D01*
X56127072Y49673051D01*
X56145370Y49612731D01*
X56151548Y49550000D01*
X56145370Y49487269D01*
X56127072Y49426949D01*
X56113731Y49401991D01*
X56092507Y49362283D01*
X56090252Y49358908D01*
X56080878Y49336268D01*
X56076101Y49312234D01*
X56076105Y49287730D01*
X56080889Y49263697D01*
X56090269Y49241060D01*
X56092521Y49237689D01*
X56097356Y49228643D01*
X56097357Y49228642D01*
X56127072Y49173051D01*
X56145370Y49112731D01*
X56151548Y49050000D01*
X56145370Y48987269D01*
X56127072Y48926949D01*
X56113731Y48901991D01*
X56092507Y48862283D01*
X56090252Y48858908D01*
X56080878Y48836268D01*
X56076101Y48812234D01*
X56076105Y48787730D01*
X56080889Y48763697D01*
X56090269Y48741060D01*
X56092521Y48737689D01*
X56097356Y48728643D01*
X56097357Y48728642D01*
X56127072Y48673051D01*
X56145370Y48612731D01*
X56151548Y48550000D01*
X56145370Y48487269D01*
X56127072Y48426949D01*
X56118881Y48411625D01*
X56092507Y48362283D01*
X56090252Y48358908D01*
X56080878Y48336268D01*
X56076101Y48312234D01*
X56076105Y48287730D01*
X56080889Y48263697D01*
X56090269Y48241060D01*
X56092521Y48237689D01*
X56097356Y48228643D01*
X56097357Y48228642D01*
X56127072Y48173051D01*
X56145370Y48112731D01*
X56151548Y48050000D01*
X56145370Y47987269D01*
X56127072Y47926949D01*
X56097357Y47871358D01*
X56057369Y47822631D01*
X56008642Y47782643D01*
X55953051Y47752928D01*
X55892731Y47734630D01*
X55845720Y47730000D01*
X53994999Y47730000D01*
X53970613Y47727598D01*
X53947164Y47720485D01*
X53925553Y47708934D01*
X53906611Y47693389D01*
X53891066Y47674447D01*
X53879515Y47652836D01*
X53872402Y47629387D01*
X53870000Y47605001D01*
X53870000Y45754282D01*
X53865370Y45707269D01*
X53847072Y45646949D01*
X53817357Y45591358D01*
X53777369Y45542631D01*
X53728642Y45502643D01*
X53673051Y45472928D01*
X53612731Y45454630D01*
X53550000Y45448452D01*
X53487270Y45454630D01*
X53426950Y45472928D01*
X53371359Y45502643D01*
X53362323Y45507473D01*
X53358951Y45509727D01*
X53336314Y45519109D01*
X53312282Y45523895D01*
X53287778Y45523901D01*
X53263743Y45519126D01*
X53241102Y45509754D01*
X53237721Y45507496D01*
X53228642Y45502643D01*
X53173051Y45472928D01*
X53112731Y45454630D01*
X53050000Y45448452D01*
X52987270Y45454630D01*
X52926950Y45472928D01*
X52871359Y45502643D01*
X52862323Y45507473D01*
X52858951Y45509727D01*
X52836314Y45519109D01*
X52812282Y45523895D01*
X52787778Y45523901D01*
X52763743Y45519126D01*
X52741102Y45509754D01*
X52737721Y45507496D01*
X52728642Y45502643D01*
X52673051Y45472928D01*
X52612731Y45454630D01*
X52550000Y45448452D01*
X52487270Y45454630D01*
X52426950Y45472928D01*
X52371359Y45502643D01*
X52362323Y45507473D01*
X52358951Y45509727D01*
X52336314Y45519109D01*
X52312282Y45523895D01*
X52287778Y45523901D01*
X52263743Y45519126D01*
X52241102Y45509754D01*
X52237721Y45507496D01*
X52228642Y45502643D01*
X52173051Y45472928D01*
X52112731Y45454630D01*
X52050000Y45448452D01*
X51987270Y45454630D01*
X51926950Y45472928D01*
X51871359Y45502643D01*
X51862323Y45507473D01*
X51858951Y45509727D01*
X51836314Y45519109D01*
X51812282Y45523895D01*
X51787778Y45523901D01*
X51763743Y45519126D01*
X51741102Y45509754D01*
X51737721Y45507496D01*
X51728642Y45502643D01*
X51673051Y45472928D01*
X51612731Y45454630D01*
X51550000Y45448452D01*
X51487270Y45454630D01*
X51426950Y45472928D01*
X51371359Y45502643D01*
X51362323Y45507473D01*
X51358951Y45509727D01*
X51336314Y45519109D01*
X51312282Y45523895D01*
X51287778Y45523901D01*
X51263743Y45519126D01*
X51241102Y45509754D01*
X51237721Y45507496D01*
X51228642Y45502643D01*
X51173051Y45472928D01*
X51112731Y45454630D01*
X51050000Y45448452D01*
X50987270Y45454630D01*
X50926950Y45472928D01*
X50871359Y45502643D01*
X50862323Y45507473D01*
X50858951Y45509727D01*
X50836314Y45519109D01*
X50812282Y45523895D01*
X50787778Y45523901D01*
X50763743Y45519126D01*
X50741102Y45509754D01*
X50737721Y45507496D01*
X50728642Y45502643D01*
X50673051Y45472928D01*
X50612731Y45454630D01*
X50550000Y45448452D01*
X50487270Y45454630D01*
X50426950Y45472928D01*
X50371359Y45502643D01*
X50362323Y45507473D01*
X50358951Y45509727D01*
X50336314Y45519109D01*
X50312282Y45523895D01*
X50287778Y45523901D01*
X50263743Y45519126D01*
X50241102Y45509754D01*
X50237721Y45507496D01*
X50228642Y45502643D01*
X50173051Y45472928D01*
X50112731Y45454630D01*
X50050000Y45448452D01*
X49987270Y45454630D01*
X49926950Y45472928D01*
X49871359Y45502643D01*
X49862323Y45507473D01*
X49858951Y45509727D01*
X49836314Y45519109D01*
X49812282Y45523895D01*
X49787778Y45523901D01*
X49763743Y45519126D01*
X49741102Y45509754D01*
X49737721Y45507496D01*
X49728642Y45502643D01*
X49673051Y45472928D01*
X49612731Y45454630D01*
X49550000Y45448452D01*
X49487270Y45454630D01*
X49426950Y45472928D01*
X49371359Y45502643D01*
X49362323Y45507473D01*
X49358951Y45509727D01*
X49336314Y45519109D01*
X49312282Y45523895D01*
X49287778Y45523901D01*
X49263743Y45519126D01*
X49241102Y45509754D01*
X49237721Y45507496D01*
X49228642Y45502643D01*
X49173051Y45472928D01*
X49112731Y45454630D01*
X49050000Y45448452D01*
X48987270Y45454630D01*
X48926950Y45472928D01*
X48871359Y45502643D01*
X48862323Y45507473D01*
X48858951Y45509727D01*
X48836314Y45519109D01*
X48812282Y45523895D01*
X48787778Y45523901D01*
X48763743Y45519126D01*
X48741102Y45509754D01*
X48737721Y45507496D01*
X48728642Y45502643D01*
X48673051Y45472928D01*
X48612731Y45454630D01*
X48550000Y45448452D01*
X48487270Y45454630D01*
X48426950Y45472928D01*
X48371359Y45502643D01*
X48362323Y45507473D01*
X48358951Y45509727D01*
X48336314Y45519109D01*
X48312282Y45523895D01*
X48287778Y45523901D01*
X48263743Y45519126D01*
X48241102Y45509754D01*
X48237721Y45507496D01*
X48228642Y45502643D01*
X48173051Y45472928D01*
X48112731Y45454630D01*
X48050000Y45448452D01*
X47987270Y45454630D01*
X47926950Y45472928D01*
X47871359Y45502643D01*
X47822632Y45542631D01*
X47782644Y45591358D01*
X47752929Y45646949D01*
X47734631Y45707269D01*
X47730001Y45754282D01*
X47730001Y46516324D01*
X47730000Y47605001D01*
X47727598Y47629387D01*
X47720485Y47652836D01*
X47708934Y47674447D01*
X47693389Y47693389D01*
X47674447Y47708934D01*
X47652836Y47720485D01*
X47629387Y47727598D01*
X47605001Y47730000D01*
X45754280Y47730000D01*
X45707269Y47734630D01*
X45646949Y47752928D01*
X45591358Y47782643D01*
X45542631Y47822631D01*
X45502643Y47871358D01*
X45472928Y47926949D01*
X45454630Y47987269D01*
X45448452Y48050000D01*
X45454630Y48112731D01*
X45472928Y48173051D01*
X45486269Y48198009D01*
X45507493Y48237717D01*
X45509748Y48241092D01*
X45519122Y48263732D01*
X45523899Y48287766D01*
X45523895Y48312270D01*
X45519111Y48336303D01*
X45509731Y48358940D01*
X45507479Y48362311D01*
X45481120Y48411624D01*
X45472928Y48426949D01*
X45454630Y48487269D01*
X45448452Y48550000D01*
X45454630Y48612731D01*
X45472928Y48673051D01*
X45486269Y48698009D01*
X45507493Y48737717D01*
X45509748Y48741092D01*
X45519122Y48763732D01*
X45523899Y48787766D01*
X45523895Y48812270D01*
X45519111Y48836303D01*
X45509731Y48858940D01*
X45507479Y48862311D01*
X45502643Y48871358D01*
X45472928Y48926949D01*
X45454630Y48987269D01*
X45448452Y49050000D01*
X45454630Y49112731D01*
X45472928Y49173051D01*
X45486269Y49198009D01*
X45507493Y49237717D01*
X45509748Y49241092D01*
X45519122Y49263732D01*
X45523899Y49287766D01*
X45523895Y49312270D01*
X45519111Y49336303D01*
X45509731Y49358940D01*
X45507479Y49362311D01*
X45502643Y49371358D01*
X45472928Y49426949D01*
X45454630Y49487269D01*
X45448452Y49550000D01*
X45454630Y49612731D01*
X45472928Y49673051D01*
X45486269Y49698009D01*
X45507493Y49737717D01*
X45509748Y49741092D01*
X45519122Y49763732D01*
X45523899Y49787766D01*
X45523895Y49812270D01*
X45519111Y49836303D01*
X45509731Y49858940D01*
X45507479Y49862311D01*
X45502643Y49871358D01*
X45472928Y49926949D01*
X45454630Y49987269D01*
X45448452Y50050000D01*
X45454630Y50112731D01*
X45472928Y50173051D01*
X45486269Y50198009D01*
X45507493Y50237717D01*
X45509748Y50241092D01*
X45519122Y50263732D01*
X45523899Y50287766D01*
X45523895Y50312270D01*
X45519111Y50336303D01*
X45509731Y50358940D01*
X45507479Y50362311D01*
X45491075Y50393000D01*
X45472928Y50426949D01*
X45454630Y50487269D01*
X45448452Y50550000D01*
X45454630Y50612731D01*
X45472928Y50673051D01*
X45486269Y50698009D01*
X45507493Y50737717D01*
X45509748Y50741092D01*
X45519122Y50763732D01*
X45523899Y50787766D01*
X45523895Y50812270D01*
X45519111Y50836303D01*
X45509731Y50858940D01*
X45507479Y50862311D01*
X45491075Y50893000D01*
X45472928Y50926949D01*
X45454630Y50987269D01*
X45448452Y51050000D01*
X45454630Y51112731D01*
X45472928Y51173051D01*
X45486269Y51198009D01*
X45507493Y51237717D01*
X45509748Y51241092D01*
X45519122Y51263732D01*
X45523899Y51287766D01*
X45523895Y51312270D01*
X45519111Y51336303D01*
X45509731Y51358940D01*
X45507479Y51362311D01*
X45502643Y51371358D01*
X45472928Y51426949D01*
X45454630Y51487269D01*
X45448452Y51550000D01*
X45454630Y51612731D01*
X45472928Y51673051D01*
X45486269Y51698009D01*
X45507493Y51737717D01*
X45509748Y51741092D01*
X45519122Y51763732D01*
X45523899Y51787766D01*
X45523895Y51812270D01*
X45519111Y51836303D01*
X45509731Y51858940D01*
X45507479Y51862311D01*
X45502643Y51871358D01*
X45472928Y51926949D01*
X45454630Y51987269D01*
X45448452Y52050000D01*
X45454630Y52112731D01*
X45472928Y52173051D01*
X45486269Y52198009D01*
X45507493Y52237717D01*
X45509748Y52241092D01*
X45519122Y52263732D01*
X45523899Y52287766D01*
X45523895Y52312270D01*
X45519111Y52336303D01*
X45509731Y52358940D01*
X45507479Y52362311D01*
X45481120Y52411624D01*
X45472928Y52426949D01*
X45454630Y52487269D01*
X45448452Y52550000D01*
X45454630Y52612731D01*
X45472928Y52673051D01*
X45486269Y52698009D01*
X45507493Y52737717D01*
X45509748Y52741092D01*
X45519122Y52763732D01*
X45523899Y52787766D01*
X45523895Y52812270D01*
X45519111Y52836303D01*
X45509731Y52858940D01*
X45507479Y52862311D01*
X45501499Y52873498D01*
X45472928Y52926949D01*
X45454630Y52987269D01*
X45448452Y53050000D01*
X45454630Y53112731D01*
X45472928Y53173051D01*
X45486269Y53198009D01*
X45507493Y53237717D01*
X45509748Y53241092D01*
X45519122Y53263732D01*
X45523899Y53287766D01*
X45523896Y53312234D01*
X47976101Y53312234D01*
X47976105Y53287730D01*
X47980889Y53263697D01*
X47990269Y53241060D01*
X47992521Y53237689D01*
X47997356Y53228643D01*
X47997357Y53228642D01*
X48027072Y53173051D01*
X48045370Y53112731D01*
X48051548Y53050000D01*
X48045370Y52987269D01*
X48027072Y52926949D01*
X48013731Y52901991D01*
X47992507Y52862283D01*
X47990252Y52858908D01*
X47980878Y52836268D01*
X47976101Y52812234D01*
X47976105Y52787730D01*
X47980889Y52763697D01*
X47990269Y52741060D01*
X47992521Y52737689D01*
X47997356Y52728643D01*
X47997357Y52728642D01*
X48027072Y52673051D01*
X48045370Y52612731D01*
X48051548Y52550000D01*
X48045370Y52487269D01*
X48027072Y52426949D01*
X48018881Y52411625D01*
X47992507Y52362283D01*
X47990252Y52358908D01*
X47980878Y52336268D01*
X47976101Y52312234D01*
X47976105Y52287730D01*
X47980889Y52263697D01*
X47990269Y52241060D01*
X47992521Y52237689D01*
X47997356Y52228643D01*
X47997357Y52228642D01*
X48027072Y52173051D01*
X48045370Y52112731D01*
X48051548Y52050000D01*
X48045370Y51987269D01*
X48027072Y51926949D01*
X48013731Y51901991D01*
X47992507Y51862283D01*
X47990252Y51858908D01*
X47980878Y51836268D01*
X47976101Y51812234D01*
X47976105Y51787730D01*
X47980889Y51763697D01*
X47990269Y51741060D01*
X47992521Y51737689D01*
X47997356Y51728643D01*
X47997357Y51728642D01*
X48027072Y51673051D01*
X48045370Y51612731D01*
X48051548Y51550000D01*
X48045370Y51487269D01*
X48027072Y51426949D01*
X48013731Y51401991D01*
X47992507Y51362283D01*
X47990252Y51358908D01*
X47980878Y51336268D01*
X47976101Y51312234D01*
X47976105Y51287730D01*
X47980889Y51263697D01*
X47990269Y51241060D01*
X47992521Y51237689D01*
X47997356Y51228643D01*
X47997357Y51228642D01*
X48027072Y51173051D01*
X48045370Y51112731D01*
X48051548Y51050000D01*
X48045370Y50987269D01*
X48027072Y50926949D01*
X48013731Y50901991D01*
X47992507Y50862283D01*
X47990252Y50858908D01*
X47980878Y50836268D01*
X47976101Y50812234D01*
X47976105Y50787730D01*
X47980889Y50763697D01*
X47990269Y50741060D01*
X47992521Y50737689D01*
X47997356Y50728643D01*
X47997357Y50728642D01*
X48027072Y50673051D01*
X48045370Y50612731D01*
X48051548Y50550000D01*
X48045370Y50487269D01*
X48027072Y50426949D01*
X48013731Y50401991D01*
X47992507Y50362283D01*
X47990252Y50358908D01*
X47980878Y50336268D01*
X47976101Y50312234D01*
X47976105Y50287730D01*
X47980889Y50263697D01*
X47990269Y50241060D01*
X47992521Y50237689D01*
X47997356Y50228643D01*
X47997357Y50228642D01*
X48027072Y50173051D01*
X48045370Y50112731D01*
X48051548Y50050000D01*
X48045370Y49987269D01*
X48027072Y49926949D01*
X48013731Y49901991D01*
X47992507Y49862283D01*
X47990252Y49858908D01*
X47980878Y49836268D01*
X47976101Y49812234D01*
X47976105Y49787730D01*
X47980889Y49763697D01*
X47990269Y49741060D01*
X47992521Y49737689D01*
X47997356Y49728643D01*
X47997357Y49728642D01*
X48027072Y49673051D01*
X48045370Y49612731D01*
X48051548Y49550000D01*
X48045370Y49487269D01*
X48027072Y49426949D01*
X48013731Y49401991D01*
X47992507Y49362283D01*
X47990252Y49358908D01*
X47980878Y49336268D01*
X47976101Y49312234D01*
X47976105Y49287730D01*
X47980889Y49263697D01*
X47990269Y49241060D01*
X47992521Y49237689D01*
X47997356Y49228643D01*
X47997357Y49228642D01*
X48027072Y49173051D01*
X48045370Y49112731D01*
X48051548Y49050000D01*
X48045370Y48987269D01*
X48027072Y48926949D01*
X48013731Y48901991D01*
X47992507Y48862283D01*
X47990252Y48858908D01*
X47980878Y48836268D01*
X47976101Y48812234D01*
X47976105Y48787730D01*
X47980889Y48763697D01*
X47990269Y48741060D01*
X47992521Y48737689D01*
X47997356Y48728643D01*
X47997357Y48728642D01*
X48027072Y48673051D01*
X48045370Y48612731D01*
X48051548Y48550000D01*
X48045370Y48487269D01*
X48027072Y48426949D01*
X48018881Y48411625D01*
X47992507Y48362283D01*
X47990252Y48358908D01*
X47980878Y48336268D01*
X47976101Y48312234D01*
X47976105Y48287730D01*
X47980889Y48263697D01*
X47990269Y48241060D01*
X47992521Y48237689D01*
X48027072Y48173051D01*
X48041653Y48124984D01*
X48051031Y48102345D01*
X48064644Y48081970D01*
X48081971Y48064643D01*
X48102346Y48051030D01*
X48124981Y48041654D01*
X48153959Y48032863D01*
X48173051Y48027072D01*
X48237709Y47992510D01*
X48241085Y47990255D01*
X48263724Y47980880D01*
X48287758Y47976101D01*
X48312262Y47976103D01*
X48336295Y47980885D01*
X48358933Y47990264D01*
X48362307Y47992520D01*
X48404747Y48015204D01*
X48426949Y48027072D01*
X48487269Y48045370D01*
X48550000Y48051548D01*
X48612730Y48045370D01*
X48673050Y48027072D01*
X48726782Y47998351D01*
X48737709Y47992510D01*
X48741085Y47990255D01*
X48763724Y47980880D01*
X48787758Y47976101D01*
X48812262Y47976103D01*
X48836295Y47980885D01*
X48858933Y47990264D01*
X48862307Y47992520D01*
X48904747Y48015204D01*
X48926949Y48027072D01*
X48987269Y48045370D01*
X49050000Y48051548D01*
X49112730Y48045370D01*
X49173050Y48027072D01*
X49226782Y47998351D01*
X49237709Y47992510D01*
X49241085Y47990255D01*
X49263724Y47980880D01*
X49287758Y47976101D01*
X49312262Y47976103D01*
X49336295Y47980885D01*
X49358933Y47990264D01*
X49362307Y47992520D01*
X49404747Y48015204D01*
X49426949Y48027072D01*
X49487269Y48045370D01*
X49550000Y48051548D01*
X49612730Y48045370D01*
X49673050Y48027072D01*
X49726782Y47998351D01*
X49737709Y47992510D01*
X49741085Y47990255D01*
X49763724Y47980880D01*
X49787758Y47976101D01*
X49812262Y47976103D01*
X49836295Y47980885D01*
X49858933Y47990264D01*
X49862307Y47992520D01*
X49904747Y48015204D01*
X49926949Y48027072D01*
X49987269Y48045370D01*
X50050000Y48051548D01*
X50112730Y48045370D01*
X50173050Y48027072D01*
X50226782Y47998351D01*
X50237709Y47992510D01*
X50241085Y47990255D01*
X50263724Y47980880D01*
X50287758Y47976101D01*
X50312262Y47976103D01*
X50336295Y47980885D01*
X50358933Y47990264D01*
X50362307Y47992520D01*
X50404747Y48015204D01*
X50426949Y48027072D01*
X50487269Y48045370D01*
X50550000Y48051548D01*
X50612730Y48045370D01*
X50673050Y48027072D01*
X50726782Y47998351D01*
X50737709Y47992510D01*
X50741085Y47990255D01*
X50763724Y47980880D01*
X50787758Y47976101D01*
X50812262Y47976103D01*
X50836295Y47980885D01*
X50858933Y47990264D01*
X50862307Y47992520D01*
X50904747Y48015204D01*
X50926949Y48027072D01*
X50987269Y48045370D01*
X51050000Y48051548D01*
X51112730Y48045370D01*
X51173050Y48027072D01*
X51226782Y47998351D01*
X51237709Y47992510D01*
X51241085Y47990255D01*
X51263724Y47980880D01*
X51287758Y47976101D01*
X51312262Y47976103D01*
X51336295Y47980885D01*
X51358933Y47990264D01*
X51362307Y47992520D01*
X51404747Y48015204D01*
X51426949Y48027072D01*
X51487269Y48045370D01*
X51550000Y48051548D01*
X51612730Y48045370D01*
X51673050Y48027072D01*
X51726782Y47998351D01*
X51737709Y47992510D01*
X51741085Y47990255D01*
X51763724Y47980880D01*
X51787758Y47976101D01*
X51812262Y47976103D01*
X51836295Y47980885D01*
X51858933Y47990264D01*
X51862307Y47992520D01*
X51904747Y48015204D01*
X51926949Y48027072D01*
X51987269Y48045370D01*
X52050000Y48051548D01*
X52112730Y48045370D01*
X52173050Y48027072D01*
X52226782Y47998351D01*
X52237709Y47992510D01*
X52241085Y47990255D01*
X52263724Y47980880D01*
X52287758Y47976101D01*
X52312262Y47976103D01*
X52336295Y47980885D01*
X52358933Y47990264D01*
X52362307Y47992520D01*
X52404747Y48015204D01*
X52426949Y48027072D01*
X52487269Y48045370D01*
X52550000Y48051548D01*
X52612730Y48045370D01*
X52673050Y48027072D01*
X52726782Y47998351D01*
X52737709Y47992510D01*
X52741085Y47990255D01*
X52763724Y47980880D01*
X52787758Y47976101D01*
X52812262Y47976103D01*
X52836295Y47980885D01*
X52858933Y47990264D01*
X52862307Y47992520D01*
X52904747Y48015204D01*
X52926949Y48027072D01*
X52987269Y48045370D01*
X53050000Y48051548D01*
X53112730Y48045370D01*
X53173050Y48027072D01*
X53226782Y47998351D01*
X53237709Y47992510D01*
X53241085Y47990255D01*
X53263724Y47980880D01*
X53287758Y47976101D01*
X53312262Y47976103D01*
X53336295Y47980885D01*
X53358933Y47990264D01*
X53362307Y47992520D01*
X53426950Y48027073D01*
X53455889Y48035851D01*
X53475018Y48041654D01*
X53497653Y48051029D01*
X53518028Y48064642D01*
X53535355Y48081969D01*
X53548969Y48102343D01*
X53558348Y48124986D01*
X53572927Y48173050D01*
X53607493Y48237717D01*
X53609748Y48241092D01*
X53619122Y48263732D01*
X53623899Y48287766D01*
X53623895Y48312270D01*
X53619111Y48336303D01*
X53609731Y48358940D01*
X53607479Y48362311D01*
X53581120Y48411624D01*
X53572928Y48426949D01*
X53554630Y48487269D01*
X53548452Y48550000D01*
X53554630Y48612731D01*
X53572928Y48673051D01*
X53586269Y48698009D01*
X53607493Y48737717D01*
X53609748Y48741092D01*
X53619122Y48763732D01*
X53623899Y48787766D01*
X53623895Y48812270D01*
X53619111Y48836303D01*
X53609731Y48858940D01*
X53607479Y48862311D01*
X53602643Y48871358D01*
X53572928Y48926949D01*
X53554630Y48987269D01*
X53548452Y49050000D01*
X53554630Y49112731D01*
X53572928Y49173051D01*
X53586269Y49198009D01*
X53607493Y49237717D01*
X53609748Y49241092D01*
X53619122Y49263732D01*
X53623899Y49287766D01*
X53623895Y49312270D01*
X53619111Y49336303D01*
X53609731Y49358940D01*
X53607479Y49362311D01*
X53602643Y49371358D01*
X53572928Y49426949D01*
X53554630Y49487269D01*
X53548452Y49550000D01*
X53554630Y49612731D01*
X53572928Y49673051D01*
X53586269Y49698009D01*
X53607493Y49737717D01*
X53609748Y49741092D01*
X53619122Y49763732D01*
X53623899Y49787766D01*
X53623895Y49812270D01*
X53619111Y49836303D01*
X53609731Y49858940D01*
X53607479Y49862311D01*
X53602643Y49871358D01*
X53572928Y49926949D01*
X53554630Y49987269D01*
X53548452Y50050000D01*
X53554630Y50112731D01*
X53572928Y50173051D01*
X53586269Y50198009D01*
X53607493Y50237717D01*
X53609748Y50241092D01*
X53619122Y50263732D01*
X53623899Y50287766D01*
X53623895Y50312270D01*
X53619111Y50336303D01*
X53609731Y50358940D01*
X53607479Y50362311D01*
X53591075Y50393000D01*
X53572928Y50426949D01*
X53554630Y50487269D01*
X53548452Y50550000D01*
X53554630Y50612731D01*
X53572928Y50673051D01*
X53586269Y50698009D01*
X53607493Y50737717D01*
X53609748Y50741092D01*
X53619122Y50763732D01*
X53623899Y50787766D01*
X53623895Y50812270D01*
X53619111Y50836303D01*
X53609731Y50858940D01*
X53607479Y50862311D01*
X53591075Y50893000D01*
X53572928Y50926949D01*
X53554630Y50987269D01*
X53548452Y51050000D01*
X53554630Y51112731D01*
X53572928Y51173051D01*
X53586269Y51198009D01*
X53607493Y51237717D01*
X53609748Y51241092D01*
X53619122Y51263732D01*
X53623899Y51287766D01*
X53623895Y51312270D01*
X53619111Y51336303D01*
X53609731Y51358940D01*
X53607479Y51362311D01*
X53602643Y51371358D01*
X53572928Y51426949D01*
X53554630Y51487269D01*
X53548452Y51550000D01*
X53554630Y51612731D01*
X53572928Y51673051D01*
X53586269Y51698009D01*
X53607493Y51737717D01*
X53609748Y51741092D01*
X53619122Y51763732D01*
X53623899Y51787766D01*
X53623895Y51812270D01*
X53619111Y51836303D01*
X53609731Y51858940D01*
X53607479Y51862311D01*
X53602643Y51871358D01*
X53572928Y51926949D01*
X53554630Y51987269D01*
X53548452Y52050000D01*
X53554630Y52112731D01*
X53572928Y52173051D01*
X53586269Y52198009D01*
X53607493Y52237717D01*
X53609748Y52241092D01*
X53619122Y52263732D01*
X53623899Y52287766D01*
X53623895Y52312270D01*
X53619111Y52336303D01*
X53609731Y52358940D01*
X53607479Y52362311D01*
X53581120Y52411624D01*
X53572928Y52426949D01*
X53554630Y52487269D01*
X53548452Y52550000D01*
X53554630Y52612731D01*
X53572928Y52673051D01*
X53586269Y52698009D01*
X53607493Y52737717D01*
X53609748Y52741092D01*
X53619122Y52763732D01*
X53623899Y52787766D01*
X53623895Y52812270D01*
X53619111Y52836303D01*
X53609731Y52858940D01*
X53607479Y52862311D01*
X53601499Y52873498D01*
X53572928Y52926949D01*
X53554630Y52987269D01*
X53548452Y53050000D01*
X53554630Y53112731D01*
X53572928Y53173051D01*
X53586269Y53198009D01*
X53607493Y53237717D01*
X53609748Y53241092D01*
X53619122Y53263732D01*
X53623899Y53287766D01*
X53623895Y53312270D01*
X53619111Y53336303D01*
X53609731Y53358940D01*
X53607479Y53362311D01*
X53572928Y53426949D01*
X53558347Y53475016D01*
X53548969Y53497655D01*
X53535356Y53518030D01*
X53518029Y53535357D01*
X53497654Y53548970D01*
X53475019Y53558346D01*
X53446041Y53567137D01*
X53426949Y53572928D01*
X53362323Y53607473D01*
X53358951Y53609727D01*
X53336314Y53619109D01*
X53312282Y53623895D01*
X53287778Y53623901D01*
X53263743Y53619126D01*
X53241102Y53609754D01*
X53237721Y53607496D01*
X53228642Y53602643D01*
X53173051Y53572928D01*
X53112731Y53554630D01*
X53050000Y53548452D01*
X52987270Y53554630D01*
X52926950Y53572928D01*
X52871359Y53602643D01*
X52862323Y53607473D01*
X52858951Y53609727D01*
X52836314Y53619109D01*
X52812282Y53623895D01*
X52787778Y53623901D01*
X52763743Y53619126D01*
X52741102Y53609754D01*
X52737721Y53607496D01*
X52728642Y53602643D01*
X52673051Y53572928D01*
X52612731Y53554630D01*
X52550000Y53548452D01*
X52487270Y53554630D01*
X52426950Y53572928D01*
X52371359Y53602643D01*
X52362323Y53607473D01*
X52358951Y53609727D01*
X52336314Y53619109D01*
X52312282Y53623895D01*
X52287778Y53623901D01*
X52263743Y53619126D01*
X52241102Y53609754D01*
X52237721Y53607496D01*
X52228642Y53602643D01*
X52173051Y53572928D01*
X52112731Y53554630D01*
X52050000Y53548452D01*
X51987270Y53554630D01*
X51926950Y53572928D01*
X51871359Y53602643D01*
X51862323Y53607473D01*
X51858951Y53609727D01*
X51836314Y53619109D01*
X51812282Y53623895D01*
X51787778Y53623901D01*
X51763743Y53619126D01*
X51741102Y53609754D01*
X51737721Y53607496D01*
X51728642Y53602643D01*
X51673051Y53572928D01*
X51612731Y53554630D01*
X51550000Y53548452D01*
X51487270Y53554630D01*
X51426950Y53572928D01*
X51371359Y53602643D01*
X51362323Y53607473D01*
X51358951Y53609727D01*
X51336314Y53619109D01*
X51312282Y53623895D01*
X51287778Y53623901D01*
X51263743Y53619126D01*
X51241102Y53609754D01*
X51237721Y53607496D01*
X51228642Y53602643D01*
X51173051Y53572928D01*
X51112731Y53554630D01*
X51050000Y53548452D01*
X50987270Y53554630D01*
X50926950Y53572928D01*
X50871359Y53602643D01*
X50862323Y53607473D01*
X50858951Y53609727D01*
X50836314Y53619109D01*
X50812282Y53623895D01*
X50787778Y53623901D01*
X50763743Y53619126D01*
X50741102Y53609754D01*
X50737721Y53607496D01*
X50728642Y53602643D01*
X50673051Y53572928D01*
X50612731Y53554630D01*
X50550000Y53548452D01*
X50487270Y53554630D01*
X50426950Y53572928D01*
X50371359Y53602643D01*
X50362323Y53607473D01*
X50358951Y53609727D01*
X50336314Y53619109D01*
X50312282Y53623895D01*
X50287778Y53623901D01*
X50263743Y53619126D01*
X50241102Y53609754D01*
X50237721Y53607496D01*
X50228642Y53602643D01*
X50173051Y53572928D01*
X50112731Y53554630D01*
X50050000Y53548452D01*
X49987270Y53554630D01*
X49926950Y53572928D01*
X49871359Y53602643D01*
X49862323Y53607473D01*
X49858951Y53609727D01*
X49836314Y53619109D01*
X49812282Y53623895D01*
X49787778Y53623901D01*
X49763743Y53619126D01*
X49741102Y53609754D01*
X49737721Y53607496D01*
X49728642Y53602643D01*
X49673051Y53572928D01*
X49612731Y53554630D01*
X49550000Y53548452D01*
X49487270Y53554630D01*
X49426950Y53572928D01*
X49371359Y53602643D01*
X49362323Y53607473D01*
X49358951Y53609727D01*
X49336314Y53619109D01*
X49312282Y53623895D01*
X49287778Y53623901D01*
X49263743Y53619126D01*
X49241102Y53609754D01*
X49237721Y53607496D01*
X49228642Y53602643D01*
X49173051Y53572928D01*
X49112731Y53554630D01*
X49050000Y53548452D01*
X48987270Y53554630D01*
X48926950Y53572928D01*
X48871359Y53602643D01*
X48862323Y53607473D01*
X48858951Y53609727D01*
X48836314Y53619109D01*
X48812282Y53623895D01*
X48787778Y53623901D01*
X48763743Y53619126D01*
X48741102Y53609754D01*
X48737721Y53607496D01*
X48728642Y53602643D01*
X48673051Y53572928D01*
X48612731Y53554630D01*
X48550000Y53548452D01*
X48487270Y53554630D01*
X48426950Y53572928D01*
X48371359Y53602643D01*
X48362323Y53607473D01*
X48358951Y53609727D01*
X48336314Y53619109D01*
X48312282Y53623895D01*
X48287778Y53623901D01*
X48263743Y53619126D01*
X48241102Y53609754D01*
X48237721Y53607496D01*
X48173050Y53572927D01*
X48144111Y53564149D01*
X48124982Y53558346D01*
X48102347Y53548971D01*
X48081972Y53535358D01*
X48064645Y53518031D01*
X48051031Y53497657D01*
X48041652Y53475014D01*
X48027073Y53426950D01*
X47992507Y53362283D01*
X47990252Y53358908D01*
X47980878Y53336268D01*
X47976101Y53312234D01*
X45523896Y53312234D01*
X45523895Y53312270D01*
X45519111Y53336303D01*
X45509731Y53358940D01*
X45507479Y53362311D01*
X45502643Y53371358D01*
X45472928Y53426949D01*
X45454630Y53487269D01*
X45448452Y53550000D01*
X45454630Y53612731D01*
X45472928Y53673051D01*
X45502643Y53728642D01*
X45542631Y53777369D01*
X45591358Y53817357D01*
X45646949Y53847072D01*
X45707269Y53865370D01*
X45754280Y53870000D01*
X47605002Y53870000D01*
X47629388Y53872402D01*
X47652837Y53879515D01*
X47674448Y53891066D01*
X47693390Y53906611D01*
X47708935Y53925553D01*
X47720486Y53947164D01*
X47727599Y53970613D01*
X47730001Y53994999D01*
X47730001Y54894973D01*
X47730000Y55845717D01*
X47734630Y55892730D01*
X47752928Y55953050D01*
X47767785Y55980845D01*
X47782643Y56008642D01*
X47800668Y56030605D01*
X47822631Y56057369D01*
X47871358Y56097357D01*
X47926949Y56127072D01*
X47987269Y56145370D01*
X48050000Y56151548D01*
X48112730Y56145370D01*
X48173050Y56127072D01*
X48226782Y56098351D01*
X48237709Y56092510D01*
X48241085Y56090255D01*
X48263724Y56080880D01*
X48287758Y56076101D01*
X48312262Y56076103D01*
X48336295Y56080885D01*
X48358933Y56090264D01*
X48362307Y56092520D01*
X48404747Y56115204D01*
X48426949Y56127072D01*
X48487269Y56145370D01*
X48550000Y56151548D01*
X48612730Y56145370D01*
X48673050Y56127072D01*
X48726782Y56098351D01*
X48737709Y56092510D01*
X48741085Y56090255D01*
X48763724Y56080880D01*
X48787758Y56076101D01*
X48812262Y56076103D01*
X48836295Y56080885D01*
X48858933Y56090264D01*
X48862307Y56092520D01*
X48904747Y56115204D01*
X48926949Y56127072D01*
X48987269Y56145370D01*
X49050000Y56151548D01*
X49112730Y56145370D01*
X49173050Y56127072D01*
X49226782Y56098351D01*
X49237709Y56092510D01*
X49241085Y56090255D01*
X49263724Y56080880D01*
X49287758Y56076101D01*
X49312262Y56076103D01*
X49336295Y56080885D01*
X49358933Y56090264D01*
X49362307Y56092520D01*
X49404747Y56115204D01*
X49426949Y56127072D01*
X49487269Y56145370D01*
X49550000Y56151548D01*
X49612730Y56145370D01*
X49673050Y56127072D01*
X49726782Y56098351D01*
X49737709Y56092510D01*
X49741085Y56090255D01*
X49763724Y56080880D01*
X49787758Y56076101D01*
X49812262Y56076103D01*
X49836295Y56080885D01*
X49858933Y56090264D01*
X49862307Y56092520D01*
X49904747Y56115204D01*
X49926949Y56127072D01*
X49987269Y56145370D01*
X50050000Y56151548D01*
X50112730Y56145370D01*
X50173050Y56127072D01*
X50226782Y56098351D01*
X50237709Y56092510D01*
X50241085Y56090255D01*
X50263724Y56080880D01*
X50287758Y56076101D01*
X50312262Y56076103D01*
X50336295Y56080885D01*
X50358933Y56090264D01*
X50362307Y56092520D01*
X50404747Y56115204D01*
X50426949Y56127072D01*
X50487269Y56145370D01*
X50550000Y56151548D01*
X50612730Y56145370D01*
X50673050Y56127072D01*
X50726782Y56098351D01*
X50737709Y56092510D01*
X50741085Y56090255D01*
X50763724Y56080880D01*
X50787758Y56076101D01*
X50812262Y56076103D01*
X50836295Y56080885D01*
X50858933Y56090264D01*
X50862307Y56092520D01*
X50904747Y56115204D01*
X50926949Y56127072D01*
X50987269Y56145370D01*
X51050000Y56151548D01*
X51112730Y56145370D01*
X51173050Y56127072D01*
X51226782Y56098351D01*
X51237709Y56092510D01*
X51241085Y56090255D01*
X51263724Y56080880D01*
X51287758Y56076101D01*
X51312262Y56076103D01*
X51336295Y56080885D01*
X51358933Y56090264D01*
X51362307Y56092520D01*
X51404747Y56115204D01*
X51426949Y56127072D01*
X51487269Y56145370D01*
X51550000Y56151548D01*
X51612730Y56145370D01*
X51673050Y56127072D01*
X51726782Y56098351D01*
X51737709Y56092510D01*
X51741085Y56090255D01*
X51763724Y56080880D01*
X51787758Y56076101D01*
X51812262Y56076103D01*
X51836295Y56080885D01*
X51858933Y56090264D01*
X51862307Y56092520D01*
X51904747Y56115204D01*
X51926949Y56127072D01*
X51987269Y56145370D01*
X52050000Y56151548D01*
X52112730Y56145370D01*
X52173050Y56127072D01*
X52226782Y56098351D01*
X52237709Y56092510D01*
X52241085Y56090255D01*
X52263724Y56080880D01*
X52287758Y56076101D01*
X52312262Y56076103D01*
X52336295Y56080885D01*
X52358933Y56090264D01*
X52362307Y56092520D01*
X52404747Y56115204D01*
X52426949Y56127072D01*
X52487269Y56145370D01*
X52550000Y56151548D01*
X52612730Y56145370D01*
X52673050Y56127072D01*
X52726782Y56098351D01*
X52737709Y56092510D01*
X52741085Y56090255D01*
X52763724Y56080880D01*
X52787758Y56076101D01*
X52812262Y56076103D01*
X52836295Y56080885D01*
X52858933Y56090264D01*
X52862307Y56092520D01*
X52904747Y56115204D01*
X52926949Y56127072D01*
X52987269Y56145370D01*
X53050000Y56151548D01*
X53112730Y56145370D01*
X53173050Y56127072D01*
X53226782Y56098351D01*
X53237709Y56092510D01*
X53241085Y56090255D01*
X53263724Y56080880D01*
X53287758Y56076101D01*
X53312262Y56076103D01*
X53336295Y56080885D01*
X53358933Y56090264D01*
X53362307Y56092520D01*
X53404747Y56115204D01*
X53426949Y56127072D01*
X53487269Y56145370D01*
X53550000Y56151548D01*
X53612730Y56145370D01*
X53612730Y56145370D01*
G37*
G36*
X52945843Y49280786D02*
G01*
X52945846Y49280785D01*
X52945845Y49280785D01*
X53036839Y49243094D01*
X53039835Y49241092D01*
X53118730Y49188376D01*
X53188376Y49118730D01*
X53243095Y49036837D01*
X53280786Y48945843D01*
X53300000Y48849247D01*
X53300000Y48750753D01*
X53280786Y48654157D01*
X53280785Y48654155D01*
X53243094Y48563161D01*
X53188375Y48481269D01*
X53118731Y48411625D01*
X53036839Y48356906D01*
X53036838Y48356905D01*
X53036837Y48356905D01*
X52945843Y48319214D01*
X52849247Y48300000D01*
X52750753Y48300000D01*
X52654157Y48319214D01*
X52563163Y48356905D01*
X52563162Y48356905D01*
X52563161Y48356906D01*
X52481269Y48411625D01*
X52411625Y48481269D01*
X52356906Y48563161D01*
X52319215Y48654155D01*
X52319214Y48654157D01*
X52300000Y48750753D01*
X52300000Y48849247D01*
X52319214Y48945843D01*
X52356905Y49036837D01*
X52411624Y49118730D01*
X52481270Y49188376D01*
X52560165Y49241092D01*
X52563161Y49243094D01*
X52654155Y49280785D01*
X52654154Y49280785D01*
X52654157Y49280786D01*
X52750753Y49300000D01*
X52849247Y49300000D01*
X52945843Y49280786D01*
X52945843Y49280786D01*
G37*
G36*
X48945843Y49280786D02*
G01*
X48945846Y49280785D01*
X48945845Y49280785D01*
X49036839Y49243094D01*
X49039835Y49241092D01*
X49118730Y49188376D01*
X49188376Y49118730D01*
X49243095Y49036837D01*
X49280786Y48945843D01*
X49300000Y48849247D01*
X49300000Y48750753D01*
X49280786Y48654157D01*
X49280785Y48654155D01*
X49243094Y48563161D01*
X49188375Y48481269D01*
X49118731Y48411625D01*
X49036839Y48356906D01*
X49036838Y48356905D01*
X49036837Y48356905D01*
X48945843Y48319214D01*
X48849247Y48300000D01*
X48750753Y48300000D01*
X48654157Y48319214D01*
X48563163Y48356905D01*
X48563162Y48356905D01*
X48563161Y48356906D01*
X48481269Y48411625D01*
X48411625Y48481269D01*
X48356906Y48563161D01*
X48319215Y48654155D01*
X48319214Y48654157D01*
X48300000Y48750753D01*
X48300000Y48849247D01*
X48319214Y48945843D01*
X48356905Y49036837D01*
X48411624Y49118730D01*
X48481270Y49188376D01*
X48560165Y49241092D01*
X48563161Y49243094D01*
X48654155Y49280785D01*
X48654154Y49280785D01*
X48654157Y49280786D01*
X48750753Y49300000D01*
X48849247Y49300000D01*
X48945843Y49280786D01*
X48945843Y49280786D01*
G37*
G36*
X52945843Y53280786D02*
G01*
X52945846Y53280785D01*
X52945845Y53280785D01*
X53036839Y53243094D01*
X53039835Y53241092D01*
X53118730Y53188376D01*
X53188376Y53118730D01*
X53243095Y53036837D01*
X53280786Y52945843D01*
X53300000Y52849247D01*
X53300000Y52750753D01*
X53280786Y52654157D01*
X53280785Y52654155D01*
X53243094Y52563161D01*
X53188375Y52481269D01*
X53118731Y52411625D01*
X53036839Y52356906D01*
X53036838Y52356905D01*
X53036837Y52356905D01*
X52945843Y52319214D01*
X52849247Y52300000D01*
X52750753Y52300000D01*
X52654157Y52319214D01*
X52563163Y52356905D01*
X52563162Y52356905D01*
X52563161Y52356906D01*
X52481269Y52411625D01*
X52411625Y52481269D01*
X52356906Y52563161D01*
X52319215Y52654155D01*
X52319214Y52654157D01*
X52300000Y52750753D01*
X52300000Y52849247D01*
X52319214Y52945843D01*
X52356905Y53036837D01*
X52411624Y53118730D01*
X52481270Y53188376D01*
X52560165Y53241092D01*
X52563161Y53243094D01*
X52654155Y53280785D01*
X52654154Y53280785D01*
X52654157Y53280786D01*
X52750753Y53300000D01*
X52849247Y53300000D01*
X52945843Y53280786D01*
X52945843Y53280786D01*
G37*
G36*
X48945843Y53280786D02*
G01*
X48945846Y53280785D01*
X48945845Y53280785D01*
X49036839Y53243094D01*
X49039835Y53241092D01*
X49118730Y53188376D01*
X49188376Y53118730D01*
X49243095Y53036837D01*
X49280786Y52945843D01*
X49300000Y52849247D01*
X49300000Y52750753D01*
X49280786Y52654157D01*
X49280785Y52654155D01*
X49243094Y52563161D01*
X49188375Y52481269D01*
X49118731Y52411625D01*
X49036839Y52356906D01*
X49036838Y52356905D01*
X49036837Y52356905D01*
X48945843Y52319214D01*
X48849247Y52300000D01*
X48750753Y52300000D01*
X48654157Y52319214D01*
X48563163Y52356905D01*
X48563162Y52356905D01*
X48563161Y52356906D01*
X48481269Y52411625D01*
X48411625Y52481269D01*
X48356906Y52563161D01*
X48319215Y52654155D01*
X48319214Y52654157D01*
X48300000Y52750753D01*
X48300000Y52849247D01*
X48319214Y52945843D01*
X48356905Y53036837D01*
X48411624Y53118730D01*
X48481270Y53188376D01*
X48560165Y53241092D01*
X48563161Y53243094D01*
X48654155Y53280785D01*
X48654154Y53280785D01*
X48654157Y53280786D01*
X48750753Y53300000D01*
X48849247Y53300000D01*
X48945843Y53280786D01*
X48945843Y53280786D01*
G37*
G36*
X35950000Y45650000D02*
G01*
X34250000Y45650000D01*
X34250000Y46950000D01*
X35950000Y46950000D01*
X35950000Y45650000D01*
X35950000Y45650000D01*
G37*
G36*
X39250000Y45650000D02*
G01*
X37550000Y45650000D01*
X37550000Y46950000D01*
X39250000Y46950000D01*
X39250000Y45650000D01*
X39250000Y45650000D01*
G37*
G36*
X42550000Y45650000D02*
G01*
X40850000Y45650000D01*
X40850000Y46950000D01*
X42550000Y46950000D01*
X42550000Y45650000D01*
X42550000Y45650000D01*
G37*
G36*
X7847290Y47964381D02*
G01*
X7911689Y47951571D01*
X8093678Y47876189D01*
X8257463Y47766751D01*
X8396751Y47627463D01*
X8506189Y47463678D01*
X8581571Y47281689D01*
X8620000Y47088491D01*
X8620000Y46891509D01*
X8581571Y46698311D01*
X8506189Y46516322D01*
X8396751Y46352537D01*
X8257463Y46213249D01*
X8093678Y46103811D01*
X7911689Y46028429D01*
X7847290Y46015619D01*
X7718493Y45990000D01*
X7521507Y45990000D01*
X7392710Y46015619D01*
X7328311Y46028429D01*
X7146322Y46103811D01*
X6982537Y46213249D01*
X6843249Y46352537D01*
X6733811Y46516322D01*
X6658429Y46698311D01*
X6620000Y46891509D01*
X6620000Y47088491D01*
X6658429Y47281689D01*
X6733811Y47463678D01*
X6843249Y47627463D01*
X6982537Y47766751D01*
X7146322Y47876189D01*
X7328311Y47951571D01*
X7392710Y47964381D01*
X7521507Y47990000D01*
X7718493Y47990000D01*
X7847290Y47964381D01*
X7847290Y47964381D01*
G37*
G36*
X6080000Y45990000D02*
G01*
X4080000Y45990000D01*
X4080000Y47990000D01*
X6080000Y47990000D01*
X6080000Y45990000D01*
X6080000Y45990000D01*
G37*
G36*
X27150000Y47410000D02*
G01*
X25850000Y47410000D01*
X25850000Y49110000D01*
X27150000Y49110000D01*
X27150000Y47410000D01*
X27150000Y47410000D01*
G37*
G36*
X13520000Y47410000D02*
G01*
X12220000Y47410000D01*
X12220000Y49110000D01*
X13520000Y49110000D01*
X13520000Y47410000D01*
X13520000Y47410000D01*
G37*
G36*
X24950000Y47410000D02*
G01*
X23650000Y47410000D01*
X23650000Y49110000D01*
X24950000Y49110000D01*
X24950000Y47410000D01*
X24950000Y47410000D01*
G37*
G36*
X15720000Y47410000D02*
G01*
X14420000Y47410000D01*
X14420000Y49110000D01*
X15720000Y49110000D01*
X15720000Y47410000D01*
X15720000Y47410000D01*
G37*
G36*
X77061000Y47664000D02*
G01*
X75761000Y47664000D01*
X75761000Y49364000D01*
X77061000Y49364000D01*
X77061000Y47664000D01*
X77061000Y47664000D01*
G37*
G36*
X74861000Y47664000D02*
G01*
X73561000Y47664000D01*
X73561000Y49364000D01*
X74861000Y49364000D01*
X74861000Y47664000D01*
X74861000Y47664000D01*
G37*
G36*
X82268000Y47664000D02*
G01*
X80968000Y47664000D01*
X80968000Y49364000D01*
X82268000Y49364000D01*
X82268000Y47664000D01*
X82268000Y47664000D01*
G37*
G36*
X80068000Y47664000D02*
G01*
X78768000Y47664000D01*
X78768000Y49364000D01*
X80068000Y49364000D01*
X80068000Y47664000D01*
X80068000Y47664000D01*
G37*
G36*
X70042187Y50487973D02*
G01*
X70219774Y50452650D01*
X70410862Y50373498D01*
X70582836Y50258589D01*
X70729089Y50112336D01*
X70843998Y49940362D01*
X70923150Y49749274D01*
X70950309Y49612731D01*
X70963500Y49546417D01*
X70963500Y49339583D01*
X70960128Y49322631D01*
X70923150Y49136726D01*
X70843998Y48945638D01*
X70729089Y48773664D01*
X70582836Y48627411D01*
X70410862Y48512502D01*
X70219774Y48433350D01*
X70042187Y48398027D01*
X70016917Y48393000D01*
X69810083Y48393000D01*
X69784813Y48398027D01*
X69607226Y48433350D01*
X69416138Y48512502D01*
X69244164Y48627411D01*
X69097911Y48773664D01*
X68983002Y48945638D01*
X68903850Y49136726D01*
X68866872Y49322631D01*
X68863500Y49339583D01*
X68863500Y49546417D01*
X68876691Y49612731D01*
X68903850Y49749274D01*
X68983002Y49940362D01*
X69097911Y50112336D01*
X69244164Y50258589D01*
X69416138Y50373498D01*
X69607226Y50452650D01*
X69784813Y50487973D01*
X69810083Y50493000D01*
X70016917Y50493000D01*
X70042187Y50487973D01*
X70042187Y50487973D01*
G37*
G36*
X61873500Y49093000D02*
G01*
X60173500Y49093000D01*
X60173500Y50393000D01*
X61873500Y50393000D01*
X61873500Y49093000D01*
X61873500Y49093000D01*
G37*
G36*
X65239000Y49093000D02*
G01*
X63539000Y49093000D01*
X63539000Y50393000D01*
X65239000Y50393000D01*
X65239000Y49093000D01*
X65239000Y49093000D01*
G37*
G36*
X70042187Y52987973D02*
G01*
X70219774Y52952650D01*
X70410862Y52873498D01*
X70582836Y52758589D01*
X70729089Y52612336D01*
X70843998Y52440362D01*
X70923150Y52249274D01*
X70950309Y52112731D01*
X70963500Y52046417D01*
X70963500Y51839583D01*
X70960128Y51822631D01*
X70923150Y51636726D01*
X70843998Y51445638D01*
X70729089Y51273664D01*
X70582836Y51127411D01*
X70410862Y51012502D01*
X70219774Y50933350D01*
X70042187Y50898027D01*
X70016917Y50893000D01*
X69810083Y50893000D01*
X69784813Y50898027D01*
X69607226Y50933350D01*
X69416138Y51012502D01*
X69244164Y51127411D01*
X69097911Y51273664D01*
X68983002Y51445638D01*
X68903850Y51636726D01*
X68866872Y51822631D01*
X68863500Y51839583D01*
X68863500Y52046417D01*
X68876691Y52112731D01*
X68903850Y52249274D01*
X68983002Y52440362D01*
X69097911Y52612336D01*
X69244164Y52758589D01*
X69416138Y52873498D01*
X69607226Y52952650D01*
X69784813Y52987973D01*
X69810083Y52993000D01*
X70016917Y52993000D01*
X70042187Y52987973D01*
X70042187Y52987973D01*
G37*
G36*
X77061000Y51093000D02*
G01*
X75761000Y51093000D01*
X75761000Y52793000D01*
X77061000Y52793000D01*
X77061000Y51093000D01*
X77061000Y51093000D01*
G37*
G36*
X74861000Y51093000D02*
G01*
X73561000Y51093000D01*
X73561000Y52793000D01*
X74861000Y52793000D01*
X74861000Y51093000D01*
X74861000Y51093000D01*
G37*
G36*
X65239000Y51293000D02*
G01*
X63539000Y51293000D01*
X63539000Y52593000D01*
X65239000Y52593000D01*
X65239000Y51293000D01*
X65239000Y51293000D01*
G37*
G36*
X61873500Y51293000D02*
G01*
X60173500Y51293000D01*
X60173500Y52593000D01*
X61873500Y52593000D01*
X61873500Y51293000D01*
X61873500Y51293000D01*
G37*
G36*
X31465026Y56398885D02*
G01*
X31683411Y56308427D01*
X31683413Y56308426D01*
X31879955Y56177101D01*
X32047101Y56009955D01*
X32156841Y55845718D01*
X32178427Y55813411D01*
X32268885Y55595026D01*
X32315000Y55363191D01*
X32315000Y55126809D01*
X32268885Y54894974D01*
X32178427Y54676589D01*
X32178426Y54676587D01*
X32047101Y54480045D01*
X31879955Y54312899D01*
X31683413Y54181574D01*
X31683412Y54181573D01*
X31683411Y54181573D01*
X31465026Y54091115D01*
X31233191Y54045000D01*
X30996809Y54045000D01*
X30764974Y54091115D01*
X30546589Y54181573D01*
X30546588Y54181573D01*
X30546587Y54181574D01*
X30350045Y54312899D01*
X30182899Y54480045D01*
X30051574Y54676587D01*
X30051573Y54676589D01*
X29961115Y54894974D01*
X29915000Y55126809D01*
X29915000Y55363191D01*
X29961115Y55595026D01*
X30051573Y55813411D01*
X30073160Y55845718D01*
X30182899Y56009955D01*
X30350045Y56177101D01*
X30546587Y56308426D01*
X30546589Y56308427D01*
X30764974Y56398885D01*
X30996809Y56445000D01*
X31233191Y56445000D01*
X31465026Y56398885D01*
X31465026Y56398885D01*
G37*
G36*
X42100000Y54500000D02*
G01*
X40400000Y54500000D01*
X40400000Y55800000D01*
X42100000Y55800000D01*
X42100000Y54500000D01*
X42100000Y54500000D01*
G37*
G36*
X73980000Y54830000D02*
G01*
X72480000Y54830000D01*
X72480000Y56930000D01*
X73980000Y56930000D01*
X73980000Y54830000D01*
X73980000Y54830000D01*
G37*
G36*
X77380000Y54830000D02*
G01*
X75880000Y54830000D01*
X75880000Y56930000D01*
X77380000Y56930000D01*
X77380000Y54830000D01*
X77380000Y54830000D01*
G37*
G36*
X84140000Y54830000D02*
G01*
X82640000Y54830000D01*
X82640000Y56930000D01*
X84140000Y56930000D01*
X84140000Y54830000D01*
X84140000Y54830000D01*
G37*
G36*
X87540000Y54830000D02*
G01*
X86040000Y54830000D01*
X86040000Y56930000D01*
X87540000Y56930000D01*
X87540000Y54830000D01*
X87540000Y54830000D01*
G37*
G36*
X35745000Y55665000D02*
G01*
X34445000Y55665000D01*
X34445000Y57365000D01*
X35745000Y57365000D01*
X35745000Y55665000D01*
X35745000Y55665000D01*
G37*
G36*
X37945000Y55665000D02*
G01*
X36645000Y55665000D01*
X36645000Y57365000D01*
X37945000Y57365000D01*
X37945000Y55665000D01*
X37945000Y55665000D01*
G37*
G36*
X80860000Y56670000D02*
G01*
X79160000Y56670000D01*
X79160000Y57970000D01*
X80860000Y57970000D01*
X80860000Y56670000D01*
X80860000Y56670000D01*
G37*
G36*
X42100000Y56700000D02*
G01*
X40400000Y56700000D01*
X40400000Y58000000D01*
X42100000Y58000000D01*
X42100000Y56700000D01*
X42100000Y56700000D01*
G37*
G36*
X44724000Y57135000D02*
G01*
X43424000Y57135000D01*
X43424000Y58435000D01*
X44724000Y58435000D01*
X44724000Y57135000D01*
X44724000Y57135000D01*
G37*
G36*
X46624000Y57135000D02*
G01*
X45324000Y57135000D01*
X45324000Y58435000D01*
X46624000Y58435000D01*
X46624000Y57135000D01*
X46624000Y57135000D01*
G37*
G36*
X5307290Y59394381D02*
G01*
X5371689Y59381571D01*
X5553678Y59306189D01*
X5717463Y59196751D01*
X5856751Y59057463D01*
X5966189Y58893678D01*
X6041571Y58711689D01*
X6041571Y58711688D01*
X6080000Y58518493D01*
X6080000Y58321507D01*
X6054381Y58192710D01*
X6041571Y58128311D01*
X5966189Y57946322D01*
X5856751Y57782537D01*
X5717463Y57643249D01*
X5553678Y57533811D01*
X5371689Y57458429D01*
X5307290Y57445619D01*
X5178493Y57420000D01*
X4981507Y57420000D01*
X4852710Y57445619D01*
X4788311Y57458429D01*
X4606322Y57533811D01*
X4442537Y57643249D01*
X4303249Y57782537D01*
X4193811Y57946322D01*
X4118429Y58128311D01*
X4105619Y58192710D01*
X4080000Y58321507D01*
X4080000Y58518493D01*
X4118429Y58711688D01*
X4118429Y58711689D01*
X4193811Y58893678D01*
X4303249Y59057463D01*
X4442537Y59196751D01*
X4606322Y59306189D01*
X4788311Y59381571D01*
X4852710Y59394381D01*
X4981507Y59420000D01*
X5178493Y59420000D01*
X5307290Y59394381D01*
X5307290Y59394381D01*
G37*
G36*
X7847290Y59394381D02*
G01*
X7911689Y59381571D01*
X8093678Y59306189D01*
X8257463Y59196751D01*
X8396751Y59057463D01*
X8506189Y58893678D01*
X8581571Y58711689D01*
X8581571Y58711688D01*
X8620000Y58518493D01*
X8620000Y58321507D01*
X8594381Y58192710D01*
X8581571Y58128311D01*
X8506189Y57946322D01*
X8396751Y57782537D01*
X8257463Y57643249D01*
X8093678Y57533811D01*
X7911689Y57458429D01*
X7847290Y57445619D01*
X7718493Y57420000D01*
X7521507Y57420000D01*
X7392710Y57445619D01*
X7328311Y57458429D01*
X7146322Y57533811D01*
X6982537Y57643249D01*
X6843249Y57782537D01*
X6733811Y57946322D01*
X6658429Y58128311D01*
X6645619Y58192710D01*
X6620000Y58321507D01*
X6620000Y58518493D01*
X6658429Y58711688D01*
X6658429Y58711689D01*
X6733811Y58893678D01*
X6843249Y59057463D01*
X6982537Y59196751D01*
X7146322Y59306189D01*
X7328311Y59381571D01*
X7392710Y59394381D01*
X7521507Y59420000D01*
X7718493Y59420000D01*
X7847290Y59394381D01*
X7847290Y59394381D01*
G37*
G36*
X64668187Y59655473D02*
G01*
X64845774Y59620150D01*
X65036862Y59540998D01*
X65208836Y59426089D01*
X65355089Y59279836D01*
X65469998Y59107862D01*
X65549150Y58916774D01*
X65589500Y58713916D01*
X65589500Y58507084D01*
X65549150Y58304226D01*
X65469998Y58113138D01*
X65355089Y57941164D01*
X65208836Y57794911D01*
X65036862Y57680002D01*
X64845774Y57600850D01*
X64668187Y57565527D01*
X64642917Y57560500D01*
X64436083Y57560500D01*
X64410813Y57565527D01*
X64233226Y57600850D01*
X64042138Y57680002D01*
X63870164Y57794911D01*
X63723911Y57941164D01*
X63609002Y58113138D01*
X63529850Y58304226D01*
X63489500Y58507084D01*
X63489500Y58713916D01*
X63529850Y58916774D01*
X63609002Y59107862D01*
X63723911Y59279836D01*
X63870164Y59426089D01*
X64042138Y59540998D01*
X64233226Y59620150D01*
X64410813Y59655473D01*
X64436083Y59660500D01*
X64642917Y59660500D01*
X64668187Y59655473D01*
X64668187Y59655473D01*
G37*
G36*
X62168187Y59655473D02*
G01*
X62345774Y59620150D01*
X62536862Y59540998D01*
X62708836Y59426089D01*
X62855089Y59279836D01*
X62969998Y59107862D01*
X63049150Y58916774D01*
X63089500Y58713916D01*
X63089500Y58507084D01*
X63049150Y58304226D01*
X62969998Y58113138D01*
X62855089Y57941164D01*
X62708836Y57794911D01*
X62536862Y57680002D01*
X62345774Y57600850D01*
X62168187Y57565527D01*
X62142917Y57560500D01*
X61936083Y57560500D01*
X61910813Y57565527D01*
X61733226Y57600850D01*
X61542138Y57680002D01*
X61370164Y57794911D01*
X61223911Y57941164D01*
X61109002Y58113138D01*
X61029850Y58304226D01*
X60989500Y58507084D01*
X60989500Y58713916D01*
X61029850Y58916774D01*
X61109002Y59107862D01*
X61223911Y59279836D01*
X61370164Y59426089D01*
X61542138Y59540998D01*
X61733226Y59620150D01*
X61910813Y59655473D01*
X61936083Y59660500D01*
X62142917Y59660500D01*
X62168187Y59655473D01*
X62168187Y59655473D01*
G37*
G36*
X28760000Y57570000D02*
G01*
X27460000Y57570000D01*
X27460000Y59270000D01*
X28760000Y59270000D01*
X28760000Y57570000D01*
X28760000Y57570000D01*
G37*
G36*
X30960000Y57570000D02*
G01*
X29660000Y57570000D01*
X29660000Y59270000D01*
X30960000Y59270000D01*
X30960000Y57570000D01*
X30960000Y57570000D01*
G37*
G36*
X15720000Y58840000D02*
G01*
X14420000Y58840000D01*
X14420000Y60540000D01*
X15720000Y60540000D01*
X15720000Y58840000D01*
X15720000Y58840000D01*
G37*
G36*
X13520000Y58840000D02*
G01*
X12220000Y58840000D01*
X12220000Y60540000D01*
X13520000Y60540000D01*
X13520000Y58840000D01*
X13520000Y58840000D01*
G37*
G36*
X80860000Y58870000D02*
G01*
X79160000Y58870000D01*
X79160000Y60170000D01*
X80860000Y60170000D01*
X80860000Y58870000D01*
X80860000Y58870000D01*
G37*
G36*
X73980000Y59910000D02*
G01*
X72480000Y59910000D01*
X72480000Y62010000D01*
X73980000Y62010000D01*
X73980000Y59910000D01*
X73980000Y59910000D01*
G37*
G36*
X87540000Y59910000D02*
G01*
X86040000Y59910000D01*
X86040000Y62010000D01*
X87540000Y62010000D01*
X87540000Y59910000D01*
X87540000Y59910000D01*
G37*
G36*
X84140000Y59910000D02*
G01*
X82640000Y59910000D01*
X82640000Y62010000D01*
X84140000Y62010000D01*
X84140000Y59910000D01*
X84140000Y59910000D01*
G37*
G36*
X77380000Y59910000D02*
G01*
X75880000Y59910000D01*
X75880000Y62010000D01*
X77380000Y62010000D01*
X77380000Y59910000D01*
X77380000Y59910000D01*
G37*
G36*
X22988687Y62024973D02*
G01*
X23166274Y61989650D01*
X23357362Y61910498D01*
X23529336Y61795589D01*
X23675589Y61649336D01*
X23790498Y61477362D01*
X23869650Y61286274D01*
X23904973Y61108687D01*
X23910000Y61083417D01*
X23910000Y60876583D01*
X23907001Y60861507D01*
X23869650Y60673726D01*
X23790498Y60482638D01*
X23675589Y60310664D01*
X23529336Y60164411D01*
X23357362Y60049502D01*
X23166274Y59970350D01*
X22988687Y59935027D01*
X22963417Y59930000D01*
X22756583Y59930000D01*
X22731313Y59935027D01*
X22553726Y59970350D01*
X22362638Y60049502D01*
X22190664Y60164411D01*
X22044411Y60310664D01*
X21929502Y60482638D01*
X21850350Y60673726D01*
X21812999Y60861507D01*
X21810000Y60876583D01*
X21810000Y61083417D01*
X21815027Y61108687D01*
X21850350Y61286274D01*
X21929502Y61477362D01*
X22044411Y61649336D01*
X22190664Y61795589D01*
X22362638Y61910498D01*
X22553726Y61989650D01*
X22731313Y62024973D01*
X22756583Y62030000D01*
X22963417Y62030000D01*
X22988687Y62024973D01*
X22988687Y62024973D01*
G37*
G36*
X5307290Y61934381D02*
G01*
X5371689Y61921571D01*
X5553678Y61846189D01*
X5717463Y61736751D01*
X5856751Y61597463D01*
X5966189Y61433678D01*
X6041571Y61251689D01*
X6080000Y61058491D01*
X6080000Y60861509D01*
X6041571Y60668311D01*
X5966189Y60486322D01*
X5856751Y60322537D01*
X5717463Y60183249D01*
X5553678Y60073811D01*
X5371689Y59998429D01*
X5307290Y59985619D01*
X5178493Y59960000D01*
X4981507Y59960000D01*
X4852710Y59985619D01*
X4788311Y59998429D01*
X4606322Y60073811D01*
X4442537Y60183249D01*
X4303249Y60322537D01*
X4193811Y60486322D01*
X4118429Y60668311D01*
X4080000Y60861509D01*
X4080000Y61058491D01*
X4118429Y61251689D01*
X4193811Y61433678D01*
X4303249Y61597463D01*
X4442537Y61736751D01*
X4606322Y61846189D01*
X4788311Y61921571D01*
X4852710Y61934381D01*
X4981507Y61960000D01*
X5178493Y61960000D01*
X5307290Y61934381D01*
X5307290Y61934381D01*
G37*
G36*
X7847290Y61934381D02*
G01*
X7911689Y61921571D01*
X8093678Y61846189D01*
X8257463Y61736751D01*
X8396751Y61597463D01*
X8506189Y61433678D01*
X8581571Y61251689D01*
X8620000Y61058491D01*
X8620000Y60861509D01*
X8581571Y60668311D01*
X8506189Y60486322D01*
X8396751Y60322537D01*
X8257463Y60183249D01*
X8093678Y60073811D01*
X7911689Y59998429D01*
X7847290Y59985619D01*
X7718493Y59960000D01*
X7521507Y59960000D01*
X7392710Y59985619D01*
X7328311Y59998429D01*
X7146322Y60073811D01*
X6982537Y60183249D01*
X6843249Y60322537D01*
X6733811Y60486322D01*
X6658429Y60668311D01*
X6620000Y60861509D01*
X6620000Y61058491D01*
X6658429Y61251689D01*
X6733811Y61433678D01*
X6843249Y61597463D01*
X6982537Y61736751D01*
X7146322Y61846189D01*
X7328311Y61921571D01*
X7392710Y61934381D01*
X7521507Y61960000D01*
X7718493Y61960000D01*
X7847290Y61934381D01*
X7847290Y61934381D01*
G37*
G36*
X34505000Y59972000D02*
G01*
X32805000Y59972000D01*
X32805000Y61272000D01*
X34505000Y61272000D01*
X34505000Y59972000D01*
X34505000Y59972000D01*
G37*
G36*
X45935000Y59972000D02*
G01*
X44235000Y59972000D01*
X44235000Y61272000D01*
X45935000Y61272000D01*
X45935000Y59972000D01*
X45935000Y59972000D01*
G37*
G36*
X42125000Y59972000D02*
G01*
X40425000Y59972000D01*
X40425000Y61272000D01*
X42125000Y61272000D01*
X42125000Y59972000D01*
X42125000Y59972000D01*
G37*
G36*
X38315000Y59972000D02*
G01*
X36615000Y59972000D01*
X36615000Y61272000D01*
X38315000Y61272000D01*
X38315000Y59972000D01*
X38315000Y59972000D01*
G37*
G36*
X49600000Y60000000D02*
G01*
X47900000Y60000000D01*
X47900000Y61300000D01*
X49600000Y61300000D01*
X49600000Y60000000D01*
X49600000Y60000000D01*
G37*
G36*
X92937290Y63204381D02*
G01*
X93001689Y63191571D01*
X93183678Y63116189D01*
X93347463Y63006751D01*
X93486751Y62867463D01*
X93596189Y62703678D01*
X93664637Y62538429D01*
X93671571Y62521688D01*
X93699639Y62380583D01*
X93710000Y62328491D01*
X93710000Y62131509D01*
X93671571Y61938311D01*
X93596189Y61756322D01*
X93486751Y61592537D01*
X93347463Y61453249D01*
X93183678Y61343811D01*
X93001689Y61268429D01*
X92937290Y61255619D01*
X92808493Y61230000D01*
X92611507Y61230000D01*
X92482710Y61255619D01*
X92418311Y61268429D01*
X92236322Y61343811D01*
X92072537Y61453249D01*
X91933249Y61592537D01*
X91823811Y61756322D01*
X91748429Y61938311D01*
X91710000Y62131509D01*
X91710000Y62328491D01*
X91720362Y62380583D01*
X91748429Y62521688D01*
X91755363Y62538429D01*
X91823811Y62703678D01*
X91933249Y62867463D01*
X92072537Y63006751D01*
X92236322Y63116189D01*
X92418311Y63191571D01*
X92482710Y63204381D01*
X92611507Y63230000D01*
X92808493Y63230000D01*
X92937290Y63204381D01*
X92937290Y63204381D01*
G37*
G36*
X96250000Y61230000D02*
G01*
X94250000Y61230000D01*
X94250000Y63230000D01*
X96250000Y63230000D01*
X96250000Y61230000D01*
X96250000Y61230000D01*
G37*
G36*
X54738687Y63528973D02*
G01*
X54916274Y63493650D01*
X55107362Y63414498D01*
X55279336Y63299589D01*
X55425589Y63153336D01*
X55540498Y62981362D01*
X55619650Y62790274D01*
X55660000Y62587416D01*
X55660000Y62380584D01*
X55619650Y62177726D01*
X55540498Y61986638D01*
X55425589Y61814664D01*
X55279336Y61668411D01*
X55107362Y61553502D01*
X54916274Y61474350D01*
X54738687Y61439027D01*
X54713417Y61434000D01*
X54506583Y61434000D01*
X54481313Y61439027D01*
X54303726Y61474350D01*
X54112638Y61553502D01*
X53940664Y61668411D01*
X53794411Y61814664D01*
X53679502Y61986638D01*
X53600350Y62177726D01*
X53560000Y62380584D01*
X53560000Y62587416D01*
X53600350Y62790274D01*
X53679502Y62981362D01*
X53794411Y63153336D01*
X53940664Y63299589D01*
X54112638Y63414498D01*
X54303726Y63493650D01*
X54481313Y63528973D01*
X54506583Y63534000D01*
X54713417Y63534000D01*
X54738687Y63528973D01*
X54738687Y63528973D01*
G37*
G36*
X45935000Y62172000D02*
G01*
X44235000Y62172000D01*
X44235000Y63472000D01*
X45935000Y63472000D01*
X45935000Y62172000D01*
X45935000Y62172000D01*
G37*
G36*
X38315000Y62172000D02*
G01*
X36615000Y62172000D01*
X36615000Y63472000D01*
X38315000Y63472000D01*
X38315000Y62172000D01*
X38315000Y62172000D01*
G37*
G36*
X34505000Y62172000D02*
G01*
X32805000Y62172000D01*
X32805000Y63472000D01*
X34505000Y63472000D01*
X34505000Y62172000D01*
X34505000Y62172000D01*
G37*
G36*
X42125000Y62172000D02*
G01*
X40425000Y62172000D01*
X40425000Y63472000D01*
X42125000Y63472000D01*
X42125000Y62172000D01*
X42125000Y62172000D01*
G37*
G36*
X49600000Y62200000D02*
G01*
X47900000Y62200000D01*
X47900000Y63500000D01*
X49600000Y63500000D01*
X49600000Y62200000D01*
X49600000Y62200000D01*
G37*
G36*
X22988687Y64524973D02*
G01*
X23166274Y64489650D01*
X23357362Y64410498D01*
X23529336Y64295589D01*
X23675589Y64149336D01*
X23790498Y63977362D01*
X23869650Y63786274D01*
X23904973Y63608687D01*
X23907002Y63598491D01*
X23910000Y63583416D01*
X23910000Y63376584D01*
X23869650Y63173726D01*
X23790498Y62982638D01*
X23675589Y62810664D01*
X23529336Y62664411D01*
X23357362Y62549502D01*
X23166274Y62470350D01*
X22988687Y62435027D01*
X22963417Y62430000D01*
X22756583Y62430000D01*
X22731313Y62435027D01*
X22553726Y62470350D01*
X22362638Y62549502D01*
X22190664Y62664411D01*
X22044411Y62810664D01*
X21929502Y62982638D01*
X21850350Y63173726D01*
X21810000Y63376584D01*
X21810000Y63583416D01*
X21812999Y63598491D01*
X21815027Y63608687D01*
X21850350Y63786274D01*
X21929502Y63977362D01*
X22044411Y64149336D01*
X22190664Y64295589D01*
X22362638Y64410498D01*
X22553726Y64489650D01*
X22731313Y64524973D01*
X22756583Y64530000D01*
X22963417Y64530000D01*
X22988687Y64524973D01*
X22988687Y64524973D01*
G37*
G36*
X5307290Y64474381D02*
G01*
X5371689Y64461571D01*
X5553678Y64386189D01*
X5717463Y64276751D01*
X5856751Y64137463D01*
X5966189Y63973678D01*
X6041571Y63791689D01*
X6080000Y63598491D01*
X6080000Y63401509D01*
X6041571Y63208311D01*
X5966189Y63026322D01*
X5856751Y62862537D01*
X5717463Y62723249D01*
X5553678Y62613811D01*
X5371689Y62538429D01*
X5307290Y62525619D01*
X5178493Y62500000D01*
X4981507Y62500000D01*
X4852710Y62525619D01*
X4788311Y62538429D01*
X4606322Y62613811D01*
X4442537Y62723249D01*
X4303249Y62862537D01*
X4193811Y63026322D01*
X4118429Y63208311D01*
X4080000Y63401509D01*
X4080000Y63598491D01*
X4118429Y63791689D01*
X4193811Y63973678D01*
X4303249Y64137463D01*
X4442537Y64276751D01*
X4606322Y64386189D01*
X4788311Y64461571D01*
X4852710Y64474381D01*
X4981507Y64500000D01*
X5178493Y64500000D01*
X5307290Y64474381D01*
X5307290Y64474381D01*
G37*
G36*
X7847290Y64474381D02*
G01*
X7911689Y64461571D01*
X8093678Y64386189D01*
X8257463Y64276751D01*
X8396751Y64137463D01*
X8506189Y63973678D01*
X8581571Y63791689D01*
X8620000Y63598491D01*
X8620000Y63401509D01*
X8581571Y63208311D01*
X8506189Y63026322D01*
X8396751Y62862537D01*
X8257463Y62723249D01*
X8093678Y62613811D01*
X7911689Y62538429D01*
X7847290Y62525619D01*
X7718493Y62500000D01*
X7521507Y62500000D01*
X7392710Y62525619D01*
X7328311Y62538429D01*
X7146322Y62613811D01*
X6982537Y62723249D01*
X6843249Y62862537D01*
X6733811Y63026322D01*
X6658429Y63208311D01*
X6620000Y63401509D01*
X6620000Y63598491D01*
X6658429Y63791689D01*
X6733811Y63973678D01*
X6843249Y64137463D01*
X6982537Y64276751D01*
X7146322Y64386189D01*
X7328311Y64461571D01*
X7392710Y64474381D01*
X7521507Y64500000D01*
X7718493Y64500000D01*
X7847290Y64474381D01*
X7847290Y64474381D01*
G37*
G36*
X15720000Y62650000D02*
G01*
X14420000Y62650000D01*
X14420000Y64350000D01*
X15720000Y64350000D01*
X15720000Y62650000D01*
X15720000Y62650000D01*
G37*
G36*
X13520000Y62650000D02*
G01*
X12220000Y62650000D01*
X12220000Y64350000D01*
X13520000Y64350000D01*
X13520000Y62650000D01*
X13520000Y62650000D01*
G37*
G36*
X95477290Y65744381D02*
G01*
X95541689Y65731571D01*
X95723678Y65656189D01*
X95887463Y65546751D01*
X96026751Y65407463D01*
X96136189Y65243678D01*
X96211571Y65061689D01*
X96250000Y64868491D01*
X96250000Y64671509D01*
X96211571Y64478311D01*
X96136189Y64296322D01*
X96026751Y64132537D01*
X95887463Y63993249D01*
X95723678Y63883811D01*
X95541689Y63808429D01*
X95477290Y63795619D01*
X95348493Y63770000D01*
X95151507Y63770000D01*
X95022710Y63795619D01*
X94958311Y63808429D01*
X94776322Y63883811D01*
X94612537Y63993249D01*
X94473249Y64132537D01*
X94363811Y64296322D01*
X94288429Y64478311D01*
X94250000Y64671509D01*
X94250000Y64868491D01*
X94288429Y65061689D01*
X94363811Y65243678D01*
X94473249Y65407463D01*
X94612537Y65546751D01*
X94776322Y65656189D01*
X94958311Y65731571D01*
X95022710Y65744381D01*
X95151507Y65770000D01*
X95348493Y65770000D01*
X95477290Y65744381D01*
X95477290Y65744381D01*
G37*
G36*
X92937290Y65744381D02*
G01*
X93001689Y65731571D01*
X93183678Y65656189D01*
X93347463Y65546751D01*
X93486751Y65407463D01*
X93596189Y65243678D01*
X93671571Y65061689D01*
X93710000Y64868491D01*
X93710000Y64671509D01*
X93671571Y64478311D01*
X93596189Y64296322D01*
X93486751Y64132537D01*
X93347463Y63993249D01*
X93183678Y63883811D01*
X93001689Y63808429D01*
X92937290Y63795619D01*
X92808493Y63770000D01*
X92611507Y63770000D01*
X92482710Y63795619D01*
X92418311Y63808429D01*
X92236322Y63883811D01*
X92072537Y63993249D01*
X91933249Y64132537D01*
X91823811Y64296322D01*
X91748429Y64478311D01*
X91710000Y64671509D01*
X91710000Y64868491D01*
X91748429Y65061689D01*
X91823811Y65243678D01*
X91933249Y65407463D01*
X92072537Y65546751D01*
X92236322Y65656189D01*
X92418311Y65731571D01*
X92482710Y65744381D01*
X92611507Y65770000D01*
X92808493Y65770000D01*
X92937290Y65744381D01*
X92937290Y65744381D01*
G37*
G36*
X30960000Y63920000D02*
G01*
X29660000Y63920000D01*
X29660000Y65620000D01*
X30960000Y65620000D01*
X30960000Y63920000D01*
X30960000Y63920000D01*
G37*
G36*
X28760000Y63920000D02*
G01*
X27460000Y63920000D01*
X27460000Y65620000D01*
X28760000Y65620000D01*
X28760000Y63920000D01*
X28760000Y63920000D01*
G37*
G36*
X54738687Y66028973D02*
G01*
X54916274Y65993650D01*
X55107362Y65914498D01*
X55279336Y65799589D01*
X55425589Y65653336D01*
X55540498Y65481362D01*
X55619650Y65290274D01*
X55660000Y65087416D01*
X55660000Y64880584D01*
X55619650Y64677726D01*
X55540498Y64486638D01*
X55425589Y64314664D01*
X55279336Y64168411D01*
X55107362Y64053502D01*
X54916274Y63974350D01*
X54738687Y63939027D01*
X54713417Y63934000D01*
X54506583Y63934000D01*
X54481313Y63939027D01*
X54303726Y63974350D01*
X54112638Y64053502D01*
X53940664Y64168411D01*
X53794411Y64314664D01*
X53679502Y64486638D01*
X53600350Y64677726D01*
X53560000Y64880584D01*
X53560000Y65087416D01*
X53600350Y65290274D01*
X53679502Y65481362D01*
X53794411Y65653336D01*
X53940664Y65799589D01*
X54112638Y65914498D01*
X54303726Y65993650D01*
X54481313Y66028973D01*
X54506583Y66034000D01*
X54713417Y66034000D01*
X54738687Y66028973D01*
X54738687Y66028973D01*
G37*
G36*
X84140000Y64990000D02*
G01*
X82640000Y64990000D01*
X82640000Y67090000D01*
X84140000Y67090000D01*
X84140000Y64990000D01*
X84140000Y64990000D01*
G37*
G36*
X77380000Y64990000D02*
G01*
X75880000Y64990000D01*
X75880000Y67090000D01*
X77380000Y67090000D01*
X77380000Y64990000D01*
X77380000Y64990000D01*
G37*
G36*
X87540000Y64990000D02*
G01*
X86040000Y64990000D01*
X86040000Y67090000D01*
X87540000Y67090000D01*
X87540000Y64990000D01*
X87540000Y64990000D01*
G37*
G36*
X73980000Y64990000D02*
G01*
X72480000Y64990000D01*
X72480000Y67090000D01*
X73980000Y67090000D01*
X73980000Y64990000D01*
X73980000Y64990000D01*
G37*
G36*
X5307290Y67014381D02*
G01*
X5371689Y67001571D01*
X5553678Y66926189D01*
X5717463Y66816751D01*
X5856751Y66677463D01*
X5966189Y66513678D01*
X6021766Y66379502D01*
X6041571Y66331688D01*
X6080000Y66138493D01*
X6080000Y65941507D01*
X6054381Y65812710D01*
X6041571Y65748311D01*
X5966189Y65566322D01*
X5856751Y65402537D01*
X5717463Y65263249D01*
X5553678Y65153811D01*
X5371689Y65078429D01*
X5307290Y65065619D01*
X5178493Y65040000D01*
X4981507Y65040000D01*
X4852710Y65065619D01*
X4788311Y65078429D01*
X4606322Y65153811D01*
X4442537Y65263249D01*
X4303249Y65402537D01*
X4193811Y65566322D01*
X4118429Y65748311D01*
X4105619Y65812710D01*
X4080000Y65941507D01*
X4080000Y66138493D01*
X4118429Y66331688D01*
X4138234Y66379502D01*
X4193811Y66513678D01*
X4303249Y66677463D01*
X4442537Y66816751D01*
X4606322Y66926189D01*
X4788311Y67001571D01*
X4852710Y67014381D01*
X4981507Y67040000D01*
X5178493Y67040000D01*
X5307290Y67014381D01*
X5307290Y67014381D01*
G37*
G36*
X7847290Y67014381D02*
G01*
X7911689Y67001571D01*
X8093678Y66926189D01*
X8257463Y66816751D01*
X8396751Y66677463D01*
X8506189Y66513678D01*
X8561766Y66379502D01*
X8581571Y66331688D01*
X8620000Y66138493D01*
X8620000Y65941507D01*
X8594381Y65812710D01*
X8581571Y65748311D01*
X8506189Y65566322D01*
X8396751Y65402537D01*
X8257463Y65263249D01*
X8093678Y65153811D01*
X7911689Y65078429D01*
X7847290Y65065619D01*
X7718493Y65040000D01*
X7521507Y65040000D01*
X7392710Y65065619D01*
X7328311Y65078429D01*
X7146322Y65153811D01*
X6982537Y65263249D01*
X6843249Y65402537D01*
X6733811Y65566322D01*
X6658429Y65748311D01*
X6645619Y65812710D01*
X6620000Y65941507D01*
X6620000Y66138493D01*
X6658429Y66331688D01*
X6678234Y66379502D01*
X6733811Y66513678D01*
X6843249Y66677463D01*
X6982537Y66816751D01*
X7146322Y66926189D01*
X7328311Y67001571D01*
X7392710Y67014381D01*
X7521507Y67040000D01*
X7718493Y67040000D01*
X7847290Y67014381D01*
X7847290Y67014381D01*
G37*
G36*
X34438687Y68354973D02*
G01*
X34616274Y68319650D01*
X34807362Y68240498D01*
X34979336Y68125589D01*
X35125589Y67979336D01*
X35240498Y67807362D01*
X35319650Y67616274D01*
X35360000Y67413416D01*
X35360000Y67206584D01*
X35319650Y67003726D01*
X35240498Y66812638D01*
X35125589Y66640664D01*
X34979336Y66494411D01*
X34807362Y66379502D01*
X34616274Y66300350D01*
X34438687Y66265027D01*
X34413417Y66260000D01*
X34206583Y66260000D01*
X34181313Y66265027D01*
X34003726Y66300350D01*
X33812638Y66379502D01*
X33640664Y66494411D01*
X33494411Y66640664D01*
X33379502Y66812638D01*
X33300350Y67003726D01*
X33260000Y67206584D01*
X33260000Y67413416D01*
X33300350Y67616274D01*
X33379502Y67807362D01*
X33494411Y67979336D01*
X33640664Y68125589D01*
X33812638Y68240498D01*
X34003726Y68319650D01*
X34181313Y68354973D01*
X34206583Y68360000D01*
X34413417Y68360000D01*
X34438687Y68354973D01*
X34438687Y68354973D01*
G37*
G36*
X36938687Y68354973D02*
G01*
X37116274Y68319650D01*
X37307362Y68240498D01*
X37479336Y68125589D01*
X37625589Y67979336D01*
X37740498Y67807362D01*
X37819650Y67616274D01*
X37860000Y67413416D01*
X37860000Y67206584D01*
X37819650Y67003726D01*
X37740498Y66812638D01*
X37625589Y66640664D01*
X37479336Y66494411D01*
X37307362Y66379502D01*
X37116274Y66300350D01*
X36938687Y66265027D01*
X36913417Y66260000D01*
X36706583Y66260000D01*
X36681313Y66265027D01*
X36503726Y66300350D01*
X36312638Y66379502D01*
X36140664Y66494411D01*
X35994411Y66640664D01*
X35879502Y66812638D01*
X35800350Y67003726D01*
X35760000Y67206584D01*
X35760000Y67413416D01*
X35800350Y67616274D01*
X35879502Y67807362D01*
X35994411Y67979336D01*
X36140664Y68125589D01*
X36312638Y68240498D01*
X36503726Y68319650D01*
X36681313Y68354973D01*
X36706583Y68360000D01*
X36913417Y68360000D01*
X36938687Y68354973D01*
X36938687Y68354973D01*
G37*
G36*
X44808441Y68375818D02*
G01*
X44990274Y68339650D01*
X45181362Y68260498D01*
X45353336Y68145589D01*
X45499589Y67999336D01*
X45614498Y67827362D01*
X45693650Y67636274D01*
X45728973Y67458687D01*
X45734000Y67433417D01*
X45734000Y67226583D01*
X45731001Y67211507D01*
X45693650Y67023726D01*
X45614498Y66832638D01*
X45499589Y66660664D01*
X45353336Y66514411D01*
X45181362Y66399502D01*
X44990274Y66320350D01*
X44812687Y66285027D01*
X44787417Y66280000D01*
X44580583Y66280000D01*
X44555313Y66285027D01*
X44377726Y66320350D01*
X44186638Y66399502D01*
X44014664Y66514411D01*
X43868411Y66660664D01*
X43753502Y66832638D01*
X43674350Y67023726D01*
X43636999Y67211507D01*
X43634000Y67226583D01*
X43634000Y67433417D01*
X43639027Y67458687D01*
X43674350Y67636274D01*
X43753502Y67827362D01*
X43868411Y67999336D01*
X44014664Y68145589D01*
X44186638Y68260498D01*
X44377726Y68339650D01*
X44559559Y68375818D01*
X44580583Y68380000D01*
X44787417Y68380000D01*
X44808441Y68375818D01*
X44808441Y68375818D01*
G37*
G36*
X42308441Y68375818D02*
G01*
X42490274Y68339650D01*
X42681362Y68260498D01*
X42853336Y68145589D01*
X42999589Y67999336D01*
X43114498Y67827362D01*
X43193650Y67636274D01*
X43228973Y67458687D01*
X43234000Y67433417D01*
X43234000Y67226583D01*
X43231001Y67211507D01*
X43193650Y67023726D01*
X43114498Y66832638D01*
X42999589Y66660664D01*
X42853336Y66514411D01*
X42681362Y66399502D01*
X42490274Y66320350D01*
X42312687Y66285027D01*
X42287417Y66280000D01*
X42080583Y66280000D01*
X42055313Y66285027D01*
X41877726Y66320350D01*
X41686638Y66399502D01*
X41514664Y66514411D01*
X41368411Y66660664D01*
X41253502Y66832638D01*
X41174350Y67023726D01*
X41136999Y67211507D01*
X41134000Y67226583D01*
X41134000Y67433417D01*
X41139027Y67458687D01*
X41174350Y67636274D01*
X41253502Y67827362D01*
X41368411Y67999336D01*
X41514664Y68145589D01*
X41686638Y68260498D01*
X41877726Y68339650D01*
X42059559Y68375818D01*
X42080583Y68380000D01*
X42287417Y68380000D01*
X42308441Y68375818D01*
X42308441Y68375818D01*
G37*
G36*
X95477290Y68284381D02*
G01*
X95541689Y68271571D01*
X95723678Y68196189D01*
X95887463Y68086751D01*
X96026751Y67947463D01*
X96136189Y67783678D01*
X96211571Y67601689D01*
X96211571Y67601688D01*
X96250000Y67408493D01*
X96250000Y67211507D01*
X96225831Y67090000D01*
X96211571Y67018311D01*
X96136189Y66836322D01*
X96026751Y66672537D01*
X95887463Y66533249D01*
X95723678Y66423811D01*
X95541689Y66348429D01*
X95477290Y66335619D01*
X95348493Y66310000D01*
X95151507Y66310000D01*
X95022710Y66335619D01*
X94958311Y66348429D01*
X94776322Y66423811D01*
X94612537Y66533249D01*
X94473249Y66672537D01*
X94363811Y66836322D01*
X94288429Y67018311D01*
X94274169Y67090000D01*
X94250000Y67211507D01*
X94250000Y67408493D01*
X94288429Y67601688D01*
X94288429Y67601689D01*
X94363811Y67783678D01*
X94473249Y67947463D01*
X94612537Y68086751D01*
X94776322Y68196189D01*
X94958311Y68271571D01*
X95022710Y68284381D01*
X95151507Y68310000D01*
X95348493Y68310000D01*
X95477290Y68284381D01*
X95477290Y68284381D01*
G37*
G36*
X92937290Y68284381D02*
G01*
X93001689Y68271571D01*
X93183678Y68196189D01*
X93347463Y68086751D01*
X93486751Y67947463D01*
X93596189Y67783678D01*
X93671571Y67601689D01*
X93671571Y67601688D01*
X93710000Y67408493D01*
X93710000Y67211507D01*
X93685831Y67090000D01*
X93671571Y67018311D01*
X93596189Y66836322D01*
X93486751Y66672537D01*
X93347463Y66533249D01*
X93183678Y66423811D01*
X93001689Y66348429D01*
X92937290Y66335619D01*
X92808493Y66310000D01*
X92611507Y66310000D01*
X92482710Y66335619D01*
X92418311Y66348429D01*
X92236322Y66423811D01*
X92072537Y66533249D01*
X91933249Y66672537D01*
X91823811Y66836322D01*
X91748429Y67018311D01*
X91734169Y67090000D01*
X91710000Y67211507D01*
X91710000Y67408493D01*
X91748429Y67601688D01*
X91748429Y67601689D01*
X91823811Y67783678D01*
X91933249Y67947463D01*
X92072537Y68086751D01*
X92236322Y68196189D01*
X92418311Y68271571D01*
X92482710Y68284381D01*
X92611507Y68310000D01*
X92808493Y68310000D01*
X92937290Y68284381D01*
X92937290Y68284381D01*
G37*
G36*
X13520000Y66460000D02*
G01*
X12220000Y66460000D01*
X12220000Y68160000D01*
X13520000Y68160000D01*
X13520000Y66460000D01*
X13520000Y66460000D01*
G37*
G36*
X15720000Y66460000D02*
G01*
X14420000Y66460000D01*
X14420000Y68160000D01*
X15720000Y68160000D01*
X15720000Y66460000D01*
X15720000Y66460000D01*
G37*
G36*
X80860000Y66830000D02*
G01*
X79160000Y66830000D01*
X79160000Y68130000D01*
X80860000Y68130000D01*
X80860000Y66830000D01*
X80860000Y66830000D01*
G37*
G36*
X7847290Y69554381D02*
G01*
X7911689Y69541571D01*
X8093678Y69466189D01*
X8257463Y69356751D01*
X8396751Y69217463D01*
X8506189Y69053678D01*
X8581571Y68871689D01*
X8620000Y68678491D01*
X8620000Y68481509D01*
X8581571Y68288311D01*
X8506189Y68106322D01*
X8396751Y67942537D01*
X8257463Y67803249D01*
X8093678Y67693811D01*
X7911689Y67618429D01*
X7847290Y67605619D01*
X7718493Y67580000D01*
X7521507Y67580000D01*
X7392710Y67605619D01*
X7328311Y67618429D01*
X7146322Y67693811D01*
X6982537Y67803249D01*
X6843249Y67942537D01*
X6733811Y68106322D01*
X6658429Y68288311D01*
X6620000Y68481509D01*
X6620000Y68678491D01*
X6658429Y68871689D01*
X6733811Y69053678D01*
X6843249Y69217463D01*
X6982537Y69356751D01*
X7146322Y69466189D01*
X7328311Y69541571D01*
X7392710Y69554381D01*
X7521507Y69580000D01*
X7718493Y69580000D01*
X7847290Y69554381D01*
X7847290Y69554381D01*
G37*
G36*
X6080000Y67580000D02*
G01*
X4080000Y67580000D01*
X4080000Y69580000D01*
X6080000Y69580000D01*
X6080000Y67580000D01*
X6080000Y67580000D01*
G37*
G36*
X19254182Y69253100D02*
G01*
X19381573Y69200333D01*
X19381574Y69200332D01*
X19496224Y69123726D01*
X19593726Y69026224D01*
X19593727Y69026222D01*
X19670333Y68911573D01*
X19723100Y68784182D01*
X19750000Y68648945D01*
X19750000Y68511055D01*
X19723100Y68375818D01*
X19670333Y68248427D01*
X19670332Y68248426D01*
X19593726Y68133776D01*
X19496224Y68036274D01*
X19440942Y67999336D01*
X19381573Y67959667D01*
X19254182Y67906900D01*
X19118945Y67880000D01*
X18981055Y67880000D01*
X18845818Y67906900D01*
X18718427Y67959667D01*
X18659058Y67999336D01*
X18603776Y68036274D01*
X18506274Y68133776D01*
X18429668Y68248426D01*
X18429667Y68248427D01*
X18376900Y68375818D01*
X18350000Y68511055D01*
X18350000Y68648945D01*
X18376900Y68784182D01*
X18429667Y68911573D01*
X18506273Y69026222D01*
X18506274Y69026224D01*
X18603776Y69123726D01*
X18718426Y69200332D01*
X18718427Y69200333D01*
X18845818Y69253100D01*
X18981055Y69280000D01*
X19118945Y69280000D01*
X19254182Y69253100D01*
X19254182Y69253100D01*
G37*
G36*
X92937290Y70824381D02*
G01*
X93001689Y70811571D01*
X93183678Y70736189D01*
X93347463Y70626751D01*
X93486751Y70487463D01*
X93596189Y70323678D01*
X93671571Y70141689D01*
X93710000Y69948491D01*
X93710000Y69751509D01*
X93671571Y69558311D01*
X93596189Y69376322D01*
X93486751Y69212537D01*
X93347463Y69073249D01*
X93183678Y68963811D01*
X93001689Y68888429D01*
X92937290Y68875619D01*
X92808493Y68850000D01*
X92611507Y68850000D01*
X92482710Y68875619D01*
X92418311Y68888429D01*
X92236322Y68963811D01*
X92072537Y69073249D01*
X91933249Y69212537D01*
X91823811Y69376322D01*
X91748429Y69558311D01*
X91710000Y69751509D01*
X91710000Y69948491D01*
X91748429Y70141689D01*
X91823811Y70323678D01*
X91933249Y70487463D01*
X92072537Y70626751D01*
X92236322Y70736189D01*
X92418311Y70811571D01*
X92482710Y70824381D01*
X92611507Y70850000D01*
X92808493Y70850000D01*
X92937290Y70824381D01*
X92937290Y70824381D01*
G37*
G36*
X95477290Y70824381D02*
G01*
X95541689Y70811571D01*
X95723678Y70736189D01*
X95887463Y70626751D01*
X96026751Y70487463D01*
X96136189Y70323678D01*
X96211571Y70141689D01*
X96250000Y69948491D01*
X96250000Y69751509D01*
X96211571Y69558311D01*
X96136189Y69376322D01*
X96026751Y69212537D01*
X95887463Y69073249D01*
X95723678Y68963811D01*
X95541689Y68888429D01*
X95477290Y68875619D01*
X95348493Y68850000D01*
X95151507Y68850000D01*
X95022710Y68875619D01*
X94958311Y68888429D01*
X94776322Y68963811D01*
X94612537Y69073249D01*
X94473249Y69212537D01*
X94363811Y69376322D01*
X94288429Y69558311D01*
X94250000Y69751509D01*
X94250000Y69948491D01*
X94288429Y70141689D01*
X94363811Y70323678D01*
X94473249Y70487463D01*
X94612537Y70626751D01*
X94776322Y70736189D01*
X94958311Y70811571D01*
X95022710Y70824381D01*
X95151507Y70850000D01*
X95348493Y70850000D01*
X95477290Y70824381D01*
X95477290Y70824381D01*
G37*
G36*
X28760000Y69000000D02*
G01*
X27460000Y69000000D01*
X27460000Y70700000D01*
X28760000Y70700000D01*
X28760000Y69000000D01*
X28760000Y69000000D01*
G37*
G36*
X30960000Y69000000D02*
G01*
X29660000Y69000000D01*
X29660000Y70700000D01*
X30960000Y70700000D01*
X30960000Y69000000D01*
X30960000Y69000000D01*
G37*
G36*
X80860000Y69030000D02*
G01*
X79160000Y69030000D01*
X79160000Y70330000D01*
X80860000Y70330000D01*
X80860000Y69030000D01*
X80860000Y69030000D01*
G37*
G36*
X73980000Y70070000D02*
G01*
X72480000Y70070000D01*
X72480000Y72170000D01*
X73980000Y72170000D01*
X73980000Y70070000D01*
X73980000Y70070000D01*
G37*
G36*
X87540000Y70070000D02*
G01*
X86040000Y70070000D01*
X86040000Y72170000D01*
X87540000Y72170000D01*
X87540000Y70070000D01*
X87540000Y70070000D01*
G37*
G36*
X77380000Y70070000D02*
G01*
X75880000Y70070000D01*
X75880000Y72170000D01*
X77380000Y72170000D01*
X77380000Y70070000D01*
X77380000Y70070000D01*
G37*
G36*
X84140000Y70070000D02*
G01*
X82640000Y70070000D01*
X82640000Y72170000D01*
X84140000Y72170000D01*
X84140000Y70070000D01*
X84140000Y70070000D01*
G37*
G36*
X13520000Y70270000D02*
G01*
X12220000Y70270000D01*
X12220000Y71970000D01*
X13520000Y71970000D01*
X13520000Y70270000D01*
X13520000Y70270000D01*
G37*
G36*
X15720000Y70270000D02*
G01*
X14420000Y70270000D01*
X14420000Y71970000D01*
X15720000Y71970000D01*
X15720000Y70270000D01*
X15720000Y70270000D01*
G37*
G36*
X19900000Y70470000D02*
G01*
X18200000Y70470000D01*
X18200000Y71770000D01*
X19900000Y71770000D01*
X19900000Y70470000D01*
X19900000Y70470000D01*
G37*
G36*
X24980000Y70470000D02*
G01*
X23280000Y70470000D01*
X23280000Y71770000D01*
X24980000Y71770000D01*
X24980000Y70470000D01*
X24980000Y70470000D01*
G37*
G36*
X36410000Y71275000D02*
G01*
X34710000Y71275000D01*
X34710000Y72575000D01*
X36410000Y72575000D01*
X36410000Y71275000D01*
X36410000Y71275000D01*
G37*
G36*
X95477290Y73364381D02*
G01*
X95541689Y73351571D01*
X95723678Y73276189D01*
X95887463Y73166751D01*
X96026751Y73027463D01*
X96136189Y72863678D01*
X96211571Y72681689D01*
X96250000Y72488491D01*
X96250000Y72291509D01*
X96211571Y72098311D01*
X96136189Y71916322D01*
X96026751Y71752537D01*
X95887463Y71613249D01*
X95723678Y71503811D01*
X95541689Y71428429D01*
X95477290Y71415619D01*
X95348493Y71390000D01*
X95151507Y71390000D01*
X95022710Y71415619D01*
X94958311Y71428429D01*
X94776322Y71503811D01*
X94612537Y71613249D01*
X94473249Y71752537D01*
X94363811Y71916322D01*
X94288429Y72098311D01*
X94250000Y72291509D01*
X94250000Y72488491D01*
X94288429Y72681689D01*
X94363811Y72863678D01*
X94473249Y73027463D01*
X94612537Y73166751D01*
X94776322Y73276189D01*
X94958311Y73351571D01*
X95022710Y73364381D01*
X95151507Y73390000D01*
X95348493Y73390000D01*
X95477290Y73364381D01*
X95477290Y73364381D01*
G37*
G36*
X92937290Y73364381D02*
G01*
X93001689Y73351571D01*
X93183678Y73276189D01*
X93347463Y73166751D01*
X93486751Y73027463D01*
X93596189Y72863678D01*
X93671571Y72681689D01*
X93710000Y72488491D01*
X93710000Y72291509D01*
X93671571Y72098311D01*
X93596189Y71916322D01*
X93486751Y71752537D01*
X93347463Y71613249D01*
X93183678Y71503811D01*
X93001689Y71428429D01*
X92937290Y71415619D01*
X92808493Y71390000D01*
X92611507Y71390000D01*
X92482710Y71415619D01*
X92418311Y71428429D01*
X92236322Y71503811D01*
X92072537Y71613249D01*
X91933249Y71752537D01*
X91823811Y71916322D01*
X91748429Y72098311D01*
X91710000Y72291509D01*
X91710000Y72488491D01*
X91748429Y72681689D01*
X91823811Y72863678D01*
X91933249Y73027463D01*
X92072537Y73166751D01*
X92236322Y73276189D01*
X92418311Y73351571D01*
X92482710Y73364381D01*
X92611507Y73390000D01*
X92808493Y73390000D01*
X92937290Y73364381D01*
X92937290Y73364381D01*
G37*
G36*
X67525000Y72545000D02*
G01*
X65825000Y72545000D01*
X65825000Y73845000D01*
X67525000Y73845000D01*
X67525000Y72545000D01*
X67525000Y72545000D01*
G37*
G36*
X24980000Y72670000D02*
G01*
X23280000Y72670000D01*
X23280000Y73970000D01*
X24980000Y73970000D01*
X24980000Y72670000D01*
X24980000Y72670000D01*
G37*
G36*
X19900000Y72670000D02*
G01*
X18200000Y72670000D01*
X18200000Y73970000D01*
X19900000Y73970000D01*
X19900000Y72670000D01*
X19900000Y72670000D01*
G37*
G36*
X41460000Y72810000D02*
G01*
X40160000Y72810000D01*
X40160000Y74510000D01*
X41460000Y74510000D01*
X41460000Y72810000D01*
X41460000Y72810000D01*
G37*
G36*
X43660000Y72810000D02*
G01*
X42360000Y72810000D01*
X42360000Y74510000D01*
X43660000Y74510000D01*
X43660000Y72810000D01*
X43660000Y72810000D01*
G37*
G36*
X52800000Y73020400D02*
G01*
X48800000Y73020400D01*
X48800000Y75620400D01*
X52800000Y75620400D01*
X52800000Y73020400D01*
X52800000Y73020400D01*
G37*
G36*
X36410000Y73475000D02*
G01*
X34710000Y73475000D01*
X34710000Y74775000D01*
X36410000Y74775000D01*
X36410000Y73475000D01*
X36410000Y73475000D01*
G37*
G36*
X92937290Y75904381D02*
G01*
X93001689Y75891571D01*
X93183678Y75816189D01*
X93347463Y75706751D01*
X93486751Y75567463D01*
X93596189Y75403678D01*
X93671571Y75221689D01*
X93710000Y75028491D01*
X93710000Y74831509D01*
X93671571Y74638311D01*
X93596189Y74456322D01*
X93486751Y74292537D01*
X93347463Y74153249D01*
X93183678Y74043811D01*
X93001689Y73968429D01*
X92937290Y73955619D01*
X92808493Y73930000D01*
X92611507Y73930000D01*
X92482710Y73955619D01*
X92418311Y73968429D01*
X92236322Y74043811D01*
X92072537Y74153249D01*
X91933249Y74292537D01*
X91823811Y74456322D01*
X91748429Y74638311D01*
X91710000Y74831509D01*
X91710000Y75028491D01*
X91748429Y75221689D01*
X91823811Y75403678D01*
X91933249Y75567463D01*
X92072537Y75706751D01*
X92236322Y75816189D01*
X92418311Y75891571D01*
X92482710Y75904381D01*
X92611507Y75930000D01*
X92808493Y75930000D01*
X92937290Y75904381D01*
X92937290Y75904381D01*
G37*
G36*
X95477290Y75904381D02*
G01*
X95541689Y75891571D01*
X95723678Y75816189D01*
X95887463Y75706751D01*
X96026751Y75567463D01*
X96136189Y75403678D01*
X96211571Y75221689D01*
X96250000Y75028491D01*
X96250000Y74831509D01*
X96211571Y74638311D01*
X96136189Y74456322D01*
X96026751Y74292537D01*
X95887463Y74153249D01*
X95723678Y74043811D01*
X95541689Y73968429D01*
X95477290Y73955619D01*
X95348493Y73930000D01*
X95151507Y73930000D01*
X95022710Y73955619D01*
X94958311Y73968429D01*
X94776322Y74043811D01*
X94612537Y74153249D01*
X94473249Y74292537D01*
X94363811Y74456322D01*
X94288429Y74638311D01*
X94250000Y74831509D01*
X94250000Y75028491D01*
X94288429Y75221689D01*
X94363811Y75403678D01*
X94473249Y75567463D01*
X94612537Y75706751D01*
X94776322Y75816189D01*
X94958311Y75891571D01*
X95022710Y75904381D01*
X95151507Y75930000D01*
X95348493Y75930000D01*
X95477290Y75904381D01*
X95477290Y75904381D01*
G37*
G36*
X28760000Y74080000D02*
G01*
X27460000Y74080000D01*
X27460000Y75780000D01*
X28760000Y75780000D01*
X28760000Y74080000D01*
X28760000Y74080000D01*
G37*
G36*
X30960000Y74080000D02*
G01*
X29660000Y74080000D01*
X29660000Y75780000D01*
X30960000Y75780000D01*
X30960000Y74080000D01*
X30960000Y74080000D01*
G37*
G36*
X67525000Y74745000D02*
G01*
X65825000Y74745000D01*
X65825000Y76045000D01*
X67525000Y76045000D01*
X67525000Y74745000D01*
X67525000Y74745000D01*
G37*
G36*
X87540000Y75150000D02*
G01*
X86040000Y75150000D01*
X86040000Y77250000D01*
X87540000Y77250000D01*
X87540000Y75150000D01*
X87540000Y75150000D01*
G37*
G36*
X84140000Y75150000D02*
G01*
X82640000Y75150000D01*
X82640000Y77250000D01*
X84140000Y77250000D01*
X84140000Y75150000D01*
X84140000Y75150000D01*
G37*
G36*
X73980000Y75150000D02*
G01*
X72480000Y75150000D01*
X72480000Y77250000D01*
X73980000Y77250000D01*
X73980000Y75150000D01*
X73980000Y75150000D01*
G37*
G36*
X77380000Y75150000D02*
G01*
X75880000Y75150000D01*
X75880000Y77250000D01*
X77380000Y77250000D01*
X77380000Y75150000D01*
X77380000Y75150000D01*
G37*
G36*
X60040026Y78143885D02*
G01*
X60258411Y78053427D01*
X60258413Y78053426D01*
X60454955Y77922101D01*
X60622101Y77754955D01*
X60746691Y77568493D01*
X60753427Y77558411D01*
X60843885Y77340026D01*
X60890000Y77108191D01*
X60890000Y76871809D01*
X60843885Y76639974D01*
X60789397Y76508429D01*
X60753426Y76421587D01*
X60622101Y76225045D01*
X60454955Y76057899D01*
X60258413Y75926574D01*
X60258412Y75926573D01*
X60258411Y75926573D01*
X60040026Y75836115D01*
X59808191Y75790000D01*
X59571809Y75790000D01*
X59339974Y75836115D01*
X59121589Y75926573D01*
X59121588Y75926573D01*
X59121587Y75926574D01*
X58925045Y76057899D01*
X58757899Y76225045D01*
X58626574Y76421587D01*
X58590603Y76508429D01*
X58536115Y76639974D01*
X58490000Y76871809D01*
X58490000Y77108191D01*
X58536115Y77340026D01*
X58626573Y77558411D01*
X58633310Y77568493D01*
X58757899Y77754955D01*
X58925045Y77922101D01*
X59121587Y78053426D01*
X59121589Y78053427D01*
X59339974Y78143885D01*
X59571809Y78190000D01*
X59808191Y78190000D01*
X60040026Y78143885D01*
X60040026Y78143885D01*
G37*
G36*
X95477290Y78444381D02*
G01*
X95541689Y78431571D01*
X95723678Y78356189D01*
X95887463Y78246751D01*
X96026751Y78107463D01*
X96136189Y77943678D01*
X96211571Y77761689D01*
X96250000Y77568491D01*
X96250000Y77371509D01*
X96211571Y77178311D01*
X96136189Y76996322D01*
X96026751Y76832537D01*
X95887463Y76693249D01*
X95723678Y76583811D01*
X95541689Y76508429D01*
X95477290Y76495619D01*
X95348493Y76470000D01*
X95151507Y76470000D01*
X95022710Y76495619D01*
X94958311Y76508429D01*
X94776322Y76583811D01*
X94612537Y76693249D01*
X94473249Y76832537D01*
X94363811Y76996322D01*
X94288429Y77178311D01*
X94250000Y77371509D01*
X94250000Y77568491D01*
X94288429Y77761689D01*
X94363811Y77943678D01*
X94473249Y78107463D01*
X94612537Y78246751D01*
X94776322Y78356189D01*
X94958311Y78431571D01*
X95022710Y78444381D01*
X95151507Y78470000D01*
X95348493Y78470000D01*
X95477290Y78444381D01*
X95477290Y78444381D01*
G37*
G36*
X92937290Y78444381D02*
G01*
X93001689Y78431571D01*
X93183678Y78356189D01*
X93347463Y78246751D01*
X93486751Y78107463D01*
X93596189Y77943678D01*
X93671571Y77761689D01*
X93710000Y77568491D01*
X93710000Y77371509D01*
X93671571Y77178311D01*
X93596189Y76996322D01*
X93486751Y76832537D01*
X93347463Y76693249D01*
X93183678Y76583811D01*
X93001689Y76508429D01*
X92937290Y76495619D01*
X92808493Y76470000D01*
X92611507Y76470000D01*
X92482710Y76495619D01*
X92418311Y76508429D01*
X92236322Y76583811D01*
X92072537Y76693249D01*
X91933249Y76832537D01*
X91823811Y76996322D01*
X91748429Y77178311D01*
X91710000Y77371509D01*
X91710000Y77568491D01*
X91748429Y77761689D01*
X91823811Y77943678D01*
X91933249Y78107463D01*
X92072537Y78246751D01*
X92236322Y78356189D01*
X92418311Y78431571D01*
X92482710Y78444381D01*
X92611507Y78470000D01*
X92808493Y78470000D01*
X92937290Y78444381D01*
X92937290Y78444381D01*
G37*
G36*
X24335000Y76740000D02*
G01*
X23285000Y76740000D01*
X23285000Y78340000D01*
X24335000Y78340000D01*
X24335000Y76740000D01*
X24335000Y76740000D01*
G37*
G36*
X22435000Y76740000D02*
G01*
X21385000Y76740000D01*
X21385000Y78340000D01*
X22435000Y78340000D01*
X22435000Y76740000D01*
X22435000Y76740000D01*
G37*
G36*
X40855000Y76990000D02*
G01*
X39155000Y76990000D01*
X39155000Y78290000D01*
X40855000Y78290000D01*
X40855000Y76990000D01*
X40855000Y76990000D01*
G37*
G36*
X45300000Y76990000D02*
G01*
X43600000Y76990000D01*
X43600000Y78290000D01*
X45300000Y78290000D01*
X45300000Y76990000D01*
X45300000Y76990000D01*
G37*
G36*
X36410000Y76990000D02*
G01*
X34710000Y76990000D01*
X34710000Y78290000D01*
X36410000Y78290000D01*
X36410000Y76990000D01*
X36410000Y76990000D01*
G37*
G36*
X80860000Y76990000D02*
G01*
X79160000Y76990000D01*
X79160000Y78290000D01*
X80860000Y78290000D01*
X80860000Y76990000D01*
X80860000Y76990000D01*
G37*
G36*
X67525000Y78260000D02*
G01*
X65825000Y78260000D01*
X65825000Y79560000D01*
X67525000Y79560000D01*
X67525000Y78260000D01*
X67525000Y78260000D01*
G37*
G36*
X92937290Y80984381D02*
G01*
X93001689Y80971571D01*
X93183678Y80896189D01*
X93347463Y80786751D01*
X93486751Y80647463D01*
X93596189Y80483678D01*
X93671571Y80301689D01*
X93710000Y80108491D01*
X93710000Y79911509D01*
X93671571Y79718311D01*
X93596189Y79536322D01*
X93486751Y79372537D01*
X93347463Y79233249D01*
X93183678Y79123811D01*
X93001689Y79048429D01*
X92937290Y79035619D01*
X92808493Y79010000D01*
X92611507Y79010000D01*
X92482710Y79035619D01*
X92418311Y79048429D01*
X92236322Y79123811D01*
X92072537Y79233249D01*
X91933249Y79372537D01*
X91823811Y79536322D01*
X91748429Y79718311D01*
X91710000Y79911509D01*
X91710000Y80108491D01*
X91748429Y80301689D01*
X91823811Y80483678D01*
X91933249Y80647463D01*
X92072537Y80786751D01*
X92236322Y80896189D01*
X92418311Y80971571D01*
X92482710Y80984381D01*
X92611507Y81010000D01*
X92808493Y81010000D01*
X92937290Y80984381D01*
X92937290Y80984381D01*
G37*
G36*
X95477290Y80984381D02*
G01*
X95541689Y80971571D01*
X95723678Y80896189D01*
X95887463Y80786751D01*
X96026751Y80647463D01*
X96136189Y80483678D01*
X96211571Y80301689D01*
X96250000Y80108491D01*
X96250000Y79911509D01*
X96211571Y79718311D01*
X96136189Y79536322D01*
X96026751Y79372537D01*
X95887463Y79233249D01*
X95723678Y79123811D01*
X95541689Y79048429D01*
X95477290Y79035619D01*
X95348493Y79010000D01*
X95151507Y79010000D01*
X95022710Y79035619D01*
X94958311Y79048429D01*
X94776322Y79123811D01*
X94612537Y79233249D01*
X94473249Y79372537D01*
X94363811Y79536322D01*
X94288429Y79718311D01*
X94250000Y79911509D01*
X94250000Y80108491D01*
X94288429Y80301689D01*
X94363811Y80483678D01*
X94473249Y80647463D01*
X94612537Y80786751D01*
X94776322Y80896189D01*
X94958311Y80971571D01*
X95022710Y80984381D01*
X95151507Y81010000D01*
X95348493Y81010000D01*
X95477290Y80984381D01*
X95477290Y80984381D01*
G37*
G36*
X24335000Y79140000D02*
G01*
X21385000Y79140000D01*
X21385000Y80740000D01*
X24335000Y80740000D01*
X24335000Y79140000D01*
X24335000Y79140000D01*
G37*
G36*
X28760000Y79160000D02*
G01*
X27460000Y79160000D01*
X27460000Y80860000D01*
X28760000Y80860000D01*
X28760000Y79160000D01*
X28760000Y79160000D01*
G37*
G36*
X30960000Y79160000D02*
G01*
X29660000Y79160000D01*
X29660000Y80860000D01*
X30960000Y80860000D01*
X30960000Y79160000D01*
X30960000Y79160000D01*
G37*
G36*
X36410000Y79190000D02*
G01*
X34710000Y79190000D01*
X34710000Y80490000D01*
X36410000Y80490000D01*
X36410000Y79190000D01*
X36410000Y79190000D01*
G37*
G36*
X40855000Y79190000D02*
G01*
X39155000Y79190000D01*
X39155000Y80490000D01*
X40855000Y80490000D01*
X40855000Y79190000D01*
X40855000Y79190000D01*
G37*
G36*
X45300000Y79190000D02*
G01*
X43600000Y79190000D01*
X43600000Y80490000D01*
X45300000Y80490000D01*
X45300000Y79190000D01*
X45300000Y79190000D01*
G37*
G36*
X80860000Y79190000D02*
G01*
X79160000Y79190000D01*
X79160000Y80490000D01*
X80860000Y80490000D01*
X80860000Y79190000D01*
X80860000Y79190000D01*
G37*
G36*
X60040026Y81643885D02*
G01*
X60258411Y81553427D01*
X60258413Y81553426D01*
X60263540Y81550000D01*
X60454955Y81422101D01*
X60622101Y81254955D01*
X60753427Y81058411D01*
X60843885Y80840026D01*
X60890000Y80608191D01*
X60890000Y80371809D01*
X60843885Y80139974D01*
X60830845Y80108493D01*
X60753426Y79921587D01*
X60622101Y79725045D01*
X60454955Y79557899D01*
X60258413Y79426574D01*
X60258412Y79426573D01*
X60258411Y79426573D01*
X60040026Y79336115D01*
X59808191Y79290000D01*
X59571809Y79290000D01*
X59339974Y79336115D01*
X59121589Y79426573D01*
X59121588Y79426573D01*
X59121587Y79426574D01*
X58925045Y79557899D01*
X58757899Y79725045D01*
X58626574Y79921587D01*
X58549155Y80108493D01*
X58536115Y80139974D01*
X58490000Y80371809D01*
X58490000Y80608191D01*
X58536115Y80840026D01*
X58626573Y81058411D01*
X58757899Y81254955D01*
X58925045Y81422101D01*
X59116460Y81550000D01*
X59121587Y81553426D01*
X59121589Y81553427D01*
X59339974Y81643885D01*
X59571809Y81690000D01*
X59808191Y81690000D01*
X60040026Y81643885D01*
X60040026Y81643885D01*
G37*
G36*
X50005000Y79306500D02*
G01*
X49055000Y79306500D01*
X49055000Y81856500D01*
X50005000Y81856500D01*
X50005000Y79306500D01*
X50005000Y79306500D01*
G37*
G36*
X53815000Y79306500D02*
G01*
X52865000Y79306500D01*
X52865000Y81856500D01*
X53815000Y81856500D01*
X53815000Y79306500D01*
X53815000Y79306500D01*
G37*
G36*
X52545000Y79306500D02*
G01*
X51595000Y79306500D01*
X51595000Y81856500D01*
X52545000Y81856500D01*
X52545000Y79306500D01*
X52545000Y79306500D01*
G37*
G36*
X48735000Y79306500D02*
G01*
X47785000Y79306500D01*
X47785000Y81856500D01*
X48735000Y81856500D01*
X48735000Y79306500D01*
X48735000Y79306500D01*
G37*
G36*
X51275000Y79306500D02*
G01*
X50325000Y79306500D01*
X50325000Y81856500D01*
X51275000Y81856500D01*
X51275000Y79306500D01*
X51275000Y79306500D01*
G37*
G36*
X18260000Y79795000D02*
G01*
X16960000Y79795000D01*
X16960000Y81495000D01*
X18260000Y81495000D01*
X18260000Y79795000D01*
X18260000Y79795000D01*
G37*
G36*
X16060000Y79795000D02*
G01*
X14760000Y79795000D01*
X14760000Y81495000D01*
X16060000Y81495000D01*
X16060000Y79795000D01*
X16060000Y79795000D01*
G37*
G36*
X87540000Y80230000D02*
G01*
X86040000Y80230000D01*
X86040000Y82330000D01*
X87540000Y82330000D01*
X87540000Y80230000D01*
X87540000Y80230000D01*
G37*
G36*
X84140000Y80230000D02*
G01*
X82640000Y80230000D01*
X82640000Y82330000D01*
X84140000Y82330000D01*
X84140000Y80230000D01*
X84140000Y80230000D01*
G37*
G36*
X77380000Y80230000D02*
G01*
X75880000Y80230000D01*
X75880000Y82330000D01*
X77380000Y82330000D01*
X77380000Y80230000D01*
X77380000Y80230000D01*
G37*
G36*
X73980000Y80230000D02*
G01*
X72480000Y80230000D01*
X72480000Y82330000D01*
X73980000Y82330000D01*
X73980000Y80230000D01*
X73980000Y80230000D01*
G37*
G36*
X4810000Y80280000D02*
G01*
X2810000Y80280000D01*
X2810000Y82280000D01*
X4810000Y82280000D01*
X4810000Y80280000D01*
X4810000Y80280000D01*
G37*
G36*
X67525000Y80460000D02*
G01*
X65825000Y80460000D01*
X65825000Y81760000D01*
X67525000Y81760000D01*
X67525000Y80460000D01*
X67525000Y80460000D01*
G37*
G36*
X9740000Y80970000D02*
G01*
X8040000Y80970000D01*
X8040000Y82270000D01*
X9740000Y82270000D01*
X9740000Y80970000D01*
X9740000Y80970000D01*
G37*
G36*
X92937290Y83524381D02*
G01*
X93001689Y83511571D01*
X93183678Y83436189D01*
X93347463Y83326751D01*
X93486751Y83187463D01*
X93596189Y83023678D01*
X93671571Y82841689D01*
X93710000Y82648491D01*
X93710000Y82451509D01*
X93671571Y82258311D01*
X93596189Y82076322D01*
X93486751Y81912537D01*
X93347463Y81773249D01*
X93183678Y81663811D01*
X93001689Y81588429D01*
X92937290Y81575619D01*
X92808493Y81550000D01*
X92611507Y81550000D01*
X92482710Y81575619D01*
X92418311Y81588429D01*
X92236322Y81663811D01*
X92072537Y81773249D01*
X91933249Y81912537D01*
X91823811Y82076322D01*
X91748429Y82258311D01*
X91710000Y82451509D01*
X91710000Y82648491D01*
X91748429Y82841689D01*
X91823811Y83023678D01*
X91933249Y83187463D01*
X92072537Y83326751D01*
X92236322Y83436189D01*
X92418311Y83511571D01*
X92482710Y83524381D01*
X92611507Y83550000D01*
X92808493Y83550000D01*
X92937290Y83524381D01*
X92937290Y83524381D01*
G37*
G36*
X95477290Y83524381D02*
G01*
X95541689Y83511571D01*
X95723678Y83436189D01*
X95887463Y83326751D01*
X96026751Y83187463D01*
X96136189Y83023678D01*
X96211571Y82841689D01*
X96250000Y82648491D01*
X96250000Y82451509D01*
X96211571Y82258311D01*
X96136189Y82076322D01*
X96026751Y81912537D01*
X95887463Y81773249D01*
X95723678Y81663811D01*
X95541689Y81588429D01*
X95477290Y81575619D01*
X95348493Y81550000D01*
X95151507Y81550000D01*
X95022710Y81575619D01*
X94958311Y81588429D01*
X94776322Y81663811D01*
X94612537Y81773249D01*
X94473249Y81912537D01*
X94363811Y82076322D01*
X94288429Y82258311D01*
X94250000Y82451509D01*
X94250000Y82648491D01*
X94288429Y82841689D01*
X94363811Y83023678D01*
X94473249Y83187463D01*
X94612537Y83326751D01*
X94776322Y83436189D01*
X94958311Y83511571D01*
X95022710Y83524381D01*
X95151507Y83550000D01*
X95348493Y83550000D01*
X95477290Y83524381D01*
X95477290Y83524381D01*
G37*
G36*
X36410000Y82705000D02*
G01*
X34710000Y82705000D01*
X34710000Y84005000D01*
X36410000Y84005000D01*
X36410000Y82705000D01*
X36410000Y82705000D01*
G37*
G36*
X4037290Y84794381D02*
G01*
X4101689Y84781571D01*
X4283678Y84706189D01*
X4447463Y84596751D01*
X4586751Y84457463D01*
X4696189Y84293678D01*
X4771571Y84111689D01*
X4810000Y83918491D01*
X4810000Y83721509D01*
X4771571Y83528311D01*
X4696189Y83346322D01*
X4586751Y83182537D01*
X4447463Y83043249D01*
X4283678Y82933811D01*
X4101689Y82858429D01*
X4037290Y82845619D01*
X3908493Y82820000D01*
X3711507Y82820000D01*
X3582710Y82845619D01*
X3518311Y82858429D01*
X3336322Y82933811D01*
X3172537Y83043249D01*
X3033249Y83182537D01*
X2923811Y83346322D01*
X2848429Y83528311D01*
X2810000Y83721509D01*
X2810000Y83918491D01*
X2848429Y84111689D01*
X2923811Y84293678D01*
X3033249Y84457463D01*
X3172537Y84596751D01*
X3336322Y84706189D01*
X3518311Y84781571D01*
X3582710Y84794381D01*
X3711507Y84820000D01*
X3908493Y84820000D01*
X4037290Y84794381D01*
X4037290Y84794381D01*
G37*
G36*
X9740000Y83170000D02*
G01*
X8040000Y83170000D01*
X8040000Y84470000D01*
X9740000Y84470000D01*
X9740000Y83170000D01*
X9740000Y83170000D01*
G37*
G36*
X40768687Y85519973D02*
G01*
X40946274Y85484650D01*
X41137362Y85405498D01*
X41309336Y85290589D01*
X41455589Y85144336D01*
X41570498Y84972362D01*
X41649650Y84781274D01*
X41690000Y84578416D01*
X41690000Y84371584D01*
X41649650Y84168726D01*
X41570498Y83977638D01*
X41455589Y83805664D01*
X41309336Y83659411D01*
X41137362Y83544502D01*
X40946274Y83465350D01*
X40768687Y83430027D01*
X40743417Y83425000D01*
X40536583Y83425000D01*
X40511313Y83430027D01*
X40333726Y83465350D01*
X40142638Y83544502D01*
X39970664Y83659411D01*
X39824411Y83805664D01*
X39709502Y83977638D01*
X39630350Y84168726D01*
X39590000Y84371584D01*
X39590000Y84578416D01*
X39630350Y84781274D01*
X39709502Y84972362D01*
X39824411Y85144336D01*
X39970664Y85290589D01*
X40142638Y85405498D01*
X40333726Y85484650D01*
X40511313Y85519973D01*
X40536583Y85525000D01*
X40743417Y85525000D01*
X40768687Y85519973D01*
X40768687Y85519973D01*
G37*
G36*
X16060000Y83605000D02*
G01*
X14760000Y83605000D01*
X14760000Y85305000D01*
X16060000Y85305000D01*
X16060000Y83605000D01*
X16060000Y83605000D01*
G37*
G36*
X18260000Y83605000D02*
G01*
X16960000Y83605000D01*
X16960000Y85305000D01*
X18260000Y85305000D01*
X18260000Y83605000D01*
X18260000Y83605000D01*
G37*
G36*
X47205000Y83975000D02*
G01*
X45505000Y83975000D01*
X45505000Y85275000D01*
X47205000Y85275000D01*
X47205000Y83975000D01*
X47205000Y83975000D01*
G37*
G36*
X67525000Y83975000D02*
G01*
X65825000Y83975000D01*
X65825000Y85275000D01*
X67525000Y85275000D01*
X67525000Y83975000D01*
X67525000Y83975000D01*
G37*
G36*
X50380000Y83975000D02*
G01*
X48680000Y83975000D01*
X48680000Y85275000D01*
X50380000Y85275000D01*
X50380000Y83975000D01*
X50380000Y83975000D01*
G37*
G36*
X54190000Y83975000D02*
G01*
X52490000Y83975000D01*
X52490000Y85275000D01*
X54190000Y85275000D01*
X54190000Y83975000D01*
X54190000Y83975000D01*
G37*
G36*
X58000000Y83975000D02*
G01*
X56300000Y83975000D01*
X56300000Y85275000D01*
X58000000Y85275000D01*
X58000000Y83975000D01*
X58000000Y83975000D01*
G37*
G36*
X92937290Y86064381D02*
G01*
X93001689Y86051571D01*
X93183678Y85976189D01*
X93347463Y85866751D01*
X93486751Y85727463D01*
X93596189Y85563678D01*
X93661709Y85405498D01*
X93671571Y85381688D01*
X93710000Y85188493D01*
X93710000Y84991507D01*
X93706191Y84972360D01*
X93671571Y84798311D01*
X93596189Y84616322D01*
X93486751Y84452537D01*
X93347463Y84313249D01*
X93183678Y84203811D01*
X93001689Y84128429D01*
X92937290Y84115619D01*
X92808493Y84090000D01*
X92611507Y84090000D01*
X92482710Y84115619D01*
X92418311Y84128429D01*
X92236322Y84203811D01*
X92072537Y84313249D01*
X91933249Y84452537D01*
X91823811Y84616322D01*
X91748429Y84798311D01*
X91713809Y84972360D01*
X91710000Y84991507D01*
X91710000Y85188493D01*
X91748429Y85381688D01*
X91758291Y85405498D01*
X91823811Y85563678D01*
X91933249Y85727463D01*
X92072537Y85866751D01*
X92236322Y85976189D01*
X92418311Y86051571D01*
X92482710Y86064381D01*
X92611507Y86090000D01*
X92808493Y86090000D01*
X92937290Y86064381D01*
X92937290Y86064381D01*
G37*
G36*
X95477290Y86064381D02*
G01*
X95541689Y86051571D01*
X95723678Y85976189D01*
X95887463Y85866751D01*
X96026751Y85727463D01*
X96136189Y85563678D01*
X96201709Y85405498D01*
X96211571Y85381688D01*
X96250000Y85188493D01*
X96250000Y84991507D01*
X96246191Y84972360D01*
X96211571Y84798311D01*
X96136189Y84616322D01*
X96026751Y84452537D01*
X95887463Y84313249D01*
X95723678Y84203811D01*
X95541689Y84128429D01*
X95477290Y84115619D01*
X95348493Y84090000D01*
X95151507Y84090000D01*
X95022710Y84115619D01*
X94958311Y84128429D01*
X94776322Y84203811D01*
X94612537Y84313249D01*
X94473249Y84452537D01*
X94363811Y84616322D01*
X94288429Y84798311D01*
X94253809Y84972360D01*
X94250000Y84991507D01*
X94250000Y85188493D01*
X94288429Y85381688D01*
X94298291Y85405498D01*
X94363811Y85563678D01*
X94473249Y85727463D01*
X94612537Y85866751D01*
X94776322Y85976189D01*
X94958311Y86051571D01*
X95022710Y86064381D01*
X95151507Y86090000D01*
X95348493Y86090000D01*
X95477290Y86064381D01*
X95477290Y86064381D01*
G37*
G36*
X28760000Y84240000D02*
G01*
X27460000Y84240000D01*
X27460000Y85940000D01*
X28760000Y85940000D01*
X28760000Y84240000D01*
X28760000Y84240000D01*
G37*
G36*
X30960000Y84240000D02*
G01*
X29660000Y84240000D01*
X29660000Y85940000D01*
X30960000Y85940000D01*
X30960000Y84240000D01*
X30960000Y84240000D01*
G37*
G36*
X22410000Y84240000D02*
G01*
X21110000Y84240000D01*
X21110000Y85940000D01*
X22410000Y85940000D01*
X22410000Y84240000D01*
X22410000Y84240000D01*
G37*
G36*
X24610000Y84240000D02*
G01*
X23310000Y84240000D01*
X23310000Y85940000D01*
X24610000Y85940000D01*
X24610000Y84240000D01*
X24610000Y84240000D01*
G37*
G36*
X36410000Y84905000D02*
G01*
X34710000Y84905000D01*
X34710000Y86205000D01*
X36410000Y86205000D01*
X36410000Y84905000D01*
X36410000Y84905000D01*
G37*
G36*
X84140000Y85310000D02*
G01*
X82640000Y85310000D01*
X82640000Y87410000D01*
X84140000Y87410000D01*
X84140000Y85310000D01*
X84140000Y85310000D01*
G37*
G36*
X77380000Y85310000D02*
G01*
X75880000Y85310000D01*
X75880000Y87410000D01*
X77380000Y87410000D01*
X77380000Y85310000D01*
X77380000Y85310000D01*
G37*
G36*
X73980000Y85310000D02*
G01*
X72480000Y85310000D01*
X72480000Y87410000D01*
X73980000Y87410000D01*
X73980000Y85310000D01*
X73980000Y85310000D01*
G37*
G36*
X87540000Y85310000D02*
G01*
X86040000Y85310000D01*
X86040000Y87410000D01*
X87540000Y87410000D01*
X87540000Y85310000D01*
X87540000Y85310000D01*
G37*
G36*
X4037290Y87334381D02*
G01*
X4101689Y87321571D01*
X4283678Y87246189D01*
X4447463Y87136751D01*
X4586751Y86997463D01*
X4696189Y86833678D01*
X4764513Y86668728D01*
X4771571Y86651688D01*
X4806192Y86477638D01*
X4810000Y86458491D01*
X4810000Y86261509D01*
X4771571Y86068311D01*
X4696189Y85886322D01*
X4586751Y85722537D01*
X4447463Y85583249D01*
X4283678Y85473811D01*
X4101689Y85398429D01*
X4037290Y85385619D01*
X3908493Y85360000D01*
X3711507Y85360000D01*
X3582710Y85385619D01*
X3518311Y85398429D01*
X3336322Y85473811D01*
X3172537Y85583249D01*
X3033249Y85722537D01*
X2923811Y85886322D01*
X2848429Y86068311D01*
X2810000Y86261509D01*
X2810000Y86458491D01*
X2813809Y86477638D01*
X2848429Y86651688D01*
X2855487Y86668728D01*
X2923811Y86833678D01*
X3033249Y86997463D01*
X3172537Y87136751D01*
X3336322Y87246189D01*
X3518311Y87321571D01*
X3582710Y87334381D01*
X3711507Y87360000D01*
X3908493Y87360000D01*
X4037290Y87334381D01*
X4037290Y87334381D01*
G37*
G36*
X40768687Y88019973D02*
G01*
X40946274Y87984650D01*
X41137362Y87905498D01*
X41309336Y87790589D01*
X41455589Y87644336D01*
X41570498Y87472362D01*
X41649650Y87281274D01*
X41690000Y87078416D01*
X41690000Y86871584D01*
X41649650Y86668726D01*
X41570498Y86477638D01*
X41455589Y86305664D01*
X41309336Y86159411D01*
X41137362Y86044502D01*
X40946274Y85965350D01*
X40768687Y85930027D01*
X40743417Y85925000D01*
X40536583Y85925000D01*
X40511313Y85930027D01*
X40333726Y85965350D01*
X40142638Y86044502D01*
X39970664Y86159411D01*
X39824411Y86305664D01*
X39709502Y86477638D01*
X39630350Y86668726D01*
X39590000Y86871584D01*
X39590000Y87078416D01*
X39630350Y87281274D01*
X39709502Y87472362D01*
X39824411Y87644336D01*
X39970664Y87790589D01*
X40142638Y87905498D01*
X40333726Y87984650D01*
X40511313Y88019973D01*
X40536583Y88025000D01*
X40743417Y88025000D01*
X40768687Y88019973D01*
X40768687Y88019973D01*
G37*
G36*
X67525000Y86175000D02*
G01*
X65825000Y86175000D01*
X65825000Y87475000D01*
X67525000Y87475000D01*
X67525000Y86175000D01*
X67525000Y86175000D01*
G37*
G36*
X54190000Y86175000D02*
G01*
X52490000Y86175000D01*
X52490000Y87475000D01*
X54190000Y87475000D01*
X54190000Y86175000D01*
X54190000Y86175000D01*
G37*
G36*
X58000000Y86175000D02*
G01*
X56300000Y86175000D01*
X56300000Y87475000D01*
X58000000Y87475000D01*
X58000000Y86175000D01*
X58000000Y86175000D01*
G37*
G36*
X50380000Y86175000D02*
G01*
X48680000Y86175000D01*
X48680000Y87475000D01*
X50380000Y87475000D01*
X50380000Y86175000D01*
X50380000Y86175000D01*
G37*
G36*
X47205000Y86175000D02*
G01*
X45505000Y86175000D01*
X45505000Y87475000D01*
X47205000Y87475000D01*
X47205000Y86175000D01*
X47205000Y86175000D01*
G37*
G36*
X80860000Y87150000D02*
G01*
X79160000Y87150000D01*
X79160000Y88450000D01*
X80860000Y88450000D01*
X80860000Y87150000D01*
X80860000Y87150000D01*
G37*
G36*
X18260000Y87415000D02*
G01*
X16960000Y87415000D01*
X16960000Y89115000D01*
X18260000Y89115000D01*
X18260000Y87415000D01*
X18260000Y87415000D01*
G37*
G36*
X16060000Y87415000D02*
G01*
X14760000Y87415000D01*
X14760000Y89115000D01*
X16060000Y89115000D01*
X16060000Y87415000D01*
X16060000Y87415000D01*
G37*
G36*
X28760000Y88685000D02*
G01*
X27460000Y88685000D01*
X27460000Y90385000D01*
X28760000Y90385000D01*
X28760000Y88685000D01*
X28760000Y88685000D01*
G37*
G36*
X30960000Y88685000D02*
G01*
X29660000Y88685000D01*
X29660000Y90385000D01*
X30960000Y90385000D01*
X30960000Y88685000D01*
X30960000Y88685000D01*
G37*
G36*
X34475000Y88685000D02*
G01*
X33175000Y88685000D01*
X33175000Y90385000D01*
X34475000Y90385000D01*
X34475000Y88685000D01*
X34475000Y88685000D01*
G37*
G36*
X60510000Y88685000D02*
G01*
X59210000Y88685000D01*
X59210000Y90385000D01*
X60510000Y90385000D01*
X60510000Y88685000D01*
X60510000Y88685000D01*
G37*
G36*
X62710000Y88685000D02*
G01*
X61410000Y88685000D01*
X61410000Y90385000D01*
X62710000Y90385000D01*
X62710000Y88685000D01*
X62710000Y88685000D01*
G37*
G36*
X36675000Y88685000D02*
G01*
X35375000Y88685000D01*
X35375000Y90385000D01*
X36675000Y90385000D01*
X36675000Y88685000D01*
X36675000Y88685000D01*
G37*
G36*
X80860000Y89350000D02*
G01*
X79160000Y89350000D01*
X79160000Y90650000D01*
X80860000Y90650000D01*
X80860000Y89350000D01*
X80860000Y89350000D01*
G37*
G36*
X77380000Y90390000D02*
G01*
X75880000Y90390000D01*
X75880000Y92490000D01*
X77380000Y92490000D01*
X77380000Y90390000D01*
X77380000Y90390000D01*
G37*
G36*
X84140000Y90390000D02*
G01*
X82640000Y90390000D01*
X82640000Y92490000D01*
X84140000Y92490000D01*
X84140000Y90390000D01*
X84140000Y90390000D01*
G37*
G36*
X73980000Y90390000D02*
G01*
X72480000Y90390000D01*
X72480000Y92490000D01*
X73980000Y92490000D01*
X73980000Y90390000D01*
X73980000Y90390000D01*
G37*
G36*
X87540000Y90390000D02*
G01*
X86040000Y90390000D01*
X86040000Y92490000D01*
X87540000Y92490000D01*
X87540000Y90390000D01*
X87540000Y90390000D01*
G37*
G36*
X24960026Y93863885D02*
G01*
X25178411Y93773427D01*
X25178413Y93773426D01*
X25374955Y93642101D01*
X25542101Y93474955D01*
X25673427Y93278411D01*
X25763885Y93060026D01*
X25810000Y92828191D01*
X25810000Y92591809D01*
X25763885Y92359974D01*
X25719498Y92252815D01*
X25673426Y92141587D01*
X25542101Y91945045D01*
X25374955Y91777899D01*
X25178413Y91646574D01*
X25178412Y91646573D01*
X25178411Y91646573D01*
X24960026Y91556115D01*
X24728191Y91510000D01*
X24491809Y91510000D01*
X24259974Y91556115D01*
X24041589Y91646573D01*
X24041588Y91646573D01*
X24041587Y91646574D01*
X23845045Y91777899D01*
X23677899Y91945045D01*
X23546574Y92141587D01*
X23500502Y92252815D01*
X23456115Y92359974D01*
X23410000Y92591809D01*
X23410000Y92828191D01*
X23456115Y93060026D01*
X23546573Y93278411D01*
X23677899Y93474955D01*
X23845045Y93642101D01*
X24041587Y93773426D01*
X24041589Y93773427D01*
X24259974Y93863885D01*
X24491809Y93910000D01*
X24728191Y93910000D01*
X24960026Y93863885D01*
X24960026Y93863885D01*
G37*
G36*
X21460026Y93863885D02*
G01*
X21678411Y93773427D01*
X21678413Y93773426D01*
X21874955Y93642101D01*
X22042101Y93474955D01*
X22173427Y93278411D01*
X22263885Y93060026D01*
X22310000Y92828191D01*
X22310000Y92591809D01*
X22263885Y92359974D01*
X22219498Y92252815D01*
X22173426Y92141587D01*
X22042101Y91945045D01*
X21874955Y91777899D01*
X21678413Y91646574D01*
X21678412Y91646573D01*
X21678411Y91646573D01*
X21460026Y91556115D01*
X21228191Y91510000D01*
X20991809Y91510000D01*
X20759974Y91556115D01*
X20541589Y91646573D01*
X20541588Y91646573D01*
X20541587Y91646574D01*
X20345045Y91777899D01*
X20177899Y91945045D01*
X20046574Y92141587D01*
X20000502Y92252815D01*
X19956115Y92359974D01*
X19910000Y92591809D01*
X19910000Y92828191D01*
X19956115Y93060026D01*
X20046573Y93278411D01*
X20177899Y93474955D01*
X20345045Y93642101D01*
X20541587Y93773426D01*
X20541589Y93773427D01*
X20759974Y93863885D01*
X20991809Y93910000D01*
X21228191Y93910000D01*
X21460026Y93863885D01*
X21460026Y93863885D01*
G37*
G36*
X15020000Y91530000D02*
G01*
X12920000Y91530000D01*
X12920000Y93030000D01*
X15020000Y93030000D01*
X15020000Y91530000D01*
X15020000Y91530000D01*
G37*
G36*
X5604780Y98040434D02*
G01*
X5904237Y97980869D01*
X6468401Y97747185D01*
X6976135Y97407928D01*
X7407928Y96976135D01*
X7747185Y96468401D01*
X7980869Y95904237D01*
X7984206Y95887461D01*
X8100000Y95305325D01*
X8100000Y94694675D01*
X8070906Y94548411D01*
X7980869Y94095763D01*
X7747185Y93531599D01*
X7407928Y93023865D01*
X6976135Y92592072D01*
X6468401Y92252815D01*
X5904237Y92019131D01*
X5604780Y91959565D01*
X5305325Y91900000D01*
X4694675Y91900000D01*
X4395220Y91959565D01*
X4095763Y92019131D01*
X3531599Y92252815D01*
X3023865Y92592072D01*
X2592072Y93023865D01*
X2252815Y93531599D01*
X2019131Y94095763D01*
X1929094Y94548411D01*
X1900000Y94694675D01*
X1900000Y95305325D01*
X2015794Y95887461D01*
X2019131Y95904237D01*
X2252815Y96468401D01*
X2592072Y96976135D01*
X3023865Y97407928D01*
X3531599Y97747185D01*
X4095763Y97980869D01*
X4395220Y98040434D01*
X4694675Y98100000D01*
X5305325Y98100000D01*
X5604780Y98040434D01*
X5604780Y98040434D01*
G37*
G36*
X95604780Y98040434D02*
G01*
X95904237Y97980869D01*
X96468401Y97747185D01*
X96976135Y97407928D01*
X97407928Y96976135D01*
X97747185Y96468401D01*
X97980869Y95904237D01*
X97984206Y95887461D01*
X98100000Y95305325D01*
X98100000Y94694675D01*
X98070906Y94548411D01*
X97980869Y94095763D01*
X97747185Y93531599D01*
X97407928Y93023865D01*
X96976135Y92592072D01*
X96468401Y92252815D01*
X95904237Y92019131D01*
X95604780Y91959565D01*
X95305325Y91900000D01*
X94694675Y91900000D01*
X94395220Y91959565D01*
X94095763Y92019131D01*
X93531599Y92252815D01*
X93023865Y92592072D01*
X92592072Y93023865D01*
X92252815Y93531599D01*
X92019131Y94095763D01*
X91929094Y94548411D01*
X91900000Y94694675D01*
X91900000Y95305325D01*
X92015794Y95887461D01*
X92019131Y95904237D01*
X92252815Y96468401D01*
X92592072Y96976135D01*
X93023865Y97407928D01*
X93531599Y97747185D01*
X94095763Y97980869D01*
X94395220Y98040434D01*
X94694675Y98100000D01*
X95305325Y98100000D01*
X95604780Y98040434D01*
X95604780Y98040434D01*
G37*
G36*
X68775026Y95133885D02*
G01*
X68993411Y95043427D01*
X68993413Y95043426D01*
X69120795Y94958312D01*
X69189955Y94912101D01*
X69357101Y94744955D01*
X69488427Y94548411D01*
X69578885Y94330026D01*
X69625000Y94098191D01*
X69625000Y93861809D01*
X69578885Y93629974D01*
X69514674Y93474955D01*
X69488426Y93411587D01*
X69357101Y93215045D01*
X69189955Y93047899D01*
X68993413Y92916574D01*
X68993412Y92916573D01*
X68993411Y92916573D01*
X68775026Y92826115D01*
X68543191Y92780000D01*
X68306809Y92780000D01*
X68074974Y92826115D01*
X67856589Y92916573D01*
X67856588Y92916573D01*
X67856587Y92916574D01*
X67660045Y93047899D01*
X67492899Y93215045D01*
X67361574Y93411587D01*
X67335326Y93474955D01*
X67271115Y93629974D01*
X67225000Y93861809D01*
X67225000Y94098191D01*
X67271115Y94330026D01*
X67361573Y94548411D01*
X67492899Y94744955D01*
X67660045Y94912101D01*
X67729205Y94958312D01*
X67856587Y95043426D01*
X67856589Y95043427D01*
X68074974Y95133885D01*
X68306809Y95180000D01*
X68543191Y95180000D01*
X68775026Y95133885D01*
X68775026Y95133885D01*
G37*
G36*
X65275026Y95133885D02*
G01*
X65493411Y95043427D01*
X65493413Y95043426D01*
X65620795Y94958312D01*
X65689955Y94912101D01*
X65857101Y94744955D01*
X65988427Y94548411D01*
X66078885Y94330026D01*
X66125000Y94098191D01*
X66125000Y93861809D01*
X66078885Y93629974D01*
X66014674Y93474955D01*
X65988426Y93411587D01*
X65857101Y93215045D01*
X65689955Y93047899D01*
X65493413Y92916574D01*
X65493412Y92916573D01*
X65493411Y92916573D01*
X65275026Y92826115D01*
X65043191Y92780000D01*
X64806809Y92780000D01*
X64574974Y92826115D01*
X64356589Y92916573D01*
X64356588Y92916573D01*
X64356587Y92916574D01*
X64160045Y93047899D01*
X63992899Y93215045D01*
X63861574Y93411587D01*
X63835326Y93474955D01*
X63771115Y93629974D01*
X63725000Y93861809D01*
X63725000Y94098191D01*
X63771115Y94330026D01*
X63861573Y94548411D01*
X63992899Y94744955D01*
X64160045Y94912101D01*
X64229205Y94958312D01*
X64356587Y95043426D01*
X64356589Y95043427D01*
X64574974Y95133885D01*
X64806809Y95180000D01*
X65043191Y95180000D01*
X65275026Y95133885D01*
X65275026Y95133885D01*
G37*
G36*
X37530000Y92850000D02*
G01*
X36130000Y92850000D01*
X36130000Y94250000D01*
X37530000Y94250000D01*
X37530000Y92850000D01*
X37530000Y92850000D01*
G37*
G36*
X61025000Y92850000D02*
G01*
X59625000Y92850000D01*
X59625000Y94250000D01*
X61025000Y94250000D01*
X61025000Y92850000D01*
X61025000Y92850000D01*
G37*
G36*
X42772290Y96224381D02*
G01*
X42836689Y96211571D01*
X43018678Y96136189D01*
X43182463Y96026751D01*
X43321751Y95887463D01*
X43431189Y95723678D01*
X43506571Y95541689D01*
X43506571Y95541688D01*
X43545000Y95348493D01*
X43545000Y95151507D01*
X43525598Y95053968D01*
X43506571Y94958311D01*
X43431189Y94776322D01*
X43321751Y94612537D01*
X43182463Y94473249D01*
X43018678Y94363811D01*
X42836689Y94288429D01*
X42772290Y94275619D01*
X42643493Y94250000D01*
X42446507Y94250000D01*
X42317710Y94275619D01*
X42253311Y94288429D01*
X42071322Y94363811D01*
X41907537Y94473249D01*
X41768249Y94612537D01*
X41658811Y94776322D01*
X41583429Y94958311D01*
X41564402Y95053968D01*
X41545000Y95151507D01*
X41545000Y95348493D01*
X41583429Y95541688D01*
X41583429Y95541689D01*
X41658811Y95723678D01*
X41768249Y95887463D01*
X41907537Y96026751D01*
X42071322Y96136189D01*
X42253311Y96211571D01*
X42317710Y96224381D01*
X42446507Y96250000D01*
X42643493Y96250000D01*
X42772290Y96224381D01*
X42772290Y96224381D01*
G37*
G36*
X56107290Y96224381D02*
G01*
X56171689Y96211571D01*
X56353678Y96136189D01*
X56517463Y96026751D01*
X56656751Y95887463D01*
X56766189Y95723678D01*
X56841571Y95541689D01*
X56841571Y95541688D01*
X56880000Y95348493D01*
X56880000Y95151507D01*
X56860598Y95053968D01*
X56841571Y94958311D01*
X56766189Y94776322D01*
X56656751Y94612537D01*
X56517463Y94473249D01*
X56353678Y94363811D01*
X56171689Y94288429D01*
X56107290Y94275619D01*
X55978493Y94250000D01*
X55781507Y94250000D01*
X55652710Y94275619D01*
X55588311Y94288429D01*
X55406322Y94363811D01*
X55242537Y94473249D01*
X55103249Y94612537D01*
X54993811Y94776322D01*
X54918429Y94958311D01*
X54899402Y95053968D01*
X54880000Y95151507D01*
X54880000Y95348493D01*
X54918429Y95541688D01*
X54918429Y95541689D01*
X54993811Y95723678D01*
X55103249Y95887463D01*
X55242537Y96026751D01*
X55406322Y96136189D01*
X55588311Y96211571D01*
X55652710Y96224381D01*
X55781507Y96250000D01*
X55978493Y96250000D01*
X56107290Y96224381D01*
X56107290Y96224381D01*
G37*
G36*
X53701032Y96235531D02*
G01*
X53795284Y96206940D01*
X53889535Y96178349D01*
X53889537Y96178348D01*
X54063258Y96085493D01*
X54215528Y95960528D01*
X54340493Y95808258D01*
X54414010Y95670716D01*
X54433349Y95634535D01*
X54456674Y95557643D01*
X54490531Y95446032D01*
X54509838Y95250000D01*
X54490531Y95053968D01*
X54433348Y94865463D01*
X54340493Y94691742D01*
X54215528Y94539472D01*
X54063258Y94414507D01*
X53905204Y94330026D01*
X53889535Y94321651D01*
X53795285Y94293061D01*
X53701032Y94264469D01*
X53554124Y94250000D01*
X51855876Y94250000D01*
X51708968Y94264469D01*
X51614715Y94293061D01*
X51520465Y94321651D01*
X51504796Y94330026D01*
X51346742Y94414507D01*
X51194472Y94539472D01*
X51069507Y94691742D01*
X50976652Y94865463D01*
X50919469Y95053968D01*
X50900162Y95250000D01*
X50919469Y95446032D01*
X50953326Y95557643D01*
X50976651Y95634535D01*
X50995990Y95670716D01*
X51069507Y95808258D01*
X51194472Y95960528D01*
X51346742Y96085493D01*
X51520463Y96178348D01*
X51520465Y96178349D01*
X51614716Y96206940D01*
X51708968Y96235531D01*
X51855876Y96250000D01*
X53554124Y96250000D01*
X53701032Y96235531D01*
X53701032Y96235531D01*
G37*
G36*
X46716032Y96235531D02*
G01*
X46810284Y96206940D01*
X46904535Y96178349D01*
X46904537Y96178348D01*
X47078258Y96085493D01*
X47230528Y95960528D01*
X47355493Y95808258D01*
X47429010Y95670716D01*
X47448349Y95634535D01*
X47471674Y95557643D01*
X47505531Y95446032D01*
X47524838Y95250000D01*
X47505531Y95053968D01*
X47448348Y94865463D01*
X47355493Y94691742D01*
X47230528Y94539472D01*
X47078258Y94414507D01*
X46920204Y94330026D01*
X46904535Y94321651D01*
X46810285Y94293061D01*
X46716032Y94264469D01*
X46569124Y94250000D01*
X44870876Y94250000D01*
X44723968Y94264469D01*
X44629715Y94293061D01*
X44535465Y94321651D01*
X44519796Y94330026D01*
X44361742Y94414507D01*
X44209472Y94539472D01*
X44084507Y94691742D01*
X43991652Y94865463D01*
X43934469Y95053968D01*
X43915162Y95250000D01*
X43934469Y95446032D01*
X43968326Y95557643D01*
X43991651Y95634535D01*
X44010990Y95670716D01*
X44084507Y95808258D01*
X44209472Y95960528D01*
X44361742Y96085493D01*
X44535463Y96178348D01*
X44535465Y96178349D01*
X44629716Y96206940D01*
X44723968Y96235531D01*
X44870876Y96250000D01*
X46569124Y96250000D01*
X46716032Y96235531D01*
X46716032Y96235531D01*
G37*
G36*
X83820000Y94615000D02*
G01*
X75565000Y94615000D01*
X75565000Y97155000D01*
X83820000Y97155000D01*
X83820000Y94615000D01*
X83820000Y94615000D01*
G37*
G36*
X15020000Y94930000D02*
G01*
X12920000Y94930000D01*
X12920000Y96430000D01*
X15020000Y96430000D01*
X15020000Y94930000D01*
X15020000Y94930000D01*
G37*
G36*
X90437534Y98442357D02*
G01*
X90710515Y98329284D01*
X90710517Y98329283D01*
X90834190Y98246647D01*
X90956193Y98165127D01*
X91165127Y97956193D01*
X91329284Y97710515D01*
X91442357Y97437534D01*
X91500000Y97147738D01*
X91500000Y96852262D01*
X91442357Y96562466D01*
X91329284Y96289485D01*
X91329283Y96289483D01*
X91165126Y96043806D01*
X90956194Y95834874D01*
X90710517Y95670717D01*
X90710516Y95670716D01*
X90710515Y95670716D01*
X90437534Y95557643D01*
X90147738Y95500000D01*
X89852262Y95500000D01*
X89562466Y95557643D01*
X89289485Y95670716D01*
X89289484Y95670716D01*
X89289483Y95670717D01*
X89043806Y95834874D01*
X88834874Y96043806D01*
X88670717Y96289483D01*
X88670716Y96289485D01*
X88557643Y96562466D01*
X88500000Y96852262D01*
X88500000Y97147738D01*
X88557643Y97437534D01*
X88670716Y97710515D01*
X88834873Y97956193D01*
X89043807Y98165127D01*
X89165810Y98246647D01*
X89289483Y98329283D01*
X89289485Y98329284D01*
X89562466Y98442357D01*
X89852262Y98500000D01*
X90147738Y98500000D01*
X90437534Y98442357D01*
X90437534Y98442357D01*
G37*
G36*
X33500000Y95670000D02*
G01*
X32200000Y95670000D01*
X32200000Y97370000D01*
X33500000Y97370000D01*
X33500000Y95670000D01*
X33500000Y95670000D01*
G37*
G36*
X31300000Y95670000D02*
G01*
X30000000Y95670000D01*
X30000000Y97370000D01*
X31300000Y97370000D01*
X31300000Y95670000D01*
X31300000Y95670000D01*
G37*
G36*
X61025000Y96250000D02*
G01*
X59625000Y96250000D01*
X59625000Y97650000D01*
X61025000Y97650000D01*
X61025000Y96250000D01*
X61025000Y96250000D01*
G37*
G36*
X37530000Y96250000D02*
G01*
X36130000Y96250000D01*
X36130000Y97650000D01*
X37530000Y97650000D01*
X37530000Y96250000D01*
X37530000Y96250000D01*
G37*
M02*
