G04 #@! TF.GenerationSoftware,KiCad,Pcbnew,(5.1.0)-1*
G04 #@! TF.CreationDate,2019-04-03T21:41:51+01:00*
G04 #@! TF.ProjectId,DAC-AK4458-1.0,4441432d-414b-4343-9435-382d312e302e,1.0*
G04 #@! TF.SameCoordinates,PX6422c40PY8f0d180*
G04 #@! TF.FileFunction,Paste,Top*
G04 #@! TF.FilePolarity,Positive*
%FSLAX46Y46*%
G04 Gerber Fmt 4.6, Leading zero omitted, Abs format (unit mm)*
G04 Created by KiCad (PCBNEW (5.1.0)-1) date 2019-04-03 21:41:51*
%MOMM*%
%LPD*%
G04 APERTURE LIST*
%ADD10C,0.150000*%
%ADD11R,1.300000X0.900000*%
%ADD12R,3.600000X2.200000*%
%ADD13R,0.550000X2.150000*%
%ADD14R,0.900000X1.300000*%
%ADD15R,1.000000X1.000000*%
%ADD16R,1.100000X1.700000*%
%ADD17R,0.900000X0.900000*%
%ADD18C,1.000000*%
%ADD19R,1.700000X1.100000*%
%ADD20C,2.000000*%
%ADD21R,0.650000X1.200000*%
%ADD22O,2.200000X0.240000*%
%ADD23O,0.240000X2.200000*%
%ADD24R,0.900000X1.200000*%
%ADD25R,0.900000X0.800000*%
G04 APERTURE END LIST*
D10*
X100000000Y0D02*
X0Y0D01*
X100000000Y100000000D02*
X100000000Y0D01*
X0Y100000000D02*
X100000000Y100000000D01*
X0Y0D02*
X0Y100000000D01*
D11*
X57150000Y84625000D03*
X57150000Y86825000D03*
D12*
X50800000Y74320400D03*
D13*
X50800000Y80581500D03*
X48260000Y80581500D03*
X53340000Y80581500D03*
X52070000Y80581500D03*
X49530000Y80581500D03*
D14*
X15410000Y84455000D03*
X17610000Y84455000D03*
D11*
X24130000Y73320000D03*
X24130000Y71120000D03*
D15*
X36830000Y96950000D03*
X36830000Y93550000D03*
D14*
X15410000Y80645000D03*
X17610000Y80645000D03*
X17610000Y88265000D03*
X15410000Y88265000D03*
X37295000Y56515000D03*
X35095000Y56515000D03*
D11*
X40005000Y79840000D03*
X40005000Y77640000D03*
X66675000Y86825000D03*
X66675000Y84625000D03*
X80010000Y90000000D03*
X80010000Y87800000D03*
D16*
X83390000Y91440000D03*
X86790000Y91440000D03*
X83390000Y86360000D03*
X86790000Y86360000D03*
X83390000Y81280000D03*
X86790000Y81280000D03*
X83390000Y76200000D03*
X86790000Y76200000D03*
X83390000Y71120000D03*
X86790000Y71120000D03*
X83390000Y66040000D03*
X86790000Y66040000D03*
X83390000Y60960000D03*
X86790000Y60960000D03*
X83390000Y55880000D03*
X86790000Y55880000D03*
X83390000Y44450000D03*
X86790000Y44450000D03*
X83390000Y39370000D03*
X86790000Y39370000D03*
X83390000Y34290000D03*
X86790000Y34290000D03*
X83390000Y29210000D03*
X86790000Y29210000D03*
X83390000Y24130000D03*
X86790000Y24130000D03*
X83390000Y19050000D03*
X86790000Y19050000D03*
X73230000Y91440000D03*
X76630000Y91440000D03*
X73230000Y86360000D03*
X76630000Y86360000D03*
X73230000Y81280000D03*
X76630000Y81280000D03*
X73230000Y76200000D03*
X76630000Y76200000D03*
X73230000Y71120000D03*
X76630000Y71120000D03*
X73230000Y66040000D03*
X76630000Y66040000D03*
X73230000Y60960000D03*
X76630000Y60960000D03*
X73230000Y55880000D03*
X76630000Y55880000D03*
X73230000Y44450000D03*
X76630000Y44450000D03*
X73230000Y39370000D03*
X76630000Y39370000D03*
X73230000Y34290000D03*
X76630000Y34290000D03*
X73230000Y29210000D03*
X76630000Y29210000D03*
X73230000Y24130000D03*
X76630000Y24130000D03*
X73230000Y19050000D03*
X76630000Y19050000D03*
D11*
X80010000Y79840000D03*
X80010000Y77640000D03*
X80010000Y69680000D03*
X80010000Y67480000D03*
X80010000Y59520000D03*
X80010000Y57320000D03*
X80010000Y43010000D03*
X80010000Y40810000D03*
X80010000Y32850000D03*
X80010000Y30650000D03*
X80010000Y22690000D03*
X80010000Y20490000D03*
D17*
X45974000Y57785000D03*
X44074000Y57785000D03*
D11*
X35560000Y74125000D03*
X35560000Y71925000D03*
X35560000Y77640000D03*
X35560000Y79840000D03*
D14*
X74211000Y48514000D03*
X76411000Y48514000D03*
D11*
X33655000Y62822000D03*
X33655000Y60622000D03*
D16*
X83390000Y13970000D03*
X86790000Y13970000D03*
X83390000Y8890000D03*
X86790000Y8890000D03*
X73230000Y13970000D03*
X76630000Y13970000D03*
X73230000Y8890000D03*
X76630000Y8890000D03*
D14*
X43010000Y73660000D03*
X40810000Y73660000D03*
D11*
X66675000Y75395000D03*
X66675000Y73195000D03*
D14*
X33825000Y89535000D03*
X36025000Y89535000D03*
X12870000Y19050000D03*
X15070000Y19050000D03*
D11*
X31750000Y11600000D03*
X31750000Y13800000D03*
D14*
X15070000Y67310000D03*
X12870000Y67310000D03*
X12870000Y59690000D03*
X15070000Y59690000D03*
X12870000Y63500000D03*
X15070000Y63500000D03*
X12870000Y71120000D03*
X15070000Y71120000D03*
X12870000Y40640000D03*
X15070000Y40640000D03*
D11*
X26670000Y13800000D03*
X26670000Y11600000D03*
D14*
X15070000Y22860000D03*
X12870000Y22860000D03*
X76411000Y51943000D03*
X74211000Y51943000D03*
X28110000Y64770000D03*
X30310000Y64770000D03*
X32850000Y96520000D03*
X30650000Y96520000D03*
D11*
X35560000Y83355000D03*
X35560000Y85555000D03*
X61023500Y51943000D03*
X61023500Y49743000D03*
D14*
X79418000Y48514000D03*
X81618000Y48514000D03*
D11*
X41275000Y62822000D03*
X41275000Y60622000D03*
X37465000Y62822000D03*
X37465000Y60622000D03*
D14*
X30310000Y58420000D03*
X28110000Y58420000D03*
D11*
X80010000Y12530000D03*
X80010000Y10330000D03*
X49530000Y84625000D03*
X49530000Y86825000D03*
X46355000Y84625000D03*
X46355000Y86825000D03*
D14*
X28110000Y80010000D03*
X30310000Y80010000D03*
X28110000Y74930000D03*
X30310000Y74930000D03*
X28110000Y69850000D03*
X30310000Y69850000D03*
X28110000Y85090000D03*
X30310000Y85090000D03*
X23960000Y85090000D03*
X21760000Y85090000D03*
D11*
X66675000Y81110000D03*
X66675000Y78910000D03*
D14*
X28110000Y89535000D03*
X30310000Y89535000D03*
X62060000Y89535000D03*
X59860000Y89535000D03*
D11*
X53340000Y84625000D03*
X53340000Y86825000D03*
D14*
X12870000Y48260000D03*
X15070000Y48260000D03*
X12870000Y44450000D03*
X15070000Y44450000D03*
D11*
X16510000Y11600000D03*
X16510000Y13800000D03*
X21590000Y11600000D03*
X21590000Y13800000D03*
D14*
X12870000Y26670000D03*
X15070000Y26670000D03*
D11*
X19050000Y73320000D03*
X19050000Y71120000D03*
X8890000Y81620000D03*
X8890000Y83820000D03*
D15*
X60325000Y96950000D03*
X60325000Y93550000D03*
D18*
X90000000Y97000000D03*
X14000000Y3000000D03*
D19*
X13970000Y95680000D03*
X13970000Y92280000D03*
D14*
X26500000Y48260000D03*
X24300000Y48260000D03*
X26500000Y44450000D03*
X24300000Y44450000D03*
X26500000Y34290000D03*
X24300000Y34290000D03*
D11*
X20955000Y38270000D03*
X20955000Y40470000D03*
D20*
X31115000Y55245000D03*
D21*
X23810000Y79940000D03*
X22860000Y79940000D03*
X21910000Y79940000D03*
X21910000Y77540000D03*
X23810000Y77540000D03*
D11*
X44450000Y79840000D03*
X44450000Y77640000D03*
X36830000Y13800000D03*
X36830000Y11600000D03*
D18*
X19050000Y68580000D03*
D11*
X45085000Y62822000D03*
X45085000Y60622000D03*
X64389000Y51943000D03*
X64389000Y49743000D03*
X35100000Y46300000D03*
X35100000Y44100000D03*
X38400000Y46300000D03*
X38400000Y44100000D03*
X41700000Y46300000D03*
X41700000Y44100000D03*
D22*
X46750000Y53550000D03*
X46750000Y53050000D03*
X46750000Y52550000D03*
X46750000Y52050000D03*
X46750000Y51550000D03*
X46750000Y51050000D03*
X46750000Y50550000D03*
X46750000Y50050000D03*
X46750000Y49550000D03*
X46750000Y49050000D03*
X46750000Y48550000D03*
X46750000Y48050000D03*
D23*
X48050000Y46750000D03*
X48550000Y46750000D03*
X49050000Y46750000D03*
X49550000Y46750000D03*
X50050000Y46750000D03*
X50550000Y46750000D03*
X51050000Y46750000D03*
X51550000Y46750000D03*
X52050000Y46750000D03*
X52550000Y46750000D03*
X53050000Y46750000D03*
X53550000Y46750000D03*
D22*
X54850000Y48050000D03*
X54850000Y48550000D03*
X54850000Y49050000D03*
X54850000Y49550000D03*
X54850000Y50050000D03*
X54850000Y50550000D03*
X54850000Y51050000D03*
X54850000Y51550000D03*
X54850000Y52050000D03*
X54850000Y52550000D03*
X54850000Y53050000D03*
X54850000Y53550000D03*
D23*
X53550000Y54850000D03*
X53050000Y54850000D03*
X52550000Y54850000D03*
X52050000Y54850000D03*
X51550000Y54850000D03*
X51050000Y54850000D03*
X50550000Y54850000D03*
X50050000Y54850000D03*
X49550000Y54850000D03*
X49050000Y54850000D03*
X48550000Y54850000D03*
X48050000Y54850000D03*
D24*
X24500000Y40120000D03*
D25*
X24500000Y38420000D03*
X26300000Y38420000D03*
X26300000Y40320000D03*
D11*
X41250000Y55150000D03*
X41250000Y57350000D03*
D14*
X45550000Y40640000D03*
X43350000Y40640000D03*
X15070000Y36830000D03*
X12870000Y36830000D03*
D11*
X48750000Y60650000D03*
X48750000Y62850000D03*
M02*
